<?xml version="1.0" encoding="utf-8"?>
<!-- Generator: Adobe Illustrator 23.0.4, SVG Export Plug-In . SVG Version: 6.00 Build 0)  -->
<svg version="1.1" id="Layer_1" xmlns="http://www.w3.org/2000/svg" xmlns:xlink="http://www.w3.org/1999/xlink" x="0px" y="0px"
	 viewBox="0 0 32 32" style="enable-background:new 0 0 32 32;" xml:space="preserve">
<style type="text/css">
	.st0{fill:#FFFFFF;}
	.st1{fill:none;stroke:#3D9AE2;stroke-width:0;stroke-linecap:round;stroke-linejoin:round;}
</style>
<title>Artboard 1</title>
<g>
	<path class="st0" d="M30.2,0H1.8C0.8,0,0,0.8,0,1.8v28.5c0,1,0.8,1.8,1.8,1.8h4.2h11.2h5h6.6h1.6c1,0,1.8-0.8,1.8-1.8V1.8
		C32,0.8,31.2,0,30.2,0z M10.4,25.8H6V12.6h4.4V25.8z M8.2,10.8L8.2,10.8c-1.5,0-2.5-1-2.5-2.3c0-1.3,1-2.3,2.5-2.3
		c1.5,0,2.4,1,2.5,2.3C10.7,9.7,9.7,10.8,8.2,10.8z M26.3,25.8h-4.4v-7.1c0-1.8-0.6-3-2.2-3c-1.2,0-1.9,0.8-2.3,1.6
		c-0.1,0.3-0.1,0.7-0.1,1.1v7.4v0v0h-4.4c0,0,0.1-12,0-13.3h4.4v1.9c0.6-0.9,1.6-2.2,4-2.2c2.9,0,5.1,1.9,5.1,6V25.8z"/>
	<path class="st0" d="M17.2,14.5L17.2,14.5C17.2,14.5,17.2,14.5,17.2,14.5L17.2,14.5z"/>
	<line class="st1" x1="17.2" y1="25.8" x2="17.2" y2="25.8"/>
</g>
</svg>
