<svg xmlns="http://www.w3.org/2000/svg" width="23.056" height="28.209" viewBox="0 0 23.056 28.209">
  <g id="Group_6136" data-name="Group 6136" transform="translate(-917.148 -605.002)">
    <path id="Path_9235" data-name="Path 9235" d="M943.162,612.212v-.155H936.97a.745.745,0,0,1-.852-.848V605H924.91c-.053,0-.106,0-.158,0a1.4,1.4,0,0,0-.98.479,1.465,1.465,0,0,0-.345,1.024q0,2.562,0,5.125l8.488,11.722a.843.843,0,0,1,.145.341l.456,2.05.005.024,0,.024a.948.948,0,0,1-.233.752,1.062,1.062,0,0,1-.787.37.893.893,0,0,1-.4-.093l-.022-.011-.021-.013-1.805-1.073a.846.846,0,0,1-.279-.245l-5.549-7.664q0,6.94,0,13.88c0,.04,0,.08,0,.119a1.39,1.39,0,0,0,1.435,1.393q8.433,0,16.866,0a1.573,1.573,0,0,0,.365-.041,1.423,1.423,0,0,0,1.071-1.434Q943.156,621.974,943.162,612.212Z" transform="translate(-2.962 0)" fill="#4e4b6d"/>
    <path id="Path_9236" data-name="Path 9236" d="M949.646,605.5v5.636h5.6Z" transform="translate(-15.332 -0.234)" fill="#4e4b6d"/>
    <path id="Path_9237" data-name="Path 9237" d="M926.535,630.225a.2.2,0,0,0,.072.061l1.819,1.082a.26.26,0,0,0,.116.026.39.39,0,0,0,.384-.388l-.46-2.066a.194.194,0,0,0-.035-.088l-9.35-12.912a.226.226,0,0,0-.188-.086.4.4,0,0,0-.227.079l-1.359.984a.3.3,0,0,0-.123.4Z" transform="translate(0 -5.119)" fill="#4e4b6d"/>
  </g>
</svg>
