<svg xmlns="http://www.w3.org/2000/svg" viewBox="0 0 402.062 464.674"><defs><style>.a{opacity:0.403;}.b{fill:#d1d3d4;}.c{fill:#a7a9ac;}</style></defs><g class="a" transform="translate(0 0)"><path class="b" d="M344.4,74.127c10.344-29.888-3.879-89.889-139.2-50.253C149.281,40.26,113.8,39.763,80.154,35.56c-42.769-5.346-92.3,13.154-73.726,92.1,20.265,86.084,24.89,139.893.05,207.279-10.866,29.466-8.33,66.142,9.5,92.549,15.541,23.025,43.838,23.15,68.6,19.37,50.676-7.733,101.277-17.7,152.8-16.287,23.224.622,46.324,3.382,69.524,4.327,16.063.671,32.648.4,47.493-5.794,21.26-8.852,36.353-29.167,42.818-51.248,11.737-39.934,1.169-88.074-21.434-122.388-7.36-11.189-15.367-21.981-22.155-33.544-15.118-25.661-23.2-54.033-22.155-83.946.771-21.807,5.794-43.291,12.93-63.855" transform="translate(0.009 15.961)"/><path class="c" d="M332.344,445.078a65.171,65.171,0,0,0,17.232-10.692,158.079,158.079,0,0,0-25.736-.4l.3-.05c.249-.05.646-.646,1.044-1.417.124-.249.274-.522.4-.821.274-.547.522-1.144.746-1.616s.4-.87.472-1.069c.448-.9.9-1.79,1.293-2.71s.771-1.84,1.144-2.785a2.186,2.186,0,0,0,.124-.373c.3-.821.572-1.616.821-2.462.149-.472.273-.945.4-1.442q.336-1.305.6-2.611a33.97,33.97,0,0,0,.6-4.749c.05-.92.05-1.79.025-2.686,0-.075-.025-.149-.025-.2a25.934,25.934,0,0,0-.6-4.451,20.94,20.94,0,0,0-.771-2.785,30.236,30.236,0,0,0-5.023-8.877c-.124-.174-.274-.348-.423-.547a6.694,6.694,0,0,0-1.442-1.641s-.149-.1-.149-.6a3.2,3.2,0,0,1,.075-.622,24,24,0,0,1,2.611-6.341c3.605-6.838-1.268-15.491-2.884-17.829s-1.616-4.675-1.666-7.733c-.025-3.058-1.044-18.724-2.312-25.935,6.664-12.607-3.233-26.283-3.233-26.283v-7.982c0-5.819-5.4-48.363-7.559-52.516s-8.827-18.55-13.875-28.272c-3.506-6.763-8.678-7.136-11.488-6.739-3.431-3.506-13.228-4.948-18.7-5.943-3.108-.547-7.808-1.616-12.433-2.934a.932.932,0,0,1,.025-.249c.2-17.456-14.124-12.781-10.941-22.5s-4.8-16.933-7.634-20.265c-2.81-3.332-2.412-9.648-.423-22.5a34.648,34.648,0,0,0,.4-6.067c.3.323.572.646.87.945a33.1,33.1,0,0,0,4.177,3.605,24.627,24.627,0,0,1,3.655,3.108,6.8,6.8,0,0,1,1.169,1.591,2.948,2.948,0,0,1,.249.7c-.124,0-.273-.025-.4-.025a13.484,13.484,0,0,0-2.884.323,8.808,8.808,0,0,0-2.86,1.094,4.658,4.658,0,0,0-1.417,1.268,2.663,2.663,0,0,0-.5,1.442,2.445,2.445,0,0,0,.671,1.691,3.026,3.026,0,0,0,.995.721,5.137,5.137,0,0,0,1.044.348,8.328,8.328,0,0,0,1.716.124,10.518,10.518,0,0,0,3.083-.572,8.105,8.105,0,0,0,2.909-1.765,4.34,4.34,0,0,0,.3-.348,3.389,3.389,0,0,1-.025,1.865,5.381,5.381,0,0,1-3.332,2.959,9.564,9.564,0,0,1-4.948.622c-.05,0-.1.025-.1.05a.091.091,0,0,0,.05.124,8.894,8.894,0,0,0,5.346.224,8.17,8.17,0,0,0,2.586-1.119,5.31,5.31,0,0,0,1.964-2.263,4.9,4.9,0,0,0,.3-3.083,5.2,5.2,0,0,0-.6-1.591,8.412,8.412,0,0,0,.2-.845,8.051,8.051,0,0,0-2.387-6.316,26.9,26.9,0,0,0-4.3-3.63,29.918,29.918,0,0,1-3.854-3.083,26.208,26.208,0,0,1-3.183-3.655,9,9,0,0,1-.547-.8,9.493,9.493,0,0,0,1.641-8.38,24.544,24.544,0,0,1-.522-4.252c.348.323.671.671.995,1.019,6.117,6.49,3.233,14.049,3.133,16.983,4.227-10.145.373-17.729-4-22.9a69.62,69.62,0,0,1,.995-7.708c4.923-7.037,7.808-28.5,2.636-33.817,4.55-9.523,4.2-19.992-5.52-30.212C230,17.142,215.476,14.382,202.5,16.3,196.5-4.118,166.541.333,160.473,3.69c0,0-20.34-9.026-39.387,1.194-12.955,6.962-21.658,18.624-17.754,30.734a37.25,37.25,0,0,0-4.849,6.49c-.249-.124-.522-.274-.771-.4a18.532,18.532,0,0,1-2.487-1.616,8.363,8.363,0,0,0,.2-2.835A7.669,7.669,0,0,0,93.859,33.4a8.994,8.994,0,0,0-3.183-2.661,4.252,4.252,0,0,0-2.611-.472A2.466,2.466,0,0,0,86.3,31.614a3.072,3.072,0,0,0-.224,1.741,7.173,7.173,0,0,0,.721,2.138c.3.622.646,1.144.97,1.691a23.524,23.524,0,0,0,2.288,2.959,16.005,16.005,0,0,0,1.691,1.741A6.8,6.8,0,0,1,82.271,43.9a.352.352,0,0,0-.472.075.391.391,0,0,0,.025.547,7.743,7.743,0,0,0,7.112,1.79,8.623,8.623,0,0,0,3.481-1.79,9.987,9.987,0,0,0,1.119-1.169A17.478,17.478,0,0,0,95.8,44.917c.323.224.671.4,1.019.6-2.387,5.893-1.915,11.339.5,15.69,7.161,14.6.4,22.329.9,29.814a10.389,10.389,0,0,0,4.1,8.056c-.995.5-2.014,1.019-2.959,1.591a23.4,23.4,0,0,0-8.106,7.957,13.834,13.834,0,0,0-1.691,5.719,3.674,3.674,0,0,0-.025.522,4.692,4.692,0,0,0-.845.224,6.623,6.623,0,0,0-2.536,1.567,8.386,8.386,0,0,0-1.79,2.288,6.823,6.823,0,0,0-.821,2.76,6.7,6.7,0,0,0,.373,2.81,7.321,7.321,0,0,0,3.581,3.978,9.191,9.191,0,0,1-1.79-1.89,7.264,7.264,0,0,1-.97-2.313,6.291,6.291,0,0,1,.92-4.6,6.759,6.759,0,0,1,3.63-2.735l.373-.075a9.81,9.81,0,0,0,1.094,3.382,8.181,8.181,0,0,0,2.064,2.362l.646.423a3.071,3.071,0,0,0,.821.423,1.973,1.973,0,0,0,2.586-1.169,3.3,3.3,0,0,0,.05-2.014,6.9,6.9,0,0,0-.522-1.417,7.843,7.843,0,0,0-1.765-2.487,6.338,6.338,0,0,0-2.114-1.318,10.525,10.525,0,0,1,1.716-4.6,24.49,24.49,0,0,1,7.211-6.366c.3-.174.622-.373.92-.547a16.188,16.188,0,0,0,.373,14.1c2.288,4.9,5.694,6.017,8.628,5.868a21.064,21.064,0,0,0-.622,2.735,20.488,20.488,0,0,1-7.46-.472,27.8,27.8,0,0,0,7.335,1.442,18.381,18.381,0,0,0,.845,7.559c3.357,10.444-.348,13.079-5.769,15.193s-14.173,9.051-11.04,19.619,1.318,10.916-2.412,12.781c-3.431,1.716-12.184,11.339-4.849,19.37a229.553,229.553,0,0,1-23.2,8.7c-2.064-.2-14.248-.845-19.693,12.831-2.263,5.719-6.465,21.832-10.767,40.829h0v.025c-.87,3.8-1.741,7.733-2.586,11.737,0,.05-.025.075-.025.124-.2.945-.4,1.89-.622,2.86,0,.05-.025.1-.025.149-.622,2.984-1.268,5.968-1.865,8.976-.025.075-.025.174-.05.249-.174.9-.348,1.765-.547,2.661-.025.124-.05.274-.075.4-.2.945-.373,1.865-.572,2.81v.075c-.4,1.964-.771,3.929-1.144,5.868l-.075.373c-.149.8-.3,1.616-.448,2.412-.05.2-.075.4-.124.6-.149.771-.3,1.542-.423,2.312-.025.149-.05.3-.075.472-.348,1.84-.671,3.68-.995,5.47-.025.174-.075.373-.1.547-.124.7-.249,1.392-.373,2.064-.05.249-.075.472-.124.721-.1.646-.224,1.293-.323,1.915-.05.224-.075.448-.124.7-.124.771-.249,1.517-.373,2.263-.025.075-.025.149-.05.249-.124.821-.274,1.641-.4,2.462a4.591,4.591,0,0,1-.1.572c-.1.6-.174,1.194-.274,1.765-.05.249-.075.522-.124.771-.075.522-.149,1.069-.224,1.591-.025.249-.075.472-.1.721-.075.572-.174,1.144-.249,1.716-.025.174-.05.348-.075.5-.1.721-.2,1.417-.274,2.114a2.754,2.754,0,0,0-.05.472c-.075.522-.124,1.044-.2,1.567l-.075.671c-.05.448-.1.87-.149,1.318l-.075.671c-.05.448-.1.9-.124,1.318-.025.174-.025.348-.05.522q-.075.9-.149,1.716a.846.846,0,0,1-.025.249c-.05.472-.075.92-.1,1.368,0,.174-.025.348-.025.5-.025.348-.05.7-.05,1.02,0,.174-.025.348-.025.5-.025.323-.025.646-.025.97v.423c0,.448-.025.845,0,1.243.174,22.329.348,36.2-1.442,42.868-.05.2-.124.423-.174.646-.124.448-.249.92-.373,1.442-.124.5-.274,1.044-.4,1.591s-.274,1.144-.4,1.716c-.124.6-.274,1.194-.4,1.815-.2.945-.4,1.89-.572,2.859-.124.647-.224,1.293-.348,1.964-.149.97-.3,1.964-.423,2.909-.075.647-.149,1.268-.2,1.89a32.579,32.579,0,0,0-.1,4.351,14.246,14.246,0,0,0,.149,1.517,6.7,6.7,0,0,0,1.243,3.382,18.733,18.733,0,0,1,2.487,3.978c.124.273.249.522.348.8.224.522.4,1.044.572,1.542.671,2.014.995,3.755,1.268,4.849a21.257,21.257,0,0,0,3.606,7.012c1.268,1.442,1.268,9.374,3.954,12.433,1.989,1.79,1.79,5.769,2.163,9.175.2,1.89.075,5.371,2.114,8.753,9.8.845,20.017,0,29.689-1.492,50.676-7.733,101.277-17.7,152.8-16.287,23.224.622,46.324,3.382,69.524,4.327C300.914,451.543,317.5,451.269,332.344,445.078ZM241.61,142.315a7.271,7.271,0,0,1-2.014.547.423.423,0,0,0-.174.025,6.6,6.6,0,0,1,1.467-.671,10.787,10.787,0,0,1,1.542-.4A3.443,3.443,0,0,1,241.61,142.315ZM92.64,37.756a22.74,22.74,0,0,1-2.114-2.487c-.3-.423-.6-.87-.845-1.293a4.442,4.442,0,0,1-.3-.6.15.15,0,0,0,.1.025A5.919,5.919,0,0,1,91.67,35.1,4.953,4.953,0,0,1,92.864,38,2.243,2.243,0,0,0,92.64,37.756Zm.522,80.191a5.938,5.938,0,0,1,1.218,1.84,5.375,5.375,0,0,1,.348,1.069.091.091,0,0,0,.025.075l-.348-.249a6.01,6.01,0,0,1-1.293-1.666,6.089,6.089,0,0,1-.448-1.492A2.64,2.64,0,0,1,93.162,117.947Z" transform="translate(22.061 -0.01)"/></g></svg>