<svg id="Layer_1" data-name="Layer 1" xmlns="http://www.w3.org/2000/svg" xmlns:xlink="http://www.w3.org/1999/xlink" width="160" height="130" viewBox="0 0 160 130"><defs><style>.cls-1{fill:none;}.cls-2{fill:#ffd44f;}.cls-3{clip-path:url(#clip-path);}.cls-4{clip-path:url(#clip-path-2);}.cls-5{fill:#fff;}.cls-6{clip-path:url(#clip-path-3);}.cls-7{clip-path:url(#clip-path-5);}.cls-8{clip-path:url(#clip-path-6);}.cls-9{fill:#4f476a;}.cls-10,.cls-11{fill:#4e4b6f;}.cls-11{fill-rule:evenodd;}</style><clipPath id="clip-path"><path class="cls-1" d="M90.93,107.66c-3-4.41-4-9.86-4.37-13H72.87c-.35,3.17-1.38,8.64-4.37,13Z"/></clipPath><clipPath id="clip-path-2"><rect class="cls-1" x="19.94" y="10.11" width="120.25" height="120.25"/></clipPath><clipPath id="clip-path-3"><rect class="cls-1" x="28.68" y="25.41" width="102.06" height="85.9"/></clipPath><clipPath id="clip-path-5"><rect class="cls-1" x="28.68" y="25.41" width="102.76" height="87.46"/></clipPath><clipPath id="clip-path-6"><path class="cls-1" d="M124.82,25.41H34.58a6,6,0,0,0-5.9,5.93V88.73a5.93,5.93,0,0,0,5.9,5.9h34.6c-.46,3.58-1.82,9.9-5.9,13.49a1.83,1.83,0,0,0,1.18,3.23H95a1.81,1.81,0,0,0,1.7-1.2,1.85,1.85,0,0,0-.5-2c-4.09-3.57-5.44-9.9-5.9-13.49h34.57a5.92,5.92,0,0,0,5.9-5.9V31.34a5.91,5.91,0,0,0-5.9-5.93Zm2.25,63.32A2.24,2.24,0,0,1,124.83,91H34.58a2.25,2.25,0,0,1-2.25-2.25h0V31.34a2.26,2.26,0,0,1,2.25-2.26h90.24a2.25,2.25,0,0,1,2.25,2.25h0Zm-40.51,5.9c.35,3.17,1.38,8.63,4.37,13H68.5c3-4.42,4-9.86,4.37-13Z"/></clipPath></defs><title>Sales site icons</title><g id="Group_723" data-name="Group 723"><path id="Path_1013" data-name="Path 1013" class="cls-2" d="M10.24,98.57C35.11,134.82,132.53,134.26,151,88.27c14-34.92-46.95-92.13-77-78.67S58.53,45.46,35.48,56.38C7.48,69.66,2.59,87.42,10.24,98.57Z"/><path id="Path_1014" data-name="Path 1014" class="cls-2" d="M22.3,51.09c-2.44-5-16.47-1.91-14.5,5C10.62,65.9,24.35,55.34,22.3,51.09Z"/></g><g id="Group_90" data-name="Group 90"><g id="Group_80" data-name="Group 80"><g id="Group_71" data-name="Group 71"><g class="cls-3"><g id="Group_70" data-name="Group 70"><g class="cls-4"><g id="Group_69" data-name="Group 69"><rect id="Rectangle_18" data-name="Rectangle 18" class="cls-5" x="57.57" y="83.7" width="44.3" height="34.89"/></g></g></g></g></g><g id="Group_72" data-name="Group 72"><rect id="Rectangle_20" data-name="Rectangle 20" class="cls-5" x="31.83" y="27.77" width="96.44" height="64.69"/></g><g id="Group_79" data-name="Group 79"><g class="cls-6"><g id="Group_78" data-name="Group 78"><g class="cls-4"><g id="Group_77" data-name="Group 77"><g id="Group_76" data-name="Group 76"><g class="cls-7"><g id="Group_75" data-name="Group 75"><g class="cls-8"><g id="Group_74" data-name="Group 74"><g class="cls-7"><g id="Group_73" data-name="Group 73"><rect id="Rectangle_21" data-name="Rectangle 21" class="cls-9" x="17.75" y="14.48" width="123.92" height="107.79"/></g></g></g></g></g></g></g></g></g></g></g></g></g><g id="Group_81" data-name="Group 81"><path id="Path_154" data-name="Path 154" class="cls-5" d="M133.65,110.55H111.79a3.86,3.86,0,0,1-3.85-3.85V58.82A3.85,3.85,0,0,1,111.79,55h21.86a3.85,3.85,0,0,1,3.85,3.85V106.7A3.86,3.86,0,0,1,133.65,110.55Z"/><path id="Path_155" data-name="Path 155" class="cls-10" d="M133.65,112.3H111.79a5.61,5.61,0,0,1-5.6-5.6V58.82a5.6,5.6,0,0,1,5.6-5.6h21.86a5.6,5.6,0,0,1,5.6,5.6V106.7A5.61,5.61,0,0,1,133.65,112.3ZM111.79,56.74a2.1,2.1,0,0,0-2.1,2.1v47.88a2.1,2.1,0,0,0,2.1,2.1h21.86a2.1,2.1,0,0,0,2.1-2.1V58.84a2.1,2.1,0,0,0-2.1-2.1Z"/></g><g id="Group_88" data-name="Group 88"><g id="Group_82" data-name="Group 82"><path id="Path_156" data-name="Path 156" class="cls-11" d="M46.13,59.63h24a1.95,1.95,0,0,0,0-3.89h-24a1.95,1.95,0,0,0,0,3.89"/></g><g id="Group_83" data-name="Group 83"><path id="Path_157" data-name="Path 157" class="cls-11" d="M62.11,69.14h-16a1.95,1.95,0,0,0,0,3.89h16a1.95,1.95,0,1,0,0-3.89"/></g><g id="Group_84" data-name="Group 84"><path id="Path_158" data-name="Path 158" class="cls-11" d="M46.13,65.86H75.41a1.95,1.95,0,0,0,0-3.89H46.13a1.95,1.95,0,0,0,0,3.89"/></g><g id="Group_85" data-name="Group 85"><path id="Path_159" data-name="Path 159" class="cls-11" d="M46.9,51.45a2.56,2.56,0,1,0-2.56-2.56,2.56,2.56,0,0,0,2.56,2.56h0"/></g><g id="Group_86" data-name="Group 86"><path id="Path_160" data-name="Path 160" class="cls-11" d="M53.72,51.45a2.56,2.56,0,1,0-2.56-2.56,2.56,2.56,0,0,0,2.56,2.56h0"/></g><g id="Group_87" data-name="Group 87"><path id="Path_161" data-name="Path 161" class="cls-11" d="M60.52,51.45A2.56,2.56,0,1,0,58,48.89a2.56,2.56,0,0,0,2.56,2.56h0"/></g></g><g id="Group_89" data-name="Group 89"><path id="Path_162" data-name="Path 162" class="cls-11" d="M127.46,100.05H118a2,2,0,1,0,0,3.9h9.49a2,2,0,0,0,0-3.9"/></g></g></svg>