<svg xmlns="http://www.w3.org/2000/svg" width="293.65px" height="50.25px" viewBox="0 0 832.39 142.45"><defs><style>.cls-1{fill:#6682a8;}.cls-2{fill:#f06292;}.cls-3{fill:#ffd54f;}.cls-4{fill:#5ac7da;}</style></defs><title></title><g id="Layer_3" data-name="Layer 3"><path class="cls-1" d="M167.61,53.89a39.22,39.22,0,0,1,8.22-.83q10.72,0,10.72,8.74a6.75,6.75,0,0,1-.05.94c0,.28-.08.62-.15,1L181.25,94q-3.34,19.57-7.29,25a19.25,19.25,0,0,1-17.07,8.75q-4.89,0-7.5-2.61a9.85,9.85,0,0,1-2.6-7.28,22,22,0,0,1,.31-3.65,16.87,16.87,0,0,0,6.46-1.19,8,8,0,0,0,3.8-3.91q1.39-2.81,2.55-9.57Zm1.66-14.57a10.94,10.94,0,0,1,3.13-8.23,11.47,11.47,0,0,1,8.33-3,9.39,9.39,0,0,1,6.61,2.44A7.71,7.71,0,0,1,190,36.4a10.92,10.92,0,0,1-3.12,8.23,11.49,11.49,0,0,1-8.33,3,9.32,9.32,0,0,1-6.66-2.45A7.77,7.77,0,0,1,169.27,39.32Z"/><path class="cls-1" d="M195.51,53.37A25.84,25.84,0,0,1,203.73,52q5.63,0,8.17,2c1.7,1.32,2.55,3.43,2.55,6.35,0,.41,0,.85,0,1.3s-.09.88-.16,1.3L210.5,85c-.07.35-.12.73-.16,1.14s-.05.8-.05,1.15c0,1.8.94,2.7,2.81,2.7q3.85,0,4.68-4.78l5.31-31.86A25.94,25.94,0,0,1,231.32,52c3.74,0,6.47.66,8.17,2S242,57.43,242,60.35c0,.41,0,.85,0,1.3s-.09.88-.16,1.3L237,91a42.23,42.23,0,0,0-.52,6.35,24.27,24.27,0,0,0,.63,6,30.59,30.59,0,0,1-8.85,1.35c-3.27,0-5.61-.41-7-1.25a9,9,0,0,1-3.49-4.37,17.1,17.1,0,0,1-6.19,4.74,22.31,22.31,0,0,1-8.28,1.3q-6.56,0-10.15-3.54t-3.59-9.79a56.84,56.84,0,0,1,1-9.47Z"/><path class="cls-1" d="M249.74,82.62a16.92,16.92,0,0,0,4.74,5,9.73,9.73,0,0,0,5.46,1.77c1.88,0,2.81-.69,2.81-2.08a3.17,3.17,0,0,0-.83-2.19,15.48,15.48,0,0,0-2.34-2q-1.51-1.09-3.8-2.55-5-3.44-6.77-6.19a11.25,11.25,0,0,1-1.77-6.2,13.73,13.73,0,0,1,2.81-8.43A17.69,17.69,0,0,1,257.71,54,29.65,29.65,0,0,1,269,52a25.89,25.89,0,0,1,13.48,3.38q5.67,3.39,5.67,8.38a8.15,8.15,0,0,1-3,6.14,12.08,12.08,0,0,1-7.13,3.13q-2.51-6.47-7.92-6.46a2.41,2.41,0,0,0-1.71.63,2,2,0,0,0-.68,1.56,2.29,2.29,0,0,0,.88,1.72,25,25,0,0,0,2.87,2q2,1.25,5.1,3.43a21.09,21.09,0,0,1,6.09,6.09,14.61,14.61,0,0,1,1.82,7.55,13.5,13.5,0,0,1-5.83,11.19q-5.83,4.42-15,4.42T248.8,102.3a14.13,14.13,0,0,1-5-4,8.5,8.5,0,0,1-1.51-5.05A10,10,0,0,1,244,87.31,16.8,16.8,0,0,1,249.74,82.62Z"/><path class="cls-1" d="M298.15,38.07a38.5,38.5,0,0,1,8.22-.83q5.31,0,8,2.13C316.1,40.79,317,43,317,46c0,.21,0,.47-.05.78s-.09.71-.16,1.2l-1,6.14h14.78L328,69.61H313.14l-2.29,13.85a6.27,6.27,0,0,0-.11,1.24q0,3.35,3.44,3.34c2.15,0,4.13-1.43,5.93-4.27a13.87,13.87,0,0,1,6.35,3.33,7.53,7.53,0,0,1,2,5.41,9.79,9.79,0,0,1-.83,4.17,12.59,12.59,0,0,1-3,3.74q-5.2,4.8-14.37,4.79-9.68,0-14.83-4.47t-5.15-13.22a43.32,43.32,0,0,1,.52-5.94Z"/><path class="cls-1" d="M401.1,91a42.23,42.23,0,0,0-.52,6.35,24.32,24.32,0,0,0,.62,6,30.49,30.49,0,0,1-8.85,1.35q-4.89,0-7-1.2a8.56,8.56,0,0,1-3.49-4.42,16.12,16.12,0,0,1-13.74,6,13.05,13.05,0,0,1-10.83-5.21q-4.06-5.2-4.06-14.15a36.42,36.42,0,0,1,4.17-17.54,29.52,29.52,0,0,1,11.34-11.92,32,32,0,0,1,16.35-4.17,43.82,43.82,0,0,1,11.6,1.36A37.37,37.37,0,0,1,406.61,58ZM385,68.78a5.09,5.09,0,0,0-2.81-.73,6.16,6.16,0,0,0-4.74,2.29,16.06,16.06,0,0,0-3.17,6,25.29,25.29,0,0,0-1.15,7.49c0,4.1,1.43,6.14,4.27,6.14,2.64,0,4.23-1.59,4.79-4.78Z"/><path class="cls-1" d="M437.94,38.07a38.59,38.59,0,0,1,8.23-.83q5.31,0,8,2.13c1.77,1.42,2.66,3.63,2.66,6.61a6.28,6.28,0,0,1-.06.78c0,.31-.09.71-.15,1.2l-1,6.14h14.78l-2.5,15.51H452.93l-2.29,13.85a6.34,6.34,0,0,0-.1,1.24Q450.54,88,454,88c2.15,0,4.13-1.43,5.94-4.27a13.92,13.92,0,0,1,6.35,3.33,7.53,7.53,0,0,1,2,5.41,9.64,9.64,0,0,1-.84,4.17,12.28,12.28,0,0,1-3,3.74q-5.2,4.8-14.36,4.79-9.69,0-14.84-4.47T430,87.52a43.32,43.32,0,0,1,.52-5.94Z"/><path class="cls-1" d="M482.91,30.68a37.55,37.55,0,0,1,8-.83q10.72,0,10.72,8.74a16.9,16.9,0,0,1-.21,2l-2.91,17.59A16.89,16.89,0,0,1,511.85,52c4,0,7,1.23,9.27,3.69s3.33,5.85,3.33,10.15a28.51,28.51,0,0,1-.32,4.27c-.2,1.39-.45,2.85-.72,4.37L520.6,91.26a34.64,34.64,0,0,0-.63,5.83,19.65,19.65,0,0,0,.63,5.52,23.62,23.62,0,0,1-10.31,2.19q-5.42,0-8-2t-2.6-6.25a25,25,0,0,1,.21-3.12l3.44-20.4a11.54,11.54,0,0,0,.15-1.15c0-.42,0-.8,0-1.14,0-1.81-.93-2.71-2.81-2.71q-3.85,0-4.68,4.79l-5.21,30.81h-20.3Z"/><path class="cls-1" d="M528.82,83.56a35.13,35.13,0,0,1,2.34-13,30.17,30.17,0,0,1,6.4-10.1,27.06,27.06,0,0,1,9.48-6.3A31.81,31.81,0,0,1,558.8,52a24.55,24.55,0,0,1,11.92,2.7,18.35,18.35,0,0,1,7.54,7.6,23.56,23.56,0,0,1,2.61,11.25,36.14,36.14,0,0,1-3.75,16.76,26.29,26.29,0,0,1-10.36,11.08,30.29,30.29,0,0,1-15.35,3.8q-10.83,0-16.71-5.72T528.82,83.56Zm24.36,6.77a4.94,4.94,0,0,0,4-2.35,18.12,18.12,0,0,0,2.7-6.29,31.3,31.3,0,0,0,1-7.6q0-3.86-1.09-5.47A3.82,3.82,0,0,0,556.4,67a5,5,0,0,0-4.11,2.34,18.13,18.13,0,0,0-2.7,6.35,34,34,0,0,0-1,8.17C548.6,88.18,550.12,90.33,553.18,90.33Z"/><path class="cls-1" d="M591.07,53.37A25.88,25.88,0,0,1,599.29,52q5.63,0,8.17,2c1.7,1.32,2.55,3.43,2.55,6.35,0,.41,0,.85,0,1.3s-.09.88-.15,1.3L606.06,85c-.07.35-.12.73-.16,1.14s0,.8,0,1.15c0,1.8.94,2.7,2.81,2.7q3.86,0,4.68-4.78l5.31-31.86A25.94,25.94,0,0,1,626.88,52q5.63,0,8.17,2c1.7,1.32,2.55,3.43,2.55,6.35,0,.41,0,.85-.05,1.3s-.09.88-.16,1.3L632.6,91a42.23,42.23,0,0,0-.52,6.35,24.27,24.27,0,0,0,.63,6,30.59,30.59,0,0,1-8.85,1.35c-3.26,0-5.61-.41-7-1.25a9,9,0,0,1-3.49-4.37,17.1,17.1,0,0,1-6.19,4.74,22.29,22.29,0,0,1-8.27,1.3q-6.57,0-10.15-3.54t-3.6-9.79a56,56,0,0,1,1-9.47Z"/><path class="cls-1" d="M666.54,100.22a14.58,14.58,0,0,1-4.95,2.75,21.35,21.35,0,0,1-6.19.78q-7.18,0-11.14-5t-4-14.37a34.1,34.1,0,0,1,4.16-16.86A29.14,29.14,0,0,1,655.71,56a32.64,32.64,0,0,1,16.35-4,46.39,46.39,0,0,1,12,1.4,35.3,35.3,0,0,1,9.89,4.43l-6.77,39.87q-1.87,11.13-5.41,17.33a22.53,22.53,0,0,1-9.53,9.21q-6,3-14.83,3c-6.59,0-11.63-.87-15.09-2.6a15.28,15.28,0,0,1-5.42-4.06,8.19,8.19,0,0,1-1.66-5.1,10.23,10.23,0,0,1,2-5.94,12.44,12.44,0,0,1,5.31-4.26,18.88,18.88,0,0,0,6.14,5.67,16.51,16.51,0,0,0,7.6,1.61,8.85,8.85,0,0,0,6.46-2.34,13.4,13.4,0,0,0,3.33-7.13ZM672,68.36a6.1,6.1,0,0,0-2.91-.73,6.38,6.38,0,0,0-4.79,2.08,14.53,14.53,0,0,0-3.12,5.57A23.25,23.25,0,0,0,660,82.62c0,4.24,1.49,6.35,4.48,6.35q3.94,0,4.79-4.89Z"/><path class="cls-1" d="M706.3,30.68a37.55,37.55,0,0,1,8-.83q10.73,0,10.72,8.74a16.9,16.9,0,0,1-.21,2l-2.91,17.59A16.89,16.89,0,0,1,735.24,52q5.94,0,9.27,3.69t3.33,10.15a29.91,29.91,0,0,1-.31,4.27c-.21,1.39-.46,2.85-.73,4.37L744,91.26a34.64,34.64,0,0,0-.63,5.83,19.65,19.65,0,0,0,.63,5.52,23.62,23.62,0,0,1-10.31,2.19q-5.41,0-8-2t-2.61-6.25a25,25,0,0,1,.21-3.12l3.44-20.4a11.54,11.54,0,0,0,.15-1.15c0-.42,0-.8,0-1.14,0-1.81-.93-2.71-2.81-2.71-2.56,0-4.13,1.6-4.68,4.79l-5.21,30.81H693.92Z"/><path class="cls-1" d="M760.64,38.07a38.59,38.59,0,0,1,8.23-.83c3.53,0,6.19.71,8,2.13S779.48,43,779.48,46c0,.21,0,.47-.05.78s-.09.71-.16,1.2l-1,6.14H793l-2.5,15.51H775.63l-2.29,13.85a6.34,6.34,0,0,0-.1,1.24q0,3.35,3.43,3.34c2.15,0,4.13-1.43,5.94-4.27A13.92,13.92,0,0,1,789,87.1a7.57,7.57,0,0,1,2,5.41,9.64,9.64,0,0,1-.83,4.17,12.44,12.44,0,0,1-3,3.74q-5.21,4.8-14.36,4.79-9.69,0-14.84-4.47t-5.15-13.22a43.32,43.32,0,0,1,.52-5.94Z"/><path class="cls-2" d="M62.67,84.3a.49.49,0,0,0-.51-.69,26.49,26.49,0,0,1-6.24.13A27.06,27.06,0,0,1,31.69,54.17a26.05,26.05,0,0,1,1-5.1.5.5,0,0,0-.68-.59A26,26,0,0,0,52.75,96.12a7.84,7.84,0,0,0,7.31,7.53.5.5,0,0,0,.52-.58,33.93,33.93,0,0,1-.52-6.62A32.58,32.58,0,0,1,62.67,84.3Z"/><path class="cls-3" d="M45.46,41.89c-3.52,3.58-6.09,7.93-6.59,13A20.06,20.06,0,0,0,64.2,76c4.77-1.43,7.87-5.74,11.37-9q1.59-1.47,3.28-2.84a60.29,60.29,0,0,1,12.58-7.92c.94-.44,1.89-.85,2.86-1.23a51.8,51.8,0,0,1,24-3.69A32.81,32.81,0,0,1,132.66,56a.49.49,0,0,0,.73-.59c-5.16-12.29-22.63-23.9-48-26.41a53.45,53.45,0,0,0-27.54,4.47A43.08,43.08,0,0,0,45.46,41.89Z"/><path class="cls-4" d="M134.79,69.22a14.44,14.44,0,0,0-5.9-7.37c-4.76-3-10.78-3.7-16.31-3.47a47.62,47.62,0,0,0-7.71.94A53.4,53.4,0,0,0,76.71,75.79c-5.2,5.7-9.32,12.88-9.44,20.77-.27,18.64,16,21.87,22,22.43a1.26,1.26,0,0,0,1.32-1.64c-1.18-3.51.17-7,2.62-9.65,4.29-4.56,10.27-6.08,16-7.92C120,96.27,132.69,89,135.29,76.89A14.13,14.13,0,0,0,134.79,69.22Z"/><path class="cls-4" d="M95.25,119.93c-.62,2.09,1.57,4.58,4.88,5.55a9.42,9.42,0,0,0,2.28.37c2.39.1,4.36-.8,4.83-2.4.56-1.9-1.2-4.11-4-5.24-.29-.11-.57-.23-.88-.32C99.05,116.92,95.86,117.83,95.25,119.93Z"/><path class="cls-1" d="M799,48.06V48a7.57,7.57,0,1,1,15.14,0v0a7.57,7.57,0,1,1-15.14.05ZM813.24,48v0a6.7,6.7,0,1,0-13.4,0v.05a6.65,6.65,0,0,0,6.7,6.74A6.73,6.73,0,0,0,813.24,48Zm-9.83-3.08a1,1,0,0,1,1-1h2.74c1.87,0,3.17.87,3.17,2.62a2.45,2.45,0,0,1-1.56,2.39l1.17,1.43a.88.88,0,0,1,.26.7.9.9,0,0,1-1,.91,1.06,1.06,0,0,1-.78-.39l-1.83-2.26h-1.26V51a1,1,0,0,1-1.91,0ZM807,47.75c.87,0,1.34-.43,1.34-1.08s-.52-1.09-1.34-1.09h-1.66v2.17Z"/></g></svg>
