<svg xmlns="http://www.w3.org/2000/svg" xmlns:xlink="http://www.w3.org/1999/xlink" width="91" height="91" viewBox="0 0 91 91"><defs><style>.a{fill:#fff;}.b{fill:#5ac7da;}.c{clip-path:url(#a);}.d{clip-path:url(#b);}.e{clip-path:url(#c);}</style><clipPath id="a"><path class="a" d="M91.94,31.047,60.654,15.662a3.2,3.2,0,0,0-2.841,0L26.528,31.047a3.194,3.194,0,0,0,0,5.755l9.961,4.907a5.744,5.744,0,0,1,3.1-4.8l.849-.406L35.2,33.924,59.216,22.118,83.233,33.924,59.216,45.73l-6.051-2.988-5.5,2.693v1.734L57.814,52.15a3.126,3.126,0,0,0,2.8,0l14.425-7.084.037,7.3L59.216,60.193,47.668,54.511v7.12l10.146,4.981a3.126,3.126,0,0,0,2.8,0L79.729,57.2a3.239,3.239,0,0,0,1.808-2.915l-.111-12.433L91.9,36.691a3.191,3.191,0,0,0,1.771-2.878,3.035,3.035,0,0,0-1.734-2.767" transform="translate(-24.72 -15.33)"/></clipPath><clipPath id="b"><rect class="a" width="195.721" height="195.721"/></clipPath><clipPath id="c"><path class="a" d="M52.937,21.058a3.2,3.2,0,0,0-2.878-1.808,3.132,3.132,0,0,0-1.4.332l-18.3,8.928a3.225,3.225,0,0,0-1.808,2.878v24.94a3.21,3.21,0,1,0,6.42,0V33.38l16.491-8.043a3.2,3.2,0,0,0,1.476-4.28" transform="translate(-28.55 -19.25)"/></clipPath></defs><g transform="translate(-864 -2592)"><circle class="b" cx="45.5" cy="45.5" r="45.5" transform="translate(864 2592)"/><g transform="translate(646.906 74.513)"><path class="a" d="M532.5,2255.821Z" transform="translate(-273.73 314.155)"/><g transform="translate(227.481 2536.602)"><g transform="translate(0 0)"><g class="c"><g class="d" transform="translate(-91.201 -56.558)"><rect class="a" width="104.557" height="87.254" transform="translate(73.455 38.738)"/></g></g></g><g transform="translate(14.13 14.462)"><g class="e"><g class="d" transform="translate(-105.332 -71.02)"><rect class="a" width="60.284" height="75.89" transform="translate(87.586 53.238)"/></g></g></g></g></g></g></svg>