<svg version="1" xmlns="http://www.w3.org/2000/svg" width="682.667" height="682.667" viewBox="0 0 512.000000 512.000000"><path d="M256.7 99.6c-.1.1-2.9.4-6.2.7-11 1.1-23.8 3.5-33.5 6.2-26.9 7.5-55.6 24.6-70.4 42.1-16.6 19.6-21.9 38.5-17.2 61.9 1.8 8.9 9.2 22.4 16.8 30.6 21.6 23.4 60.8 28.2 83.3 10.2 2.8-2.2 10.4-9.4 17-15.9 27.3-26.9 54.3-43.1 88.6-52.9 37.8-10.9 77.1-8.5 104.6 6.4 9.3 5.1 10.1 4.2 5.2-5.4-6.2-12.4-19.3-27.2-33.4-38-3.3-2.4-6.4-4.8-7-5.3-.5-.4-2.8-1.9-5-3.2-23.5-14.5-48.4-24.4-78-30.9-8.5-1.9-12.2-2.5-20.5-3.7-1.9-.2-4.8-.6-6.5-.9-8.5-1.2-36.8-2.7-37.8-1.9z"/><path d="M98.5 169.8c-7.6 4.2-11.7 7.2-18.3 13.4-22.6 21-32.3 52.5-25.7 83.3 1 4.5 4.9 15.3 7.1 19.7 12.4 24.6 34.7 41.6 61.9 47.3 6.9 1.4 27.9 1.5 33.5.1 1.4-.3 3.4-.8 4.5-1 1.1-.2 4.5-1.3 7.7-2.4l5.6-2 .7 3.6c2.1 11.2 12.8 21.1 22.8 21.2h3.8l-.8-4.8c-1-5.9-1-25.8-.1-33.2.8-5.9 5.2-22 6.9-25.2 1.5-2.8.4-4.8-2.3-4.2-3 .6-19.3.5-23.8-.1-1.9-.3-6.8-1.4-10.8-2.5-40.7-11.2-68.4-48.3-67.4-90.6.1-7.3 2-19.2 3.7-23.7 1.1-2.6-3.1-2.2-9 1.1zM361.5 201.5c-14.4 2.3-15.6 2.6-26.3 6.1-12.8 4.2-22.4 8.4-31.7 13.7-7.7 4.4-17.7 10.7-18.5 11.7-.3.3-2.7 2.3-5.5 4.4-25.4 19.2-46.2 47.6-52.6 72.1-3.5 13.6-3.2 33.2.7 46 5.5 17.8 19.2 32.9 37.6 41.3 7.4 3.4 21.5 7.2 29.2 7.9 8.1.7 10.1-.6 8.6-5.9-4-13.9 2.8-28.3 18.5-39.5 9.2-6.5 15.6-9.4 35.5-16 21.3-7.1 29.4-10.4 40.5-16.2 36.8-19.3 57.9-46.6 57.8-74.6-.1-19.4-11-35.9-29.4-44.4-5.5-2.6-10-4-21.1-6.8-4.9-1.2-35.5-1-43.3.2zM325 401.1c-6 2.5-8.4 6.8-6.9 12.3 3.6 13 28 19.8 37.9 10.6 6.4-6 1.7-16-10-21.2-5.2-2.3-17.2-3.3-21-1.7z"/></svg>