<svg id="Layer_1" data-name="Layer 1" xmlns="http://www.w3.org/2000/svg" width="28" height="22.25" viewBox="0 0 28 22.25"><defs><style>.cls-1{fill:#9ad8e8;}</style></defs><title>66</title><path id="Path_288" data-name="Path 288" class="cls-1" d="M4.88,9.69a6.51,6.51,0,0,1,2.48-.3A6.12,6.12,0,0,1,12,12.1a6.22,6.22,0,1,1-11.17,5A13,13,0,0,1,.71,11,12.59,12.59,0,0,1,3.1,6.2,19.89,19.89,0,0,1,9.53.63a1.27,1.27,0,0,1,1.34,2.16l-.07,0A14.53,14.53,0,0,0,7.14,5.69,10.44,10.44,0,0,0,5,9.3,4,4,0,0,0,4.88,9.69Z"/><path id="Path_288-2" data-name="Path 288" class="cls-1" d="M19.36,9.69a6.44,6.44,0,0,1,2.47-.3,6.09,6.09,0,0,1,4.68,2.71,6.22,6.22,0,1,1-11.16,5A13,13,0,0,1,15.18,11a12.61,12.61,0,0,1,2.4-4.78A19.79,19.79,0,0,1,24,.63a1.27,1.27,0,1,1,1.33,2.16l-.07,0a14.71,14.71,0,0,0-3.66,2.86A10.6,10.6,0,0,0,19.46,9.3Z"/></svg>
