<svg id="Layer_1" data-name="Layer 1" xmlns="http://www.w3.org/2000/svg" width="28" height="22.25" viewBox="0 0 28 22.25"><defs><style>.cls-1{fill:#946fb8;}</style></defs><title>99</title><path id="Path_288" data-name="Path 288" class="cls-1" d="M23.12,12.56a6.32,6.32,0,0,1-2.48.3A6.09,6.09,0,0,1,16,10.15a6.22,6.22,0,1,1,11.17-5,13,13,0,0,1,.16,6.17,12.62,12.62,0,0,1-2.39,4.77,19.89,19.89,0,0,1-6.43,5.57,1.27,1.27,0,1,1-1.34-2.16l.07,0a14.53,14.53,0,0,0,3.66-2.86A10.35,10.35,0,0,0,23,13,3.33,3.33,0,0,0,23.12,12.56Z"/><path id="Path_288-2" data-name="Path 288" class="cls-1" d="M8.64,12.56a6.25,6.25,0,0,1-2.47.3,6.06,6.06,0,0,1-4.68-2.71,6.22,6.22,0,1,1,11.16-5,13,13,0,0,1,.17,6.17,12.64,12.64,0,0,1-2.4,4.77A19.79,19.79,0,0,1,4,21.62a1.27,1.27,0,1,1-1.33-2.16l.07,0a14.71,14.71,0,0,0,3.66-2.86A10.51,10.51,0,0,0,8.54,13C8.57,12.84,8.6,12.73,8.64,12.56Z"/></svg>
