<?xml version="1.0" encoding="utf-8"?>
<!-- Generator: Adobe Illustrator 23.0.1, SVG Export Plug-In . SVG Version: 6.00 Build 0)  -->
<svg version="1.1" id="Layer_1" xmlns="http://www.w3.org/2000/svg" xmlns:xlink="http://www.w3.org/1999/xlink" x="0px" y="0px"
	 viewBox="0 0 230 130" style="enable-background:new 0 0 230 130;" xml:space="preserve">
<style type="text/css">
	.st0{fill:#5AC6D9;}
	.st1{fill:#FFFFFF;}
	.st2{fill:#4E4B6F;}
	.st3{fill-rule:evenodd;clip-rule:evenodd;fill:#FFFFFF;}
	.st4{clip-path:url(#SVGID_2_);}
	.st5{clip-path:url(#SVGID_4_);}
	.st6{clip-path:url(#SVGID_6_);}
	.st7{clip-path:url(#SVGID_8_);}
	.st8{fill:#4F476A;}
	.st9{clip-path:url(#SVGID_10_);}
	.st10{clip-path:url(#SVGID_12_);}
	.st11{clip-path:url(#SVGID_14_);}
	.st12{clip-path:url(#SVGID_16_);}
	.st13{clip-path:url(#SVGID_18_);}
	.st14{clip-path:url(#SVGID_20_);}
	.st15{clip-path:url(#SVGID_22_);}
	.st16{clip-path:url(#SVGID_24_);}
	.st17{clip-path:url(#SVGID_26_);}
	.st18{clip-path:url(#SVGID_28_);}
	.st19{clip-path:url(#SVGID_30_);}
	.st20{clip-path:url(#SVGID_32_);}
	.st21{clip-path:url(#SVGID_34_);}
	.st22{clip-path:url(#SVGID_36_);}
	.st23{clip-path:url(#SVGID_38_);}
	.st24{clip-path:url(#SVGID_40_);}
	.st25{clip-path:url(#SVGID_42_);}
	.st26{clip-path:url(#SVGID_44_);}
	.st27{clip-path:url(#SVGID_46_);}
	.st28{clip-path:url(#SVGID_48_);}
</style>
<path class="st0" d="M46.8,94c22.6,34.6,112.4,39.8,129.7-1.2c13.1-31.2-42.6-87.1-70.4-76.5s-14.4,32-35.8,40.6
	C44.5,67.3,39.8,83.3,46.8,94z"/>
<path class="st1" d="M84,17.6h62.3c1.6,0,2.9,1.3,2.9,2.9v88.2c0,1.6-1.3,2.9-2.9,2.9H84c-1.6,0-2.9-1.3-2.9-2.9V20.5
	C81.1,18.9,82.4,17.6,84,17.6z"/>
<path class="st2" d="M84,19.5c-0.5,0-0.9,0.4-0.9,0.9v88.2c0,0.5,0.4,0.9,0.9,0.9h62.3c0.5,0,0.9-0.4,0.9-0.9V20.5
	c0-0.5-0.4-0.9-0.9-0.9H84V19.5z M146.3,113.6H84c-2.7,0-4.8-2.2-4.8-4.8V20.5c0-2.7,2.2-4.8,4.8-4.8h62.3c2.7,0,4.9,2.2,4.9,4.8
	v88.2C151.2,111.3,149,113.5,146.3,113.6z"/>
<path class="st3" d="M119.9,12.8c-0.4-2.6-2.8-4.4-5.4-4c-2.1,0.3-3.7,1.9-4,4H99.6v8.6h31v-8.6L119.9,12.8z"/>
<g>
	<path class="st2" d="M101.1,20h28.2v-5.8h-9.4c-0.7,0-1.3-0.5-1.4-1.2c-0.2-1.8-1.9-3.1-3.7-2.8c-1.5,0.2-2.6,1.4-2.8,2.8
		c-0.1,0.7-0.7,1.2-1.4,1.2H101L101.1,20z M130.7,22.9h-31c-0.8,0-1.4-0.6-1.4-1.4v-8.7c0-0.8,0.6-1.4,1.4-1.4h9.7
		c1.1-3.2,4.7-4.9,7.9-3.7c1.7,0.6,3.1,2,3.7,3.7h9.7c0.8,0,1.4,0.6,1.4,1.4v8.6C132.1,22.2,131.5,22.8,130.7,22.9
		C130.7,22.8,130.7,22.8,130.7,22.9z"/>
	<path class="st2" d="M115.2,11.8c0.9,0,1.7,0.8,1.7,1.7s-0.8,1.7-1.7,1.7s-1.7-0.8-1.7-1.7c0-0.4,0.2-0.9,0.5-1.2
		C114.3,11.9,114.7,11.7,115.2,11.8z"/>
	<path class="st2" d="M97.1,49.6c0.6-1.1,1-2.1,1.6-3.1c1.3-2.4,2.8-4.7,4.4-6.9c0.5-0.6,1.4-0.9,2.2-0.6c0.5,0.2,0.6,0.5,0.3,0.9
		s-0.4,0.5-0.7,0.8c-2.2,3-4.1,6.3-5.6,9.8l-0.7,1.6c-0.4,0.8-1.5,1.2-2.3,0.7c-0.2-0.1-0.4-0.2-0.5-0.4c-1-1.4-2.1-2.8-3.1-4.3
		c-0.4-0.5-0.4-0.9,0.2-1.2c0.4-0.2,0.8-0.3,1.3-0.4c0.4-0.1,0.9,0.2,1.1,0.5C95.9,47.9,96.5,48.7,97.1,49.6z"/>
</g>
<g>
	<g>
		<defs>
			<path id="SVGID_1_" d="M106.8,48c0,0.8,0.6,1.4,1.4,1.4h22.3c0.8,0.1,1.4-0.5,1.5-1.3s-0.5-1.4-1.3-1.5c-0.1,0-0.2,0-0.2,0h-22.3
				C107.4,46.6,106.8,47.2,106.8,48z"/>
		</defs>
		<clipPath id="SVGID_2_">
			<use xlink:href="#SVGID_1_"  style="overflow:visible;"/>
		</clipPath>
		<g class="st4">
			<g>
				<g>
					<defs>
						<rect id="SVGID_3_" x="106.1" y="46" width="26" height="4"/>
					</defs>
					<clipPath id="SVGID_4_">
						<use xlink:href="#SVGID_3_"  style="overflow:visible;"/>
					</clipPath>
					<g class="st5">
						<g>
							<g>
								<defs>
									<rect id="SVGID_5_" x="105.1" y="45" width="28" height="6"/>
								</defs>
								<clipPath id="SVGID_6_">
									<use xlink:href="#SVGID_5_"  style="overflow:visible;"/>
								</clipPath>
								<g class="st6">
									<g>
										<g>
											<defs>
												<rect id="SVGID_7_" x="106.1" y="46" width="26" height="4"/>
											</defs>
											<clipPath id="SVGID_8_">
												<use xlink:href="#SVGID_7_"  style="overflow:visible;"/>
											</clipPath>
											<g class="st7">
												<path class="st8" d="M101.5,41.2h41.7v13.5h-41.7V41.2z"/>
											</g>
										</g>
									</g>
								</g>
							</g>
						</g>
					</g>
				</g>
			</g>
		</g>
	</g>
</g>
<g>
	<g>
		<defs>
			<path id="SVGID_9_" d="M135.6,49.4c0.8,0.1,1.4-0.5,1.5-1.3s-0.5-1.4-1.3-1.5c-0.1,0-0.2,0-0.2,0h-0.1c-0.8,0-1.4,0.6-1.4,1.4
				C134.2,48.8,134.9,49.4,135.6,49.4z"/>
		</defs>
		<clipPath id="SVGID_10_">
			<use xlink:href="#SVGID_9_"  style="overflow:visible;"/>
		</clipPath>
		<g class="st9">
			<g>
				<g>
					<defs>
						<rect id="SVGID_11_" x="134.1" y="46" width="3" height="4"/>
					</defs>
					<clipPath id="SVGID_12_">
						<use xlink:href="#SVGID_11_"  style="overflow:visible;"/>
					</clipPath>
					<g class="st10">
						<g>
							<g>
								<defs>
									<rect id="SVGID_13_" x="133.1" y="45" width="5" height="6"/>
								</defs>
								<clipPath id="SVGID_14_">
									<use xlink:href="#SVGID_13_"  style="overflow:visible;"/>
								</clipPath>
								<g class="st11">
									<g>
										<g>
											<defs>
												<rect id="SVGID_15_" x="134.1" y="46" width="3" height="4"/>
											</defs>
											<clipPath id="SVGID_16_">
												<use xlink:href="#SVGID_15_"  style="overflow:visible;"/>
											</clipPath>
											<g class="st12">
												<path class="st8" d="M128.8,41.2h13.5v13.5h-13.5V41.2z"/>
											</g>
										</g>
									</g>
								</g>
							</g>
						</g>
					</g>
				</g>
			</g>
		</g>
	</g>
</g>
<path class="st2" d="M97.1,69.3c0.6-1.1,1-2.1,1.6-3.1c1.3-2.4,2.8-4.7,4.4-6.9c0.5-0.6,1.4-0.9,2.2-0.6c0.5,0.2,0.6,0.5,0.3,0.9
	s-0.4,0.5-0.7,0.8c-2.2,3-4.1,6.3-5.6,9.8c-0.2,0.5-0.5,1.1-0.7,1.6c-0.4,0.8-1.5,1.2-2.3,0.7c-0.2-0.1-0.4-0.3-0.5-0.4
	c-1-1.4-2.1-2.8-3.1-4.2c-0.4-0.5-0.4-0.9,0.2-1.2c0.4-0.2,0.8-0.3,1.3-0.4c0.4-0.1,0.9,0.2,1.1,0.6C95.9,67.6,96.5,68.4,97.1,69.3z
	"/>
<g>
	<g>
		<defs>
			<path id="SVGID_17_" d="M106.8,67.7c0,0.8,0.6,1.4,1.4,1.4h22.3c0.8,0,1.4-0.6,1.4-1.4s-0.6-1.4-1.4-1.4h-22.3
				C107.4,66.2,106.8,66.9,106.8,67.7z"/>
		</defs>
		<clipPath id="SVGID_18_">
			<use xlink:href="#SVGID_17_"  style="overflow:visible;"/>
		</clipPath>
		<g class="st13">
			<g>
				<g>
					<defs>
						<rect id="SVGID_19_" x="106.1" y="66.1" width="26" height="3"/>
					</defs>
					<clipPath id="SVGID_20_">
						<use xlink:href="#SVGID_19_"  style="overflow:visible;"/>
					</clipPath>
					<g class="st14">
						<g>
							<g>
								<defs>
									<rect id="SVGID_21_" x="105.1" y="65.1" width="28" height="5"/>
								</defs>
								<clipPath id="SVGID_22_">
									<use xlink:href="#SVGID_21_"  style="overflow:visible;"/>
								</clipPath>
								<g class="st15">
									<g>
										<g>
											<defs>
												<rect id="SVGID_23_" x="106.1" y="66.1" width="26" height="3"/>
											</defs>
											<clipPath id="SVGID_24_">
												<use xlink:href="#SVGID_23_"  style="overflow:visible;"/>
											</clipPath>
											<g class="st16">
												<path class="st8" d="M101.5,60.9h41.7v13.5h-41.7V60.9z"/>
											</g>
										</g>
									</g>
								</g>
							</g>
						</g>
					</g>
				</g>
			</g>
		</g>
	</g>
</g>
<g>
	<g>
		<defs>
			<path id="SVGID_25_" d="M135.6,69.1c0.8,0,1.4-0.6,1.4-1.4s-0.6-1.4-1.4-1.4h-0.1c-0.8,0-1.4,0.6-1.4,1.4
				C134.2,68.5,134.9,69.1,135.6,69.1z"/>
		</defs>
		<clipPath id="SVGID_26_">
			<use xlink:href="#SVGID_25_"  style="overflow:visible;"/>
		</clipPath>
		<g class="st17">
			<g>
				<g>
					<defs>
						<rect id="SVGID_27_" x="134.1" y="66.1" width="3" height="4"/>
					</defs>
					<clipPath id="SVGID_28_">
						<use xlink:href="#SVGID_27_"  style="overflow:visible;"/>
					</clipPath>
					<g class="st18">
						<g>
							<g>
								<defs>
									<rect id="SVGID_29_" x="133.1" y="65.1" width="5" height="6"/>
								</defs>
								<clipPath id="SVGID_30_">
									<use xlink:href="#SVGID_29_"  style="overflow:visible;"/>
								</clipPath>
								<g class="st19">
									<g>
										<g>
											<defs>
												<rect id="SVGID_31_" x="134.1" y="66.1" width="3" height="4"/>
											</defs>
											<clipPath id="SVGID_32_">
												<use xlink:href="#SVGID_31_"  style="overflow:visible;"/>
											</clipPath>
											<g class="st20">
												<path class="st8" d="M128.8,60.9h13.5v13.5h-13.5V60.9z"/>
											</g>
										</g>
									</g>
								</g>
							</g>
						</g>
					</g>
				</g>
			</g>
		</g>
	</g>
</g>
<path class="st2" d="M97.1,88.9c0.6-1.1,1-2.1,1.6-3.1c1.3-2.4,2.8-4.7,4.4-6.8c0.5-0.6,1.4-0.9,2.2-0.6c0.5,0.2,0.6,0.5,0.3,0.9
	s-0.4,0.6-0.7,0.8c-2.2,3-4.1,6.3-5.6,9.8c-0.2,0.5-0.5,1.1-0.7,1.6c-0.4,0.8-1.5,1.2-2.3,0.7c-0.2-0.1-0.4-0.3-0.5-0.4
	c-1-1.4-2.1-2.8-3.1-4.2c-0.4-0.5-0.4-0.9,0.2-1.2c0.4-0.2,0.8-0.4,1.3-0.4c0.4-0.1,0.9,0.2,1.1,0.6C95.9,87.2,96.5,88,97.1,88.9z"
	/>
<g>
	<g>
		<defs>
			<path id="SVGID_33_" d="M106.8,87.3c0,0.8,0.6,1.4,1.4,1.4h22.3c0.8,0,1.4-0.6,1.4-1.4s-0.6-1.4-1.4-1.4h-22.3
				C107.4,85.9,106.8,86.5,106.8,87.3z"/>
		</defs>
		<clipPath id="SVGID_34_">
			<use xlink:href="#SVGID_33_"  style="overflow:visible;"/>
		</clipPath>
		<g class="st21">
			<g>
				<g>
					<defs>
						<rect id="SVGID_35_" x="106.1" y="85.1" width="26" height="4"/>
					</defs>
					<clipPath id="SVGID_36_">
						<use xlink:href="#SVGID_35_"  style="overflow:visible;"/>
					</clipPath>
					<g class="st22">
						<g>
							<g>
								<defs>
									<rect id="SVGID_37_" x="105.1" y="84.1" width="28" height="6"/>
								</defs>
								<clipPath id="SVGID_38_">
									<use xlink:href="#SVGID_37_"  style="overflow:visible;"/>
								</clipPath>
								<g class="st23">
									<g>
										<g>
											<defs>
												<rect id="SVGID_39_" x="106.1" y="85.1" width="26" height="4"/>
											</defs>
											<clipPath id="SVGID_40_">
												<use xlink:href="#SVGID_39_"  style="overflow:visible;"/>
											</clipPath>
											<g class="st24">
												<path class="st8" d="M101.5,80.6h41.7v13.5h-41.7V80.6z"/>
											</g>
										</g>
									</g>
								</g>
							</g>
						</g>
					</g>
				</g>
			</g>
		</g>
	</g>
</g>
<g>
	<g>
		<defs>
			<path id="SVGID_41_" d="M135.6,88.7c0.8,0,1.4-0.6,1.4-1.4s-0.6-1.4-1.4-1.4h-0.1c-0.8,0-1.4,0.6-1.4,1.4
				C134.2,88.1,134.9,88.7,135.6,88.7z"/>
		</defs>
		<clipPath id="SVGID_42_">
			<use xlink:href="#SVGID_41_"  style="overflow:visible;"/>
		</clipPath>
		<g class="st25">
			<g>
				<g>
					<defs>
						<rect id="SVGID_43_" x="134.1" y="85.1" width="3" height="4"/>
					</defs>
					<clipPath id="SVGID_44_">
						<use xlink:href="#SVGID_43_"  style="overflow:visible;"/>
					</clipPath>
					<g class="st26">
						<g>
							<g>
								<defs>
									<rect id="SVGID_45_" x="133.1" y="84.1" width="5" height="6"/>
								</defs>
								<clipPath id="SVGID_46_">
									<use xlink:href="#SVGID_45_"  style="overflow:visible;"/>
								</clipPath>
								<g class="st27">
									<g>
										<g>
											<defs>
												<rect id="SVGID_47_" x="134.1" y="85.1" width="3" height="4"/>
											</defs>
											<clipPath id="SVGID_48_">
												<use xlink:href="#SVGID_47_"  style="overflow:visible;"/>
											</clipPath>
											<g class="st28">
												<path class="st8" d="M128.8,80.6h13.5v13.5h-13.5V80.6z"/>
											</g>
										</g>
									</g>
								</g>
							</g>
						</g>
					</g>
				</g>
			</g>
		</g>
	</g>
</g>
</svg>
