<svg xmlns="http://www.w3.org/2000/svg" width="7.149" height="11.374" viewBox="0 0 7.149 11.374"><defs><style>.a{fill:#6371b6;}</style></defs><path class="a" d="M4.618,5.675c-.035-.037-.062-.069-.094-.1q-1.036-1-2.073-2L.324,1.515A.871.871,0,1,1,1.532.261L4.466,3.1,7.081,5.623c.014.014.031.025.065.053a.413.413,0,0,0-.061.038Q5.572,7.171,4.06,8.63q-1.3,1.258-2.612,2.514a.8.8,0,0,1-.815.194A.829.829,0,0,1,.005,10.6.8.8,0,0,1,.25,9.9q1.429-1.388,2.864-2.77l1.46-1.41C4.589,5.7,4.6,5.686,4.618,5.675Z" transform="translate(0.003 -0.003)"/></svg>