<?xml version="1.0" encoding="utf-8"?>
<!-- Generator: Adobe Illustrator 25.2.1, SVG Export Plug-In . SVG Version: 6.00 Build 0)  -->
<svg version="1.1" id="Layer_1" xmlns="http://www.w3.org/2000/svg" xmlns:xlink="http://www.w3.org/1999/xlink" x="0px" y="0px"
	 viewBox="0 0 137 120" style="enable-background:new 0 0 137 120;" xml:space="preserve">
<style type="text/css">
	.st0{fill:#B7A7E2;}
	.st1{fill:#5AC7D9;}
	.st2{fill:#4F476A;}
	.st3{fill:none;stroke:#4F476A;stroke-width:4.9085;stroke-linecap:round;stroke-linejoin:round;stroke-miterlimit:10;}
	.st4{fill:#B7A7E2;stroke:#000000;stroke-miterlimit:10;}
</style>
<g id="Group_723">
	<path id="Path_1013" class="st0" d="M12.5,86.8c20.4,31,100.4,30.6,115.6-8.8c11.5-29.9-38.6-78.9-63.2-67.4S52.1,41.4,33.2,50.7
		C10.2,62.1,6.2,77.3,12.5,86.8z"/>
	<path id="Path_1014" class="st0" d="M18.8,50.2c-2.5-4-13.6,0.3-11.2,5.9C11,64.2,21,53.6,18.8,50.2z"/>
</g>
<g>
	<path class="st1" d="M29.8,64.8L30.2,88c0,0-5.1,0.4-6.3-4.5c-1.1-4.9-1.6-11.3-0.7-13.3s3-4.3,4.2-5
		C28.6,64.6,29.8,64.8,29.8,64.8z"/>
	<path class="st1" d="M105.5,88l-0.4-23.3c0,0,5.1-0.4,6.3,4.5c1.1,4.9,1.6,11.3,0.7,13.3c-1,2-3,4.3-4.2,5
		C106.7,88.2,105.5,88,105.5,88z"/>
	<g id="flJ7Np_1_">
		<g>
			<g>
				<path class="st2" d="M102.6,58.4c0.6-12.3-4.1-24.2-11.8-31.3L87,30.9c-1,1-2.5,1.1-3.7,0.3C78.6,27.8,73.2,26,67.2,26
					c-6,0-11.3,1.8-16.1,5.1c-1.1,0.8-2.7,0.7-3.7-0.3l-3.8-3.8c-3.7,3.3-6.5,7.1-8.5,11.4c-2.2,4.7-4,12.3-3.3,19.9
					c0.2,0,0.4,0,0.5,0c2.4,0,4.9,0,7.3,0c2.1,0,3.9,1.7,3.9,3.8c0,0.1,0,0.3,0,0.4c0,9,0,18,0,27c0,1.7-0.6,2.9-2.1,3.8
					c-0.6,0.3-1.2,0.4-1.9,0.4c-2.6,0-5.2,0-7.7,0c-2,0-3.9-1.7-4-3.7c0-0.4-0.1-0.6-0.5-0.7c-1.4-0.5-2.6-1.3-3.5-2.4
					c-2-2.2-3-4.8-3.5-7.7c-0.5-2.8-0.3-5.7,0.5-8.4c0.8-2.9,2.3-5.4,4.8-7.2c0.6-0.4,1.3-0.7,2-0.9c0.3-0.1,0.4-0.2,0.4-0.6
					c0-2.4,0-9.7,0.2-12.1c0.3-3,1-5.9,2-8.8c0.8-2.2,1.7-4.3,2.9-6.3c2.1-3.7,4.7-7,7.8-9.8c2.9-2.6,6.1-4.8,9.7-6.5
					c3.3-1.5,6.7-2.6,10.3-3.2c3.6-0.6,7.3-0.7,10.9-0.3c4,0.5,7.8,1.5,11.5,3.1c2.7,1.2,5.2,2.6,7.5,4.3c3.4,2.6,6.4,5.6,8.9,9.1
					c3.9,5.7,6.2,12,7,19.1c0.1,1.1,0.1,7.1,0.1,8.2c0,1.1,0,2.2,0,3.3c0,0.2,0.1,0.4,0.3,0.5c2.1,0.7,3.6,2.1,4.8,3.9
					c1.5,2.1,2.3,4.5,2.5,7c0.1,1.2,0,2.4,0,3.6c0,3.1-1,5.9-2.7,8.5c-1,1.5-2.3,2.7-4,3.4c-0.3,0.1-0.5,0.2-0.8,0.3
					c-0.2,0.1-0.3,0.2-0.3,0.4c-0.1,2.5-2,4.1-4.5,3.9c-2.2-0.2-4.4-0.3-6.6,0c-2.5,0.3-4.6-1.5-4.6-3.9c0-9.1,0-18.3,0-27.4
					c0-2.2,1.8-4,4-4c2.4,0,4.9,0,7.3,0C102.2,58.4,102.4,58.4,102.6,58.4z M31.9,62.3c0,0.1,0,0.3,0,0.4c0,8.9,0,17.8,0,26.7
					c0,0.3,0.1,0.4,0.4,0.4c2.4,0,4.7,0,7.1,0c0.1,0,0.2,0,0.3,0c0-9.2,0-18.4,0-27.6C37.1,62.3,34.5,62.3,31.9,62.3z M102.6,62.3
					c-2.6,0-5.2,0-7.8,0c0,9.2,0,18.4,0,27.6c2.6,0,5.2,0,7.8,0C102.6,80.7,102.6,71.5,102.6,62.3z M49.5,27.4
					c11.8-7.2,23.6-7.2,35.3,0c0.9-0.9,1.9-1.8,2.8-2.7c-13.2-9.4-29.9-8-40.9,0C47.7,25.6,48.7,26.6,49.5,27.4z M106.5,85.3
					c0.8-0.6,1.4-1.2,1.9-2.1c1.3-2.3,2-4.7,2-7.3c0-2.5-0.7-4.9-2-7c-0.5-0.8-1.1-1.5-1.9-2C106.5,73.1,106.5,79.2,106.5,85.3z
					 M27.9,85.3c0-6.1,0-12.2,0-18.3c0,0-0.1-0.1-0.1-0.1c-0.6,0.6-1.2,1.1-1.6,1.8C24.8,70.9,24,73.3,24,76c0,2.1,0.4,4.1,1.3,6.1
					C25.9,83.3,26.7,84.5,27.9,85.3z"/>
				<path class="st1" d="M31.9,62.3c2.6,0,5.2,0,7.8,0c0,9.2,0,18.3,0,27.6c-0.1,0-0.2,0-0.3,0c-2.4,0-4.7,0-7.1,0
					c-0.3,0-0.4-0.1-0.4-0.4c0-8.9,0-17.8,0-26.7C31.9,62.6,31.9,62.5,31.9,62.3z"/>
				<path class="st1" d="M102.6,62.3c0,9.2,0,18.4,0,27.6c-2.6,0-5.2,0-7.8,0c0-9.2,0-18.4,0-27.6C97.4,62.3,99.9,62.3,102.6,62.3z"
					/>
				<path class="st1" d="M49.5,27.4c-0.9-0.9-1.8-1.8-2.7-2.7c10.9-8,27.7-9.4,40.9,0c-0.9,0.9-1.9,1.8-2.8,2.7
					C73.1,20.3,61.3,20.3,49.5,27.4z"/>
			</g>
		</g>
	</g>
	<g>
		<line class="st3" x1="67.2" y1="64.1" x2="67.2" y2="87"/>
		<g>
			<line class="st3" x1="54.4" y1="70.1" x2="54.4" y2="81"/>
			<line class="st3" x1="79.9" y1="70.1" x2="79.9" y2="81"/>
		</g>
	</g>
</g>
<path class="st4" d="M25.8-24"/>
</svg>
