<svg xmlns="http://www.w3.org/2000/svg" width="30" height="30" viewBox="0 0 30 30"><defs><style>.a,.d{fill:none;}.a{stroke:#fff;stroke-width:2px;}.b{fill:#fff;}.c{stroke:none;}</style></defs><g transform="translate(9)"><g class="a" transform="translate(-9)"><circle class="c" cx="15" cy="15" r="15"/><circle class="d" cx="15" cy="15" r="14"/></g><g transform="translate(2.287 7.823)"><path class="b" d="M6.021,7.4c-.045-.048-.081-.09-.122-.129Q4.549,5.96,3.2,4.655,1.81,3.313.423,1.975A1.136,1.136,0,1,1,2,.34l3.824,3.7L9.231,7.329c.018.018.041.033.084.069a.539.539,0,0,0-.08.05q-1.972,1.9-3.942,3.8-1.7,1.64-3.4,3.278a1.049,1.049,0,0,1-1.063.253,1.081,1.081,0,0,1-.819-.959A1.045,1.045,0,0,1,.327,12.9Q2.19,11.089,4.061,9.288l1.9-1.838C5.984,7.43,6,7.412,6.021,7.4Z" transform="translate(0.003 -0.003)"/></g></g></svg>