<svg id="Layer_1" data-name="Layer 1" xmlns="http://www.w3.org/2000/svg" xmlns:xlink="http://www.w3.org/1999/xlink" width="160" height="130" viewBox="0 0 160 130"><defs><style>.cls-1{fill:none;}.cls-2{clip-path:url(#clip-path);}.cls-3{clip-path:url(#clip-path-2);}.cls-4{fill:#5ac6d9;}.cls-5,.cls-7{fill:#fff;}.cls-6{fill:#4e4b6f;}.cls-7{fill-rule:evenodd;}.cls-8{clip-path:url(#clip-path-3);}.cls-9{clip-path:url(#clip-path-4);}.cls-10{fill:#4f476a;}.cls-11{clip-path:url(#clip-path-5);}.cls-12{clip-path:url(#clip-path-7);}.cls-13{clip-path:url(#clip-path-9);}.cls-14{clip-path:url(#clip-path-11);}.cls-15{clip-path:url(#clip-path-13);}</style><clipPath id="clip-path"><path class="cls-1" d="M-23.74-72.21a1.85,1.85,0,0,0,1.85,1.85H7.33a1.85,1.85,0,0,0,1.86-1.85A1.84,1.84,0,0,0,7.33-74H-21.89a1.84,1.84,0,0,0-1.85,1.84"/></clipPath><clipPath id="clip-path-2"><path class="cls-1" d="M14.06-70.36a1.87,1.87,0,0,0,1.86-1.85A1.85,1.85,0,0,0,14.06-74H14a1.81,1.81,0,0,0-1.81,1.82v0a1.89,1.89,0,0,0,1.89,1.85"/></clipPath><clipPath id="clip-path-3"><path class="cls-1" d="M56.28,45.66s1.4,2,9.53,2,9.77-2,9.77-2a2.83,2.83,0,0,0-2.12-3.23c-2.65-1-4.84-1.29-4.79-3.3a5.14,5.14,0,0,1,.4-2.19.48.48,0,0,0,.23.07c.17,0,.42-.1.68-.54.49-.79.87-1.85,0-2.11.19-1,.4-3.44-1.13-4.72a4.4,4.4,0,0,0-2.62-1l0,0h-.54s0,0,0,0a4.4,4.4,0,0,0-2.62,1c-1.53,1.28-1.32,3.7-1.14,4.72-.86.26-.48,1.32,0,2.11.27.44.52.54.69.54a.48.48,0,0,0,.23-.07,5.14,5.14,0,0,1,.4,2.19c.05,2-2.15,2.33-4.79,3.3a2.83,2.83,0,0,0-2.12,3.23"/></clipPath><clipPath id="clip-path-4"><rect class="cls-1" x="-239.23" y="-199.33" width="1132.43" height="1132.43"/></clipPath><clipPath id="clip-path-5"><path class="cls-1" d="M55.93,55.32a1.46,1.46,0,0,0,1.47,1.46H86.54a1.46,1.46,0,0,0,0-2.92H57.4a1.46,1.46,0,0,0-1.47,1.46"/></clipPath><clipPath id="clip-path-7"><path class="cls-1" d="M92.36,56.78a1.46,1.46,0,0,0,0-2.92h-.07a1.44,1.44,0,0,0-1.43,1.44v0a1.49,1.49,0,0,0,1.49,1.46"/></clipPath><clipPath id="clip-path-9"><path class="cls-1" d="M57.4,72.39H86.54a1.46,1.46,0,0,0,0-2.92H57.4a1.46,1.46,0,1,0,0,2.92"/></clipPath><clipPath id="clip-path-11"><path class="cls-1" d="M103.52,62H57.39a1.46,1.46,0,1,0,0,2.92h46.13a1.46,1.46,0,1,0,0-2.92"/></clipPath><clipPath id="clip-path-13"><path class="cls-1" d="M102.21,87.94H92.28l-2-3.53A1.3,1.3,0,0,0,89,83.76a1.33,1.33,0,0,0-1.12.87L85,92.81,81.5,80.59a1.28,1.28,0,0,0-1.29-1,1.32,1.32,0,0,0-1.25,1L76.1,92.76l-2.72-6.92A1.31,1.31,0,0,0,72.16,85h0a1.31,1.31,0,0,0-1.21.88l-3.5,10h-10a1.3,1.3,0,0,0-1.31,1.3h0a1.3,1.3,0,0,0,1.31,1.31H68.35a1.31,1.31,0,0,0,1.24-.88l2.63-7.49,3,7.54a1.31,1.31,0,0,0,1.22.83h.1a1.31,1.31,0,0,0,1.18-1l2.66-11.28L83.57,97.5a1.31,1.31,0,0,0,2.5.08l3.32-9.39,1,1.71a1.33,1.33,0,0,0,1.14.65h10.7a1.31,1.31,0,0,0,1.31-1.31h0a1.3,1.3,0,0,0-1.31-1.3h0"/></clipPath></defs><title>clinicalsupervision</title><g id="Group_4514" data-name="Group 4514"><path id="Path_4359" data-name="Path 4359" class="cls-4" d="M37.09,43.19c-2.71-6.22-19.85-3.1-17.78,5.34C22.25,60.56,39.38,48.43,37.09,43.19Z"/><path id="Path_4360" data-name="Path 4360" class="cls-4" d="M11.22,96.81c24.18,37,120.06,42.51,138.56-1.34,14.05-33.29-45.48-93-75.17-81.75S59.17,47.85,36.4,57.11C8.74,68.36,3.78,85.42,11.22,96.81Z"/><g id="Group_4488" data-name="Group 4488"><path id="Rectangle_293" data-name="Rectangle 293" class="cls-5" d="M46.71,14.57h66.58a3.07,3.07,0,0,1,3.07,3.07v94.22a3.07,3.07,0,0,1-3.07,3.08H46.72a3.08,3.08,0,0,1-3.08-3.07V17.64A3.07,3.07,0,0,1,46.71,14.57Z"/><path id="Path_4361" data-name="Path 4361" class="cls-6" d="M46.72,16.67a1,1,0,0,0-1,1v94.23a1,1,0,0,0,1,1h66.57a1,1,0,0,0,1-1V17.64a1,1,0,0,0-1-1ZM113.29,117H46.72a5.17,5.17,0,0,1-5.18-5.17h0V17.64a5.18,5.18,0,0,1,5.17-5.18h66.58a5.18,5.18,0,0,1,5.17,5.17h0v94.23a5.17,5.17,0,0,1-5.17,5.17Z"/><path id="Path_4362" data-name="Path 4362" class="cls-7" d="M85,9.41A5.08,5.08,0,0,0,75,9.41H63.44v9.22H96.57V9.41Z"/><path id="Path_4363" data-name="Path 4363" class="cls-6" d="M65,17.09H95V10.93H85A1.54,1.54,0,0,1,83.5,9.62a3.54,3.54,0,0,0-7,0A1.54,1.54,0,0,1,75,10.93h-10v6.16Zm31.61,3.06H63.45a1.52,1.52,0,0,1-1.52-1.51h0V9.41A1.51,1.51,0,0,1,63.44,7.9H73.8a6.59,6.59,0,0,1,12.42,0H96.57a1.5,1.5,0,0,1,1.52,1.5h0v9.22a1.52,1.52,0,0,1-1.51,1.52Z"/><path id="Path_4364" data-name="Path 4364" class="cls-6" d="M80,8.34a1.71,1.71,0,0,1,1.28.53,1.8,1.8,0,0,1,0,2.57,1.81,1.81,0,0,1-2.56,0,1.8,1.8,0,0,1,0-2.57A1.71,1.71,0,0,1,80,8.34Z"/></g><g id="Group_4513" data-name="Group 4513"><g id="Group_4492" data-name="Group 4492"><g class="cls-8"><g id="Group_4491" data-name="Group 4491"><g id="Group_4490" data-name="Group 4490"><g class="cls-9"><g id="Group_4489" data-name="Group 4489"><rect id="Rectangle_294" data-name="Rectangle 294" class="cls-10" x="50.71" y="23.12" width="30.44" height="30.03"/></g></g></g></g></g></g><g id="Group_4496" data-name="Group 4496"><g class="cls-11"><g id="Group_4495" data-name="Group 4495"><g id="Group_4494" data-name="Group 4494"><g class="cls-9"><g id="Group_4493" data-name="Group 4493"><rect id="Rectangle_296" data-name="Rectangle 296" class="cls-10" x="50.4" y="48.33" width="43.13" height="13.97"/></g></g></g></g></g></g><g id="Group_4500" data-name="Group 4500"><g class="cls-12"><g id="Group_4499" data-name="Group 4499"><g id="Group_4498" data-name="Group 4498"><g class="cls-9"><g id="Group_4497" data-name="Group 4497"><rect id="Rectangle_298" data-name="Rectangle 298" class="cls-10" x="85.33" y="48.33" width="14.02" height="13.97"/></g></g></g></g></g></g><g id="Group_4504" data-name="Group 4504"><g class="cls-13"><g id="Group_4503" data-name="Group 4503"><g id="Group_4502" data-name="Group 4502"><g class="cls-9"><g id="Group_4501" data-name="Group 4501"><rect id="Rectangle_300" data-name="Rectangle 300" class="cls-10" x="50.4" y="63.94" width="43.13" height="13.97"/></g></g></g></g></g></g><g id="Group_4508" data-name="Group 4508"><g class="cls-14"><g id="Group_4507" data-name="Group 4507"><g id="Group_4506" data-name="Group 4506"><g class="cls-9"><g id="Group_4505" data-name="Group 4505"><rect id="Rectangle_302" data-name="Rectangle 302" class="cls-10" x="50.4" y="56.42" width="60.11" height="13.97"/></g></g></g></g></g></g><g id="Group_4512" data-name="Group 4512"><g class="cls-15"><g id="Group_4511" data-name="Group 4511"><g id="Group_4510" data-name="Group 4510"><g class="cls-9"><g id="Group_4509" data-name="Group 4509"><rect id="Rectangle_304" data-name="Rectangle 304" class="cls-10" x="50.55" y="74.1" width="58.5" height="29.88"/></g></g></g></g></g></g></g></g></svg>