<svg id="Layer_1" data-name="Layer 1" xmlns="http://www.w3.org/2000/svg" xmlns:xlink="http://www.w3.org/1999/xlink" width="160" height="130" viewBox="0 0 160 130"><defs><style>.cls-1{fill:none;}.cls-2{clip-path:url(#clip-path);}.cls-3{clip-path:url(#clip-path-2);}.cls-4{fill:#78b1e0;}.cls-5{fill:#fff;}.cls-6{fill:#4e4b6e;}</style><clipPath id="clip-path"><path class="cls-1" d="M-25.07,260.33a1.85,1.85,0,0,0,1.85,1.85H6a1.85,1.85,0,1,0,0-3.69H-23.22a1.84,1.84,0,0,0-1.85,1.84"/></clipPath><clipPath id="clip-path-2"><path class="cls-1" d="M12.73,262.18a1.85,1.85,0,1,0,0-3.69h-.08a1.81,1.81,0,0,0-1.81,1.82v0a1.89,1.89,0,0,0,1.89,1.85"/></clipPath></defs><title>clinicianregister</title><g id="Group_4698" data-name="Group 4698"><g id="Group_4688" data-name="Group 4688"><path id="Path_4428" data-name="Path 4428" class="cls-4" d="M17.31,102.2c7.24,6.41,16.78,9.67,25.89,12.4a127.12,127.12,0,0,0,30.4,5.33c16.64.79,35.24-1.7,49.83-10.21,11.58-6.76,22.46-18.11,23.86-32a28.78,28.78,0,0,0-1.12-11.26c-2.9-9.6-9.36-18-16.38-24.94C115.45,27.2,94.47,14,73.64,13.38a28,28,0,0,0-14.32,3C31.3,31.74,49,51.06,27.57,63.41c-7.12,4.11-13.91,12-16.38,19.88S11.89,97.39,17.31,102.2Z"/><path id="Path_4429" data-name="Path 4429" class="cls-4" d="M33.54,44.62C29.32,39,12.86,46.28,17,54.25,22.8,65.62,37.08,49.33,33.54,44.62Z"/></g><g id="Group_4697" data-name="Group 4697"><g id="Group_4695" data-name="Group 4695"><path id="Path_4430" data-name="Path 4430" class="cls-5" d="M129.17,97.31s1.15-25.2-10.83-29.87S96.5,58,94.86,56.5s-3.29-5.75-3.29-5.75a59.07,59.07,0,0,0,3.08-6.6c1-2.76,5.21-6.5,4.57-9.94s-1.15-7.52-1.28-8.16S92,8.37,80.08,9.35,62.38,16.75,62.25,25s-1.78,9.82-1.65,11.73,3,7.14,3,7.14A6.18,6.18,0,0,1,68,48.49s.13,5-3.06,7.32c-3.57,2.62-8.91,5.75-13,6.16S37.27,70,35.36,72.07s-4.59,27-4.59,27S50,114,81.63,112.35,125.48,101.9,129.17,97.31Z"/><g id="Group_4693" data-name="Group 4693"><path id="Path_4431" data-name="Path 4431" class="cls-6" d="M68.34,55.8h0a2,2,0,0,1-2-2h0a23.94,23.94,0,0,0-1-7c-1.21-.1-2.84-.79-4.34-3.25s-3.21-6.27-2.14-9.09a4.55,4.55,0,0,1,1.64-2.13c-.72-5.19-1-14.93,5.8-20.54a20.77,20.77,0,0,1,12-4.61A1.79,1.79,0,0,1,78.89,7h2.33a1.77,1.77,0,0,1,.56.09,20.65,20.65,0,0,1,12,4.62c6.77,5.6,6.52,15.34,5.8,20.53a4.55,4.55,0,0,1,1.64,2.13c1.07,2.83-.57,6.5-2.14,9.08S96,46.63,94.75,46.73a24,24,0,0,0-1,7,2,2,0,0,1-2,2h0a2,2,0,0,1-2-2h0c0-6.46,1.85-10.1,1.93-10.25a2,2,0,0,1,1.34-1,2,2,0,0,1,1.45.21,3.12,3.12,0,0,0,1.17-1.3c1.67-2.75,2.12-4.77,1.82-5.56,0-.1-.13-.33-.69-.5A2,2,0,0,1,95.37,33c.55-3,1.86-13.21-4.16-18.2a16.75,16.75,0,0,0-10-3.72,1.5,1.5,0,0,1-.37,0h-1.6a1.5,1.5,0,0,1-.37,0,16.72,16.72,0,0,0-10,3.72c-6,5-4.7,15.19-4.16,18.2a2,2,0,0,1-1.39,2.29c-.56.17-.64.39-.69.5-.29.78.15,2.8,1.82,5.56a3.19,3.19,0,0,0,1.17,1.3,2,2,0,0,1,1.45-.21,2,2,0,0,1,1.34,1c.08.15,1.94,3.8,1.93,10.26a2,2,0,0,1-2,2Z"/><path id="Path_4432" data-name="Path 4432" class="cls-6" d="M94.65,42.82a0,0,0,0,1,0,0A0,0,0,0,0,94.65,42.82Z"/><path id="Path_4433" data-name="Path 4433" class="cls-6" d="M65.45,42.82l0,0Z"/></g><g id="Group_4694" data-name="Group 4694"><path id="Path_4438" data-name="Path 4438" class="cls-1" d="M92.07,62.89l-.15.47-7.3,29.52,10.12-16.2L91.5,72.93a1.89,1.89,0,0,1,.75-3l4-1.54-.55-9.57-2.19-1.93-1.48,6Z"/><path id="Path_4439" data-name="Path 4439" class="cls-1" d="M66.77,56.5l-2.63,2.31-.55,9.57,4,1.54a1.89,1.89,0,0,1,.75,3l-3.24,3.75L75.44,93.21,68.55,64l0-.1-.19-.55.08,0Z"/><path id="Path_4440" data-name="Path 4440" class="cls-1" d="M105.1,97.31A4.13,4.13,0,1,0,101,93.18,4.14,4.14,0,0,0,105.1,97.31Z"/><path id="Path_4441" data-name="Path 4441" class="cls-1" d="M73.89,70.34,80,95.91l6.31-25.5a11.93,11.93,0,0,1-6,1.68A12.59,12.59,0,0,1,73.89,70.34Z"/><path id="Path_4442" data-name="Path 4442" class="cls-6" d="M128.71,77.39a15.11,15.11,0,0,0-9.46-12.24L99.31,57.28a1.84,1.84,0,0,0-.5-.78l-5.92-5.23-.73.84-2.38.09.38,2.5-1.89,7.63a8.56,8.56,0,0,1-16.19.38v0l-1.8-7.6V52.35H69l-1.42-1.6L61,56.5a1.84,1.84,0,0,0-.53.87L40.82,65.15a15.11,15.11,0,0,0-9.46,12.24L28.8,98.58l3.76.46,2.57-21.19a11.29,11.29,0,0,1,7.08-9.18l13-5.14a18.65,18.65,0,0,0-3.64,11.1,7.72,7.72,0,0,0-5.5,6.67L43.66,94.54A6.26,6.26,0,0,0,49.8,102v.81a.57.57,0,0,0,.58.57h1.91a.57.57,0,0,0,.58-.57h0V97.55a.57.57,0,0,0-.58-.57H50.38a.58.58,0,0,0-.58.57v.61a2.42,2.42,0,0,1-1.89-.89,2.45,2.45,0,0,1-.54-2L49.86,81.8A4.11,4.11,0,0,1,53.94,78,4.17,4.17,0,0,1,58,82L60.5,95.21a2.45,2.45,0,0,1-2.28,2.92v-.58a.57.57,0,0,0-.57-.57H55.56a.57.57,0,0,0-.57.57h0v5.21a.58.58,0,0,0,.57.58h2.08a.58.58,0,0,0,.58-.58h0v-.83a6.26,6.26,0,0,0,6-7.41l-2.43-13a7.94,7.94,0,0,0-6.41-7.11,16.15,16.15,0,0,1,4.67-10.72l-.34,5.89a1.88,1.88,0,0,0,1.21,1.87l2.79,1.07-2.4,2.77a1.9,1.9,0,0,0-.17,2.24l16.71,26.74a2.43,2.43,0,0,0,4.12,0L98.69,77.5a1.86,1.86,0,0,0-.17-2.24l-2.39-2.77,2.78-1.07a1.88,1.88,0,0,0,1.21-1.88l-.29-5,1.26,2.14a15.54,15.54,0,0,1,2.12,7.78V85.53a7.91,7.91,0,1,0,3.78,0V74.46a19.22,19.22,0,0,0-2.63-9.7l-1.09-1.85,14.58,5.75a11.32,11.32,0,0,1,7.09,9.18L127.51,99l3.76-.45ZM68.5,63.93a.54.54,0,0,0,0,.11L75.44,93.2,65.11,76.67l3.24-3.74a1.93,1.93,0,0,0,.41-1.71,1.89,1.89,0,0,0-1.16-1.3l-4-1.54.55-9.57,2.63-2.32,1.62,6.87-.08,0Zm27.21-5.12.55,9.57-4,1.54a1.91,1.91,0,0,0-1.16,1.31,1.88,1.88,0,0,0,.41,1.7l3.24,3.75L84.62,92.88l7.3-29.52.15-.47h0l1.48-6ZM80,95.91,73.89,70.33a12.6,12.6,0,0,0,6.33,1.76,12.14,12.14,0,0,0,6-1.68Zm25.14-6.85A4.12,4.12,0,1,1,101,93.18a4.13,4.13,0,0,1,4.12-4.12Z"/></g></g><g id="Group_4696" data-name="Group 4696"><path id="Path_4443" data-name="Path 4443" class="cls-6" d="M79.93,115c-36.28,0-50.08-14-50.65-14.63a2,2,0,0,1,.07-2.84h0a2,2,0,0,1,2.84.07h0c.13.13,13.37,13.39,47.74,13.39s47.73-13.85,47.86-14a2,2,0,0,1,3,2.74C130.17,100.39,116.22,115,79.93,115Z"/></g></g></g></svg>