<svg xmlns="http://www.w3.org/2000/svg" xmlns:xlink="http://www.w3.org/1999/xlink" viewBox="0 0 200.844 179.246"><defs><style>.a{fill:#5ac7da;}.b{clip-path:url(#a);}.c{clip-path:url(#b);}.d{fill:#fff;}.e{clip-path:url(#c);}.f{clip-path:url(#e);}.g{clip-path:url(#g);}.h{clip-path:url(#h);}.i{fill:#4f476a;}.j{clip-path:url(#j);}.k{clip-path:url(#l);}.l{clip-path:url(#m);}.m{clip-path:url(#n);}.n{clip-path:url(#p);}.o{clip-path:url(#r);}.p{clip-path:url(#t);}.q{clip-path:url(#v);}.r{clip-path:url(#x);}.s{fill:none;stroke:#4e4b6d;stroke-linecap:round;stroke-width:5px;}</style><clipPath id="a"><path d="M54.045,56.572c-4.117-6.071-5.53-13.554-6.011-17.912H29.221c-.481,4.358-1.893,11.871-6.011,17.912Z" transform="translate(-23.21 -38.66)"/></clipPath><clipPath id="b"><rect width="165.296" height="165.296" transform="translate(0)"/></clipPath><clipPath id="c"><path d="M133.777,8.68h-124a3.091,3.091,0,0,0-3.1,3.1V90.667a3.091,3.091,0,0,0,3.1,3.1H133.807a3.091,3.091,0,0,0,3.1-3.1V11.745A3.131,3.131,0,0,0,133.777,8.68ZM41.933,31.821a3.516,3.516,0,1,1-3.516,3.516A3.54,3.54,0,0,1,41.933,31.821Zm-9.347,0a3.516,3.516,0,1,1-3.516,3.516A3.5,3.5,0,0,1,32.586,31.821Zm-9.347,0a3.516,3.516,0,1,1-3.516,3.516A3.521,3.521,0,0,1,23.24,31.821ZM22.158,44.744H55.1a2.675,2.675,0,1,1,0,5.35H22.158a2.675,2.675,0,1,1,0-5.35Zm0,8.565H62.4a2.675,2.675,0,0,1,0,5.35H22.158a2.675,2.675,0,1,1,0-5.35Zm22,15.177h-22a2.675,2.675,0,1,1,0-5.35h22a2.675,2.675,0,1,1,0,5.35Zm39.851-6.011v11.45a2.7,2.7,0,0,1-5.41,0v-21.1a2.756,2.756,0,0,1,1.5-2.434l15.448-7.543a2.807,2.807,0,0,1,1.2-.27,2.769,2.769,0,0,1,2.434,1.5,2.69,2.69,0,0,1-1.232,3.606L84.038,54.512v7.964Zm39.4-14.005-8.866,4.358.09,10.489a2.7,2.7,0,0,1-1.5,2.434L96.992,73.686a2.711,2.711,0,0,1-1.2.27,2.807,2.807,0,0,1-1.2-.27l-8.565-4.208V63.438l9.737,4.809,13.4-6.612-.03-6.191L96.961,61.424a2.711,2.711,0,0,1-1.2.27,2.807,2.807,0,0,1-1.2-.27l-8.565-4.208V55.744L90.62,53.49l5.109,2.525,20.286-9.978L95.729,36.059,75.443,46.037l4.448,2.194-.721.361a4.745,4.745,0,0,0-2.615,4.057L68.14,48.5a2.723,2.723,0,0,1,0-4.869L94.557,30.619a2.74,2.74,0,0,1,2.374,0l26.417,13.013a2.7,2.7,0,0,1,1.5,2.434A2.6,2.6,0,0,1,123.409,48.471Z" transform="translate(-6.68 -8.68)"/></clipPath><clipPath id="e"><rect width="140.291" height="118.081"/></clipPath><clipPath id="g"><rect width="141.253" height="120.215"/></clipPath><clipPath id="h"><path d="M137.146,7H13.115A8.138,8.138,0,0,0,5,15.115V94.006a8.138,8.138,0,0,0,8.115,8.115H60.66c-.631,4.9-2.494,13.614-8.115,18.543a2.573,2.573,0,0,0-.721,2.8,2.525,2.525,0,0,0,2.344,1.653H96.093a2.5,2.5,0,0,0,2.344-1.653,2.562,2.562,0,0,0-.691-2.8c-5.62-4.9-7.483-13.614-8.115-18.543h47.515a8.119,8.119,0,0,0,8.115-8.115V15.115A8.1,8.1,0,0,0,137.146,7Zm3.1,87.006a3.091,3.091,0,0,1-3.1,3.1H13.115a3.091,3.091,0,0,1-3.1-3.1V15.115a3.091,3.091,0,0,1,3.1-3.1H137.146a3.13,3.13,0,0,1,3.1,3.1Zm-55.69,8.145c.481,4.358,1.893,11.871,6.011,17.912H59.728c4.117-6.071,5.53-13.554,6.011-17.912Z" transform="translate(-5 -7)"/></clipPath><clipPath id="j"><path d="M83.361,29.174,56.944,16.16a2.74,2.74,0,0,0-2.374,0L28.153,29.174a2.723,2.723,0,0,0,0,4.869l8.415,4.147a4.844,4.844,0,0,1,2.615-4.057l.721-.361-4.448-2.194L55.742,21.6l20.286,9.978L55.742,41.556l-5.109-2.525L46,41.285v1.473l8.565,4.208a2.711,2.711,0,0,0,1.2.27,2.807,2.807,0,0,0,1.2-.27l12.172-5.981.03,6.161-13.4,6.612-9.737-4.809V54.99L54.6,59.2a2.711,2.711,0,0,0,1.2.27A2.807,2.807,0,0,0,57,59.2l16.139-7.934a2.649,2.649,0,0,0,1.5-2.434l-.09-10.489,8.866-4.358a2.7,2.7,0,0,0,1.5-2.434,2.818,2.818,0,0,0-1.563-2.374" transform="translate(-26.65 -15.89)"/></clipPath><clipPath id="l"><path d="M51.2,21.463a2.713,2.713,0,0,0-2.434-1.5,2.677,2.677,0,0,0-1.172.27L32.143,27.774a2.7,2.7,0,0,0-1.533,2.434v21.1a2.7,2.7,0,0,0,5.41,0V31.921l13.915-6.792A2.763,2.763,0,0,0,51.2,21.463" transform="translate(-30.61 -19.96)"/></clipPath><clipPath id="m"><rect width="165.296" height="165.296"/></clipPath><clipPath id="n"><path d="M13.615,26.03H46.554a2.675,2.675,0,1,0,0-5.35H13.615a2.675,2.675,0,1,0,0,5.35" transform="translate(-10.94 -20.68)"/></clipPath><clipPath id="p"><path d="M35.614,26.8h-22a2.675,2.675,0,1,0,0,5.35h22a2.675,2.675,0,0,0,0-5.35" transform="translate(-10.94 -26.8)"/></clipPath><clipPath id="r"><path d="M13.615,28.88H53.857a2.675,2.675,0,1,0,0-5.35H13.615a2.675,2.675,0,1,0,0,5.35" transform="translate(-10.94 -23.53)"/></clipPath><clipPath id="t"><path d="M14.536,23.413A3.516,3.516,0,1,0,11.02,19.9a3.5,3.5,0,0,0,3.516,3.516" transform="translate(-11.02 -16.38)"/></clipPath><clipPath id="v"><path d="M17.646,23.413A3.516,3.516,0,1,0,14.13,19.9a3.5,3.5,0,0,0,3.516,3.516" transform="translate(-14.13 -16.38)"/></clipPath><clipPath id="x"><path d="M20.766,23.413A3.516,3.516,0,1,0,17.25,19.9a3.5,3.5,0,0,0,3.516,3.516" transform="translate(-17.25 -16.38)"/></clipPath></defs><g transform="translate(-607.649 -1758.754)"><g transform="translate(26.311 49.906)"><g transform="translate(748.905 1889.451) rotate(-164)"><path class="a" d="M160.087,10.6C116.506-19.146,3.063,17.487.041,73.707c-2.3,42.686,91.8,81.6,121.469,56.029s3.562-44.223,26.071-64.487C174.914,40.631,173.488,19.747,160.087,10.6Z" transform="translate(4.923 0)"/><path class="a" d="M1.049,18.395C7.1,24.486,25.874,12.945,19.571,3.944,10.591-8.89-4.045,13.263,1.049,18.395Z" transform="translate(188.082 73.431) rotate(178)"/></g><g transform="translate(610.112 1753.371)"><g transform="translate(54.728 95.15)"><g class="b"><g class="c" transform="translate(-66.749 -116.188)"><rect class="d" width="60.889" height="47.966" transform="translate(51.722 101.161)"/></g></g></g><g transform="translate(5.049 5.049)"><g class="e"><g class="c" transform="translate(-17.071 -26.087)"><rect class="d" width="160.247" height="115.106" transform="translate(2.044 11.06)"/></g></g></g><g transform="translate(0 0)"><g class="f"><g class="c" transform="translate(-12.021 -21.038)"><g transform="translate(12.021 21.038)"><g class="g"><g class="h"><g class="g"><rect class="i" width="170.345" height="148.165" transform="translate(-15.027 -15.027)"/></g></g></g></g></g></g></g><g transform="translate(65.066 26.718)"><g class="j" transform="translate(0)"><g class="c" transform="translate(-77.088 -47.755)"><rect class="i" width="88.298" height="73.692" transform="translate(62.031 32.729)"/></g></g></g><g transform="translate(76.968 38.95)"><g class="k" transform="translate(0)"><g class="l" transform="translate(-88.989 -59.987)"><rect class="i" width="50.911" height="64.105" transform="translate(73.962 44.96)"/></g></g></g><g transform="translate(17.852 41.114)"><g class="m"><g class="c" transform="translate(-29.873 -62.151)"><rect class="i" width="68.342" height="35.403" transform="translate(14.847 47.124)"/></g></g></g><g transform="translate(17.852 59.506)"><g class="n"><g class="c" transform="translate(-29.873 -80.544)"><rect class="i" width="57.373" height="35.403" transform="translate(14.847 65.517)"/></g></g></g><g transform="translate(17.852 49.679)"><g class="o"><g class="c" transform="translate(-29.873 -70.716)"><rect class="i" width="75.645" height="35.403" transform="translate(14.847 55.66)"/></g></g></g><g transform="translate(18.092 28.19)"><g class="p"><g class="c" transform="translate(-30.114 -49.228)"><rect class="i" width="37.086" height="37.086" transform="translate(15.087 34.201)"/></g></g></g><g transform="translate(27.439 28.19)"><g class="q"><g class="c" transform="translate(-39.461 -49.228)"><rect class="i" width="37.086" height="37.086" transform="translate(24.434 34.201)"/></g></g></g><g transform="translate(36.816 28.19)"><g class="r"><g class="l" transform="translate(-48.837 -49.228)"><rect class="i" width="37.086" height="37.086" transform="translate(33.81 34.201)"/></g></g></g></g></g><line class="s" x1="26" transform="translate(640.5 1917.5)"/><line class="s" x1="26" transform="translate(744.5 1917.5)"/></g></svg>