<?xml version="1.0" encoding="utf-8"?>
<!-- Generator: Adobe Illustrator 23.0.1, SVG Export Plug-In . SVG Version: 6.00 Build 0)  -->
<svg version="1.1" id="Layer_1" xmlns="http://www.w3.org/2000/svg" xmlns:xlink="http://www.w3.org/1999/xlink" x="0px" y="0px"
	 viewBox="0 0 404 438.5" style="enable-background:new 0 0 404 438.5;" xml:space="preserve">
<style type="text/css">
	.st0{fill:url(#SVGID_1_);}
	.st1{clip-path:url(#SVGID_3_);}
	.st2{fill:#A48868;}
	.st3{fill:#F6C5AC;}
	.st4{opacity:0.34;fill:#E7B79C;enable-background:new    ;}
	.st5{fill:#E7B79C;}
	.st6{fill:#BF9C8C;}
	.st7{fill:#153B5F;}
	.st8{fill:#1A446B;}
	.st9{fill:#3D6436;}
	.st10{opacity:0.6;fill:#0C1D31;enable-background:new    ;}
	.st11{fill:#194B25;}
	.st12{fill:#163C20;}
	.st13{fill:#46693B;}
	.st14{fill:#CB9375;}
	.st15{fill:#E5988D;}
	.st16{fill:#F7D2BD;}
	.st17{fill:#7F6858;}
	.st18{fill:#FFFFFF;}
	.st19{fill:#707787;}
	.st20{opacity:0.66;fill:#FFFFFF;enable-background:new    ;}
	.st21{fill:#DFAFB1;}
	.st22{fill:#D1857B;}
	.st23{fill:#F3EFEC;}
	.st24{opacity:0.41;fill:#FFFFFF;enable-background:new    ;}
	.st25{fill:#B09779;}
	.st26{fill-rule:evenodd;clip-rule:evenodd;fill:#E7B79C;}
	.st27{opacity:0.42;fill:#163C20;enable-background:new    ;}
</style>
<g transform="translate(-0.006 0.01)">
	
		<linearGradient id="SVGID_1_" gradientUnits="userSpaceOnUse" x1="-114.6603" y1="614.4693" x2="-114.1993" y2="613.8753" gradientTransform="matrix(398.8661 0 0 -434.7574 45796.3398 267199.1875)">
		<stop  offset="0" style="stop-color:#C4E9FB"/>
		<stop  offset="1" style="stop-color:#BEA9D2"/>
	</linearGradient>
	<path class="st0" d="M346.9,66.6C357.3,37,343-22.5,208.7,16.7C153.2,33,117.9,32.5,84.6,28.3c-42.4-5.2-91.5,13.1-73,91.5
		c20,85.4,24.7,138.9,0,205.8c-10.9,29.1-8.1,65.6,9.4,91.8c15.5,22.9,43.4,22.9,68.1,19.2c50.3-7.6,100.4-17.5,151.5-16.3
		c22.9,0.7,45.9,3.5,69.1,4.2c16,0.7,32.3,0.5,47.1-5.7c21-8.9,36-28.9,42.4-50.8c11.6-39.7,1.2-87.3-21.2-121.4
		c-7.4-11.1-15.3-21.7-22-33.3c-15.1-25.4-22.9-53.5-22-83.4C334.8,108.3,339.7,87.1,346.9,66.6"/>
	<g transform="translate(0.006 -0.01)">
		<g>
			<defs>
				<path id="SVGID_2_" d="M346.9,66.6C357.3,37,346.6-82.4,212.4-43c-55.5,16.3-110.3,4.4-143.6,0.2
					c-42.4-5.4-123.6,91-105.1,169.3c20,85.4,24.7,121.4,0,188.3c-10.9,29.1,39.7,76.2,57.2,102.4c15.5,22.9,43.4,22.9,68.1,19.2
					c50.3-7.6,100.4-17.5,151.5-16.3c22.9,0.7,45.9,3.5,69.1,4.2c16,0.7,32.3,0.5,47.1-5.7c21-8.9,36-28.9,42.4-50.8
					c11.6-39.7,1.2-87.3-21.2-121.4c-7.4-11.1-15.3-21.7-22-33.3c-15.1-25.4-22.9-53.5-22-83.4C334.8,108.3,339.7,87.1,346.9,66.6"
					/>
			</defs>
			<clipPath id="SVGID_3_">
				<use xlink:href="#SVGID_2_"  style="overflow:visible;"/>
			</clipPath>
			<g class="st1">
				<path class="st2" d="M243,78.4c0,0,24.2,24.2,8.4,58.5c-11.8,25.7,10.9,25.7,10.9,25.7s-15.1,7.4-20.5-6.4
					c0,6.7,4.9,10.4,12.6,9.6c-5.4,5.7-28.9,7.9-34.5-9.9C213.9,138.1,243,78.4,243,78.4z"/>
				<path class="st3" d="M159.6,166.5c0,1,3,13.6-3.2,22c-6.2,8.4-24.4,27.4-24.4,27.4l-1.5,37.8l59.5,65.9l22.7-7.6l54.5-97.2
					l-28.6-38.5c0,0-7.4,3.5-6.4-13.6s-74.5-9.6-74.5-9.6L159.6,166.5z"/>
				<path class="st4" d="M256.8,201.1l-18.3-24.9c-1.2,0.6-2.7,0.4-3.7-0.5c1,11.1,2.2,33.8-18.8,44.4
					c-27.9,14.1-22.7,27.4-18.3,50.1c2.2,11.4,5.4,25.9,5.4,25.9l58.2-79L256.8,201.1z"/>
				<path class="st5" d="M216.6,195.4c6.2-7.2,12.1-14.3,16-23.4c-0.6-3.1-0.8-6.2-0.5-9.4c1-17-74.5-9.6-74.5-9.6l2,14.6
					c0.2,1.7,1,8.1,0.2,12.8c3.5,5.3,7.4,10.3,11.6,15.1c5.9,6.9,13.6,12.3,22,12.8C202.3,208.5,210.2,202.8,216.6,195.4z"/>
				<path class="st4" d="M191.9,304.9c2.5-21.5-23.4-54.5-35.5-60c-15.5-6.9-15.8-23.2-3-35.5c6.4-6.2,7.4-14.8,4.4-22.7
					c-0.5,0.7-0.7,1.5-1.2,2.2c-6.2,8.4-24.4,27.4-24.4,27.4l-1.5,37.8l59.5,65.9C190,319.8,190.7,315.6,191.9,304.9z"/>
				<g transform="translate(80.727 475.258)">
					<path class="st6" d="M-1.8,174.6c0,0,3.5-1,3.5-5.9c-0.2-5.2-5.7-7.4-5.7-7.4L-8.5,147l-0.7-11.8l-5.7-6.7L-23,128l-5.2,8.4
						l5.7,12.3l3.9,13.3l8.6,5.9L-1.8,174.6z"/>
					<path class="st3" d="M-35.4-38.3c0,0,4.9,89.3,4.2,94.3s-2.5,19.2-1,24.2c1.7,5.2,0.2,22-0.7,28.9c-1.5,9.4-8.6,21-5.2,30.6
						c1.2,3.7,4.2,6.7,6.2,10.1c2,3.7,3.7,7.6,4.9,11.6c1.1,4,3.9,7.3,7.6,9.1c3.7,2,16.5,9.4,17.5,9.9c1.2,0.5,4.9-2.5,2.5-6.9
						c-2.5-4.2-8.1-5.7-8.1-5.7s-2-5.7-6.2-5.9c-1.5-3-2.2-10.9-4.4-13.3c0.7-3.9,1.2-5.9,1-7.9c0-2,3.2-6.9,3.7-7.9
						c1.7,4.4,3,4.4,3,6.9c0,2.7-0.7,5.4-0.5,8.1c0.1,3.4,0.6,6.8,1.5,10.1c0.5,2.2,1,5.2,3.2,6.4c0.8,0.4,1.8,0.6,2.7,0.5
						c0.9,0,1.7-0.3,2.5-0.7c3.2-2,2.7-7.9,3-11.1c0.5-6.4,0.2-12.6,0.5-19c0.2-12.6,3.7-26.9-3.7-38.5C-5.5,89-3.5,64.8-2.8,59.9
						c0.5-4.2,28.6-77.7,23.7-107.3c-7.2-9.1-57,3.5-57,3.5L-35.4-38.3z"/>
					<path class="st5" d="M20.9-47.4c-2-2.5-7.4-3.5-14.1-3.5c-2.2,0-4.7,0.2-7.2,0.5c-1.7,0.2-3.2,0.2-4.9,0.5
						c-0.7,0-1.7,0.2-2.5,0.2c-1.7,0.2-3.5,0.5-4.9,0.7c-12.3,2-23.4,4.7-23.4,4.7l0.5,5.9l2.5,46.4c2.4-1.8,4.9-3.3,7.6-4.4
						c5.4-2,12.1-3.2,17.8-1.2C3.1,6.1,0.2,19.9-2,28.3C-5.7,42.4-11.2,56-15.4,69.8c-0.2,1.2-0.7,2.2-1,3.5
						C-17.1,78.7-6,88.8-0.6,98.6l-0.7-1.5c-0.2-0.5-0.7-1.2-1-1.7c-0.8-1.3-1.3-2.7-1.5-4.2c-0.7-4.2-1.1-8.5-1-12.8
						c0-5.8,0.3-11.5,1-17.3c0-0.5,0-0.7,0.2-1c0.2-1.7,4.2-12.3,8.6-26.4c0.5-1.2,0.7-2.5,1.2-3.7c0.7-2.5,1.7-5.2,2.5-7.9
						c0.5-1.5,0.7-2.7,1.2-4.2c1-3.5,2-7.2,3-10.6c0.5-1.5,0.7-3,1.2-4.4c0.5-2.2,1-4.5,1.7-6.7c0.2-1.5,0.7-3,1-4.4s0.7-3,1-4.2
						c0.5-3,1.2-5.7,1.5-8.4c0.2-2,0.7-4.2,1-6.2c0.5-4.3,0.9-8.5,1-12.8C21.6-42.3,21.5-44.9,20.9-47.4z"/>
				</g>
				<g transform="translate(358.563 482.415)">
					<path class="st3" d="M-14.4-35.1c0,0-2.2,67.6-1.7,72.8s-16.5,7.6-21.7,18.8s9.1,71.6,9.1,71.6s9.9-2,11.4-7.4
						c2.7,0.7,9.1-3.9,10.6-7.9c2.7,1.7,9.9,1.2,16.3-19.7C15.7,72,19.7,51,20.9,39.4c1-11.6,22-71.3,16.3-85.9
						C31.3-61-14.4-35.1-14.4-35.1z"/>
					<path class="st5" d="M-14.4-35.1c0,0-2.2,67.6-1.7,72.8s-16.5,7.6-21.7,18.8c-2,4.2-1.2,15.1,0.5,27.4c3.2,0.7,6.4,0,9.9-2.5
						C1.9,59.6-19.6,0.7-2.8-15.9C11-29.4,29.5-24,35.7-21.8c2-10.9,3-20,1.2-24.7C31.3-61-14.4-35.1-14.4-35.1z"/>
				</g>
				<path class="st7" d="M82.1,535.9c0,0-5.9,10.6-6.9,30.1c-1,19.5,6.4,56.5,8.9,65.1c2.7,8.6,8.9,35.3,7.9,48.1h236.9
					c0,0,18.8-93-4.4-131C301.5,510.2,90,528.5,90,528.5L82.1,535.9z"/>
				<path class="st8" d="M162.3,559.1c7.6-12.1,8.6-22.7,5.2-31.8c-44.7,1.2-79.9,4.4-79.9,4.4l-6.4,5.9c-1.7,3.7-5.4,13.3-6.2,28.4
					v4.4C99.2,585.2,137.2,599.3,162.3,559.1z"/>
				<path class="st8" d="M324.7,548L324.7,548c-10.4-10.6-34.8-16.8-64.9-20.2l-19.7,42.2c0,0,14.1,48.9,95,13.1
					C333.3,569.7,330.1,557.1,324.7,548z"/>
				<path class="st9" d="M397,401.7c3.6,6.4,5.3,13.6,5.2,21c-0.5,11.6,1.7,16-2.7,20.5c-4.4,4.4-36.8,14.1-55.8,8.1
					c-4.7-1.5-7.9-37.5,1.5-43.4C354.6,401.9,397,401.7,397,401.7z"/>
				<path class="st10" d="M158.4,553.4c6.9-11.1,7.9-20.7,4.7-28.9c-40.5,1.2-72.5,3.9-72.5,3.9l-8.1,7.4c0,0-4.9,9.1-6.7,25.7
					C97.4,575.6,134.4,591.7,158.4,553.4z"/>
				<path class="st10" d="M324.4,547c-6.9-11.4-30.4-17.5-60-21L247,563.3c0,0,12.8,44.2,86.6,10.6
					C331.8,563.8,328.9,554.4,324.4,547z"/>
				<path class="st11" d="M323.9,210.2c0,0,17,5.7,24.7,16c5.9,8.4,26.4,74.8,29.4,85.9c2.7,11.1,11.4,38.2,13.6,41.7
					s3.9,9.6,1.5,14.6c3.9,4.7,6.9,15.8,4.4,20.7s9.4,8.6,2.2,17.8c-7.2,9.1-45.6,14.1-60.9,8.6c0,0-3.5-3-1.5-8.4
					c2-5.4,2.5-16.3-0.2-19.5c-2.7-3.5-12.1-17.3-16-31.6c-4.2-14.1-14.8-18.3-14.8-18.3s-20.7-35.3-14.3-48.4
					C298.5,276.3,323.9,210.2,323.9,210.2z"/>
				<path class="st9" d="M95.7,466.8c-0.7,0.2-8.4,6.7-26.2,7.9s-25.2-3.7-25.7-9.4s-1.7-21.7-2-24.7s-2.2-7.6,2.7-11.1
					c4.9-3.5,46.6-1.5,46.6-1.5l13.3,13.6L95.7,466.8z"/>
				<path class="st12" d="M343.7,385.1c-8.1,1.5-9.6-0.5-3.5-11.8l-0.7,0.2c3.2-8.6,9.9-23.7-2-42.9c-12.1-19.2-25.9-37-12.8-87.6
					c0.2-0.7,0.5-1.7,0.7-2.5c-1.7-3.2-2.7-4.9-2.7-4.9l-13.6,38l-10.9,33.1c0,0,4.4,14.6,9.9,31.8c3.2,1.7,10.1,6.7,13.3,17.3
					c4.2,14.1,13.6,28.1,16,31.6c1.7,2.2,2.2,7.9,1.7,12.8c11.8,5.9,28.6,6.7,41.9,2c-24.7,3.9-39.2-7.4-38.7-8.9
					c0.2-1.5,3.2-1.2,17.5,1.2c14.3,2.5,27.6-6.9,24.2-13.1C380.7,375.8,355.3,383.2,343.7,385.1z"/>
				<path class="st11" d="M68.3,240.8c0,0-9.6,11.4-12.8,51.8s-6.2,76.7-9.1,83.6s-5.4,16.3-2.2,20.5s2.7,14.8,0.2,18.5
					c-2.7,3.7-6.9,15.5-0.5,18.8s43.4,8.6,56,1s9.6-79.9,9.6-79.9l-8.4-57L68.3,240.8z"/>
				<path class="st12" d="M85.8,372.8c10.1,33.1-18,36.3-41,19c0,0,12.1,15.1,35.3,19c23.2,3.9,9.9,13.8-2,13.8
					c-11.8,0-32.1-4.4-32.1-4.4s23.9,19.7,58.5,5.9c6.4-21.5,4.4-70.8,4.4-70.8l6.7-42.9l-11.4-20.2
					C104.8,291.9,75.5,340,85.8,372.8z"/>
				<path class="st11" d="M323.5,478.2c-3.5-11.4-9.9-22.5-12.3-33.8c-4.7-20.5-4.9-43.7,2.2-63.7c8.4-23.7-4.4-64.6-6.7-71.3
					s11.6-41.7,18.8-59c7.4-17.5,7.4-36.5,7.4-36.5s-10.9-6.9-35.3-12.8c-16.3-4-39-15.1-39-15.1L241,217.1c0,0-4.7,11.6-21.7,16
					s-21.2,8.4-21,14.6c-0.5,12.3-10.6,38.7-12.6,43.7c-2.2-2.5-4.2-4.4-5.2-5.4c-4.4-3.5-4.9-8.4-7.6-21.5s-14.8-16.8-14.8-16.8
					c-34.8,0.5-16.5-41.9-22-42.9c-5.4-1-48.4,18.8-67.4,35.8c-12.3,22,10.4,64.6,26.4,91.8c-4.2,12.8-1.5,27.9,1.5,40
					c1.7,6.9,3.7,12.8,4.4,16.8c2,10.4-1.5,40.5-3,47.4c-1.7,8.6-2.2,17.5-3.9,26.2c-1.9,9.1-4.5,18.1-7.6,26.9
					c-5.7,15.8-10.1,31.6-5.9,48.4c16.3,17.8,89.8,35.8,115.5,37.3c63.2,12.1,131-17.8,134-27.1c3.2-10.6,3.2-21.7,2-32.6
					C329.9,502.8,327,490.4,323.5,478.2z"/>
				<g transform="translate(151.254 280.328)">
					<path class="st12" d="M21.2-15.4C18.5-28.4,6.4-32.1,6.4-32.1c-16.3,0.2-21-8.9-21.7-18.8c-6.8,6.1-13.2,12.7-19,19.7
						c-15.3,19,11.8,5.4,11.8,9.1c0,3.5,5.2,6.9,22.2,4.7C13.5-19.1,22.2-5,25.1,0.7C23.7-2.8,22.9-7.5,21.2-15.4z"/>
					<path class="st12" d="M26.4,3.1"/>
				</g>
				<path class="st12" d="M241.8,233.9c0.5-1.5,7.4,0.5,16.5,4.4c8.9,4.2,22,9.9,6.7-13.3c-10.6-16-15.3-14.6-21.5-12.8l-2.7,4.9
					c0,0-4.7,11.6-21.7,16s-21.2,8.4-21,14.6c-0.1,3.4-0.3,6.8-0.7,10.1c2.5-4.4,3.2-15.5,15.8-14.3
					C231.9,245.7,239.3,240.8,241.8,233.9z"/>
				<path class="st9" d="M238.1,211.4c0,0-7.4,11.6-23.2,19.7c-15.8,7.9-17.8,11.6-17,17c1.2-3.9-0.7-9.4,13.8-9.4
					s20.5-2.2,28.1-16.5S238.1,211.4,238.1,211.4z"/>
				<path class="st9" d="M140.9,231.2c0,0-1,8.4,8.9,11.1c9.1,2.5,18.3,9.9,20.2,16.5c-5.4-4.9-14.6-7.4-20.2-2.2
					c-5.7,4.9-18,6.2-21.5,3.2c-3.5-2.7-3.7-10.9,0-19.2C132,232.4,140.9,231.2,140.9,231.2z"/>
				<path class="st13" d="M157.6,186.5c-0.2,0.5-14.3,25.7-15.8,33.1c-0.9,4.9-1.1,9.9-0.7,14.8c0,0-15.1,19.5-28.1,19.7
					s5.2-9.6,9.9-28.1C127.8,207.2,137.2,190.9,157.6,186.5z"/>
				<path class="st13" d="M230.7,234.1c3.7-5.9,5.9-16,6.4-24.7c0.7-8.6-0.2-31.8-3.5-35.5c3.9-2.5,11.6,0.5,16.8,4.9
					c4.2,3.7,12.1,9.4,12.1,9.4s11.1,38.2,14.3,43.2s-0.2,7.6-7.6,3c-7.4-4.7-26.9-14.1-28.9-11.8
					C237.8,224.5,237.1,230.4,230.7,234.1z"/>
				<path class="st10" d="M230.4,621c-12.8,8.9-21.7,12.8-34.3,12.1c-8.4-0.5-14.8-3-30.3-11.8c20.7,15.8,24.9,41.9,28.4,57.7h1.5
					C201.1,654.1,217.8,630.4,230.4,621z"/>
				<path class="st14" d="M236.4,84.1c0.1-5.4-0.6-10.8-2-16c-1.1-4.2-3-8.2-5.4-11.8c-2.1-3.2-4.7-6-7.6-8.4
					c-2.8-2.2-5.9-4-9.1-5.4c-3-1.3-6.2-2.4-9.4-3.2c-5.5-1.3-11.2-1.4-16.8-0.2c-3.2,0.8-6.3,1.8-9.4,3c-3.3,1.3-6.3,3-9.1,5.2
					c-3.1,2.3-5.7,5-7.9,8.1c-2.5,3.5-4.4,7.4-5.7,11.6c-1.4,5.1-2.3,10.3-2.5,15.5v1.7c0,14.3-1,29.1-0.5,43.4
					c0.2,8.9,0.5,18,3,26.4c3.2,11.8,10.6,20,18.3,28.1c5.7,6.2,13.1,10.9,21,11.1c8.6,0.2,16-4.7,22.2-11.1
					c7.6-8.1,15.1-16.3,18.3-28.1c2.5-8.6,2.7-17.5,3-26.4C237.1,113.2,236.4,98.4,236.4,84.1z"/>
				<path class="st5" d="M146.3,92.2c-2.4-1.6-5.4-1.7-7.9-0.5c-2.5,1.2-2.7,6.9-1.2,12.6c1.2,5.4,1.3,11.1,0.3,16.5
					c-0.7,3.9-0.7,8.1,3.2,9.6c3.9,1.2,8.6-0.7,9.1-4.7C150.2,121.9,146.3,92.2,146.3,92.2z"/>
				<path class="st5" d="M241.8,91c2.4-1.6,5.4-1.7,7.9-0.5c2.5,1.2,2.7,6.9,1.2,12.6c-1.2,5.4-1.3,11.1-0.2,16.5
					c0.7,3.9,0.7,8.1-3.2,9.6c-3.9,1.2-8.6-0.7-9.1-4.7S241.8,91,241.8,91z"/>
				<path class="st3" d="M244,77.9c0-5.4-0.8-10.9-2.5-16c-1.4-4.4-3.6-8.5-6.4-12.1c-2.5-3.3-5.6-6.1-9.1-8.4
					c-3.3-2.2-6.9-4-10.6-5.4c-3.6-1.4-7.3-2.4-11.1-3.2c-6.5-1.3-13.2-1.4-19.7-0.2c-3.7,0.7-7.3,1.7-10.9,3
					c-7.7,2.6-14.6,7.2-20,13.3c-2.9,3.4-5.2,7.4-6.7,11.6c-1.8,5.1-2.7,10.4-2.7,15.8v1.7c0,14.6-1,29.1-0.7,43.7
					c0.2,8.9,0.7,18,3.5,26.6c3.7,11.8,12.6,20.2,21.5,28.4c6.9,6.2,15.3,10.9,24.7,11.4c10.1,0.2,19-4.7,26.2-11.4
					c8.9-8.1,17.8-16.5,21.5-28.4c2.7-8.6,3.2-17.8,3.5-26.6C245,107.1,244,92.5,244,77.9z"/>
				<path class="st5" d="M213.4,148c-0.7,0-7.4,0-11.6-0.5c-3.7-0.5-7.6,1.2-8.9,1.5c-1.2-0.2-5.2-2-8.9-1.5
					c-3.9,0.5-10.9,0.5-11.6,0.5c-1,0-1.2,0.7,0,1.7c1.2,1.2,5.9,8.9,6.9,10.4c2.8,3.9,7.3,6.3,12.1,6.4c4.9,0.4,9.7-1.4,13.1-4.9
					c1.4-1.5,2.6-3.2,3.7-4.9c0.7-1.3,1.6-2.5,2.5-3.7c0.7-1.2,1.5-2.4,2.5-3.5C214.6,148.5,214.1,148,213.4,148z"/>
				<path class="st15" d="M215.4,146.3c-0.7,0-8.1,0-12.6-0.5c-4.2-0.5-8.4,1-9.6,1.2c-1.2-0.2-5.7-2-9.6-1.2
					c-4.4,0.5-11.8,0.5-12.6,0.5c-1,0-1.2,0.7,0,1.7c1.2,1,6.4,8.4,7.6,9.9c3.2,3.9,8.1,5.7,13.1,5.9c5.2,0.3,10.4-1.3,14.6-4.4
					c1.5-1.4,2.9-2.8,4.2-4.4c1-1.2,1.7-2.2,2.7-3.5c0.8-1.1,1.7-2.2,2.7-3.2C216.9,146.8,216.4,146.3,215.4,146.3z"/>
				<g transform="translate(223.044 149.306)">
					<path class="st14" d="M-39-50.9c1,0.3,2,0.9,2.7,1.7c0.9,0.9,1.5,2,1.7,3.2v1.7c0,0.6-0.1,1.2-0.2,1.7c0,1.1-0.2,2.2-0.5,3.2
						c-0.3,2.2-0.8,4.3-1.5,6.4c-0.5,2.1-1.3,4.2-2.2,6.2c0.9-4.2,1.6-8.4,2-12.6c0-1,0.2-2.2,0.2-3.2v-3
						C-36.3-47.7-37.5-49.2-39-50.9z"/>
					<path class="st16" d="M-20-50.9c-1,0.3-2,0.9-2.7,1.7c-0.9,0.9-1.5,2-1.7,3.2v1.7c0,0.6,0.1,1.2,0.2,1.7c0,1.1,0.2,2.2,0.5,3.2
						c0.3,2.2,0.8,4.3,1.5,6.4c0.5,2.1,1.3,4.2,2.2,6.2c-0.9-4.2-1.6-8.4-2-12.6c0-1-0.2-2.2-0.2-3.2v-3
						C-22.7-47.7-21.5-49.2-20-50.9z"/>
				</g>
				<path class="st14" d="M175.9,131.5c-0.6,2-1.5,3.8-2.7,5.4c-1.4,1.4-2.8,2.8-4.4,3.9c-1.5,1.2-3.2,2.5-4.7,3.7
					c-1.2,1.2-2.5,2.7-1.7,4.7c-0.8-0.8-1.2-1.9-1-3c0.3-1.1,0.9-2,1.7-2.7c1.5-1.4,3.2-2.6,4.9-3.7c1.7-1.2,3.2-2.2,4.7-3.5
					C174,135,175.1,133.3,175.9,131.5z"/>
				<g transform="translate(190.473 137.574)">
					<path class="st17" d="M-38.8-34.2c0,0,3.7,1.2,6.2-0.7c3.2-2.7,13.1-8.4,20-0.2c2.7,3.9-15.3,0.2-15.3,0.2l12.6,2.7
						c-3.1,1.2-6.6,1.5-9.9,1c-1.9-0.4-3.6-1.4-4.9-2.7C-30.1-34-36.3-32-38.8-34.2z"/>
					<path class="st18" d="M-29.1-34.7c-0.3-0.4-0.3-0.9,0-1.2c1.2-1,3.9-2.7,9.1-2.7c3.6,0.2,6.9,2,8.9,4.9
						c0.2,0.2,0.1,0.5-0.1,0.7c0,0-0.1,0.1-0.2,0.1c-3.1,0.8-6.4,1.2-9.6,1.2C-24-31.5-27-32.6-29.1-34.7z"/>
					<path class="st19" d="M-15.8-35.2c0-0.9-0.2-1.7-0.7-2.5c-1.2-0.5-2.4-0.8-3.7-0.7c-1.1-0.1-2.2,0-3.2,0.2
						c-0.8,0.8-1.2,1.8-1.2,3c0,1.5,0.7,2.9,2,3.7h1.2c1.2,0,2.5,0,3.7-0.2C-16.5-32.5-15.8-33.8-15.8-35.2z"/>
					<circle cx="-20.2" cy="-35.2" r="1.7"/>
					<circle class="st18" cx="-21.2" cy="-36.7" r="1"/>
					<circle class="st20" cx="-18.5" cy="-34" r="0.5"/>
					<path class="st14" d="M-11.9-37.4c-1.6-1.2-3.5-2-5.4-2.5c-1.8-0.5-3.8-0.7-5.7-0.5c-1.9,0.1-3.8,0.4-5.7,1
						c-1.8,0.7-3.4,1.7-4.9,3l0,0c1.1-1.7,2.8-3.1,4.7-3.9c0.9-0.4,1.9-0.8,3-1c1-0.2,2-0.3,3-0.2c2-0.1,4,0.3,5.9,1
						C-15.1-40-13.3-38.9-11.9-37.4z"/>
					<path class="st16" d="M-12.1-31.5c0,0-5.4,2-9.9,1.7c-3.1-0.3-6.2-1.4-8.9-3c0,0-1,5.4,6.9,5.9C-19.5-26.4-15.1-28.2-12.1-31.5
						z"/>
					<path class="st2" d="M-8.7-46.3c0,0,0.5-4.4-4.9-4.2C-11.6-49.8-8.7-46.3-8.7-46.3z"/>
					<path class="st2" d="M-10.6-46.6c0.5-1.2-3-3.5-5.9-3.9s-9.6-0.7-13.3,0.7c-3.7,1.2-8.4,4.7-9.1,6.4c0.7-0.7,4.2-3.2,10.4-3.7
						c3.7-0.4,7.4-0.2,11.1,0.5C-15.8-46.3-11.1-45.3-10.6-46.6z"/>
					<g transform="translate(54.519)">
						<path class="st2" d="M-39-46.3c0,0-0.5-4.4,4.9-4.2C-36-49.8-39-46.3-39-46.3z"/>
						<path class="st2" d="M-37-46.6c-0.5-1.2,3-3.5,5.9-3.9s9.6-0.7,13.3,0.7c3.7,1.2,8.4,4.7,9.1,6.4c-0.7-0.7-4.2-3.2-10.4-3.7
							c-3.7-0.4-7.4-0.2-11.1,0.5C-31.6-46.3-36.5-45.3-37-46.6z"/>
					</g>
					<g transform="translate(9.338 14.2)">
						<path class="st21" d="M-37.5-47.9c-0.2-0.6-0.2-1.3,0-2c0-0.4,0.2-0.8,0.5-1c-0.6,0.3-1.2,0.6-1.7,1c-0.3,0.3-0.4,0.8-0.1,1.1
							c0,0,0.1,0.1,0.1,0.1C-38.2-48.7-38-48.4-37.5-47.9z"/>
						<path class="st21" d="M-22.7-49.9c0.5,0.6,0.7,1.4,0.5,2.2c0,0.5-0.7,1-1.2,1.2c0.8-0.2,1.6-0.4,2.5-0.5
							c0.3-0.1,0.4-0.3,0.3-0.6c0-0.1,0-0.1-0.1-0.2C-21.1-48.6-21.8-49.4-22.7-49.9z"/>
					</g>
					<g transform="translate(56.156 9.265)">
						<path class="st17" d="M-11.5-43.5c0,0-3.7,1.2-6.2-0.7c-3.2-2.7-13.1-8.4-20-0.2c-2.7,3.9,15.3,0.2,15.3,0.2L-35-41.5
							c3.1,1.2,6.6,1.5,9.9,1c1.9-0.4,3.6-1.4,4.9-2.7C-20.1-43.2-13.7-41.3-11.5-43.5z"/>
						<path class="st18" d="M-20.9-44c0.3-0.4,0.3-0.9,0-1.2c-1.2-1-3.9-2.7-9.1-2.7c-3.6,0.2-6.9,2-8.9,4.9
							c-0.2,0.2-0.1,0.5,0.1,0.7c0,0,0.1,0.1,0.2,0.1c3.1,0.8,6.4,1.2,9.6,1.2C-26-40.8-23-41.9-20.9-44z"/>
						<path class="st19" d="M-34.2-44.5c0-0.9,0.2-1.7,0.7-2.5c1.2-0.5,2.4-0.8,3.7-0.7c1.1-0.1,2.2,0,3.2,0.2
							c0.8,0.8,1.2,1.8,1.2,3c0,1.5-0.7,2.9-2,3.7h-1.2c-1.2,0-2.5,0-3.7-0.2C-33.5-41.7-34.2-43.1-34.2-44.5z"/>
						<circle cx="-29.8" cy="-44.5" r="1.7"/>
						<path class="st14" d="M-38.2-46.7c1.6-1.2,3.5-2,5.4-2.5c1.8-0.5,3.8-0.7,5.7-0.5c1.9,0.1,3.8,0.4,5.7,1
							c1.8,0.7,3.4,1.7,4.9,3l0,0c-1.1-1.7-2.8-3.1-4.7-3.9c-0.9-0.4-1.9-0.8-3-1c-1-0.2-2-0.3-3-0.2c-2-0.1-4,0.3-5.9,1
							C-34.9-49.2-36.7-48.1-38.2-46.7z"/>
						<path class="st16" d="M-37.9-40.8c0,0,5.4,2,9.9,1.7c3.1-0.3,6.2-1.4,8.9-3c0,0,1,5.4-6.9,5.9C-30.5-35.7-34.9-37.4-37.9-40.8
							z"/>
						<g transform="translate(0.247 4.935)">
							<path class="st21" d="M-22.1-47.9c0.2-0.6,0.2-1.3,0-2c0-0.4-0.2-0.7-0.5-1c0.6,0.3,1.2,0.6,1.7,1c0.3,0.3,0.4,0.8,0.1,1.1
								c0,0-0.1,0.1-0.1,0.1C-21.4-48.7-21.6-48.4-22.1-47.9z"/>
							<path class="st21" d="M-36.9-49.9c-0.5,0.6-0.7,1.4-0.5,2.2c0,0.5,0.7,1,1.2,1.2c-0.8-0.2-1.6-0.4-2.5-0.5
								c-0.3-0.1-0.4-0.3-0.3-0.6c0-0.1,0-0.1,0.1-0.2C-38.5-48.6-37.8-49.4-36.9-49.9z"/>
						</g>
						<circle class="st18" cx="-31.2" cy="-46" r="1"/>
						<circle class="st20" cx="-28.5" cy="-43.2" r="0.5"/>
					</g>
				</g>
				<path d="M212.9,147c-1.7,0-16,2-19.7,2.2c-3.7-0.2-18-2.2-19.7-2.2s-2.5,0-0.7,1.5c5.2,5.4,12.5,8.4,20,8.4c0.2,0,0.2,0,0.5-0.2
					c0.2,0,0.2,0,0.5,0.2c7.5,0.1,14.8-3,20-8.4C215.4,147,214.6,147,212.9,147z"/>
				<path class="st22" d="M202.6,152.7l5.4-2.2l1.5-1.5c0,0,0.5-1,0.2-1.5c-4.9,0.5-13.8,1.7-16.5,1.7c-3-0.2-12.6-1.5-17.3-2
					c-0.1,0.7,0.1,1.5,0.7,2c1,0.7,7.9,4.4,7.9,4.4h14.8L202.6,152.7z"/>
				<path class="st23" d="M208,151.7c0.5,0.1,1,0,1.5-0.2c0.7-0.5,0.7-3.5,0-3.2c-0.5,0.3-1,0.7-1.2,1.2c0,0,0-1.2-1.5-1
					c-1.5,0.2-2.5,3.5-2.5,3.5c0-1.1-0.8-2-1.9-2c0,0-0.1,0-0.1,0c-2.2,0-2.7,3-2.7,3c-0.7-1.3-2-2.1-3.5-2.2
					c-1.5,0-2.5,1.5-2.7,2.7c-0.5-1.2-1.2-2.7-2.7-2.7c-1.5,0-2.8,0.9-3.5,2.2c0,0-0.5-3-2.7-3c-1-0.1-1.8,0.5-2,1.5
					c0,0.2,0,0.3,0,0.5c0,0-1-3.2-2.5-3.5c-1.5-0.2-1.5,1-1.5,1c-0.3-0.5-0.8-0.9-1.2-1.2c-0.7-0.2-0.7,2.7,0,3.2
					c0.4,0.3,1,0.4,1.5,0.2c0,0.5,0.2,0.9,0.5,1.2c1,0.5,1.9,1,3,1.5c0.3,0,0.6-0.2,0.7-0.5c0,0.3,0.1,0.5,0.2,0.7
					c0.7,0.2,1.7,0.7,2.7,1c0.4-0.1,0.8-0.3,1.2-0.5c-0.1,0.3-0.1,0.7,0,1c2,0.5,4.1,0.8,6.2,0.7c0.2,0,0.2,0,0.5-0.2
					c0.2,0,0.2,0,0.5,0.2c1.9,0,3.8-0.2,5.7-0.5c0.2-0.3,0.2-0.6,0.2-1c0.5,0.3,1.1,0.6,1.7,0.7l2.2-0.7c0.2-0.4,0.4-0.8,0.5-1.2
					c0,0,0.2,0.5,1.2,0.5c0.7-0.2,1.5-0.7,2.2-1C207.9,153.1,207.8,152.4,208,151.7z"/>
				<path class="st5" d="M153.7,48.8c-2.9,3.4-5.2,7.4-6.7,11.6c-1.8,5.1-2.7,10.4-2.7,15.8v1.7c0,14.6-1,29.1-0.7,43.7v2
					c1.7-12.8,7.2-20.2,7.2-20.2s-4.7-2.7,3.9-13.8c10.6-13.3,11.1-39.2,10.9-50.6c-1,0.5-1.7,1-2.7,1.5
					C159.5,42.9,156.4,45.7,153.7,48.8z"/>
				<path class="st5" d="M244.5,124.3c-0.2,4.9-1.1,9.7-2.7,14.3c-1.7,4.4-4.4,9.1-9.6,10.1c-2,0.5-4.2,0.4-6.2-0.2
					c-1.1-0.2-2.1-0.8-2.7-1.7c0,0,6.4,15.5-3.9,29.9l0.2-0.2c8.9-8.1,17.8-16.5,21.5-28.4C243.5,140.6,244.3,132.5,244.5,124.3z"/>
				<path class="st14" d="M199.6,136.2c-2.7,0.2-4.4,2.5-5.9,2.5l0,0c-1.5,0-3.5-2.2-6.2-2.2s-6.7,0.7-8.1-0.2c3.7,2,7.2,1.2,8.4,2
					c2,1.2,3.5,2.2,5.9,2.2c2.2,0,3.9-1.2,5.7-2.5c1.2-1,4.9-0.2,8.4-2.5C206.3,136.4,202.3,135.9,199.6,136.2z"/>
				<path class="st16" d="M203.3,125.3c-0.5-1.2,4.7,1.7,4.2,6.2c-0.5,3-4.2,3.7-6.7,3.2C201.6,133.5,205.3,129.8,203.3,125.3z"/>
				
					<ellipse transform="matrix(0.9987 -5.022689e-02 5.022689e-02 0.9987 -6.2852 9.8785)" class="st16" cx="193.4" cy="130" rx="4.2" ry="2.7"/>
				<path class="st5" d="M186,135.7c0,0-3.5-5.7-1.7-10.1c-2.2-0.7-6.2,2.5-5.2,5.7c0.5-1.5,1.2-2.5,2.5-2.5
					C183.8,128.8,183.6,130.2,186,135.7z"/>
				<ellipse class="st24" cx="192.9" cy="159.9" rx="5.2" ry="1.7"/>
				<path class="st2" d="M179.1,44.4c1.7,0.2,3.2,0.7,4.9,1c6.4,1.7,13.3,0.2,19.2-2.2c4.6-2.1,9.9-1.8,14.3,0.7
					c3.7,2.7,6.5,6.4,8.1,10.6c2.2,5.7,2,11.8,3.7,17.5c1.2,4.4,3.5,9.1,6.9,12.1c9.6,7.9,8.9,31.1,8.9,31.1
					c4.7-10.6,7.9-22.7,8.1-34.3c0-2,0-4-0.2-5.9c-0.2-1.7-0.7-3.5-0.2-5.2c0.6-1.4,1.2-2.8,2-4.2c2.5-5.2,2-10.9,0.2-16.3
					c-0.9-2.4-2.1-4.7-3.5-6.9c-1.2-2-3.2-3.7-3.7-5.9c-0.2-0.9-0.3-1.8-0.2-2.7c-0.1-4.1-1.9-8-4.9-10.9c-2.7-2.6-6-4.5-9.6-5.7
					c-2.7-1-5.7-1.2-8.6-2.2c-3.7-1.2-5.9-3.7-8.9-6.2c-4.7-3.9-10.4-4.4-16-2.7c-2.7,0.7-5.4,2.7-8.1,3.7c-3,1.3-6.2,2.2-9.4,2.7
					c-3.5,0.2-6.7-0.2-10.1-0.2c-8.5,0.4-16.6,3.3-23.4,8.4c-3.9,3.2-7.4,7.6-8.4,12.8c-0.5,2.5,0.2,5.9,3.2,6.7
					c-0.5,0-2.5,2.5-3,2.7c-2.2,2.3-4,4.9-5.4,7.6c-4.2,7.9-3.5,18-2.2,26.6c0.7,5.7,2,12.1,5.2,17c3.9,6.2,5.4,16.8,5.4,16.8
					c-0.1-1.6-0.1-3.3,0-4.9c0.2-4.2,0.5-8.4,1-12.3c1.5-11.1,4.2-22.7,9.9-32.6C159.1,52.8,168,42.9,179.1,44.4z"/>
				<g transform="translate(221.81 58.094)">
					<path class="st25" d="M-27.2-12.5c-2.5,0.3-5-0.3-7.2-1.7c-2.2-1.6-3.8-4-4.4-6.7c-0.2-1.3-0.3-2.6-0.2-3.9
						c0.2-1.3,0.5-2.7,1-3.9c1-2.3,2.3-4.5,3.9-6.4c3.2-3.7,6.7-6.4,9.4-9.6c0.7-0.7,1.3-1.5,1.7-2.5c0.5-0.7,0.7-1.7,0.5-1.7
						c-0.9-0.3-1.8-0.3-2.7,0c-1.1,0.3-2.2,0.7-3.2,1.2c0.9-0.8,1.8-1.5,2.7-2.2c1.2-0.8,2.6-1.1,3.9-0.7c0.8,0.4,1.3,1.3,1.2,2.2
						c0,0.7-0.2,1.4-0.5,2c-0.4,1.1-1,2.2-1.7,3.2c-2.5,3.9-5.9,7.2-8.6,10.6c-1.3,1.6-2.3,3.3-3,5.2c-0.3,0.9-0.4,1.8-0.5,2.7v2.7
						C-33.9-17.9-31-14.4-27.2-12.5z"/>
				</g>
				<g transform="translate(188.253 155.475)">
					<path class="st26" d="M1.2-47.7c0,0.1-0.1,0.2-0.2,0.2c0,0,0,0,0,0l-0.2-0.2H1.2z"/>
					<path class="st26" d="M25.9-31.2c-0.1,0.1-0.3,0.2-0.5,0.2c-0.3,0-0.5-0.2-0.5-0.5s0.2-0.5,0.5-0.5l0,0
						C25.6-31.9,25.9-31.4,25.9-31.2z"/>
					<path class="st26" d="M-28.1-33.6c-0.1,0.1-0.3,0.2-0.5,0.2c-0.3,0-0.5-0.2-0.5-0.5s0.2-0.5,0.5-0.5
						C-28.6-34.6-28.1-34.1-28.1-33.6z"/>
					<path class="st26" d="M-23.2-39.5c-0.1,0.1-0.3,0.2-0.5,0.2c-0.3,0-0.5-0.2-0.5-0.5s0.2-0.5,0.5-0.5
						C-23.5-40.5-23.2-40-23.2-39.5z"/>
					<path class="st26" d="M30.1-41c0.3,0,0.5,0.2,0.5,0.5S30.4-40,30.1-40c-0.2,0-0.5-0.2-0.5-0.7C29.6-41,29.8-41,30.1-41z"/>
					<path class="st26" d="M48.1-35.6c0.3,0,0.5,0.2,0.5,0.5s-0.2,0.5-0.5,0.5c-0.2,0-0.5-0.2-0.5-0.7
						C47.6-35.6,47.9-35.6,48.1-35.6z"/>
					<path class="st26" d="M10.8-28.2c0.3,0,0.5,0.2,0.5,0.5s-0.2,0.5-0.5,0.5s-0.5-0.2-0.5-0.5v0C10.6-28.2,10.6-28.2,10.8-28.2z"
						/>
					<path class="st26" d="M6.2-43.5c0.3,0,0.5,0.2,0.5,0.5s-0.2,0.5-0.5,0.5c-0.2,0-0.2-0.2-0.5-0.5C5.7-43.3,5.9-43.5,6.2-43.5z"
						/>
					<path class="st26" d="M-10.4-41.3c0,0.2,0.2,0.2,0.2,0.5s0,0.5-0.2,0.5h-0.5v-0.5C-10.9-41-10.6-41-10.4-41.3z"/>
					<path class="st26" d="M2.9-34.1C2.9-33.9,3.2-33.9,2.9-34.1c0,0.5,0,0.7-0.2,0.7c-0.3,0-0.5-0.2-0.5-0.5
						C2.2-34.1,2.5-34.4,2.9-34.1z"/>
					<path class="st26" d="M2-39c-0.2,0.2-0.2,0.2-0.5,0.2C1.2-38.8,1-39,1-39.3c0-0.2,0.2-0.2,0.2-0.5L2-39z"/>
					<path class="st26" d="M22.2-42c-0.2,0.2-0.2,0.5-0.5,0.5c-0.3,0-0.5-0.2-0.5-0.5c0-0.2,0.1-0.4,0.2-0.5
						C21.7-42.3,21.9-42.3,22.2-42z"/>
					<path class="st26" d="M23.9-43c-0.2,0.2-0.2,0.5-0.5,0.5c-0.3,0-0.5-0.2-0.5-0.5c0-0.2,0.2-0.2,0.5-0.2
						C23.4-43.5,23.7-43.2,23.9-43z"/>
					<path class="st26" d="M9.9-35.6l-0.5,0.5c-0.3,0-0.5-0.2-0.5-0.5l0.2-0.2C9.4-35.9,9.7-35.8,9.9-35.6z"/>
					<path class="st26" d="M-5.9-35.1c0.1,0.1,0.2,0.3,0.2,0.5c0,0.1-0.1,0.2-0.2,0.2c0,0,0,0,0,0l-0.2-0.2C-6-34.7-6-34.9-5.9-35.1
						z"/>
					<path class="st26" d="M-13.1-41L-13.1-41c0,0.5,0,0.5-0.2,0.5l-0.2-0.2C-13.6-41-13.6-41.3-13.1-41L-13.1-41z"/>
					<path class="st26" d="M-36-49.4L-36-49.4c0,0.5,0,0.5-0.2,0.5l-0.2-0.2C-36.8-49.4-36.5-49.7-36-49.4L-36-49.4z"/>
					<path class="st26" d="M-2.7-40c0,0,0.2-0.2,0.2,0c0.2,0,0.2,0.2,0.5,0.2l-0.2,0.2c-0.2,0-0.2-0.2-0.5-0.2V-40z"/>
					<path class="st26" d="M-17-42.5c0-0.2,0-0.2,0.2-0.5h0.2v0.2C-16.5-42.5-16.8-42.5-17-42.5L-17-42.5z"/>
					<path class="st26" d="M-8.6-39.8C-8.9-40-8.9-40-8.9-40.3c0-0.1,0.1-0.2,0.2-0.2c0,0,0,0,0,0l0.2,0.2C-8.4-40-8.4-40-8.6-39.8z
						"/>
					<path class="st26" d="M2-29.9l-0.2,0.2l-0.2-0.2c0-0.1,0.1-0.2,0.2-0.2c0,0,0,0,0,0C1.7-30,1.8-29.9,2-29.9
						C2-29.9,2-29.9,2-29.9z"/>
					<path class="st26" d="M3.7-41.8c-0.1,0-0.2,0.1-0.2,0.2c0,0,0,0,0,0c-0.1,0-0.2-0.1-0.2-0.2c0,0,0,0,0,0L3.4-42
						C3.2-42,3.4-42,3.7-41.8z"/>
					<path class="st26" d="M4.9-35.1l-0.2,0.2c-0.1,0-0.2-0.1-0.2-0.2c0,0,0,0,0,0l0.2-0.2L4.9-35.1z"/>
					<path class="st26" d="M20-44.2c0-0.2-0.2-0.2-0.2-0.5L20-45l0.2,0.2C20.2-44.5,20-44.5,20-44.2z"/>
					<path class="st26" d="M-1.2-45.7C-1.5-46-1.5-46-1.5-46.2l0.2-0.2c0.1,0,0.2,0.1,0.2,0.2c0,0,0,0,0,0C-1-46-1-46-1.2-45.7z"/>
					<path class="st26" d="M36.8-33.9c-0.1,0-0.2,0.1-0.2,0.2c0,0,0,0,0,0l-0.2-0.2l0.2-0.2L36.8-33.9z"/>
					<path class="st26" d="M51.3-26.7c-0.1,0-0.2,0.1-0.2,0.2c0,0,0,0,0,0l-0.2-0.2l0.2-0.2C51.1-26.8,51.2-26.7,51.3-26.7
						C51.3-26.7,51.3-26.7,51.3-26.7z"/>
					<path class="st26" d="M45.4-33.4c-0.1,0-0.2,0.1-0.2,0.2c0,0,0,0,0,0l-0.2-0.2l0.2-0.2C45.1-33.9,45.1-33.6,45.4-33.4z"/>
					<path class="st26" d="M49.6-50.6c-0.1,0-0.2,0.1-0.2,0.2c0,0,0,0,0,0l-0.2-0.2l0.2-0.2C49.3-50.8,49.4-50.6,49.6-50.6
						C49.6-50.6,49.6-50.6,49.6-50.6z"/>
					<path class="st26" d="M1.7-35.8c0,0.2,0.2,0.2,0.2,0.5l-0.2,0.2l-0.2-0.2C1.5-35.6,1.5-35.6,1.7-35.8z"/>
					<path class="st26" d="M-3.2-35.3c0.2,0,0.5,0,0.5,0.5L-3-34.6C-3.2-34.8-3.3-35.1-3.2-35.3z"/>
					<path class="st26" d="M-6.7-46.4c-0.1,0-0.2,0.1-0.2,0.2c0,0,0,0,0,0c-0.1,0-0.2-0.1-0.2-0.2c0,0,0,0,0,0l0.2-0.2
						C-6.8-46.7-6.7-46.6-6.7-46.4C-6.7-46.5-6.7-46.5-6.7-46.4z"/>
					<path class="st26" d="M-12.1-39.3c0,0.1,0.1,0.2,0.2,0.2c0,0,0,0,0,0l-0.2,0.2l-0.2-0.2C-12.2-39-12.1-39.1-12.1-39.3
						C-12.1-39.3-12.1-39.3-12.1-39.3z"/>
					<path class="st26" d="M-37-39.8c0,0.1,0.1,0.2,0.2,0.2c0,0,0,0,0,0l-0.2,0.2l-0.2-0.2L-37-39.8z"/>
					<path class="st26" d="M-6.4-30.7C-6.7-30.7-6.7-30.4-6.4-30.7c-0.1,0.1-0.3,0.1-0.5,0c0,0,0,0,0,0c0-0.1,0.1-0.2,0.2-0.2
						c0,0,0,0,0,0L-6.4-30.7z"/>
					<path class="st26" d="M28.9-27.9c0,0.2,0.2,0.2,0.2,0.5l-0.2,0.2l-0.2-0.2C28.6-27.7,28.9-27.7,28.9-27.9z"/>
					<path class="st26" d="M-16.8-35.6c-0.1,0-0.2,0.1-0.2,0.2c0,0,0,0,0,0l-0.2-0.2l0.2-0.2C-17.3-35.8-17-35.6-16.8-35.6z"/>
					<path class="st26" d="M-29.9-28.4c-0.1,0-0.2,0.1-0.2,0.2c0,0,0,0,0,0l-0.2-0.2l0.2-0.2L-29.9-28.4z"/>
					<path class="st26" d="M-14.6-34.4c0,0.1,0.1,0.2,0.2,0.2c0,0,0,0,0,0l-0.2,0.2l-0.2-0.2L-14.6-34.4z"/>
					<path class="st26" d="M-19.5-39.8c0-0.3-0.1-0.5-0.2-0.7C-19.3-40.3-19.3-40-19.5-39.8z"/>
					<path class="st26" d="M-13.3-34.4l0.2,0.2l-0.2,0.2C-13.6-33.9-13.6-34.1-13.3-34.4C-13.6-34.1-13.6-34.4-13.3-34.4z"/>
					<path class="st26" d="M32.6-39.3c0-0.1-0.1-0.2-0.2-0.2c0,0,0,0,0,0l0.2-0.2c0.1,0,0.2,0.1,0.2,0.2c0,0,0,0,0,0
						C32.6-39.5,32.6-39.5,32.6-39.3z"/>
					<path class="st26" d="M41.9-40c0-0.1-0.1-0.2-0.2-0.2c0,0,0,0,0,0l0.2-0.2c0.1,0,0.2,0.1,0.2,0.2c0,0,0,0,0,0L41.9-40z"/>
					<path class="st26" d="M-22.5-39.5L-22.5-39.5c0.2,0.2,0.2,0.2,0,0.5V-39.5z"/>
					<path class="st26" d="M-26.4-37.6h-0.5C-26.7-37.8-26.7-37.8-26.4-37.6z"/>
					<path class="st26" d="M-37.8-47.2h-0.5C-38-47.2-38-47.4-37.8-47.2L-37.8-47.2z"/>
					<path class="st26" d="M-38.5-30.4H-39C-38.8-30.4-38.8-30.7-38.5-30.4z"/>
					<path class="st26" d="M-28.6-35.1c0-0.1-0.1-0.2-0.2-0.2c0,0,0,0,0,0h0.2C-28.4-35.6-28.4-35.3-28.6-35.1z"/>
					<path class="st26" d="M3.7-30.9c-0.1,0-0.2,0.1-0.2,0.2c0,0,0,0,0,0l-0.2-0.2v-0.2C3.3-31,3.5-30.9,3.7-30.9z"/>
					<path class="st26" d="M12.8-44.5C12.8-44.2,12.6-44.2,12.8-44.5h-0.5c0-0.1,0.1-0.2,0.2-0.2c0,0,0,0,0,0L12.8-44.5z"/>
					<path class="st26" d="M42.4-35.3h-0.5c0-0.1,0.1-0.3,0.2-0.3S42.4-35.5,42.4-35.3C42.4-35.4,42.4-35.4,42.4-35.3z"/>
					<path class="st26" d="M50.8-49.4h-0.5c0-0.1,0.1-0.3,0.2-0.3C50.7-49.7,50.8-49.6,50.8-49.4C50.8-49.4,50.8-49.4,50.8-49.4z"/>
					<path class="st26" d="M-15.8-27.7c0-0.1-0.1-0.2-0.2-0.2c0,0,0,0,0,0h0.2l0.2,0.2C-15.6-27.9-15.8-27.9-15.8-27.7z"/>
					<path class="st26" d="M31.8-31.9C31.6-31.9,31.6-31.6,31.8-31.9h-0.5C31.5-32,31.7-32,31.8-31.9C31.8-31.9,31.8-31.9,31.8-31.9
						C31.6-32.1,31.6-31.9,31.8-31.9z"/>
					<path class="st26" d="M-3.2-32.4L-3.2-32.4c-0.2,0.2-0.2,0-0.5,0v-0.2C-3.6-32.5-3.4-32.4-3.2-32.4z"/>
					<path class="st26" d="M-16.5-40c0,0.1,0.1,0.2,0.2,0.2c0,0,0,0,0,0c0,0-0.2,0.2-0.2,0V-40C-16.8-39.8-16.5-39.8-16.5-40z"/>
					<path class="st26" d="M-34.3-42.3L-34.3-42.3c0.2,0.2,0,0.2,0,0.2V-42.3z"/>
					<path class="st26" d="M42.2-44.5L42.2-44.5c0.2,0.2,0,0.2,0,0.2S41.9-44.2,42.2-44.5C41.9-44.2,41.9-44.5,42.2-44.5z"/>
					<path class="st26" d="M40.7-41.8L40.7-41.8c0.2,0.2,0,0.2,0,0.2V-41.8z"/>
					<path class="st26" d="M10.8-44.7c0-0.1-0.1-0.2-0.2-0.2c0,0,0,0,0,0h0.2V-44.7z"/>
					<path class="st26" d="M17-27.9h-0.5c0-0.1,0.1-0.2,0.2-0.2c0,0,0,0,0,0L17-27.9z"/>
					<path class="st26" d="M-6.9-28.2c0,0.1,0.1,0.2,0.2,0.2c0,0,0,0,0,0c0,0,0,0.2-0.2,0c-0.1,0-0.2-0.1-0.2-0.2c0,0,0,0,0,0
						C-7.2-27.9-6.9-28.2-6.9-28.2z"/>
					<path class="st26" d="M-21.7-33.4L-21.7-33.4c-0.2,0.2-0.2,0-0.2,0v-0.2C-21.8-33.6-21.7-33.5-21.7-33.4
						C-21.7-33.4-21.7-33.4-21.7-33.4z"/>
					<path class="st26" d="M15.3-34.4L15.3-34.4c-0.2,0-0.2,0-0.2-0.2C15.2-34.6,15.3-34.5,15.3-34.4C15.3-34.4,15.3-34.4,15.3-34.4
						z"/>
					<path class="st26" d="M-15.8-35.6h0.2C-15.6-35.6-15.6-35.3-15.8-35.6z"/>
					<path class="st26" d="M37.2-39.5h0.2C37.7-39.5,37.5-39.3,37.2-39.5C37.5-39.3,37.5-39.5,37.2-39.5z"/>
					<path class="st26" d="M47.1-49.4h0.2C47.4-49.4,47.4-49.2,47.1-49.4z"/>
					<path class="st26" d="M-8.9-36.3"/>
					<path class="st26" d="M-28.4-45v0.2l0,0V-45z"/>
					<path class="st26" d="M5.7-47.2L5.7-47.2C5.9-46.9,5.9-47.2,5.7-47.2z"/>
					<path class="st26" d="M25.6-41.3h-0.2C25.4-41.5,25.4-41.5,25.6-41.3z"/>
					<path class="st26" d="M-8.2-41.3L-8.2-41.3v-0.2C-7.9-41.3-7.9-41.3-8.2-41.3z"/>
					<path class="st26" d="M-28.1-40.5L-28.1-40.5v0.2C-28.4-40.3-28.4-40.3-28.1-40.5C-28.4-40.3-28.4-40.5-28.1-40.5z"/>
					<path class="st26" d="M-38.8-49.4L-38.8-49.4L-38.8-49.4z"/>
					<path class="st26" d="M31.6-36.3L31.6-36.3v0.2C31.6-36.1,31.3-36.1,31.6-36.3z"/>
					<path class="st26" d="M-21.5-39.5"/>
					<path class="st26" d="M-15.8-38.6L-15.8-38.6C-16.1-38.3-16.1-38.6-15.8-38.6z"/>
					<path class="st26" d="M20.2-29.9H20C20-30.2,20-30.2,20.2-29.9z"/>
					<path class="st26" d="M17.3-38.8L17.3-38.8v0.2C17-38.6,17-38.6,17.3-38.8z"/>
					<path class="st26" d="M12.8-28.2c0-0.2,0-0.2-0.2-0.2h0.2C12.8-28.4,13.1-28.4,12.8-28.2z"/>
					<path class="st26" d="M20.7-28.4L20.7-28.4C20.5-28.2,20.5-28.4,20.7-28.4z"/>
					<path class="st26" d="M-3.7-27.2"/>
					<path class="st26" d="M29.1-26.5L29.1-26.5C29.1-26.2,28.9-26.2,29.1-26.5z"/>
					<path class="st26" d="M26.4-26.2"/>
					<path class="st26" d="M20-31.6L20-31.6C20.2-31.6,20.2-31.4,20-31.6z"/>
					<path class="st26" d="M40.2-38.8L40.2-38.8C40.5-38.6,40.2-38.6,40.2-38.8z"/>
					<path class="st26" d="M37.5-33.6"/>
					<path class="st26" d="M6.6-29.7"/>
					<path class="st26" d="M-25.2-33.9"/>
					<path class="st26" d="M9.6-30.4L9.6-30.4C9.9-30.4,9.9-30.2,9.6-30.4z"/>
					<path class="st26" d="M3.9-26.7"/>
					<path class="st26" d="M-8.2-28.7"/>
					<path class="st26" d="M2.9-34.1"/>
					<path class="st26" d="M40-21.8"/>
					<path class="st26" d="M-18-35.6"/>
					<path class="st26" d="M-15.6-36.1"/>
					<path class="st26" d="M-17-37.1"/>
					<path class="st26" d="M26.6-37.6"/>
					<path class="st26" d="M5.9-38.3"/>
					<path class="st26" d="M8.9-38.8L8.9-38.8C8.6-38.8,8.6-39,8.9-38.8C8.6-39,8.9-39,8.9-38.8z"/>
					<path class="st26" d="M13.3-40.5"/>
					<path class="st26" d="M-13.1-41"/>
					<path class="st26" d="M-36.5-31.4L-36.5-31.4c0,0.5,0,0.5-0.2,0.5l-0.2-0.2C-37-31.4-36.8-31.6-36.5-31.4L-36.5-31.4z"/>
					<path class="st26" d="M-37-35.3c0-0.2,0-0.2,0.2-0.5h0.2v0.2C-36.5-35.1-36.5-35.1-37-35.3C-36.8-35.1-36.8-35.3-37-35.3
						L-37-35.3z"/>
					<path class="st26" d="M-35.3-29.4c0,0.1,0.1,0.2,0.2,0.2c0,0,0,0,0,0l-0.2,0.2l-0.2-0.2C-35.5-29.3-35.4-29.4-35.3-29.4
						C-35.3-29.4-35.3-29.4-35.3-29.4z"/>
					<path class="st26" d="M-37.8-25.7c0,0.1,0.1,0.2,0.2,0.2c0,0,0,0,0,0c0,0-0.2,0.2-0.2,0V-25.7z"/>
					<path class="st26" d="M44.9-27.7c0,0.1,0.1,0.2,0.2,0.2c0,0,0,0,0,0c0,0-0.2,0.2-0.2,0V-27.7z"/>
					<path class="st26" d="M-32.6-31.6C-32.6-31.9-32.3-31.9-32.6-31.6L-32.6-31.6C-32.3-31.9-32.6-31.9-32.6-31.6z"/>
					<path class="st26" d="M-19-44.2"/>
					<path class="st26" d="M-4-46L-4-46C-3.7-45.7-4-45.7-4-46z"/>
					<path class="st26" d="M6.2-25.5L6.2-25.5C5.9-25.7,6.2-25.7,6.2-25.5z"/>
					<path class="st26" d="M24.9-26"/>
					<path class="st26" d="M-20.7-35.8"/>
					<path class="st26" d="M50.1-31.9c-0.1,0-0.2,0.1-0.2,0.2c0,0,0,0,0,0l-0.2-0.2l0.2-0.2C49.6-32.4,49.6-32.1,50.1-31.9z"/>
					<path class="st26" d="M47.6-37.1c-0.1,0-0.2,0.1-0.2,0.2c0,0,0,0,0,0l-0.2-0.2l0.2-0.2C47.4-37.2,47.5-37.1,47.6-37.1
						C47.6-37.1,47.6-37.1,47.6-37.1z"/>
					<path class="st26" d="M52.3-30.9c0,0.1,0.1,0.2,0.2,0.2c0,0,0,0,0,0l-0.2,0.2L52-30.7L52.3-30.9z"/>
					<path class="st26" d="M45.1-29.9L45.1-29.9c-0.2,0.2-0.2,0-0.2,0v-0.2L45.1-29.9z"/>
					<path class="st26" d="M51.6-36.3C51.6-36.1,51.3-36.1,51.6-36.3c-0.2,0.2-0.2,0-0.2,0v-0.2C51.3-36.3,51.3-36.3,51.6-36.3z"/>
					<path class="st26" d="M51.1-32.1h0.2C51.3-32.1,51.3-31.9,51.1-32.1z"/>
					<path class="st26" d="M48.6-32.1"/>
					<path class="st26" d="M51.3-32.6"/>
					<path class="st26" d="M49.8-33.6"/>
					<path class="st26" d="M45.9-32.4"/>
					<path class="st26" d="M-34.6-38.6"/>
					<path class="st26" d="M-17-42.5"/>
					<path class="st26" d="M-8.4-43.5"/>
				</g>
				<path class="st26" d="M145.6,123.6c-1-13.3,10.1-17,10.1-17C153.2,108.8,146,114.2,145.6,123.6z"/>
				<path class="st26" d="M242.8,123.6c1-13.3-10.1-17-10.1-17C235.1,108.8,242.3,114.2,242.8,123.6z"/>
				<g transform="translate(174.928 103.658)">
					<path class="st25" d="M-22-50.9c-2,1-3.8,2.5-5.2,4.2c-0.7,0.8-1.4,1.6-2,2.5c-0.6,0.9-1.1,1.9-1.5,3
						c-2.2,3.8-3.3,8.2-3.2,12.6c-0.1,4.4,0.3,8.8,1.2,13.1c0.4,2.2,0.8,4.3,1.5,6.4l1.7,6.7c2.6,9,3.6,18.5,2.7,27.9
						c-0.5,4.7-1.7,9.3-3.7,13.6c-1.9,4.3-4.8,8.1-8.6,10.9c6.2-6.9,8.4-16,8.9-24.7c0.1-8.9-1.1-17.8-3.7-26.4
						c-0.5-2.2-1.2-4.4-1.7-6.7c-0.6-2.3-1.1-4.6-1.5-6.9c-0.8-4.6-0.9-9.4-0.5-14.1c0.5-4.8,2-9.4,4.4-13.6c0.7-1,1.4-2,2.2-3
						c1-0.7,1.7-1.7,2.7-2.5C-26.3-49.3-24.2-50.3-22-50.9z"/>
				</g>
				<g transform="translate(179.617 69.36)">
					<path class="st25" d="M-2.7-27.2c-4.7,0.9-9.5,1.5-14.3,1.7c-4.9,0-9.9-0.2-14.8-2.2c-1.2-0.5-2.4-1.2-3.5-2
						c-1.2-0.9-2.2-2.1-2.7-3.5c-0.7-1.3-1-2.7-1-4.2c0-0.7,0-1.5,0.2-2.2c0.2-0.7,0.5-1.3,0.7-2c1.2-2.3,2.9-4.4,4.9-5.9
						c1.9-1.5,4.1-2.6,6.4-3.5l0,0c-3.5,3.2-7.2,6.7-8.6,10.6c-0.7,1.9-0.6,3.9,0.2,5.7c0.7,1.7,2.5,3,4.4,3.9
						c3.9,1.7,8.9,2.5,13.3,3C-12.4-27.4-7.4-27.4-2.7-27.2z"/>
				</g>
				<g transform="translate(240.81 89.347)">
					<path class="st25" d="M-39-48.2c2.8-1.6,5.9-2.6,9.1-2.7c3.3-0.1,6.6,0.9,9.4,2.7c2.7,2,4.7,4.7,6.7,7.2c1,1.2,1.7,2.5,2.7,3.7
						l3,3.7c2,2.2,4.2,4.4,6.7,5.4c1.3,0.5,2.6,0.9,3.9,1.2c1.4,0.2,2.8,0.2,4.2,0c2.7-0.2,5.4-1.5,6.7-3.9c1.5-2.5,1.2-5.7,1-8.6
						c1.5,2.7,2.5,6.2,1.2,9.6c-0.5,1.7-1.7,3.2-3.2,4.2c-1.5,1-3.2,1.7-4.9,2C4-23.3,0.5-23.7-2.7-25c-3-1.5-5.6-3.7-7.6-6.4
						l-3-3.7c-1-1.3-1.9-2.6-2.7-3.9c-1.5-2.6-3.4-4.9-5.7-6.9C-26.4-50.2-33.3-50.4-39-48.2z"/>
				</g>
				<g transform="translate(269.432 121.67)">
					<path class="st25" d="M-39-50.9c1.8,2.9,3.8,5.6,6.2,8.1c2.1,2.4,4.7,4.3,7.6,5.7l2.2,0.7c0.7,0,1.5,0.2,2.2,0.2
						c1.6,0,3.3,0,4.9-0.2c3.3-0.3,6.3-1.6,8.9-3.7c-1.5,3.2-5.2,5.2-8.6,5.9c-1.8,0.4-3.6,0.6-5.4,0.5c-1,0-2-0.2-2.7-0.2
						c-1-0.2-1.7-0.5-2.7-0.7c-3.3-1.5-6.1-3.9-8.1-6.9C-36.5-44.4-38-47.6-39-50.9z"/>
				</g>
				<ellipse class="st16" cx="193.7" cy="176.4" rx="6.9" ry="3.5"/>
				<path class="st9" d="M196.6,257.8c0,0-2.7,39.7,0.5,56.8c0.2,1.1-0.5,2.2-1.7,2.4c-0.1,0-0.2,0-0.3,0c-8.9-0.2-19.2,0-24.4,0.2
					c-1.4-0.1-2.5-1.3-2.5-2.7c0-0.1,0-0.2,0-0.3c2.2-8.4,7.9-31.1,5.7-41.7c1,3,6.9,11.1,10.1,10.9
					C186,283.2,196.6,257.8,196.6,257.8z"/>
				<path class="st12" d="M96.9,385.6"/>
				<path class="st27" d="M329.6,548.2c-24.2,9.6-52.6,16.5-75.5,18.3c-36,2.5-73,1.5-107.8-8.6c-10.9-3.2-21.7-6.9-31.8-12.3
					c-9.1-4.9-23.7-12.6-25.2-23.9c-1.2-8.6,6.9-15.1,13.3-19.2c8.4-5.4,17.8-8.9,26.4-13.6c11.1-5.9,17.8-15.5,16-28.4
					c-1.7-13.1-10.4-24.7-19.5-33.8c-13.3-13.3-21.7-30.6-26.6-44.2c0.7,2.3,1.3,4.7,1.7,7.2c2,10.4-1.5,40.5-3,47.4
					c-1.7,8.6-2.2,17.5-3.9,26.2c-1.9,9.1-4.5,18.1-7.6,26.9c-5.7,15.8-10.1,31.6-5.9,48.4c16.3,17.8,89.8,35.8,115.5,37.2
					C258.8,587.7,326.7,557.9,329.6,548.2z"/>
			</g>
		</g>
	</g>
</g>
</svg>
