<svg xmlns="http://www.w3.org/2000/svg" width="89.214" height="89.214" viewBox="0 0 89.214 89.214"><g transform="translate(-918.983 -579.288)"><circle cx="44.607" cy="44.607" r="44.607" transform="translate(918.984 579.288)" fill="#78b1e0"/><g transform="translate(946.191 596.54)"><g transform="translate(2.248 23.25)"><path d="M953.913,624.534a3.036,3.036,0,0,1-2.087-.851L939.6,611.461a2.928,2.928,0,0,1,4.14-4.14l10.135,10.135,10.135-10.135a2.928,2.928,0,0,1,4.14,4.14l-12.222,12.222A2.779,2.779,0,0,1,953.913,624.534Z" transform="translate(-938.746 -606.462)" fill="#fff"/></g><g transform="translate(14.48)"><path d="M949.889,632.183a2.946,2.946,0,0,1-2.936-2.936V593.8a2.937,2.937,0,1,1,5.874,0v35.443a2.924,2.924,0,0,1-2.912,2.938Z" transform="translate(-946.953 -590.863)" fill="#fff"/></g><g transform="translate(0 48.836)"><path d="M969.1,629.5H940.176a2.938,2.938,0,1,1,0-5.875H969.1a2.938,2.938,0,0,1,0,5.875Z" transform="translate(-937.238 -623.629)" fill="#fff"/></g></g></g></svg>