<svg id="Layer_1" data-name="Layer 1" xmlns="http://www.w3.org/2000/svg" width="160" height="130" viewBox="0 0 160 130"><defs><style>.cls-1,.cls-2{fill:#5ac7d9;}.cls-2,.cls-3{stroke:#4e4b6e;stroke-linecap:round;stroke-linejoin:round;stroke-width:3.65px;}.cls-3{fill:#fff;}.cls-4{fill:#4e4b6e;}</style></defs><title>Sales site icons</title><g id="Group_723" data-name="Group 723"><path id="Path_1013" data-name="Path 1013" class="cls-1" d="M10.24,98.57C35.11,134.82,132.53,134.26,151,88.27c14-34.92-46.95-92.13-77-78.67S58.53,45.46,35.48,56.38C7.48,69.66,2.59,87.42,10.24,98.57Z"/><path id="Path_1014" data-name="Path 1014" class="cls-1" d="M22.3,51.09c-2.44-5-16.47-1.91-14.5,5C10.62,65.9,24.35,55.34,22.3,51.09Z"/></g><circle class="cls-2" cx="80" cy="66.09" r="49.49"/><path class="cls-3" d="M32.93,50.84,80,66.09V16.6A49.48,49.48,0,0,0,32.93,50.84Z"/><circle class="cls-3" cx="80" cy="66.09" r="35.15"/><path class="cls-4" d="M68.76,61.18a3.79,3.79,0,1,1,3.79-3.79A3.79,3.79,0,0,1,68.76,61.18Z"/><path class="cls-4" d="M91.2,61.18A3.79,3.79,0,1,1,95,57.39,3.79,3.79,0,0,1,91.2,61.18Z"/><path class="cls-4" d="M80,83.39A20.8,20.8,0,0,1,62,73a2.13,2.13,0,0,1,.78-2.92,2.1,2.1,0,0,1,1.07-.29,2.14,2.14,0,0,1,1.85,1.07,16.42,16.42,0,0,0,28.48,0,2.14,2.14,0,0,1,1.85-1.07,2.1,2.1,0,0,1,1.07.29A2.13,2.13,0,0,1,97.92,73,20.8,20.8,0,0,1,80,83.39Z"/></svg>