<svg xmlns="http://www.w3.org/2000/svg" viewBox="0 0 52 52"><style>svg {
			fill: #c50404;
			width: 18px;
		}
    path {
    width:18px;
    }
  </style>
    <path d="M49.5 41.3l-20.2-34.4C28.5 5.7 27.3 5 26 5c-1.3 0-2.5 0.7-3.2 1.8l-20.2 34.4c-0.7 1.2-0.7 2.6 0 3.9C3.2 46.3 4.4 47 5.7 47h40.5c1.3 0 2.6-0.7 3.2-1.9C50.2 43.9 50.2 42.5 49.5 41.3zM23.9 19.9h3.4v3.2l-0.7 8.9H24.7l-0.7-8.9V19.9zM26.9 37.2c-0.4 0.4-0.8 0.5-1.3 0.5 -0.5 0-0.9-0.2-1.3-0.5 -0.4-0.4-0.5-0.8-0.5-1.3 0-0.5 0.2-0.9 0.5-1.3 0.4-0.4 0.8-0.5 1.3-0.5 0.5 0 0.9 0.2 1.3 0.5s0.5 0.8 0.5 1.3C27.4 36.4 27.3 36.8 26.9 37.2z"/></svg>
