<?xml version="1.0" encoding="utf-8"?>
<!-- Generator: Adobe Illustrator 23.0.1, SVG Export Plug-In . SVG Version: 6.00 Build 0)  -->
<svg version="1.1" id="Layer_1" xmlns="http://www.w3.org/2000/svg" xmlns:xlink="http://www.w3.org/1999/xlink" x="0px" y="0px"
	 viewBox="0 0 230 130" style="enable-background:new 0 0 230 130;" xml:space="preserve">
<style type="text/css">
	.st0{fill:#FFD44F;}
	.st1{fill:#FFFFFF;}
	.st2{fill:#4E4B6F;}
</style>
<title>Sales site icons</title>
<path class="st0" d="M72.7,43.8c-2.5-5.8-18.6-2.9-16.7,5C58.8,60,74.9,48.7,72.7,43.8z"/>
<path class="st0" d="M49.3,94c22.6,34.6,112.4,39.8,129.7-1.2c13.1-31.2-42.6-87.1-70.4-76.5s-14.5,32-35.8,40.6
	C47,67.3,42.3,83.3,49.3,94z"/>
<path class="st1" d="M149,43.7v63.9c0,1.6-1.3,2.9-2.9,2.9l0,0H83.8c-1.6,0-2.9-1.3-2.9-2.9l0,0V19.3c0-1.6,1.3-2.9,2.9-2.9l0,0
	h36.3L149,43.7h-24.6c-2.2,0-3.9-1.7-3.9-3.9V17"/>
<path class="st2" d="M122.4,21.3v18.4c0,1.1,0.8,1.9,1.9,1.9l0,0h19.6L122.4,21.3z M83.8,18.4c-0.5,0-0.9,0.4-0.9,0.9v88.2
	c0,0.5,0.4,0.9,0.9,0.9h62.3c0.5,0,0.9-0.4,0.9-0.9V45.6h-22.6c-3.2,0-5.9-2.6-5.9-5.9V18.4H83.8z M146.1,112.4H83.8
	c-2.7,0-4.8-2.2-4.8-4.8V19.3c0-2.7,2.2-4.8,4.8-4.8h36.3c0.5,0,1,0.2,1.4,0.5l28.8,27.2c0.4,0.4,0.6,0.9,0.6,1.5v63.8
	C151,110.2,148.8,112.4,146.1,112.4L146.1,112.4L146.1,112.4z"/>
<path class="st2" d="M115,81.1c-0.5,0-1-0.2-1.4-0.6l-8.2-8.2c-0.6-0.9-0.4-2.2,0.5-2.8c0.7-0.5,1.6-0.5,2.3,0l6.8,6.8l6.8-6.8
	c0.9-0.6,2.2-0.4,2.8,0.5c0.5,0.7,0.5,1.6,0,2.3l-8.2,8.2C116,80.9,115.5,81.1,115,81.1z"/>
<path class="st2" d="M115,81.1c-1.1,0-2-0.9-2-2V55.4c-0.2-1.1,0.5-2.1,1.6-2.3s2.1,0.5,2.3,1.6c0,0.2,0,0.5,0,0.7v23.8
	C116.9,80.2,116,81.1,115,81.1z"/>
<path class="st2" d="M124.6,90.1h-19.4c-1.1-0.2-1.8-1.2-1.6-2.3c0.1-0.8,0.8-1.5,1.6-1.6h19.4c1.1,0.2,1.8,1.2,1.6,2.3
	C126.1,89.3,125.5,89.9,124.6,90.1z"/>
</svg>
