<?xml version="1.0" encoding="utf-8"?>
<!-- Generator: Adobe Illustrator 23.0.1, SVG Export Plug-In . SVG Version: 6.00 Build 0)  -->
<svg version="1.1" id="Layer_1" xmlns="http://www.w3.org/2000/svg" xmlns:xlink="http://www.w3.org/1999/xlink" x="0px" y="0px"
	 viewBox="0 0 411.9 450.3" style="enable-background:new 0 0 411.9 450.3;" xml:space="preserve">
<style type="text/css">
	.st0{fill:url(#SVGID_1_);}
	.st1{clip-path:url(#SVGID_3_);}
	.st2{fill:#601E20;}
	.st3{fill:#6D6E71;}
	.st4{opacity:0.34;enable-background:new    ;}
	.st5{fill:#58595B;}
	.st6{fill:#56181A;}
	.st7{fill:#7E2634;}
	.st8{fill:#C58C6A;}
	.st9{clip-path:url(#SVGID_5_);}
	.st10{fill:#BF7E59;}
	.st11{clip-path:url(#SVGID_7_);}
	.st12{fill:#CD9B7C;}
	.st13{clip-path:url(#SVGID_9_);}
	.st14{fill:#996953;}
	.st15{clip-path:url(#SVGID_11_);}
	.st16{opacity:0.28;fill:#996953;enable-background:new    ;}
	.st17{clip-path:url(#SVGID_13_);}
	.st18{opacity:0.44;fill:#996953;enable-background:new    ;}
	.st19{clip-path:url(#SVGID_15_);}
	.st20{clip-path:url(#SVGID_17_);}
	.st21{clip-path:url(#SVGID_19_);}
	.st22{clip-path:url(#SVGID_21_);}
	.st23{clip-path:url(#SVGID_23_);}
	.st24{fill:#3C2415;}
	.st25{fill:#A35150;}
	.st26{fill:#F48588;}
	.st27{opacity:0.67;fill:#996953;enable-background:new    ;}
	.st28{fill:#F8B1AC;}
	.st29{clip-path:url(#SVGID_25_);}
	.st30{fill:#FFFFFF;}
	.st31{clip-path:url(#SVGID_27_);}
	.st32{fill:#603913;}
	.st33{clip-path:url(#SVGID_29_);}
	.st34{clip-path:url(#SVGID_31_);}
	.st35{fill:#B87F67;}
	.st36{fill:#F2F0E3;}
	.st37{fill:#C79A85;}
	.st38{clip-path:url(#SVGID_33_);}
	.st39{clip-path:url(#SVGID_35_);}
	.st40{clip-path:url(#SVGID_37_);}
	.st41{clip-path:url(#SVGID_39_);}
	.st42{fill:#414042;}
	.st43{clip-path:url(#SVGID_41_);}
	.st44{opacity:0.322;enable-background:new    ;}
	.st45{fill:#006738;}
	.st46{opacity:0.51;enable-background:new    ;}
	.st47{opacity:0.667;enable-background:new    ;}
	.st48{fill:#003F1B;}
	.st49{fill:#1D8841;}
	.st50{fill:#CA9474;}
</style>
<linearGradient id="SVGID_1_" gradientUnits="userSpaceOnUse" x1="-102.6551" y1="630.463" x2="-102.1941" y2="629.869" gradientTransform="matrix(392.4808 0 0 -427.5064 40365.707 269599.375)">
	<stop  offset="0" style="stop-color:#FAF4A5"/>
	<stop  offset="1" style="stop-color:#8BD2D3"/>
</linearGradient>
<path class="st0" d="M355.6,84.7c10.1-29.2-3.8-87.7-135.9-49.1c-54.6,16-89.2,15.5-122.1,11.4C55.9,41.8,7.5,59.9,25.7,137
	c19.8,84,24.3,136.6,0,202.3c-10.6,28.8-8.1,64.6,9.3,90.3c15.2,22.5,42.8,22.6,67,18.9c49.5-7.5,98.9-17.3,149.2-15.9
	c22.7,0.6,45.2,3.3,67.9,4.2c15.7,0.7,31.9,0.4,46.4-5.7c20.8-8.6,35.5-28.5,41.8-50c11.5-39,1.1-86-20.9-119.5
	c-7.2-10.9-15-21.5-21.6-32.7C349.8,203.9,342,176.2,343,147C343.7,125.7,348.6,104.8,355.6,84.7"/>
<g transform="translate(0 0)">
	<g>
		<defs>
			<path id="SVGID_2_" d="M355.6,84.7c10.1-29.2-0.3-146.5-132.3-107.8c-54.6,16-108.3,4.3-141.2,0.2
				C40.3-28.1-39.5,66.7-21.4,143.7c19.8,84,24.2,119.3,0,185.1c-10.6,28.8,39,75.1,56.4,100.8c15.2,22.5,42.8,22.6,67,18.9
				c49.5-7.5,98.9-17.3,149.2-15.9c22.7,0.6,45.2,3.3,67.9,4.2c15.7,0.7,31.9,0.4,46.4-5.7c20.8-8.6,35.5-28.5,41.8-50
				c11.5-39,1.1-86-20.9-119.5c-7.2-10.9-15-21.5-21.6-32.7C349.8,203.9,342,176.2,343,147C343.7,125.7,348.6,104.8,355.6,84.7"/>
		</defs>
		<clipPath id="SVGID_3_">
			<use xlink:href="#SVGID_2_"  style="overflow:visible;"/>
		</clipPath>
		<g class="st1">
			<path class="st2" d="M302,188.9c0,0,8.3-6.4-16.3-3.6c-24.6,2.8-17.5,8.4-17.5,8.4l21.2,10.1l9.8-6.2L302,188.9z"/>
			<path class="st3" d="M102,566.1c0,0,43.9,44.6,92.6,30.2s81-105.3,81-105.3l-37.4-61.7l-59.8-32.1l-64.1,4.8l-21.9,62.2
				L102,566.1z"/>
			<path class="st2" d="M123.3,410.7c0.8,1.8-3.6,11.1-4.1,13c-3,11.1-5.2,22.4-6.5,33.8c-2.1,20.3-1.4,40.9-0.2,61.3
				c1.1,18.5,3.6,37.5-0.6,55.8c-2.9,12.9-5.8,0.9-12.5-6.2c-7.7-8.3-16.8-15.2-30-21.1c-10.2-4.6-10-4.8-6.2-14.1
				s18.9-62.1,21.6-74.8c2.7-12.7,20.6-59.6,23.7-66.7C111.6,384.5,123.3,410.6,123.3,410.7z"/>
			<path class="st4" d="M123.3,410.7c0,0-11.6-26.2-14.8-19.1c-2,4.4-9.7,24.6-15.9,42.1c0,0,17.8-1.6,27.7,21.2
				c10,22.7,28.7,48,61.4,49.2s36.8-64.2,36.8-64.2L123.3,410.7z"/>
			<path class="st3" d="M222.5,233.9c0,0-6.3-5.1-11.5-9.8s-11.7-5.7-5.7-10.5c0.5-7-1.6-8.1-1.6-8.1l-39.9,26l-33.2,53.3l-5.1,49.1
				l0.9,10.9l50.6-0.6l11.2-3.7l41.3-79.5L222.5,233.9z"/>
			<path class="st5" d="M189.4,233.5c0,0-37.1,28.8-44.1,49.7c-7,20.9-14.2,39.9-13.6,50.6c0.6,10.8-11.4-44.6-11.4-44.6l39-64
				l21-8.6l7,1.2l3.6-0.5L189.4,233.5z"/>
			<path class="st5" d="M194.5,217.2l-5.9,5.3c0,0-5.8,12.9,1.7,18.5c7.5,5.6,26.7,7.2,40.7,3.7c7.9-2,5.1-7.7,5.1-7.7L194.5,217.2z
				"/>
			<path d="M182.1,258.4l41.7-23.4l0.7,1.5L184,259.9L182.1,258.4z"/>
			<path d="M181.8,258.3c1.8-7.4,3.8-14.8,5.9-22.1c1.1-3.7,2.2-7.3,3.4-10.9c1.1-3.7,2.6-7.3,4.3-10.7l1.1,0.6
				c-1.6,3.4-3,6.9-4.1,10.5c-1.2,3.6-2.2,7.3-3.2,10.9c-2,7.3-3.9,14.7-5.6,22.1L181.8,258.3z"/>
			<path class="st2" d="M162.5,212.1c0,0-0.5,0.1-1.3,0.3c-5.7,1.3-29.1,7.5-40.6,26.7c-6.8,2.6-9.5,4.5-8.7,11.4
				c0,1.2-0.1,3.3-2.5,3.3c-2.3,0-8.3,1.9-8.1,6.8c0.1,5-0.6,5.6-3.7,5.9s-5.1,1.4-5.6,4.1s2.2,5.5,1.6,7.2
				c-0.6,1.7-21.3,15.6-32.1,20.9c-10.8,5.3-24.6,15-27.4,20s71.2,27.6,71.2,27.6l25.8-1.7c0,0-5.9-57.6,46.4-118.1
				c2.2-1.6,4.2-8,4.2-8l-6.8-4.8L162.5,212.1z"/>
			<path class="st6" d="M131,344.5l-71.8-12l-7.9-15.2c0,0,46.5,9.2,59.4,0s14.2-30.8,1.1-39.5c10,2.5,16.8,7.9,19.3,17.7
				c3.3-10.6,7.5-32.3-4.8-38.7c0,0,16.2-2.5,22.9-14.9c6.7-12.4,10.2-16.6,10.2-16.6s-7.7-9,6.2-12.3c13.9-3.3,8.9,15.2,2.7,25.1
				s-18.1,25.6-18.9,28.5s-11.4,21.4-13.5,35.7C133.8,316.6,131,344.5,131,344.5z"/>
			<path class="st7" d="M132.9,335.7c0,0,3.4-43,15.4-62.3c12-19.3,28.7-41.5,39.3-50.2s25.4-17.1,25.4-17.1l-10.8-13.4
				c0,0-33.7,9.8-37.1,11.8c-3.4,2,0.3,5.1,0.3,5.1s-5.9,3.3-3.3,8.3c2.6,5,5.5,9.3,5.5,9.3s-12.2,5.9-13.9,17
				c-1.7,11.1-14.9,36.8-18.4,50.9c-3.9,15.7-6.2,41.5-6.2,41.5L132.9,335.7z"/>
			<g transform="translate(215.413 152.024)">
				<path class="st8" d="M-24,40.4c0,0,5.4,12.8,2.6,31.8C-22.8,82-9.8,87.4,12,86s54-9.1,65.2-31.4c1-3.5,6.8-10.4,6.8-10.4
					S52.2,19.5,52.6-16.6C52.7-32,41.3-30.9,41.3-30.9L-24,40.4z"/>
				<g>
					<defs>
						<path id="SVGID_4_" d="M-24,40.4c0,0,5.4,12.8,2.6,31.8C-22.8,82-9.8,87.4,12,86s54-9.1,65.2-31.4c1-3.5,6.8-10.4,6.8-10.4
							S52.2,19.5,52.6-16.6C52.7-32,41.3-30.9,41.3-30.9L-24,40.4z"/>
					</defs>
					<clipPath id="SVGID_5_">
						<use xlink:href="#SVGID_4_"  style="overflow:visible;"/>
					</clipPath>
					<g class="st9">
						<path class="st10" d="M27.9,29.8L7.6,14.2l-17,6l-15,21.4c0,0,6.3,16.6-0.6,31.3c-4.6,9.8,26.3,21.5,47.1,21
							c22.5-13.6-8.5-6.3-22.2-12C-38.5,65.7,27.9,29.8,27.9,29.8z"/>
					</g>
				</g>
				<g>
					<defs>
						<path id="SVGID_6_" d="M-24,40.4c0,0,5.4,12.8,2.6,31.8C-22.8,82-9.8,87.4,12,86s54-9.1,65.2-31.4c1-3.5,6.8-10.4,6.8-10.4
							S52.2,19.5,52.6-16.6C52.7-32,41.3-30.9,41.3-30.9L-24,40.4z"/>
					</defs>
					<clipPath id="SVGID_7_">
						<use xlink:href="#SVGID_6_"  style="overflow:visible;"/>
					</clipPath>
					<g class="st11">
						<path class="st12" d="M69.2,54.3c0,0,23.2-2.4,19.8-5C64.2,30.1,50.5-3.9,52.6-16.6c0.4-2.8-0.1-5.7-1.4-8.3l-6,4.6
							c0,0-11.8,45-11.8,45c0.1-0.5,0.8-1.1,1.1-1.4c1-1.1,2.1-2.1,3.3-2.9c2.5-1.7,5.5-2.5,8.5-2.2c3.3,0.5,5.1,2.5,6.3,5.4
							c3.4,8.9,3.8,18.3,4.6,27.6c0.8,9.1,1.2,18.1,1.8,27.2c0.2,3.6,0.2,7.6,1.2,11.1C60.7,88.5,69.2,54.3,69.2,54.3z"/>
					</g>
				</g>
				<g>
					<defs>
						<path id="SVGID_8_" d="M-24,40.4c0,0,5.4,12.8,2.6,31.8C-22.8,82-9.8,87.4,12,86s54-9.1,65.2-31.4c1-3.5,6.8-10.4,6.8-10.4
							S52.2,19.5,52.6-16.6C52.7-32,41.3-30.9,41.3-30.9L-24,40.4z"/>
					</defs>
					<clipPath id="SVGID_9_">
						<use xlink:href="#SVGID_8_"  style="overflow:visible;"/>
					</clipPath>
					<g class="st13">
						<path class="st14" d="M-24.5,83.1c0,0,7.1-21.2,0.5-42c11.8,0.4,9.2,1.7,9.2,1.7S-13.4,62-24.5,83.1z"/>
					</g>
				</g>
				<g>
					<defs>
						<path id="SVGID_10_" d="M-24,40.4c0,0,5.4,12.8,2.6,31.8C-22.8,82-9.8,87.4,12,86s54-9.1,65.2-31.4c1-3.5,6.8-10.4,6.8-10.4
							S52.2,19.5,52.6-16.6C52.7-32,41.3-30.9,41.3-30.9L-24,40.4z"/>
					</defs>
					<clipPath id="SVGID_11_">
						<use xlink:href="#SVGID_10_"  style="overflow:visible;"/>
					</clipPath>
					<g class="st15">
						<path class="st16" d="M-24.3,43.3c0,0,7.6,18.3,19.7,17.6c17-1,46.3-28.5,51.8-53.2C52-14-24.3,43.3-24.3,43.3z"/>
					</g>
				</g>
				<g>
					<defs>
						<path id="SVGID_12_" d="M-24,40.4c0,0,5.4,12.8,2.6,31.8C-22.8,82-9.8,87.4,12,86s54-9.1,65.2-31.4c1-3.5,6.8-10.4,6.8-10.4
							S52.2,19.5,52.6-16.6C52.7-32,41.3-30.9,41.3-30.9L-24,40.4z"/>
					</defs>
					<clipPath id="SVGID_13_">
						<use xlink:href="#SVGID_12_"  style="overflow:visible;"/>
					</clipPath>
					<g class="st17">
						<path class="st18" d="M9.3,91c0,0-3.1-14.1,15.5-20.7c14.6-5.1,27.8-14.6,38.5-25.7c3.3-3.5,5-8.3,4.7-13.1
							c-0.4-3.3-1.6-6.4-3.4-9.2C72.8,32.6,81.5,42,83.4,43S25.9,84.3,25.9,84.3L9.3,91z"/>
					</g>
				</g>
			</g>
			<path class="st2" d="M359.2,298.5c0,0,19-21.5-0.6-49.5c-19.6-28.1-47.4-43.3-50.8-45.2s-36.8,7.2-38.6,7.5
				c-1.9,0.3-31.8,8.7-43.3,23.7c-11.5,15-37.7,56.4-42.7,65.8s-8.7,42.4-10.6,48s21.8,51.7,21.8,51.7L357,298.2L359.2,298.5z"/>
			<path class="st6" d="M195.3,280c12.3-13.1,27.7-45.2,31.8-49.3c3.7-3.7,8.1-6.6,13-8.4c4-1.4,22.6-11.4,30-10.8
				c7.3,0.6,20,8.9,20,8.9l1.6,12.9c0,0-7.3,8.4-11.4,4.2c-4.1-4.2-11.5-11.1-24.2-9c-12.6,2-25.2,13.4-35.5,34.8
				c-5.8,12.1-13.4,23.4-19,35.8c-2.5,5.6-4.5,12.1-2.5,18.2c2.5,7.5,9.7,12,17,14c9.3,2.5,18.7-0.8,26.3-6.2
				c23.7-16.8-29.7,42-29.7,42l-36.1-20.1c0,0,1.5-33.4,5.2-42.8C185.5,294.6,195.3,280,195.3,280z"/>
			<path class="st14" d="M195,200c0,0,34.5,5,57-18.8c6.9-7.3,16.8-24.3,12.1-48.4c-2.4-12.1-53,27.9-53,27.9L195,200z"/>
			<path class="st14" d="M161.4,97.3c0,0-4-0.7-4.6,1.6c-1.2,4.6,2.6,12.9,4.8,20.2c2.1,7.1,3.4-2.8,3.4-2.8L161.4,97.3z"/>
			<g transform="translate(179.951 65.074)">
				<path class="st8" d="M-20.4,18.4c0,0,3.3,24.3,1.9,37.3c-0.9,8.5-0.8,26,4.1,34.6s14.6,20,16.4,25s3.4,19.9,19.1,21.1
					c13.9,1,32.6-3.6,43.7-16.5c10.6-12.3,19.9-23,20.6-41.4s1.3-19.2,1.3-19.2l-4.2-41l7.2-33.7L79.5-28.3l-45.1-2.6l-50,7.9
					L-24-9.4L-20.4,18.4z"/>
				<g>
					<defs>
						<path id="SVGID_14_" d="M-20.4,18.4c0,0,3.3,24.3,1.9,37.3c-0.9,8.5-0.8,26,4.1,34.6s14.6,20,16.4,25s3.4,19.9,19.1,21.1
							c13.9,1,32.6-3.6,43.7-16.5c10.6-12.3,19.9-23,20.6-41.4s1.3-19.2,1.3-19.2l-4.2-41l7.2-33.7L79.5-28.3l-45.1-2.6l-50,7.9
							L-24-9.4L-20.4,18.4z"/>
					</defs>
					<clipPath id="SVGID_15_">
						<use xlink:href="#SVGID_14_"  style="overflow:visible;"/>
					</clipPath>
					<g class="st19">
						<path class="st14" d="M-7.2,100.5c0,0-2-8.2,0.8-13c2.9-4.9,7.4-11.5,6.8-15.1s-9.1-0.1-9.1-0.1l-5.6,9.3l2.9,9.2L-7.2,100.5z
							"/>
					</g>
				</g>
				<g>
					<defs>
						<path id="SVGID_16_" d="M-20.4,18.4c0,0,3.3,24.3,1.9,37.3c-0.9,8.5-0.8,26,4.1,34.6s14.6,20,16.4,25s3.4,19.9,19.1,21.1
							c13.9,1,32.6-3.6,43.7-16.5c10.6-12.3,19.9-23,20.6-41.4s1.3-19.2,1.3-19.2l-4.2-41l7.2-33.7L79.5-28.3l-45.1-2.6l-50,7.9
							L-24-9.4L-20.4,18.4z"/>
					</defs>
					<clipPath id="SVGID_17_">
						<use xlink:href="#SVGID_16_"  style="overflow:visible;"/>
					</clipPath>
					<g class="st20">
						<path class="st12" d="M35.3-9.3c0.8,2.6,6.8,25.3-3.4,44.5c-0.5,0.9-0.1,2,0.8,2.4c0.3,0.2,0.7,0.2,1.1,0.2h0
							c3.3-0.6,6.7-0.8,10.1-0.8c7.5,0,15.9,1.4,20.8,7.4c3.4,4.1,4.1,9.7,1.9,14.5c-2.8,6-8.6,10.7-6.9,18.3
							c1.9,9.1,18.3,21,1.8,48.4s13.5-3.7,13.5-3.7L99.3,96c0.1-0.1,0.2-0.3,0.3-0.5l9-19.3c0.1-0.2,0.2-0.4,0.2-0.7l3.4-65.3
							c0-0.4-0.1-0.8-0.3-1.1L98.3-11.4c-0.1-0.1-0.1-0.2-0.2-0.3L85.2-24.1c-0.1-0.1-0.3-0.2-0.5-0.3l-13-6.3
							c-0.2-0.1-0.4-0.2-0.7-0.2L49.6-32c-0.2,0-0.5,0-0.7,0.1l-12.1,4.5c-0.7,0.3-1.2,0.9-1.2,1.7L35.3-9.8
							C35.2-9.6,35.2-9.5,35.3-9.3z"/>
					</g>
				</g>
				<g>
					<defs>
						<path id="SVGID_18_" d="M-20.4,18.4c0,0,3.3,24.3,1.9,37.3c-0.9,8.5-0.8,26,4.1,34.6s14.6,20,16.4,25s3.4,19.9,19.1,21.1
							c13.9,1,32.6-3.6,43.7-16.5c10.6-12.3,19.9-23,20.6-41.4s1.3-19.2,1.3-19.2l-4.2-41l7.2-33.7L79.5-28.3l-45.1-2.6l-50,7.9
							L-24-9.4L-20.4,18.4z"/>
					</defs>
					<clipPath id="SVGID_19_">
						<use xlink:href="#SVGID_18_"  style="overflow:visible;"/>
					</clipPath>
					<g class="st21">
						<path class="st10" d="M3,97.1c0,0-10.7,6.1,3.3,30c6.4,10.9,15.3,11.4,15.3,11.4c-12.4-5.2-8.6-17.2-7.8-19
							c2.5-6.1,7-3.2,7-3.2S13.3,96,3,97.1z"/>
					</g>
				</g>
				<g>
					<defs>
						<path id="SVGID_20_" d="M-20.4,18.4c0,0,3.3,24.3,1.9,37.3c-0.9,8.5-0.8,26,4.1,34.6s14.6,20,16.4,25s3.4,19.9,19.1,21.1
							c13.9,1,32.6-3.6,43.7-16.5c10.6-12.3,19.9-23,20.6-41.4s1.3-19.2,1.3-19.2l-4.2-41l7.2-33.7L79.5-28.3l-45.1-2.6l-50,7.9
							L-24-9.4L-20.4,18.4z"/>
					</defs>
					<clipPath id="SVGID_21_">
						<use xlink:href="#SVGID_20_"  style="overflow:visible;"/>
					</clipPath>
					<g class="st22">
						<path class="st10" d="M-2.7,107.6c-4.4-5.7-9.4-15.3-5-22.3c0.8-1.3,2-2.4,2.9-3.6c1-1.3,2-2.6,2.9-4c1.5-2.3,3.3-5.4,2.4-8.2
							C-1,65,1,63.7,3.5,62.3s14.6-7.6,0.6-16.5c-3-1.9,2.9,1.1-3.8-3.7c-6.7-4.9-20.4-44.9,12.5-54.1S-20-17-20-17l-25.1,36.6
							l-2.3,48.3l10.5,35.7l31.7,30.2"/>
					</g>
				</g>
				<g>
					<defs>
						<path id="SVGID_22_" d="M-20.4,18.4c0,0,3.3,24.3,1.9,37.3c-0.9,8.5-0.8,26,4.1,34.6s14.6,20,16.4,25s3.4,19.9,19.1,21.1
							c13.9,1,32.6-3.6,43.7-16.5c10.6-12.3,19.9-23,20.6-41.4s1.3-19.2,1.3-19.2l-4.2-41l7.2-33.7L79.5-28.3l-45.1-2.6l-50,7.9
							L-24-9.4L-20.4,18.4z"/>
					</defs>
					<clipPath id="SVGID_23_">
						<use xlink:href="#SVGID_22_"  style="overflow:visible;"/>
					</clipPath>
					<g class="st23">
						<path class="st14" d="M-10.9,40.4c0,0-7.9,3.7-0.8,10.3c-2.9,2-10.1,5.9-5.9,33.5c2,13.2-8.2-23.8-8.2-23.8
							S-22.1,42.6-10.9,40.4z"/>
					</g>
				</g>
			</g>
			<path class="st14" d="M186,163.2c0.1,0,0.2-0.4,0.3-0.4c0.8,1.2,0.4,3.4,0.8,4.8c1.1,3.8,0.9,8.6,4,11.6c0.5,0.5,1,0.9,1.7,1.2
				c1.7,0.9,3.6,1.4,5.6,1.5c3.8,0.4,7.7,0,11.3-1.4c1.9-0.7,3.6-1.8,5-3.2c1.5-1.6,2.9-3.3,4.1-5.1c0.1-0.2,0.3-0.3,0.4-0.5
				c0.4-0.5,2.9-3.4,3.3-3.8c0.5-0.4-1.7,1-1.2,0.5c2.3-2.1,2.4-1.7,4.9-3.5c0.3-0.2-1.7-1.2-1.3-1.3c-4.4,1.3-5.3,5.4-9.6,7
				c-3.7,1.5-7.6,2.5-11.6,2.9c-2.5,0.2-5-0.2-7.3-1.1c-2.5-1-4.7-2.6-6.5-4.6c-1.1-1.3,0.3-4.7-1.6-4.9
				C187.5,163.1,186.8,163.1,186,163.2z"/>
			<path class="st24" d="M182.8,162.1c0.9,0.4,1.6,1,2,1.8c0.5,1.2,4.6,6.3,4.6,6.3l10.9,4.4l14.3-3l10.5-6.4c0,0,1.7-0.8,2.2-1
				c0.6-0.2,1.1-0.9,0.2-1c-0.9,0-5.9-0.3-10.2-0.9s-13.8,0.1-16.8,0.1c-3.4-0.3-6.7-0.7-10.1-1.3c0,0-4.1-0.6-4.9-0.1
				C184.6,161.4,183.3,162.5,182.8,162.1"/>
			<path class="st25" d="M218.3,164.2c0.1,0,1.5-0.9-0.3-1.7c-1.8-0.8-7.9-1.1-9-0.8c-1.1,0.3-5.1,1.6-8.6,1.1
				c-3.6-0.5-8.5-1.3-8.5-1.3l-3.1-0.5c0,0.8,0.2,1.5,0.7,2.1c0.7,0.7,2,6.9,2,6.9l7.8,3.4c0,0,7.2-1.6,8.5-2.1c1.3-0.6,8-2.7,8-2.7
				l2.7-1.1c0,0,1.5-2.2,0.9-3C218.6,163.9,218.3,164.2,218.3,164.2z"/>
			<path class="st10" d="M206.5,110.7c-1.7,2.2-2.7,4.8-3.1,7.5c-0.4,4.2,8.5,16.7,31.4,11.1c-8.3-1.1-7.2-9.8,2-10.9
				c0,0,7.9-1.4,6.5-6.9c-8.5-4.5-20.3-4.9-20.3-4.9L206.5,110.7z"/>
			<path class="st26" d="M221.3,167.3c0,0-2.7-3.3-10-0.3c-3.1,1.2-12.2,1.6-16.8-0.1s-5.6,0.6-5.6,0.6l-0.1,1.6l8.9,5.6l14.4-1.7
				L221.3,167.3z"/>
			<path class="st27" d="M213.2,117.6c1-2.2,2.9-3.9,5.2-4.7c4.1-1.4,9.4,0,15.9,2.9c4,1.8,2.5,2.6,2.5,2.6s-8.2,1.7-11.8,1.3
				c-1.8-0.2-3.9-0.7-6.4-0.8c-0.8-0.1-1.5-0.3-2.2-0.6c-0.4-0.1-2.2,0.7-2.4,0.5C213.5,118.6,213.2,118.1,213.2,117.6z"/>
			<path class="st27" d="M188.4,119.6c-0.1-0.2-0.1-0.4-0.2-0.6c-0.2-0.6-0.4-1.1-0.7-1.6c-2.1-3.5-6.3-5-10.2-5.1
				c-2.2-0.1-6.8,0.5-6.8,3.5c0,1.4,0.3,1.4,1.3,2c1.2,0.7,7.5,0.8,12,1.1c0.5,0,1.5-0.2,1.9-0.1c0.7,0,1.2,0.3,1.7,0.3
				C187.8,119.1,188.1,119.3,188.4,119.6z"/>
			<path d="M206.6,110.9c0.4,0.5,2.3,0.9,9.3-0.4c7-1.3,19.2-2.4,27.4,1c-1-2.2-8-6.6-16.7-6.8C218,104.6,203.9,107.3,206.6,110.9z"
				/>
			<path d="M185.8,110.3c0-1-8.1-6.7-16.3-7.4c-8.2-0.8-7.7,7.6-7.7,7.6s1.8-4.1,7.3-2.9S185.8,113.7,185.8,110.3z"/>
			<g transform="translate(237.768 145.103)">
				<path class="st28" d="M-24-26.1c0,0,3.1-5.4,11-4.8c8,0.6,10.6,4.4,10.6,4.4s-9.7,2.1-17,0.7C-20.9-26.1-22.5-26.2-24-26.1z"/>
				<g>
					<defs>
						<path id="SVGID_24_" d="M-24-26.1c0,0,3.1-5.4,11-4.8c8,0.6,10.6,4.4,10.6,4.4s-9.7,2.1-17,0.7C-20.9-26.1-22.5-26.2-24-26.1z
							"/>
					</defs>
					<clipPath id="SVGID_25_">
						<use xlink:href="#SVGID_24_"  style="overflow:visible;"/>
					</clipPath>
					<g class="st29">
						<path class="st30" d="M-20.3-30.2c0,0-1.7,3.2,0.3,5s12.5,1.9,12.5,1.9s3.3-4.4,2.4-6.7s-5.1-4.3-5.1-4.3l-9.9,1.8L-20.3-30.2
							z"/>
					</g>
				</g>
				<g>
					<defs>
						<path id="SVGID_26_" d="M-24-26.1c0,0,3.1-5.4,11-4.8c8,0.6,10.6,4.4,10.6,4.4s-9.7,2.1-17,0.7C-20.9-26.1-22.5-26.2-24-26.1z
							"/>
					</defs>
					<clipPath id="SVGID_27_">
						<use xlink:href="#SVGID_26_"  style="overflow:visible;"/>
					</clipPath>
					<g class="st31">
						<ellipse class="st32" cx="-13" cy="-28.9" rx="4.4" ry="4.4"/>
					</g>
				</g>
				<g>
					<defs>
						<path id="SVGID_28_" d="M-24-26.1c0,0,3.1-5.4,11-4.8c8,0.6,10.6,4.4,10.6,4.4s-9.7,2.1-17,0.7C-20.9-26.1-22.5-26.2-24-26.1z
							"/>
					</defs>
					<clipPath id="SVGID_29_">
						<use xlink:href="#SVGID_28_"  style="overflow:visible;"/>
					</clipPath>
					<g class="st33">
						<ellipse cx="-13" cy="-28.9" rx="2" ry="2"/>
					</g>
				</g>
				<g>
					<defs>
						<path id="SVGID_30_" d="M-24-26.1c0,0,3.1-5.4,11-4.8c8,0.6,10.6,4.4,10.6,4.4s-9.7,2.1-17,0.7C-20.9-26.1-22.5-26.2-24-26.1z
							"/>
					</defs>
					<clipPath id="SVGID_31_">
						<use xlink:href="#SVGID_30_"  style="overflow:visible;"/>
					</clipPath>
					<g class="st34">
						<ellipse class="st30" cx="-15.3" cy="-28.6" rx="1.1" ry="1.1"/>
					</g>
				</g>
			</g>
			<path d="M235.3,118.6c-1.4-1.5-3.1-2.5-5.1-3.2c-1.9-0.6-3.9-1-5.9-1c-0.5,0-1,0-1.5,0c-0.2,0-0.5,0-0.7,0l-0.7,0.1
				c-0.5,0-1,0.2-1.5,0.3c-0.5,0.1-0.9,0.3-1.4,0.5c-0.9,0.4-1.8,0.9-2.6,1.5c-0.8,0.6-1.6,1.3-2.2,2.1c1-1.9,2.5-3.4,4.4-4.3
				c1.9-1,4.1-1.4,6.2-1.3c2.1,0.1,4.2,0.5,6.2,1.3C232.6,115.4,234.3,116.7,235.3,118.6L235.3,118.6z"/>
			<path class="st10" d="M214.4,148.4c2.9-3.6,2.8-8.6-0.1-12.1c5.6,3.3,18.3,9.1,22.5,15.5c5.4,8.1,0.7,25.8-5.4,30.5
				c7-12.3,0.8-18.4-3.6-18.9C229.5,155.5,219.3,155.9,214.4,148.4z"/>
			<path class="st35" d="M183.9,162.9c0.1,0,0.5,0.7,0.6,0.8c0.8,1.2,1.4,2.6,1.8,4c0.4,1.3,0.6,2.8,1.1,4.1
				c0.7,1.8,1.8,3.4,3.3,4.7c1.5,1.2,3.3,1.9,5.2,2.2c2.1,0.5,4.3,0.7,6.5,0.8c3.7,0.2,7.4-0.8,10.6-2.7c1.8-1.2,3.4-2.6,4.9-4.2
				c0.5-0.4,0.9-0.9,1.4-1.3c2.3-2.1,4.6-4.3,7.2-6.2c0.4-0.3,0.8-0.6,1.2-0.8c-4.4,1.3-8.6,3.1-12.9,4.7c-3.7,1.5-7.6,2.5-11.6,2.9
				c-2.5,0.2-5-0.2-7.3-1.1c-2.5-1-4.7-2.6-6.5-4.6c-1.1-1.3-2.4-3-4.3-3.2C184.6,162.8,184.3,162.8,183.9,162.9z"/>
			<path class="st36" d="M188.9,162.6c0,0,0.4,3.5,2.2,5.1c0.8,1,1.9,1.5,3.2,1.5c0.7,1.1,2.4,1.8,5,1.4c1.5,0.8,5.1,1.3,6.8,0
				c1.5,0.3,5-0.2,5.7-1.6c1.4,0,3.4-0.9,3.8-1.6c1.9,0.3,3.8-0.9,4.2-2.8c0.6-2.2-2.9-1.9-3.6-0.6c-0.8-0.8-1.9-1.2-3-1
				c-0.9,0.3-1.7,0.9-2.1,1.8c-0.2-1-1.2-1.7-2.2-1.5c-1.7,0.3-2.9,2.6-2.9,2.6c-0.3-1.1-1.4-1.9-2.5-1.8c-2.3,0-3.2,0.9-3.8,2.1
				c-0.5-1.2-1.6-2.1-3-2.2c-0.9,0-1.7,0.4-2.3,1.1c0,0,0-1.5-1-1.8c-1.7-0.7-2,0.5-2,0.5c-0.1-0.6-0.5-1.1-0.9-1.5
				C190,161.9,189,161.7,188.9,162.6z"/>
			<path class="st37" d="M205.8,175.6c0,0.4,0.3,0.8,0.6,1c0.5,0.2,1,0.4,1.6,0.3c2.1-0.1,4-1,5.5-2.5c0.8-0.7,1.6-1.5,2.3-2.3
				c0.2-0.2,0.6-0.9,0.4-1.3c-0.3-0.5-1.5,0-1.9,0.1c-1.1,0.4-2.1,1-3.2,1.4c-0.5,0.2-1.1,0.4-1.6,0.6c-0.5,0.2-1,0.3-1.6,0.6
				c-0.6,0.2-1.1,0.5-1.6,0.9C206,174.7,205.8,175.2,205.8,175.6z"/>
			<g transform="translate(194.806 145.001)">
				<path class="st28" d="M-6.4-25.2c0.1-0.5-2.8-5.3-9.1-5.6s-8.5,3-8.5,3s3.1,3.3,14.2,1.8C-8.7-26.4-6.4-25.2-6.4-25.2z"/>
				<g>
					<defs>
						<path id="SVGID_32_" d="M-6.4-25.2c0.1-0.5-2.8-5.3-9.1-5.6s-8.5,3-8.5,3s3.1,3.3,14.2,1.8C-8.7-26.4-6.4-25.2-6.4-25.2z"/>
					</defs>
					<clipPath id="SVGID_33_">
						<use xlink:href="#SVGID_32_"  style="overflow:visible;"/>
					</clipPath>
					<g class="st38">
						<path class="st30" d="M-21-32.9c0,0-2.2,4.3-0.9,8.1s8.4,3.4,8.4,3.4l3.5-1.8c0,0,3.3-5.4,1.9-7.9s-4.8-4-4.8-4l-8.4,2
							L-21-32.9z"/>
					</g>
				</g>
				<g>
					<defs>
						<path id="SVGID_34_" d="M-6.4-25.2c0.1-0.5-2.8-5.3-9.1-5.6s-8.5,3-8.5,3s3.1,3.3,14.2,1.8C-8.7-26.4-6.4-25.2-6.4-25.2z"/>
					</defs>
					<clipPath id="SVGID_35_">
						<use xlink:href="#SVGID_34_"  style="overflow:visible;"/>
					</clipPath>
					<g class="st39">
						<ellipse class="st32" cx="-15.1" cy="-28.6" rx="4.4" ry="4.4"/>
					</g>
				</g>
				<g>
					<defs>
						<path id="SVGID_36_" d="M-6.4-25.2c0.1-0.5-2.8-5.3-9.1-5.6s-8.5,3-8.5,3s3.1,3.3,14.2,1.8C-8.7-26.4-6.4-25.2-6.4-25.2z"/>
					</defs>
					<clipPath id="SVGID_37_">
						<use xlink:href="#SVGID_36_"  style="overflow:visible;"/>
					</clipPath>
					<g class="st40">
						<ellipse cx="-15.1" cy="-28.6" rx="2" ry="2"/>
					</g>
				</g>
				<g>
					<defs>
						<path id="SVGID_38_" d="M-6.4-25.2c0.1-0.5-2.8-5.3-9.1-5.6s-8.5,3-8.5,3s3.1,3.3,14.2,1.8C-8.7-26.4-6.4-25.2-6.4-25.2z"/>
					</defs>
					<clipPath id="SVGID_39_">
						<use xlink:href="#SVGID_38_"  style="overflow:visible;"/>
					</clipPath>
					<g class="st41">
						<ellipse class="st30" cx="-17.4" cy="-28.2" rx="1.1" ry="1.1"/>
					</g>
				</g>
			</g>
			<path d="M254.2,124.7c0,0,6.9-16.4-0.1-24.2c-6.8-7.6-9-11.7-8.9-15.9c2.4,2.7,5.3,4.9,9.8,4.3c-3.9-1.7-8.5-7.6-8.7-14
				c-0.2-6.3-0.4-9.9-2.1-11.6c9-3.9,15.2-12.4,16-22.2c3.9,0.6,16.2,5.4,21.2,13c5,7.6,2.2,19.5-0.8,27.3
				c-2.9,7.9-1.4,21.1-1.4,21.1l-14.8,0.5C264.3,103.1,261.7,120.3,254.2,124.7z"/>
			<path class="st12" d="M263.1,108.7c1.2-5.6,1.2-6.6,3-9c2.5-3.4,6.2-6.9,10.9-5.3c4.2,1.5,4.8,6.2,4.3,10
				c-1.2,10.1-2.9,18.6-4.8,22.5c-1.9,3.9-2.3,5-2.3,7.1c0.1,2-1.4,6.9-4.5,7c-1.8,0.1-3.5-0.8-4.5-2.4"/>
			<path class="st16" d="M269.8,140.9c2.7-0.1,4.2-3.9,4.5-6.1c-0.2,2.3-2.3,4.1-4.6,3.8c-0.1,0-0.2,0-0.4,0
				c-3.9-0.6-3.9-4.7-3.9-4.7S262.8,140.9,269.8,140.9z"/>
			<path class="st10" d="M264.1,112.3c0,0,1-4.2,3.3-5.7c2.3-1.5,5.3-7.4,7.4-7.6c2.2-0.2,5.1-0.9,3.8,7.8
				c-1.3,8.7-1.7,12.2-1.7,12.2s0.9-12.8-2.1-14.1C271.8,103.7,265.7,107.8,264.1,112.3z"/>
			<path class="st10" d="M267.3,122.9c1.3-3.1,7-2.7,7.4-6.9c0.4-2.9-1.6-5.5-4.5-5.9c-0.5-0.1-1.1-0.1-1.6,0c-2.7,0.7-3,5.5-3,5.5
				C267.8,117.4,268.5,120.4,267.3,122.9z"/>
			<path d="M259.1,41.4c0,0-4.7,17.1-16.1,17.8c-11.5,0.7-13.4-3-20.4-3s-17.7,0.9-25,3.5c-7.3,2.6-23.9,5-27.2-3.7
				c-3.1,4.6-11.2,12.9-9.9,25.4c0.8,7.2,1.1,14.5,1,21.8c0,0-2.3-20.4-5.8-26.3c-3.4-5.9-9-16.4-3.6-29.1
				c-0.9-4.1-1.3-10.9,6.2-13.3c-1.9-8.4,4.9-16.5,13.1-18.4c-2.6,1.3-1.9,4,0.3,4c2.2,0,8.8-4.2,12-7.1c3.2-2.9,14-6.3,20.9-4.1
				c5.3-6.1,28.5-6.1,37.5,4.8C242.3,13.6,272.4,15.8,259.1,41.4z"/>
			<path d="M257.1,24.2c0,0,7,1.9,9.9,7s15.9,19.9,14.8,25.3s-18.6,2.6-18.6,2.6s-3.2-17.3-3.2-17.6c0-0.3-0.2-0.4-0.4-0.5
				c-0.2-0.1-0.5,0.1-0.6,0.3c-4,1-3.1-7.4-3.1-7.4L257.1,24.2z"/>
			<path class="st35" d="M228.1,163.3c-3.8,0.4-7.7,0.4-11.5-0.2c-4-0.6-8.1-0.3-11.9,0.8c-1.2,0.3-6.8,1.2-10.7-0.3s-7.6-2.8-8.9-2
				c-1.2,0.7-2.7,0.7-4,0.1c1.1,0.3,2.3,0.1,3.4-0.4c1.8-1.2,4-1.8,6.2-1.7c1.2,0.2,2.4,0.4,3.6,0.8c1.5,0.5,3.1,0.8,4.6,0.9
				c1.4-0.1,2.8-0.4,4.2-0.8c1.5-0.4,3-0.5,4.5-0.4c2.9,0.1,5.8,0.6,8.7,1.4C220.1,162.5,224.1,163.1,228.1,163.3z"/>
			<path class="st8" d="M170.4,120.1c-0.4-0.2-0.7,0.2-0.8,0.7c-0.2,1.3-0.2,3.4,3.6,4.2c3.5,0.8,8.7-0.8,10.9-1.7
				c0.3-0.1,0.4-0.4,0.3-0.7c-0.1-0.2-0.3-0.3-0.5-0.3C180.6,122.3,174.7,122.3,170.4,120.1z"/>
			<path class="st8" d="M215,121c-0.1,0-0.1,0-0.2,0c-0.5-0.1-1.1,0.1-1.3,0.6c-0.4,0.9,0.3,1.9,1,2.4c0.8,0.6,1.7,1.1,2.7,1.3
				c4.3,1.1,8.7,1.1,13,0c0.5-0.1,0.7-1.9,1.2-2.2c0.5-0.3,0.2-1.6-0.4-1.4c-4.6,0.9-9.4,0.9-14-0.2
				C216.4,121.3,215.7,121.1,215,121z"/>
			<path class="st14" d="M188.1,164.9c2.7,7.2,11.4,9.6,18.2,7.8c3.1-0.9,6-2.1,8.9-3.5c2.2-1,4.3-2,6.5-3.1
				c-2.4,0.9-4.7,1.8-7.1,2.7c-3.7,1.5-7.6,2.5-11.6,2.9c-2.5,0.2-5-0.2-7.3-1.1c-2.5-1-4.7-2.6-6.5-4.6c-0.4-0.5-0.8-0.9-1.2-1.4
				C188.1,164.7,188.1,164.8,188.1,164.9z"/>
			<path class="st14" d="M212.5,118.8c0,0-4.2-2.1-1.9-6.9C208.5,113.9,205.8,120,212.5,118.8z"/>
			<path class="st14" d="M188.8,119.9c0.6-1.9,0.4-4-0.7-5.8c1.3,1.1,4.4,5.9,0.9,9.2C189.6,122.2,189.5,120.9,188.8,119.9z"/>
			<path class="st12" d="M227.7,186.4c0.5,1.3,0,2.8-1.1,3.5c-4.1,3.3-10,5.3-15.3,3.8c-0.2,0-0.4-0.1-0.5-0.2
				c-1.4-1.2,1.8-3.9,2.5-4.5c1.5-1.1,3.1-2.1,4.9-2.8C223.1,184.1,226.6,184,227.7,186.4z"/>
			<path class="st10" d="M179.3,91.1c2.9,0.2,5.7,0.3,8.5,0.4c2.8,0,5.7,0,8.5-0.1c2.8-0.1,5.6-0.4,8.4-0.8c2.8-0.5,5.6-1.1,8.3-1.9
				l0,0c-2.5,1.4-5.3,2.4-8.1,3.1c-2.8,0.7-5.7,1.1-8.6,1.2c-2.9,0.1-5.8,0.1-8.7-0.2C184.9,92.4,182.1,91.9,179.3,91.1z"/>
			<path class="st12" d="M243.1,129.7c1.6-2.8,1.1-7.3-4.8-10.3c3.6,0.1,8.6,1.6,8.7,6.7C247,131.1,241.5,132.5,243.1,129.7z"/>
			<path class="st42" d="M251.9,67c0,0,4.4,10.3,17.3,6.4c-1.4,2.9-10,5.4-14.9,1.9c0.6,4.1,8.8,8.7,17.9,5.8
				c-2.6,2.6-9.1,3.8-14.2,2.4C253.6,82.2,249.4,78.7,251.9,67z"/>
			<path d="M170.8,117.1c0.9-1.6,2.4-2.7,4.2-3.2c1.7-0.5,3.6-0.5,5.3-0.2c1.8,0.3,3.5,0.9,5,1.8c1.5,0.9,2.7,2.4,3.2,4.1
				c-0.4-0.8-0.9-1.4-1.6-2c-0.6-0.6-1.3-1-2-1.4c-1.5-0.7-3.1-1.2-4.7-1.5c-1.6-0.3-3.3-0.3-4.9,0
				C173.6,115.1,172.1,115.9,170.8,117.1L170.8,117.1z"/>
			<path class="st14" d="M236.9,151.7c-2.4-3.5-7.9-7.6-13.5-10.5c3.3,2.6,6.4,5.5,9.2,8.7c3.4,3.9,6.9,9.3,5.6,19.9
				C239.7,163.4,239.8,156.2,236.9,151.7z"/>
			<path class="st42" d="M208.8,52.7c0,0,4.1-15.7-9.1-19c-23.5-4.8-20.8-14.9-14.2-18.4c-8.3,3.6-11.2,14.4,0.7,18.9
				S208.7,35.6,208.8,52.7z"/>
			<g transform="translate(173.737 284.816)">
				<g>
					<defs>
						<polygon id="SVGID_40_" points="-24,22.5 -4.4,-30.9 19.3,-22.9 -0.3,30.5 						"/>
					</defs>
					<clipPath id="SVGID_41_">
						<use xlink:href="#SVGID_40_"  style="overflow:visible;"/>
					</clipPath>
					<g class="st43">
						<path class="st44" d="M6.7,4.7C6.5,7.2,6,9.6,5.1,12C1.4,21.5-5.5,25-11.8,22.9c-0.7-0.2-1.3-0.5-1.9-0.9
							c-2.9-1.6-4.4-4.4-4.8-7.7c-0.4,4.9,0.8,9.3,4.8,11.5c0.6,0.3,1.3,0.6,1.9,0.9c6.3,2.1,13.2-1.3,16.9-10.9
							C6.5,12.2,7,8.4,6.7,4.7 M-1.2-3c0,0-3.3,2.5-3.9,3.7C-5.6,1.9-6,3.7-5,4.3C-4.3,3.1-1.6,1-1.2,0.8c0-0.6,0.1-1.2,0.1-1.9
							v-0.5C-1.1-2.1-1.2-2.6-1.2-3 M5.8-16.7c-0.2,0.5-0.3,0.8-0.3,0.8c-0.1,0-0.2,0-0.3,0c-0.7-0.3-1.2-0.8-1.7-1.3
							c0,0-0.1-0.1-0.1-0.1c-0.7,1.2-0.9,2.6-0.5,3.9c0.2-0.1,0.4-0.1,0.5-0.2C3.6-14,3.8-14.3,4-14.5c0.2-0.3,0.7-0.8,1.1-0.6
							c0,0,0,0,0,0C5.5-15.5,5.8-16.1,5.8-16.7 M10.3-16.2c-0.2,1-0.5,1.9-0.8,2.8c-1.1,2.4-2.8,4.5-5,6l0,0l0,0
							c0.1,0.2,0.2,0.4,0.3,0.6l0,0C5-6,5.3-5.2,5.6-4.5c1.7-1.4,3-3.2,3.9-5.1C10.4-11.7,10.7-14,10.3-16.2"/>
						<path class="st45" d="M-1.1-1.2L-1.1-1.2 M-1.1-1.6L-1.1-1.6 M-7.4,11c-0.2-0.1-0.4-0.2-0.6-0.2c-2.8-1.5-3.5-6.2-1.4-10.5
							c1-2.5,3-4.4,5.5-5.4c-1.9,1-3.5,3.6-4.3,5.9C-8.2,1-8.3,1.2-8.4,1.5c-0.5,1.7-0.5,3.6,0,5.3C-8,8-7.1,9-5.9,9.5
							c0.1,0,0.2,0.1,0.3,0.1C-5.3,9.7-5,9.7-4.7,9.8c0.5,0.1,1,0.1,1.5,0c0.5,0,0.9-0.2,1.3-0.4C-3.6,10.9-5.7,11.6-7.4,11
							 M2.2-9.7c4.4-2.4,4.9-6.7,4.5-7.6c0.3-1,0.8-2,1.5-2.8C8.6-14.4,5.5-11.5,2.2-9.7 M5.7-23.8c-2.4-0.2-5.2,1.5-6.9,4.6
							c-1.2,2.6-1.7,5.4-1.3,8.3l0,0c2.2-1.3,4.1-3.1,5.4-5.3c-0.3,0.9-0.3,1.9,0,2.8c-0.5,0.3-4.7,2.1-5.4,2.5v0
							c0,0-9.9,3.6-13.4,11.4c-2,4.4-3.2,9.6-2.7,13.9c0.4,3.3,1.8,6.2,4.8,7.7c0.6,0.3,1.3,0.6,1.9,0.9C-5.6,25,1.4,21.6,5.1,12
							C6,9.7,6.5,7.2,6.7,4.7c0.2-3.1-0.2-6.2-1.1-9.1C5.3-5.2,5-5.9,4.7-6.7C1.8-4.8-0.3-2-1.3,1.2c-0.5,3.5-2.2,3.7-3.3,3.3
							c0,0,0,0,0,0c-0.1,0-0.2-0.1-0.3-0.1C-6,3.7-5.6,2-5.1,0.8c0.5-1.3,3.9-3.7,3.9-3.7c0,0.5,0,0.9,0.1,1.3c0-0.4,0-0.8-0.1-1.3
							c-0.2,0.1-0.3,0.2-0.5,0.3c0,0,5.3-4.2,6-4.7l0,0c0,0,0,0,0,0c0,0,0,0,0,0c2.2-1.5,3.9-3.5,5-6c0.4-0.9,0.7-1.9,0.8-2.8
							c0.6-3.3-0.4-5.2-1.6-6.3c-1.3,1.2-2.4,4.2-2.8,5.8c0,0.6-0.2,1.2-0.6,1.7c-0.5,0.6-1.1,1.1-1.7,1.4c-0.2,0.1-0.3,0.2-0.5,0.2
							c-0.4-1.3-0.3-2.7,0.5-3.9c-0.3-0.4-0.4-0.9-0.3-1.4C3.6-20.5,4.5-22.3,5.7-23.8"/>
						<path d="M8.3-26.6c-0.8-0.3-1.5,0-1.7,0.9c-0.7,0.2-1.1,1-0.9,1.7c0,0,0,0.1,0,0.1l0,0c-1.2,1.5-2,3.2-2.6,5
							c-0.1,0.5,0,1,0.3,1.4l0.1,0.1c0.5,0.5,1.1,1,1.7,1.3c0.1,0,0.2,0,0.3,0c0,0,0.1-0.3,0.3-0.8c0.5-1.5,1.6-4.6,2.8-5.8
							c0,0,0.1-0.1,0.1-0.1c0.5,0.6,1,1.3,1.3,2c0,0,1.4-2.9-0.1-4.6C9.6-25.9,9-26.3,8.3-26.6"/>
						<path class="st46" d="M-1.2,0.8L-1.2,0.8c0,0.2,0,0.3,0,0.5v0C-1.2,1.1-1.2,0.9-1.2,0.8"/>
						<path class="st47" d="M-1.1-1.2c0,0.7,0,1.4-0.1,1.9l0,0C-1.1,0.2-1.1-0.4-1.1-1.2 M-1.1-1.4L-1.1-1.4 M-1.1-1.7L-1.1-1.7
							C-1.1-1.6-1.1-1.7-1.1-1.7C-1.1-1.7-1.1-1.7-1.1-1.7 M4.4-7.3L4.4-7.3c0,0.1,0.1,0.3,0.3,0.6l0,0C4.6-6.9,4.5-7.1,4.4-7.3"/>
						<path class="st48" d="M4.4-7.3L4.4-7.3c-0.8,0.5-6,4.7-6,4.7C-1.4-2.9-1.2-3-1.2-3c0,0.4,0.1,0.9,0.1,1.3v0.5
							c0,0.7,0,1.4-0.1,1.9c0,0.1,0,0.3,0,0.4c1-3.2,3.1-6,5.9-7.9C4.5-7.1,4.4-7.3,4.4-7.3"/>
						<path class="st46" d="M-2.5-11L-2.5-11L-2.5-11L-2.5-11"/>
						<path class="st48" d="M2.9-16.3c-1.3,2.2-3.2,4-5.4,5.3l0,0v0c0.8-0.3,4.9-2.2,5.4-2.5C2.6-14.4,2.6-15.4,2.9-16.3"/>
						<path class="st49" d="M-3.9-5.2c-2.5,1-4.5,2.9-5.5,5.4c-2,4.3-1.4,9.1,1.4,10.5c0.2,0.1,0.4,0.2,0.6,0.2
							c1.7,0.6,3.8-0.1,5.5-1.7c-0.4,0.3-0.8,0.4-1.3,0.4c-0.5,0.1-1,0.1-1.5,0C-5,9.7-5.3,9.6-5.6,9.5c-0.1,0-0.2-0.1-0.3-0.1
							C-7.1,8.9-8,8-8.4,6.7c-0.5-1.7-0.5-3.6,0-5.3c0.1-0.3,0.1-0.5,0.2-0.8C-7.4-1.6-5.8-4.1-3.9-5.2"/>
						<path class="st49" d="M8.3-20.1c-0.7,0.8-1.2,1.8-1.5,2.8c0.3,0.9-0.2,5.3-4.5,7.6C5.5-11.4,8.6-14.4,8.3-20.1"/>
					</g>
				</g>
			</g>
			<path class="st10" d="M82.1,396.2c0,0,9,7.2,14.5,6.2c5.5-0.9,16.2-8.7,18.2-10.6c2-1.9-12.9-10.1-12.9-10.1L82.1,396.2z"/>
			<path class="st7" d="M170.5,337.3c0,0-2.6-28.4,12.8-49.1c15.4-20.7,30.5-42.5,34.9-49.4c4.4-6.9,12.9-16.8,21-17.6
				c8.1-0.8,37.4-17.9,43.2-21.7c5.8-3.7,22.6-13.4,19.2-14.3c3.4,0.1,6.2,1.1,7.6,8.6s3,11.5,5.3,13.4
				c-4.1,2.5-14.6,22.3-15.6,24.5s-7.8,5.5-12.3,3.9c-4.5-1.6-7-7.2-7.8-11.7c-0.8-4.5-5.1-10.4-13.6-9.8s-15.6,9.5-18.1,11.1
				c-2.5,1.6-8.1,2.5-10.4,0.8c-1.7,1.6-12.9,15.1-17.6,24.5c-5.3,10.6-19.3,29.3-25.7,39.1c-8.3,12.8-14.3,26.2-13.9,49.9
				C179.9,358.8,170.5,337.3,170.5,337.3z"/>
			<path class="st10" d="M95.5,393.2c0,0,12.3-3.6,18.7,8.7c6.4,12.3,16,28.4,18.4,29.8c-2.3-7.3-7-31.8-3-40.2
				c4.1-8.4,11.7-17.3,17-20.7c5.3-3.4-43.9-0.1-43.9-0.1S95.2,393.2,95.5,393.2z"/>
			<path class="st50" d="M216.8,347.4c0,0-23.1-3.1-35.2-8.4c-12.2-5.3-20-6.2-30.4-5.3c-10.4,0.9-50.8,1.1-61.9-3
				c0,0-23.8-8.9-45.7,44.2c-14.2,49.3,53.4,22.9,59.1,19.3s40.8-20.7,47.4-20.6c6.6,0.2,45.7,11.4,45.7,11.4
				S223.5,365.5,216.8,347.4z"/>
			<path class="st2" d="M366,280.4c0,0,5.3,35.2-9.7,72.6S304,437.5,304,437.5s5,20.9-5.3,29.3c-1.6,2.2-2.9,5.8-0.8,8.6
				c2.1,2.8,3.4,6.2,2.7,8.6c2.9,3.7,27,28,18.9,57.3c-8.1,29.3-48.6,67.6-122.8,80.1c-20.6,3.1-17.5,2.5-16.8-9.3
				c0.6-11.8,5-43-1.2-71.7c-6.2-28.7-10.6-56.7-0.6-83.5c10-26.8,134-152.1,134-152.1L366,280.4z"/>
			<path class="st6" d="M366.2,281.1c-0.1-0.2-0.2-0.4-0.4-0.6l-53.6,24.2c0,0-124,125.3-134,152.1c-3.2,8.8-5.1,18.1-5.7,27.4
				c4.9,2.6,10.2,4.3,15.6,5.2c13.5,2.1,29.4,1.8,41.8-4.4c9.9-5,18.1-12.7,26.3-20.1c21.6-19.3,41.7-40.3,61.8-61.2
				c6.5-6.8,13.2-13.5,19-20.9c6.2-7.9,16.3-24.4,23.7-42.7C366.3,321,368.1,300.9,366.2,281.1z"/>
			<path class="st8" d="M98.9,376.6c-17.8-6.8-10.2-46-10.2-46l-1.3-0.3c-0.2,0-0.5,0-0.7-0.1l-24.3,22.1l-8.1,51.3
				c16.8,4.2,44.9-7,48.4-9.3c5.6-3.6,40.8-20.7,47.4-20.6c6.6,0.1,45.7,11.4,45.7,11.4C140.5,344,116.6,383.4,98.9,376.6z"/>
			<path class="st2" d="M88.7,330.6c0,0-2.6-6.2-13.1-5.8c-7.8-5.1-36-23.1-48.9,3.3c-3.8,7.5-8.1,14.7-12.7,21.7
				c-5.1,8-7.7,17.3-7.6,26.8c0.1,4.4,0.8,9.2,3.1,13c3.8,6.1,11.4,6,17.6,7.6c4.7,1.2,9.6,2.8,13.6,5.6c3.6,2.5,26.7,8.9,32.9-3.4
				C79.8,387.1,88.7,330.6,88.7,330.6z"/>
			<path class="st6" d="M340.9,325.4l-42.2,25.3l-20.6,48.6l-2.3,44.9c0,0,13.5,38.9-45.7,59.2c34.3-10.6,52.1-13.3,63.8-6
				c10.3,6.4,22.5,33.9,19.4,58.1c2.7-4.5,4.8-9.3,6.2-14.3c8.1-29.3-16-53.6-18.9-57.3c0.7-2.5-0.6-5.9-2.7-8.6
				c-2.1-2.8-0.8-6.4,0.8-8.6c10.3-8.4,5.3-29.3,5.3-29.3s37-46.6,52.1-83.9l1-7L340.9,325.4z"/>
			<path class="st2" d="M153.8,375.6c0,0,7.2-5.2,20.1-1.2c11.1,3.4,14.8,4.8,17.1,5.3c2.3,0.5,5,1.2,6.4-0.6
				c2.4-3.2,4-7.3,5.7-10.8c2.5-5.1,4.4-10.4,7.2-15.4c2.7-5,5.7-9.8,8.9-14.5c4.2-6.2,8.6-12.2,13.4-18c4.7-5.6,9.5-11.3,15.7-15.2
				c0,0-0.5-6.6,6.8-8.3c2.8-6.1,35.5-56.6,89.4-46.6c53.9,10,9.3,94.4-7.5,115.6s-89.4,90.4-97.6,97.6c-8.1,7.2-37.1,11.2-51.4,9
				c-14.3-2.2-27.4-10.9-33-21.8C149.4,439.6,133.9,387,153.8,375.6z"/>
			<path class="st7" d="M165.5,372.9c0,0-18.4-6.2-27.9,3.4c-9.5,9.7-12.8,27.1-9.3,41.3c3.4,14.2,3.1,21.5,6.2,25.2
				c3.1,3.7,7.8,4.8,12.6,9.8s11.8,12,20,11.1c-8.9-8.7-18.4-39.1-19.6-48.6C146.2,405.7,148.5,374.7,165.5,372.9z"/>
			<path class="st7" d="M75.6,324.8c10.4-0.5,13.1,5.8,13.1,5.8s-8.9,56.6-15.1,68.9s-29.3,5.9-32.9,3.4c-4-2.8-8.9-4.4-13.6-5.6
				c-0.1,0-0.1,0-0.2,0C26.9,397.2,66.3,379.9,75.6,324.8z"/>
			<path class="st6" d="M238.7,311.5c15.3-34.6,81.4-27.4,81.4-27.4s-39.7-2.5-40-9c-0.3-6.5,24.2-18.6,24.2-18.6
				S267,257.2,238.7,311.5z"/>
			<path class="st10" d="M190.4,117.6c1,1.1,1.6,2.4,2,3.8c0.3,1.4,0.5,2.9,0.4,4.3c-0.2,2.8-0.9,5.6-2,8.2c0-1.4,0.2-2.8,0.3-4.2
				s0.3-2.7,0.3-4.1C191.6,122.9,191.2,120.2,190.4,117.6z"/>
			<path class="st14" d="M190.6,151.9c0,0,4.6,2.4,8.7,2.4c1.6-0.3,3.2-0.8,4.6-1.6c3.8-1.6,7.7-3,11.7-4.1c-4.7,3.3-8.6,7.6-13.7,8
				C195.7,157.1,190.6,151.9,190.6,151.9z"/>
			<path class="st12" d="M202.7,130.8c0.9,0.3,0.8,2.5,0.9,4.7c0,1.7,0.5,3.4,1.3,4.9c1.1,1.8,3.3,2.2,5.3,2.1c0.2,0,0.4,0,0.5,0
				c1.6,0,3-0.8,3.8-2.1c0.2-0.5,0.3-1.1,0.3-1.7c0-0.4-0.1-0.7-0.2-1c0-0.2-0.2-1.1-0.4-1.1c5.1,2,7.6,11.1-1.3,13.3
				c0,0-3.4,1-5.9,2c-3,1.1-4.5,2.6-7.8,2.8c0,0-5.1,0.3-2.5-12.6C199.3,129.4,201.8,130.5,202.7,130.8z"/>
			<path class="st10" d="M190,151.3c-4.6-1.6-7.9-4.1-7.2-8.6c0.6-3.8,3.5-5.5,6.1-5.1C185.2,138.3,182.6,147.1,190,151.3z"/>
		</g>
	</g>
</g>
</svg>
