<?xml version="1.0" encoding="utf-8"?>
<!-- Generator: Adobe Illustrator 23.0.2, SVG Export Plug-In . SVG Version: 6.00 Build 0)  -->
<svg version="1.1" id="Layer_1" xmlns="http://www.w3.org/2000/svg" xmlns:xlink="http://www.w3.org/1999/xlink" x="0px" y="0px"
	 viewBox="0 0 200 179.9" style="enable-background:new 0 0 200 179.9;" xml:space="preserve">
<style type="text/css">
	.st0{enable-background:new    ;}
	.st1{fill:#4E4B6D;}
	.st2{fill:#5AC7DA;}
	.st3{fill:none;}
</style>
<title>fourthousand</title>
<g id="Group_3719">
	<g id="_4_500">
		<g class="st0">
			<path class="st1" d="M42.2,165.2v-6.7H26.4c-0.5,0-1-0.7-1.5-2.1c-0.5-1.4-0.8-2.6-0.8-3.5c0-0.3,0-0.5,0.1-0.7l17.9-26.3
				c0.3-0.5,0.8-0.8,1.3-0.9c0.6-0.1,1.3-0.2,2.3-0.2h1.6c2.4,0,3.6,0.6,3.6,1.9v24.7h2.3c0.6,0,1.1,0.2,1.4,0.7
				c0.3,0.5,0.4,1.2,0.4,2.3v1c0,1-0.1,1.8-0.4,2.3c-0.3,0.5-0.7,0.7-1.4,0.7h-2.3v6.7c0,1.3-1.2,1.9-3.6,1.9h-1.7
				C43.4,167.2,42.2,166.5,42.2,165.2z M42.2,151.5v-11.7c0-0.6,0.2-1.7,0.7-3.2l-0.2-0.1l-9.4,14.9H42.2z"/>
		</g>
		<g class="st0">
			<path class="st1" d="M57.1,171.9c-0.4-0.2-0.6-0.4-0.6-0.7c0-0.3,0.1-0.7,0.4-1.4c0.4-1.1,0.8-2.1,1-3.2s0.4-2.5,0.4-4.2
				c0-1.2,0.8-1.8,2.5-1.8h0.8c0.8,0,1.4,0.2,1.8,0.5s0.6,0.8,0.6,1.3c0,1.4-0.3,2.9-1,4.4c-0.7,1.5-1.5,2.7-2.4,3.7
				c-0.9,1-1.7,1.5-2.3,1.5C57.9,172.2,57.5,172.1,57.1,171.9z"/>
		</g>
		<g class="st0">
			<path class="st1" d="M73.1,167c-1.8-0.4-3.2-0.9-4.2-1.6c-1-0.7-1.5-1.4-1.5-2.2c0-0.4,0.2-0.9,0.5-1.7c0.4-0.8,0.8-1.5,1.3-2.1
				c0.5-0.6,1-0.9,1.4-0.9c0.1,0,0.6,0.2,1.5,0.6c0.9,0.4,1.9,0.7,3.1,1c1.2,0.3,2.4,0.5,3.9,0.5c2,0,3.5-0.6,4.7-1.7
				c1.2-1.1,1.7-2.6,1.7-4.5c0-2.2-0.6-3.9-1.7-5c-1.2-1.1-3.1-1.7-5.8-1.7h-6.6c-0.8,0-1.4-0.2-1.7-0.5c-0.3-0.4-0.5-1-0.5-1.9
				l1.1-17.9c0.1-0.8,0.3-1.5,0.7-1.8c0.4-0.4,1-0.6,1.8-0.6h17.8c0.6,0,1.1,0.2,1.4,0.7c0.3,0.5,0.4,1.2,0.4,2.3v1.6
				c0,0.8-0.1,1.5-0.4,1.8c-0.3,0.4-0.7,0.6-1.4,0.6H78.4l-0.6,8.6h1.6c4.9,0,8.6,1,11.2,3.1c2.6,2,3.9,5.5,3.9,10.4
				c0,3.2-0.7,5.8-2.2,7.8c-1.5,2-3.4,3.5-5.7,4.3c-2.3,0.9-4.8,1.3-7.5,1.3C76.9,167.5,74.9,167.3,73.1,167z"/>
		</g>
		<g class="st0">
			<path class="st1" d="M104.4,165c-2.1-1.7-3.8-4.2-4.9-7.4c-1.1-3.2-1.7-7.1-1.7-11.6c0-4.5,0.6-8.4,1.7-11.6
				c1.1-3.2,2.8-5.7,4.9-7.4s4.7-2.6,7.6-2.6s5.5,0.9,7.6,2.6s3.8,4.2,4.9,7.4c1.1,3.2,1.7,7.1,1.7,11.6c0,4.5-0.6,8.4-1.7,11.6
				c-1.1,3.2-2.8,5.7-4.9,7.4c-2.1,1.7-4.7,2.6-7.6,2.6S106.6,166.7,104.4,165z M116,156.8c0.9-2.4,1.4-6.1,1.4-10.8
				c0-4.8-0.5-8.4-1.4-10.8c-0.9-2.4-2.2-3.7-3.9-3.7s-3,1.2-3.9,3.7s-1.4,6.1-1.4,10.8c0,4.8,0.5,8.4,1.4,10.8
				c0.9,2.4,2.2,3.7,3.9,3.7S115.1,159.3,116,156.8z"/>
		</g>
		<g class="st0">
			<path class="st1" d="M137.8,165c-2.1-1.7-3.8-4.2-4.9-7.4c-1.1-3.2-1.7-7.1-1.7-11.6c0-4.5,0.6-8.4,1.7-11.6
				c1.1-3.2,2.8-5.7,4.9-7.4c2.1-1.7,4.7-2.6,7.6-2.6c3,0,5.5,0.9,7.6,2.6c2.1,1.7,3.8,4.2,4.9,7.4c1.1,3.2,1.7,7.1,1.7,11.6
				c0,4.5-0.6,8.4-1.7,11.6c-1.1,3.2-2.8,5.7-4.9,7.4c-2.1,1.7-4.7,2.6-7.6,2.6C142.5,167.5,139.9,166.7,137.8,165z M149.3,156.8
				c0.9-2.4,1.4-6.1,1.4-10.8c0-4.8-0.5-8.4-1.4-10.8s-2.2-3.7-3.9-3.7s-3,1.2-3.9,3.7c-0.9,2.4-1.4,6.1-1.4,10.8
				c0,4.8,0.5,8.4,1.4,10.8c0.9,2.4,2.2,3.7,3.9,3.7S148.4,159.3,149.3,156.8z"/>
		</g>
	</g>
	<g id="_">
		<g class="st0">
			<path class="st1" d="M166.4,138.2c-0.2-0.1-0.4-0.4-0.4-0.7v-4.7h-4.7c-0.3,0-0.6-0.1-0.7-0.4c-0.1-0.2-0.2-0.6-0.2-1.2v-0.2
				c0-0.5,0.1-0.9,0.2-1.2c0.1-0.2,0.4-0.4,0.7-0.4h4.7v-4.7c0-0.3,0.1-0.6,0.4-0.7s0.6-0.2,1.2-0.2h0.4c0.5,0,0.9,0.1,1.2,0.2
				c0.2,0.1,0.4,0.4,0.4,0.7v4.7h4.7c0.3,0,0.6,0.1,0.7,0.4c0.1,0.2,0.2,0.6,0.2,1.2v0.2c0,0.5-0.1,0.9-0.2,1.2
				c-0.1,0.2-0.4,0.4-0.7,0.4h-4.7v4.7c0,0.3-0.1,0.6-0.4,0.7c-0.2,0.1-0.6,0.2-1.2,0.2h-0.4C167.1,138.5,166.7,138.4,166.4,138.2z"
				/>
		</g>
	</g>
</g>
<g id="Group_3626">
	<g id="Group_3624">
		<g id="Group_3622">
			<path id="Path_1869" class="st2" d="M88.9,56.6L88.9,56.6c-1.1,0-2-0.9-2-2l0,0c0.1-2.3-0.2-4.6-0.9-6.9c-1.1,0-2.7-0.7-4.2-3.1
				s-3.1-6-2-8.9c0.3-0.8,0.8-1.5,1.6-2c-0.7-5.1-0.9-14.4,5.5-19.7c3.2-2.7,7.3-4.3,11.5-4.4h3.1c4.2,0.3,8.2,1.8,11.5,4.4
				c6.4,5.3,6.2,14.8,5.5,19.7c0.7,0.5,1.3,1.2,1.6,2c1.1,2.7-0.4,6.2-2,8.6c-1.3,2.4-3.1,3.1-4.2,3.1c-0.7,2.2-1,4.5-0.9,6.9
				c0,1.1-0.9,2-2,2s-2-0.9-2-2c-0.1-3.4,0.6-6.8,1.8-10c0.3-0.5,0.8-0.9,1.3-1.1c0.5,0,0.9,0,1.3,0.2c0.2,0,0.7-0.5,1.1-1.3
				c1.6-2.7,2-4.7,1.8-5.3c-0.2-0.2-0.4-0.3-0.7-0.4c-0.9-0.3-1.5-1.3-1.3-2.2c0.4-2.9,1.8-12.6-4-17.5c-2.7-2.2-6-3.4-9.5-3.5h-2.4
				c-3.5,0.1-6.9,1.3-9.5,3.5c-5.8,4.9-4.4,14.6-4,17.5c0.2,1-0.4,1.9-1.3,2.2c-0.2,0.1-0.5,0.3-0.7,0.4c-0.2,0.7,0.2,2.7,1.8,5.3
				c0.3,0.5,0.6,1,1.1,1.3c0.4-0.2,0.9-0.3,1.3-0.2c0.7,0.2,1.1,0.5,1.3,1.1c1.2,3.2,1.8,6.6,1.8,10c0.4,0.6,0.3,1.5-0.3,2
				C89.6,56.5,89.2,56.6,88.9,56.6L88.9,56.6z"/>
		</g>
		<g id="Group_3623">
			<path id="Path_1875" class="st3" d="M111.7,63.2l-0.2,0.5L104.4,92l9.7-15.5L111,73c-0.3-0.4-0.5-1-0.4-1.6
				c0.2-0.6,0.6-1,1.1-1.3l3.8-1.6l-0.4-9.3l-2.2-1.8L111.7,63.2L111.7,63.2z"/>
			<path id="Path_1876" class="st3" d="M87.3,57.2l-2.4,2.2l-0.4,9.3l3.8,1.6c0.5,0.3,0.9,0.8,1.1,1.3c0.2,0.6,0,1.2-0.4,1.6
				l-3.1,3.5l10,16l-6.7-28.2l0,0l-0.2-0.4l0,0L87.3,57.2z"/>
			<path id="Path_1877" class="st3" d="M124.3,96.4c2.2,0,4-1.8,4-4s-1.8-4-4-4s-4,1.8-4,4l0,0C120.3,94.6,122.1,96.4,124.3,96.4z"
				/>
			<path id="Path_1878" class="st3" d="M94.2,70.5l5.8,24.6l6-24.6c-1.7,1.1-3.7,1.6-5.8,1.6C98.1,72.1,96,71.6,94.2,70.5z"/>
			<path id="Path_1879" class="st2" d="M146.9,77.2c-0.7-5.3-4.2-9.8-9.1-11.7l-19.3-7.5c0-0.2-0.2-0.4-0.4-0.7l-5.8-5.1l-0.7,0.9
				h-2.2l0.4,2.4l-1.8,7.3c-1.1,3.4-4.2,5.7-7.8,5.8c-3.4,0-6.5-2.1-7.8-5.3l0,0l-2-7.5V53h-1.3L88,51.5L81.8,57
				c-0.3,0.2-0.4,0.5-0.4,0.9l-19,7.5c-4.9,2-8.4,6.5-9.1,11.7l-2.4,20.6l3.5,0.4l2.4-20.4c0.5-4,3.1-7.3,6.8-8.8l12.6-4.9
				c-2.2,3.1-3.5,6.8-3.5,10.6c-2.9,0.8-5,3.4-5.3,6.4L65,94c-0.3,1.7,0.2,3.5,1.3,4.9c1.2,1.4,2.9,2.2,4.7,2.2v0.9
				c0,0.2,0.2,0.4,0.4,0.4h1.8c0.2,0,0.4-0.2,0.4-0.4v-5.1c0-0.2-0.2-0.4-0.4-0.4h-1.8c-0.2,0-0.4,0.2-0.4,0.4v0.7
				c-0.7,0-1.4-0.3-1.8-0.9c-0.5-0.5-0.6-1.3-0.4-2l2.4-12.8c0.1-2.2,1.9-4,4.1-3.9s4,1.9,3.9,4.1l2.4,12.6c0.2,0.7,0,1.4-0.4,2
				c-0.5,0.5-1.1,0.8-1.8,0.9v-0.4c0-0.2-0.2-0.4-0.4-0.4h-2c-0.2,0-0.4,0.2-0.4,0.4v5.1c0,0.2,0.2,0.4,0.4,0.4h2
				c0.2,0,0.4-0.2,0.4-0.4v-0.9c1.7,0,3.4-0.9,4.4-2.2c1.1-1.4,1.6-3.1,1.3-4.9l-2.5-12.7c-0.3-3.4-2.8-6.3-6.2-6.9
				c0.1-3.9,1.7-7.6,4.4-10.4l-0.2,5.8c-0.1,0.8,0.4,1.5,1.1,1.8l2.7,1.2l-2.2,2.7c-0.5,0.6-0.6,1.5-0.2,2.2l16.2,25.7
				c0.7,1.1,2.1,1.4,3.2,0.8c0.3-0.2,0.6-0.5,0.8-0.8l16.2-25.7c0.5-0.7,0.4-1.6-0.2-2.2l-2.2-2.6l2.7-1.1c0.7-0.3,1.1-1,1.1-1.8
				l-0.2-4.9l1.1,2c1.3,2.3,2,4.9,2,7.5v10.6c-4.1,1-6.6,5-5.6,9.1s5,6.6,9.1,5.6c3.4-0.8,5.8-3.8,5.8-7.3v-0.2
				c0.1-3.5-2.4-6.5-5.8-7.3V74.7c0-3.3-0.9-6.5-2.4-9.3l-1.1-1.8l13.9,5.5c3.7,1.5,6.4,4.9,6.9,8.9l2.4,20.4l3.5-0.4L146.9,77.2z
				 M89.1,64.3L89.1,64.3l6.7,28.1l-10-15.9l3.1-3.5c0.4-0.4,0.5-1,0.4-1.6c-0.2-0.6-0.6-1-1.1-1.3l-3.8-1.6l0.4-9.3l2.4-2.3
				l1.6,6.6l0,0L89.1,64.3z M115.2,59.5l0.4,9.3l-3.8,1.6c-0.7,0.2-0.9,0.7-1.1,1.3c-0.2,0.6,0,1.2,0.4,1.6l3.1,3.5l-9.8,15.5
				l7.1-28.3l0.2-0.4l0,0l1.3-5.8L115.2,59.5z M99.9,95.1l-5.8-24.6c1.9,1.2,4,1.8,6.2,1.8c2-0.1,4-0.6,5.8-1.6L99.9,95.1z
				 M124.3,88.4c2.2,0,4,1.8,4,4s-1.8,4-4,4s-4-1.8-4-4l0,0C120.3,90.2,122.1,88.4,124.3,88.4L124.3,88.4z"/>
		</g>
	</g>
	<g id="Group_3625">
		<path id="Path_1880" class="st2" d="M99.9,113.5c-35,0-48.3-13.5-48.7-14.2c-0.7-0.8-0.6-2,0.1-2.7c0.7-0.6,1.8-0.6,2.5,0l0,0
			c0.2,0.2,12.8,12.8,46.1,12.8c33,0,46.1-13.3,46.1-13.5c0.7-0.7,1.9-0.7,2.7,0s0.7,1.9,0,2.7C148.4,99.3,134.9,113.5,99.9,113.5z"
			/>
	</g>
</g>
</svg>
