<svg id="Layer_1" data-name="Layer 1" xmlns="http://www.w3.org/2000/svg" width="32" height="32" viewBox="0 0 32 32"><defs><style>.cls-1{fill:#6371b6;}</style></defs><title>Artboard 1 copy 4</title><path class="cls-1" d="M30.23,0H1.77A1.77,1.77,0,0,0,0,1.77V30.23A1.77,1.77,0,0,0,1.77,32H30.23A1.77,1.77,0,0,0,32,30.23V1.77A1.77,1.77,0,0,0,30.23,0ZM24.68,12.46c0,.19,0,.38,0,.58A12.73,12.73,0,0,1,5.08,23.76a7.69,7.69,0,0,0,1.07.07,9,9,0,0,0,5.57-1.92A4.49,4.49,0,0,1,7.53,18.8a4.8,4.8,0,0,0,.85.08,4.66,4.66,0,0,0,1.18-.16A4.48,4.48,0,0,1,6,14.33v-.06a4.5,4.5,0,0,0,2,.57,4.5,4.5,0,0,1-2-3.73,4.57,4.57,0,0,1,.6-2.26,12.7,12.7,0,0,0,9.23,4.69,4.9,4.9,0,0,1-.11-1,4.49,4.49,0,0,1,7.75-3.07,8.73,8.73,0,0,0,2.84-1.09,4.43,4.43,0,0,1-2,2.48,9.13,9.13,0,0,0,2.57-.7A9.11,9.11,0,0,1,24.68,12.46Z"/></svg>
