<svg xmlns="http://www.w3.org/2000/svg" width="32" height="32" viewBox="0 0 32 32"><defs><style>.a{fill:#6371b6;}</style></defs><g transform="translate(32.589 1.441)"><path class="a" d="M-3.672-1.441H-29.505a3.083,3.083,0,0,0-3.084,3.084V27.476a3.083,3.083,0,0,0,3.084,3.083H-3.672A3.083,3.083,0,0,0-.589,27.476V1.643A3.083,3.083,0,0,0-3.672-1.441ZM-5.839,18.976a6.762,6.762,0,0,1-1.917,4.666,6.611,6.611,0,0,1-4.666,1.917h-8.334a6.612,6.612,0,0,1-4.666-1.917,6.489,6.489,0,0,1-2-4.666V10.143a6.35,6.35,0,0,1,2-4.667,6.35,6.35,0,0,1,4.666-2h8.334a6.349,6.349,0,0,1,4.666,2,6.612,6.612,0,0,1,1.917,4.667Z"/><path class="a" d="M-.24,26.879a4.061,4.061,0,0,0-2.75,1.083,4.06,4.06,0,0,0-1.083,2.75A3.854,3.854,0,0,0-2.99,33.379,4.061,4.061,0,0,0-.24,34.463a3.855,3.855,0,0,0,2.667-1.083,3.932,3.932,0,0,0,1.167-2.667,4.137,4.137,0,0,0-1.167-2.75A3.855,3.855,0,0,0-.24,26.879Z" transform="translate(-16.349 -16.237)"/><path class="a" d="M-3.016,14.575H-11.35a5,5,0,0,0-3.416,1.333,5.078,5.078,0,0,0-1.417,3.417v8.833a4.875,4.875,0,0,0,1.417,3.333,4.718,4.718,0,0,0,3.416,1.417h8.334A4.4,4.4,0,0,0,.317,31.491a4.532,4.532,0,0,0,1.417-3.333V19.325A4.718,4.718,0,0,0,.317,15.908,4.653,4.653,0,0,0-3.016,14.575Zm-.167,13.083a5.666,5.666,0,0,1-4,1.667,5.666,5.666,0,0,1-4-1.667,5.473,5.473,0,0,1-1.667-4,5.34,5.34,0,0,1,1.667-4,5.34,5.34,0,0,1,4-1.667,5.34,5.34,0,0,1,4,1.667,5.666,5.666,0,0,1,1.667,4A5.819,5.819,0,0,1-3.183,27.658ZM-1.1,18.991a1.333,1.333,0,0,1-1.333-1.333A1.333,1.333,0,0,1-1.1,16.325,1.333,1.333,0,0,1,.234,17.658,1.333,1.333,0,0,1-1.1,18.991Z" transform="translate(-9.406 -9.183)"/></g></svg>
