<svg xmlns="http://www.w3.org/2000/svg" width="293.65px" height="108.68px" viewBox="0 0 832.39 308.06"><defs><style>.cls-1{fill:#6682a8;}.cls-2{fill:#f06292;}.cls-3{fill:#ffd54f;}.cls-4{fill:#5ac7da;}</style></defs><title></title><g id="Layer_3" data-name="Layer 3"><path class="cls-1" d="M265.93,135.9a55.52,55.52,0,0,1,11.8-1.2q7.61,0,11.42,3.06t3.81,9.48a10.62,10.62,0,0,1-.08,1.12c-.05.45-.13,1-.22,1.72l-1.5,8.81h21.2l-3.58,22.25H287.43L284.15,201a9.28,9.28,0,0,0-.15,1.79q0,4.78,4.92,4.78,4.63,0,8.51-6.12,6.27,1.78,9.11,4.78a10.81,10.81,0,0,1,2.84,7.76,13.83,13.83,0,0,1-1.2,6,17.77,17.77,0,0,1-4.33,5.38q-7.46,6.87-20.6,6.87-13.89,0-21.27-6.42t-7.4-19a62.69,62.69,0,0,1,.75-8.51Z"/><path class="cls-1" d="M330.43,125.3a54,54,0,0,1,11.49-1.2q15.38,0,15.38,12.54a24.35,24.35,0,0,1-.3,2.84l-4.18,25.23a24.23,24.23,0,0,1,19.11-8.81q8.52,0,13.29,5.3T390,175.76a41,41,0,0,1-.45,6.12q-.45,3-1,6.27l-4,24a49.7,49.7,0,0,0-.9,8.36,28.19,28.19,0,0,0,.9,7.91,34,34,0,0,1-14.79,3.14c-5.17,0-9-.95-11.49-2.84s-3.73-4.87-3.73-9a36.1,36.1,0,0,1,.29-4.48l4.93-29.26c.1-.5.17-1,.23-1.64s.07-1.14.07-1.64q0-3.89-4-3.88c-3.69,0-5.92,2.29-6.72,6.86L341.77,230H312.66Z"/><path class="cls-1" d="M396.27,201.14a50.35,50.35,0,0,1,3.36-18.66A43.19,43.19,0,0,1,408.81,168a38.46,38.46,0,0,1,13.59-9,45.58,45.58,0,0,1,16.87-3.06q10,0,17.09,3.88a26.33,26.33,0,0,1,10.83,10.9,33.83,33.83,0,0,1,3.73,16.13,51.88,51.88,0,0,1-5.37,24,37.83,37.83,0,0,1-14.86,15.9,43.43,43.43,0,0,1-22,5.45q-15.54,0-24-8.22T396.27,201.14Zm34.94,9.71c2.18,0,4.1-1.12,5.74-3.36a25.75,25.75,0,0,0,3.89-9,45.13,45.13,0,0,0,1.42-10.89c0-3.69-.53-6.3-1.57-7.84a5.45,5.45,0,0,0-4.85-2.32,7.17,7.17,0,0,0-5.9,3.36,25.83,25.83,0,0,0-3.88,9.11,48.52,48.52,0,0,0-1.42,11.72Q424.64,210.84,431.21,210.85Z"/><path class="cls-1" d="M485.55,157.84a37.17,37.17,0,0,1,11.8-1.94q8.06,0,11.72,2.84c2.43,1.89,3.66,4.93,3.66,9.11,0,.59,0,1.22-.08,1.86s-.13,1.27-.22,1.87l-5.38,31.65a14.83,14.83,0,0,0-.22,1.64c-.05.6-.08,1.15-.08,1.65,0,2.59,1.35,3.88,4,3.88,3.69,0,5.92-2.29,6.72-6.87l7.62-45.69a37.16,37.16,0,0,1,11.79-1.94q8.07,0,11.72,2.84t3.66,9.11c0,.59,0,1.22-.07,1.86s-.13,1.27-.23,1.87l-6.87,40.16a60.78,60.78,0,0,0-.74,9.11,35.45,35.45,0,0,0,.89,8.66,43.82,43.82,0,0,1-12.69,1.94q-7,0-10.08-1.79a12.87,12.87,0,0,1-5-6.27,24.61,24.61,0,0,1-8.88,6.79,31.85,31.85,0,0,1-11.87,1.87q-9.4,0-14.56-5.08t-5.15-14a81.34,81.34,0,0,1,1.49-13.59Z"/><path class="cls-1" d="M593.8,225a20.84,20.84,0,0,1-7.09,4,30.89,30.89,0,0,1-8.89,1.12q-10.3,0-16-7.17t-5.68-20.6a49,49,0,0,1,6-24.19,41.86,41.86,0,0,1,16.13-16.5,46.77,46.77,0,0,1,23.44-5.75,65.84,65.84,0,0,1,17.17,2,50.25,50.25,0,0,1,14.18,6.34l-9.7,57.19q-2.68,16-7.76,24.86a32.36,32.36,0,0,1-13.67,13.21q-8.58,4.32-21.27,4.33-14.19,0-21.65-3.73a22,22,0,0,1-7.76-5.83,11.69,11.69,0,0,1-2.39-7.31,14.52,14.52,0,0,1,2.83-8.51,17.76,17.76,0,0,1,7.62-6.12q4.32,5.82,8.81,8.13A23.54,23.54,0,0,0,579,242.8q5.82,0,9.25-3.36t4.78-10.23Zm7.76-45.69a8.75,8.75,0,0,0-4.18-1,9.12,9.12,0,0,0-6.87,3,21,21,0,0,0-4.48,8,33.73,33.73,0,0,0-1.64,10.53q0,9.1,6.42,9.1,5.67,0,6.87-7Z"/><path class="cls-1" d="M650.83,125.3a54,54,0,0,1,11.5-1.2q15.38,0,15.37,12.54a24.35,24.35,0,0,1-.3,2.84l-4.17,25.23a24.2,24.2,0,0,1,19.11-8.81q8.5,0,13.28,5.3t4.78,14.56a41,41,0,0,1-.45,6.12q-.45,3-1,6.27l-4,24a49.7,49.7,0,0,0-.9,8.36,28.19,28.19,0,0,0,.9,7.91,33.91,33.91,0,0,1-14.78,3.14q-7.77,0-11.5-2.84t-3.73-9a36.21,36.21,0,0,1,.3-4.48l4.92-29.26a14.4,14.4,0,0,0,.23-1.64c0-.6.07-1.14.07-1.64q0-3.89-4-3.88-5.52,0-6.72,6.86L662.18,230H633.06Z"/><path class="cls-1" d="M728.76,135.9a55.52,55.52,0,0,1,11.8-1.2q7.62,0,11.42,3.06t3.81,9.48a10.62,10.62,0,0,1-.08,1.12c-.05.45-.12,1-.22,1.72L754,158.89h21.2l-3.59,22.25H750.26L747,201a9.28,9.28,0,0,0-.15,1.79q0,4.78,4.93,4.78,4.62,0,8.51-6.12,6.27,1.78,9.1,4.78a10.81,10.81,0,0,1,2.84,7.76,14,14,0,0,1-1.19,6,17.92,17.92,0,0,1-4.33,5.38q-7.47,6.87-20.61,6.87-13.87,0-21.27-6.42t-7.39-19a62.42,62.42,0,0,1,.74-8.51Z"/><path class="cls-1" d="M406.63,84.9a35.64,35.64,0,0,1,7.55-.77q9.84,0,9.85,8a7.25,7.25,0,0,1,0,.86c0,.26-.08.58-.15,1l-4.68,27.72q-3.06,18-6.69,22.94a17.7,17.7,0,0,1-15.68,8c-3,0-5.29-.8-6.88-2.39a9.08,9.08,0,0,1-2.39-6.69,20.5,20.5,0,0,1,.29-3.35,15.43,15.43,0,0,0,5.93-1.1,7.35,7.35,0,0,0,3.48-3.58,34.69,34.69,0,0,0,2.35-8.8Zm1.53-13.39A10,10,0,0,1,411,64a10.56,10.56,0,0,1,7.64-2.77,8.6,8.6,0,0,1,6.07,2.25,7.06,7.06,0,0,1,2.44,5.4,10,10,0,0,1-2.87,7.55,10.52,10.52,0,0,1-7.64,2.77,8.6,8.6,0,0,1-6.12-2.24A7.14,7.14,0,0,1,408.16,71.51Z"/><path class="cls-1" d="M432.25,84.42a23.65,23.65,0,0,1,7.55-1.24q5.16,0,7.5,1.81c1.56,1.21,2.34,3.16,2.34,5.83,0,.39,0,.78-.05,1.2s-.08.81-.14,1.19L446,113.48a12.42,12.42,0,0,0-.19,2.1c0,1.66.86,2.48,2.58,2.48q3.54,0,4.3-4.39l4.88-29.25a23.65,23.65,0,0,1,7.55-1.24q5.16,0,7.5,1.81c1.56,1.21,2.34,3.16,2.34,5.83,0,.39,0,.78,0,1.2s-.09.81-.15,1.19l-4.4,25.72a38.76,38.76,0,0,0-.47,5.83,22.5,22.5,0,0,0,.57,5.54,27.93,27.93,0,0,1-8.13,1.24q-4.49,0-6.45-1.14a8.31,8.31,0,0,1-3.2-4,15.76,15.76,0,0,1-5.69,4.35,20.2,20.2,0,0,1-7.6,1.2q-6,0-9.31-3.25t-3.3-9a51.37,51.37,0,0,1,.95-8.7Z"/><path class="cls-1" d="M482.05,111.28a15.61,15.61,0,0,0,4.34,4.59,9,9,0,0,0,5,1.62c1.72,0,2.58-.63,2.58-1.91a2.93,2.93,0,0,0-.76-2,13.89,13.89,0,0,0-2.15-1.86c-.93-.67-2.09-1.45-3.49-2.34-3.06-2.11-5.13-4-6.21-5.69A10.25,10.25,0,0,1,479.75,98a12.56,12.56,0,0,1,2.58-7.74,16.21,16.21,0,0,1,7-5.26,27.29,27.29,0,0,1,10.37-1.81,23.75,23.75,0,0,1,12.38,3.1q5.21,3.1,5.21,7.7a7.48,7.48,0,0,1-2.73,5.64,11.08,11.08,0,0,1-6.54,2.86q-2.3-5.92-7.27-5.92a2.25,2.25,0,0,0-1.58.57,1.88,1.88,0,0,0-.62,1.44,2.08,2.08,0,0,0,.81,1.57A22.25,22.25,0,0,0,502,102c1.21.76,2.78,1.81,4.69,3.15a19.4,19.4,0,0,1,5.59,5.59,13.42,13.42,0,0,1,1.67,6.93A12.4,12.4,0,0,1,508.62,128Q503.27,132,494.85,132t-13.67-2.68a12.91,12.91,0,0,1-4.63-3.68,7.83,7.83,0,0,1-1.39-4.63,9.15,9.15,0,0,1,1.63-5.45A15.39,15.39,0,0,1,482.05,111.28Z"/><path class="cls-1" d="M526.49,70.37A35.71,35.71,0,0,1,534,69.6c3.25,0,5.69.66,7.32,2s2.43,3.33,2.43,6.07a7,7,0,0,1,0,.72c0,.29-.08.65-.15,1.1l-1,5.64h13.57l-2.29,14.24H540.26L538.15,112a6.39,6.39,0,0,0-.09,1.15q0,3.06,3.15,3.06c2,0,3.79-1.31,5.45-3.92a12.77,12.77,0,0,1,5.83,3.06,6.92,6.92,0,0,1,1.82,5,8.86,8.86,0,0,1-.77,3.82,11.37,11.37,0,0,1-2.77,3.44Q546,132,537.58,132q-8.9,0-13.62-4.11t-4.73-12.14a40.06,40.06,0,0,1,.48-5.45Z"/><path class="cls-1" d="M621,118.93a38.85,38.85,0,0,0-.48,5.83,22.5,22.5,0,0,0,.57,5.54,27.91,27.91,0,0,1-8.12,1.24c-3,0-5.15-.36-6.45-1.1a7.9,7.9,0,0,1-3.21-4.06,14.77,14.77,0,0,1-12.61,5.55,12,12,0,0,1-10-4.78q-3.72-4.79-3.72-13A33.51,33.51,0,0,1,580.88,98,27.16,27.16,0,0,1,591.3,87.1a29.38,29.38,0,0,1,15-3.83A40.94,40.94,0,0,1,617,84.51a34.5,34.5,0,0,1,9.13,4.11ZM606.21,98.57a4.67,4.67,0,0,0-2.58-.67,5.65,5.65,0,0,0-4.35,2.1,14.9,14.9,0,0,0-2.92,5.54,23.52,23.52,0,0,0-1.05,6.89c0,3.76,1.31,5.63,3.92,5.63q3.63,0,4.4-4.39Z"/><path class="cls-2" d="M116.06,159.85a.87.87,0,0,0-.9-1.21,46.57,46.57,0,0,1-11,.23,47.57,47.57,0,0,1-42.6-52,46.47,46.47,0,0,1,1.82-9,.86.86,0,0,0-1.19-1,45.65,45.65,0,0,0,36.4,83.72,13.79,13.79,0,0,0,9.22,12.51,13.62,13.62,0,0,0,3.62.73.87.87,0,0,0,.91-1,60.4,60.4,0,0,1-.91-11.62A57.8,57.8,0,0,1,116.06,159.85Z"/><path class="cls-3" d="M85.82,85.32c-6.19,6.29-10.71,13.93-11.6,22.83a35.24,35.24,0,0,0,44.53,37c8.38-2.51,13.83-10.09,20-15.79,1.87-1.72,3.78-3.39,5.75-5a106.89,106.89,0,0,1,22.12-13.93c1.65-.77,3.33-1.49,5-2.16,13.32-5.27,28-7.9,42.26-6.48a57.62,57.62,0,0,1,25.2,8.2.86.86,0,0,0,1.27-1C231.3,87.41,200.59,67,156,62.58a94,94,0,0,0-48.41,7.86A75.7,75.7,0,0,0,85.82,85.32Z"/><path class="cls-4" d="M242.82,133.35a25.4,25.4,0,0,0-10.36-13c-8.38-5.33-19-6.49-28.67-6.1A83.47,83.47,0,0,0,190.24,116c-19,4-36.48,14.64-49.51,29-9.12,10-16.37,22.63-16.58,36.51-.48,32.76,28.19,38.43,38.61,39.41a2.21,2.21,0,0,0,2.32-2.88c-2.07-6.17.3-12.37,4.61-16.95,7.54-8,18-10.69,28.1-13.94,19.11-6.15,41.34-19,45.9-40.22A24.71,24.71,0,0,0,242.82,133.35Z"/><path class="cls-4" d="M173.32,222.47c-1.08,3.68,2.76,8.05,8.58,9.76a16.22,16.22,0,0,0,4,.66c4.18.17,7.65-1.42,8.48-4.23,1-3.34-2.11-7.22-7-9.2-.5-.2-1-.4-1.55-.56C180,217.19,174.4,218.79,173.32,222.47Z"/><path class="cls-1" d="M780.69,150.33v0a7.57,7.57,0,1,1,15.14,0v0a7.57,7.57,0,1,1-15.14,0Zm14.27,0v0a6.66,6.66,0,0,0-6.7-6.74,6.73,6.73,0,0,0-6.7,6.79v0a6.7,6.7,0,1,0,13.4,0Zm-9.83-3.09a1,1,0,0,1,1-1h2.74c1.87,0,3.18.87,3.18,2.61a2.44,2.44,0,0,1-1.57,2.39l1.17,1.44a.85.85,0,0,1,.26.69.91.91,0,0,1-1,.92,1,1,0,0,1-.78-.4l-1.83-2.26h-1.26v1.7a1,1,0,1,1-1.92,0ZM788.7,150c.87,0,1.35-.44,1.35-1.09s-.52-1.09-1.35-1.09h-1.65V150Z"/></g></svg>
