<?xml version="1.0" encoding="utf-8"?>
<!-- Generator: Adobe Illustrator 23.0.1, SVG Export Plug-In . SVG Version: 6.00 Build 0)  -->
<svg version="1.1" id="Layer_1" xmlns="http://www.w3.org/2000/svg" xmlns:xlink="http://www.w3.org/1999/xlink" x="0px" y="0px"
	 viewBox="0 0 230 130" style="enable-background:new 0 0 230 130;" xml:space="preserve">
<style type="text/css">
	.st0{fill:#F06392;}
	.st1{fill:#FFFFFF;}
	.st2{fill:#4E4B6F;}
	.st3{clip-path:url(#SVGID_2_);}
	.st4{clip-path:url(#SVGID_4_);}
	.st5{clip-path:url(#SVGID_6_);}
	.st6{clip-path:url(#SVGID_8_);}
	.st7{fill:#4F476A;}
	.st8{clip-path:url(#SVGID_10_);}
	.st9{clip-path:url(#SVGID_12_);}
	.st10{clip-path:url(#SVGID_14_);}
	.st11{clip-path:url(#SVGID_16_);}
	.st12{clip-path:url(#SVGID_18_);}
	.st13{clip-path:url(#SVGID_20_);}
	.st14{clip-path:url(#SVGID_22_);}
	.st15{clip-path:url(#SVGID_24_);}
	.st16{clip-path:url(#SVGID_26_);}
	.st17{clip-path:url(#SVGID_28_);}
	.st18{clip-path:url(#SVGID_30_);}
	.st19{clip-path:url(#SVGID_32_);}
	.st20{clip-path:url(#SVGID_34_);}
	.st21{clip-path:url(#SVGID_36_);}
	.st22{clip-path:url(#SVGID_38_);}
	.st23{clip-path:url(#SVGID_40_);}
	.st24{clip-path:url(#SVGID_42_);}
	.st25{clip-path:url(#SVGID_44_);}
	.st26{clip-path:url(#SVGID_46_);}
	.st27{clip-path:url(#SVGID_48_);}
	.st28{clip-path:url(#SVGID_50_);}
	.st29{clip-path:url(#SVGID_52_);}
	.st30{clip-path:url(#SVGID_54_);}
	.st31{clip-path:url(#SVGID_56_);}
	.st32{clip-path:url(#SVGID_58_);}
	.st33{clip-path:url(#SVGID_60_);}
	.st34{clip-path:url(#SVGID_62_);}
	.st35{clip-path:url(#SVGID_64_);}
</style>
<title>Sales site icons</title>
<path class="st0" d="M48.7,102c27.8,29.1,118.4,19.8,129.6-21.7c8.5-31.5-55.6-75.6-81.9-61.2s-9.7,32.5-29.7,44
	C42.4,77.2,40.1,93,48.7,102z"/>
<path class="st0" d="M185.1,57.3c5.6-3.5,0.2-19.4-7.6-16.3C166.5,45.5,180.4,60.2,185.1,57.3z"/>
<path class="st1" d="M104.8,89c0,0,0.5,12.9-6.4,19.5H132c-7-6.6-6.4-19.5-6.4-19.5"/>
<path class="st2" d="M132,110.7H98.3c-0.9,0-1.6-0.5-1.9-1.3s-0.1-1.7,0.5-2.3c6.2-5.9,5.8-17.8,5.8-17.9c0-1.2,0.9-2.1,2-2.2
	c1.1,0,2.1,0.9,2.2,2c0,0.5,0.3,10.2-4.2,17.5h25c-4.5-7.3-4.2-17-4.2-17.5c0.1-1.1,1-2,2.2-2c1.2,0.1,2,1,2,2.2
	c0,0.1-0.4,12.1,5.8,17.9c0.8,0.8,0.9,2.1,0.1,3C133.1,110.4,132.6,110.7,132,110.7z"/>
<path class="st1" d="M158.5,92.2H71.8c-3.1,0-5.5-2.5-5.6-5.6V33.1c0-3.1,2.5-5.5,5.6-5.5h86.7c3.1,0,5.5,2.5,5.5,5.5v53.6
	C164,89.7,161.5,92.2,158.5,92.2z"/>
<path class="st2" d="M71.8,29.6c-1.9,0-3.5,1.6-3.4,3.5v53.6c0,1.9,1.5,3.5,3.4,3.5h86.7c1.9,0,3.5-1.5,3.5-3.5l0,0V33.1
	c0-1.9-1.6-3.5-3.5-3.5L71.8,29.6L71.8,29.6z M158.5,94.3H71.8c-4.2,0-7.6-3.4-7.7-7.7V33.1c0-4.2,3.4-7.6,7.7-7.6h86.7
	c4.2,0,7.6,3.4,7.6,7.6v53.6C166.1,90.9,162.7,94.3,158.5,94.3L158.5,94.3z"/>
<g>
	<g>
		<g>
			<defs>
				<path id="SVGID_1_" d="M149.6,50.2l-17.8-8.7c-0.5-0.3-1.1-0.3-1.6,0l-17.8,8.7c-0.9,0.4-1.3,1.5-0.9,2.4
					c0.2,0.4,0.5,0.7,0.9,0.9l5.7,2.8c0.1-1.2,0.7-2.2,1.8-2.7l0.5-0.2l-3-1.5l13.7-6.7l13.6,6.7L131,58.6l-3.4-1.7l-3.1,1.5v1
					l5.8,2.8c0.2,0.1,0.5,0.2,0.8,0.2s0.5-0.1,0.8-0.2l8.2-4v4.2l-9,4.4l-6.6-3.2v4l5.8,2.8c0.2,0.1,0.5,0.2,0.8,0.2
					s0.5-0.1,0.8-0.2l10.9-5.3c0.6-0.3,1-1,1-1.7l-0.1-7.1l5.9-2.9c0.6-0.3,1-0.9,1-1.6C150.6,51.2,150.2,50.5,149.6,50.2z"/>
			</defs>
			<clipPath id="SVGID_2_">
				<use xlink:href="#SVGID_1_"  style="overflow:visible;"/>
			</clipPath>
			<g class="st3">
				<g>
					<g>
						<g>
							<g>
								<defs>
									<rect id="SVGID_3_" x="111.3" y="40.6" width="39.8" height="30.1"/>
								</defs>
								<clipPath id="SVGID_4_">
									<use xlink:href="#SVGID_3_"  style="overflow:visible;"/>
								</clipPath>
								<g class="st4">
									<g>
										<g>
											<g>
												<defs>
													<rect id="SVGID_5_" x="110.4" y="39.7" width="41.7" height="32"/>
												</defs>
												<clipPath id="SVGID_6_">
													<use xlink:href="#SVGID_5_"  style="overflow:visible;"/>
												</clipPath>
												<g class="st5">
													<g>
														<g>
															<g>
																<g>
																	<defs>
																		<rect id="SVGID_7_" x="111.3" y="40.6" width="39.8" height="30.1"/>
																	</defs>
																	<clipPath id="SVGID_8_">
																		<use xlink:href="#SVGID_7_"  style="overflow:visible;"/>
																	</clipPath>
																	<g class="st6">
																		<rect x="101.3" y="31.2" class="st7" width="59.4" height="49.6"/>
																	</g>
																</g>
															</g>
														</g>
													</g>
												</g>
											</g>
										</g>
									</g>
								</g>
							</g>
						</g>
					</g>
				</g>
			</g>
		</g>
	</g>
</g>
<g>
	<g>
		<g>
			<defs>
				<path id="SVGID_9_" d="M133.3,50.6c-0.3-0.6-0.9-1-1.6-1c-0.3,0-0.6,0.1-0.8,0.2l-10.4,5.1c-0.6,0.3-1,0.9-1,1.6v14.1
					c0,1,0.8,1.8,1.8,1.8s1.8-0.8,1.8-1.8l0,0v-13l9.4-4.6C133.3,52.6,133.7,51.5,133.3,50.6L133.3,50.6z"/>
			</defs>
			<clipPath id="SVGID_10_">
				<use xlink:href="#SVGID_9_"  style="overflow:visible;"/>
			</clipPath>
			<g class="st8">
				<g>
					<g>
						<g>
							<g>
								<defs>
									<rect id="SVGID_11_" x="119.1" y="49.4" width="15.5" height="23.3"/>
								</defs>
								<clipPath id="SVGID_12_">
									<use xlink:href="#SVGID_11_"  style="overflow:visible;"/>
								</clipPath>
								<g class="st9">
									<g>
										<g>
											<g>
												<defs>
													<rect id="SVGID_13_" x="118.1" y="48.4" width="17.5" height="25.2"/>
												</defs>
												<clipPath id="SVGID_14_">
													<use xlink:href="#SVGID_13_"  style="overflow:visible;"/>
												</clipPath>
												<g class="st10">
													<g>
														<g>
															<g>
																<g>
																	<defs>
																		<rect id="SVGID_15_" x="119.1" y="49.4" width="15.5" height="23.3"/>
																	</defs>
																	<clipPath id="SVGID_16_">
																		<use xlink:href="#SVGID_15_"  style="overflow:visible;"/>
																	</clipPath>
																	<g class="st11">
																		<rect x="109.3" y="39.4" class="st7" width="34.3" height="43.1"/>
																	</g>
																</g>
															</g>
														</g>
													</g>
												</g>
											</g>
										</g>
									</g>
								</g>
							</g>
						</g>
					</g>
				</g>
			</g>
		</g>
	</g>
</g>
<g>
	<g>
		<g>
			<defs>
				<path id="SVGID_17_" d="M81.5,54.6h22.2c1,0,1.8-0.8,1.8-1.8s-0.8-1.8-1.8-1.8l0,0H81.5c-1,0-1.8,0.8-1.8,1.8
					S80.5,54.6,81.5,54.6z"/>
			</defs>
			<clipPath id="SVGID_18_">
				<use xlink:href="#SVGID_17_"  style="overflow:visible;"/>
			</clipPath>
			<g class="st12">
				<g>
					<g>
						<g>
							<g>
								<defs>
									<rect id="SVGID_19_" x="79.3" y="50.3" width="26.2" height="4.8"/>
								</defs>
								<clipPath id="SVGID_20_">
									<use xlink:href="#SVGID_19_"  style="overflow:visible;"/>
								</clipPath>
								<g class="st13">
									<g>
										<g>
											<g>
												<defs>
													<rect id="SVGID_21_" x="78.4" y="49.4" width="28.1" height="6.8"/>
												</defs>
												<clipPath id="SVGID_22_">
													<use xlink:href="#SVGID_21_"  style="overflow:visible;"/>
												</clipPath>
												<g class="st14">
													<g>
														<g>
															<g>
																<g>
																	<defs>
																		<rect id="SVGID_23_" x="79.3" y="50.3" width="26.2" height="4.8"/>
																	</defs>
																	<clipPath id="SVGID_24_">
																		<use xlink:href="#SVGID_23_"  style="overflow:visible;"/>
																	</clipPath>
																	<g class="st15">
																		<rect x="69.6" y="40.9" class="st7" width="46" height="23.8"/>
																	</g>
																</g>
															</g>
														</g>
													</g>
												</g>
											</g>
										</g>
									</g>
								</g>
							</g>
						</g>
					</g>
				</g>
			</g>
		</g>
	</g>
</g>
<g>
	<g>
		<g>
			<defs>
				<path id="SVGID_25_" d="M96.3,63.4H81.5c-1-0.1-1.9,0.7-1.9,1.7s0.7,1.9,1.7,1.9c0.1,0,0.2,0,0.3,0h14.8c1-0.1,1.7-0.9,1.7-1.9
					C97.9,64.1,97.2,63.4,96.3,63.4z"/>
			</defs>
			<clipPath id="SVGID_26_">
				<use xlink:href="#SVGID_25_"  style="overflow:visible;"/>
			</clipPath>
			<g class="st16">
				<g>
					<g>
						<g>
							<g>
								<defs>
									<rect id="SVGID_27_" x="79.3" y="63" width="19.4" height="4.9"/>
								</defs>
								<clipPath id="SVGID_28_">
									<use xlink:href="#SVGID_27_"  style="overflow:visible;"/>
								</clipPath>
								<g class="st17">
									<g>
										<g>
											<g>
												<defs>
													<rect id="SVGID_29_" x="78.4" y="62" width="21.3" height="6.8"/>
												</defs>
												<clipPath id="SVGID_30_">
													<use xlink:href="#SVGID_29_"  style="overflow:visible;"/>
												</clipPath>
												<g class="st18">
													<g>
														<g>
															<g>
																<g>
																	<defs>
																		<rect id="SVGID_31_" x="79.3" y="63" width="19.4" height="4.9"/>
																	</defs>
																	<clipPath id="SVGID_32_">
																		<use xlink:href="#SVGID_31_"  style="overflow:visible;"/>
																	</clipPath>
																	<g class="st19">
																		<rect x="69.6" y="53.3" class="st7" width="38.6" height="23.8"/>
																	</g>
																</g>
															</g>
														</g>
													</g>
												</g>
											</g>
										</g>
									</g>
								</g>
							</g>
						</g>
					</g>
				</g>
			</g>
		</g>
	</g>
</g>
<g>
	<g>
		<g>
			<defs>
				<path id="SVGID_33_" d="M81.5,60.3h27.1c1,0,1.8-0.8,1.8-1.8s-0.8-1.8-1.8-1.8l0,0H81.5c-1,0-1.8,0.8-1.8,1.8
					S80.5,60.3,81.5,60.3L81.5,60.3z"/>
			</defs>
			<clipPath id="SVGID_34_">
				<use xlink:href="#SVGID_33_"  style="overflow:visible;"/>
			</clipPath>
			<g class="st20">
				<g>
					<g>
						<g>
							<g>
								<defs>
									<rect id="SVGID_35_" x="79.3" y="56.2" width="32" height="4.8"/>
								</defs>
								<clipPath id="SVGID_36_">
									<use xlink:href="#SVGID_35_"  style="overflow:visible;"/>
								</clipPath>
								<g class="st21">
									<g>
										<g>
											<g>
												<defs>
													<rect id="SVGID_37_" x="78.4" y="55.2" width="33.9" height="6.8"/>
												</defs>
												<clipPath id="SVGID_38_">
													<use xlink:href="#SVGID_37_"  style="overflow:visible;"/>
												</clipPath>
												<g class="st22">
													<g>
														<g>
															<g>
																<g>
																	<defs>
																		<rect id="SVGID_39_" x="79.3" y="56.2" width="32" height="4.8"/>
																	</defs>
																	<clipPath id="SVGID_40_">
																		<use xlink:href="#SVGID_39_"  style="overflow:visible;"/>
																	</clipPath>
																	<g class="st23">
																		<rect x="69.6" y="46.6" class="st7" width="50.9" height="23.8"/>
																	</g>
																</g>
															</g>
														</g>
													</g>
												</g>
											</g>
										</g>
									</g>
								</g>
							</g>
						</g>
					</g>
				</g>
			</g>
		</g>
	</g>
</g>
<g>
	<g>
		<g>
			<defs>
				<path id="SVGID_41_" d="M82.2,47.1c1.3,0,2.4-1.1,2.4-2.4s-1.1-2.4-2.4-2.4s-2.4,1.1-2.4,2.4S80.9,47.1,82.2,47.1L82.2,47.1z"/>
			</defs>
			<clipPath id="SVGID_42_">
				<use xlink:href="#SVGID_41_"  style="overflow:visible;"/>
			</clipPath>
			<g class="st24">
				<g>
					<g>
						<g>
							<g>
								<defs>
									<rect id="SVGID_43_" x="79.3" y="41.6" width="5.8" height="5.8"/>
								</defs>
								<clipPath id="SVGID_44_">
									<use xlink:href="#SVGID_43_"  style="overflow:visible;"/>
								</clipPath>
								<g class="st25">
									<g>
										<g>
											<g>
												<defs>
													<rect id="SVGID_45_" x="78.4" y="40.6" width="7.8" height="7.8"/>
												</defs>
												<clipPath id="SVGID_46_">
													<use xlink:href="#SVGID_45_"  style="overflow:visible;"/>
												</clipPath>
												<g class="st26">
													<g>
														<g>
															<g>
																<g>
																	<defs>
																		<rect id="SVGID_47_" x="79.3" y="41.6" width="5.8" height="5.8"/>
																	</defs>
																	<clipPath id="SVGID_48_">
																		<use xlink:href="#SVGID_47_"  style="overflow:visible;"/>
																	</clipPath>
																	<g class="st27">
																		<rect x="69.7" y="32.3" class="st7" width="24.9" height="24.9"/>
																	</g>
																</g>
															</g>
														</g>
													</g>
												</g>
											</g>
										</g>
									</g>
								</g>
							</g>
						</g>
					</g>
				</g>
			</g>
		</g>
	</g>
</g>
<g>
	<g>
		<g>
			<defs>
				<path id="SVGID_49_" d="M88.5,47.1c1.3,0,2.4-1.1,2.4-2.4s-1.1-2.4-2.4-2.4s-2.4,1.1-2.4,2.4S87.2,47.1,88.5,47.1L88.5,47.1z"/>
			</defs>
			<clipPath id="SVGID_50_">
				<use xlink:href="#SVGID_49_"  style="overflow:visible;"/>
			</clipPath>
			<g class="st28">
				<g>
					<g>
						<g>
							<g>
								<defs>
									<rect id="SVGID_51_" x="86.1" y="41.6" width="4.8" height="5.8"/>
								</defs>
								<clipPath id="SVGID_52_">
									<use xlink:href="#SVGID_51_"  style="overflow:visible;"/>
								</clipPath>
								<g class="st29">
									<g>
										<g>
											<g>
												<defs>
													<rect id="SVGID_53_" x="85.2" y="40.6" width="6.8" height="7.8"/>
												</defs>
												<clipPath id="SVGID_54_">
													<use xlink:href="#SVGID_53_"  style="overflow:visible;"/>
												</clipPath>
												<g class="st30">
													<g>
														<g>
															<g>
																<g>
																	<defs>
																		<rect id="SVGID_55_" x="86.1" y="41.6" width="4.8" height="5.8"/>
																	</defs>
																	<clipPath id="SVGID_56_">
																		<use xlink:href="#SVGID_55_"  style="overflow:visible;"/>
																	</clipPath>
																	<g class="st31">
																		<rect x="76" y="32.3" class="st7" width="24.9" height="24.9"/>
																	</g>
																</g>
															</g>
														</g>
													</g>
												</g>
											</g>
										</g>
									</g>
								</g>
							</g>
						</g>
					</g>
				</g>
			</g>
		</g>
	</g>
</g>
<g>
	<g>
		<g>
			<defs>
				<path id="SVGID_57_" d="M94.8,47c1.3,0,2.4-1.1,2.4-2.4c0-1.3-1.1-2.4-2.4-2.4s-2.4,1.1-2.4,2.4l0,0C92.4,45.9,93.5,47,94.8,47
					L94.8,47z"/>
			</defs>
			<clipPath id="SVGID_58_">
				<use xlink:href="#SVGID_57_"  style="overflow:visible;"/>
			</clipPath>
			<g class="st32">
				<g>
					<g>
						<g>
							<g>
								<defs>
									<rect id="SVGID_59_" x="91.9" y="41.6" width="5.8" height="5.8"/>
								</defs>
								<clipPath id="SVGID_60_">
									<use xlink:href="#SVGID_59_"  style="overflow:visible;"/>
								</clipPath>
								<g class="st33">
									<g>
										<g>
											<g>
												<defs>
													<rect id="SVGID_61_" x="91" y="40.6" width="7.8" height="7.8"/>
												</defs>
												<clipPath id="SVGID_62_">
													<use xlink:href="#SVGID_61_"  style="overflow:visible;"/>
												</clipPath>
												<g class="st34">
													<g>
														<g>
															<g>
																<g>
																	<defs>
																		<rect id="SVGID_63_" x="91.9" y="41.6" width="5.8" height="5.8"/>
																	</defs>
																	<clipPath id="SVGID_64_">
																		<use xlink:href="#SVGID_63_"  style="overflow:visible;"/>
																	</clipPath>
																	<g class="st35">
																		<rect x="82.3" y="32.2" class="st7" width="24.9" height="24.9"/>
																	</g>
																</g>
															</g>
														</g>
													</g>
												</g>
											</g>
										</g>
									</g>
								</g>
							</g>
						</g>
					</g>
				</g>
			</g>
		</g>
	</g>
</g>
<path class="st2" d="M162.5,80.9H67.7c-0.6,0-1.1-0.5-1.1-1c0-0.6,0.5-1.1,1-1.1l0,0h94.8c0.6,0,1,0.4,1,0.9c0,0,0,0,0,0.1
	C163.6,80.4,163.2,80.8,162.5,80.9C162.6,80.9,162.6,80.9,162.5,80.9z"/>
</svg>
