<svg id="Layer_1" data-name="Layer 1" xmlns="http://www.w3.org/2000/svg" xmlns:xlink="http://www.w3.org/1999/xlink" viewBox="0 0 137 120"><defs><style>.cls-1{fill:none;clip-rule:evenodd;}.cls-2,.cls-4{fill:#fff;}.cls-2{opacity:0.5;}.cls-3{fill:#5ac7d9;}.cls-5{fill:#4e4b6e;}.cls-6{clip-path:url(#clip-path);}.cls-7{clip-path:url(#clip-path-2);}</style><clipPath id="clip-path"><path class="cls-1" d="M-250.3,58.16a1.45,1.45,0,0,0,1.46,1.45h22.89a1.45,1.45,0,0,0,1.45-1.45,1.45,1.45,0,0,0-1.45-1.45h-22.89a1.45,1.45,0,0,0-1.46,1.45"/></clipPath><clipPath id="clip-path-2"><path class="cls-1" d="M-220.68,59.61a1.45,1.45,0,0,0,1.45-1.45,1.45,1.45,0,0,0-1.45-1.45h-.06a1.42,1.42,0,0,0-1.42,1.45,1.48,1.48,0,0,0,1.48,1.45"/></clipPath></defs><g id="Group_723" data-name="Group 723"><path id="Path_1013" data-name="Path 1013" class="cls-2" d="M12.47,86.75c20.42,29.76,100.4,29.3,115.57-8.46C139.53,49.62,89.49,2.65,64.82,13.7S52.12,43.14,33.19,52.11C10.2,63,6.19,77.59,12.47,86.75Z"/><path id="Path_1014" data-name="Path 1014" class="cls-2" d="M18.85,51.64c-2.54-3.79-13.61.27-11.25,5.68C11,65,21,54.88,18.85,51.64Z"/></g><path class="cls-3" d="M61.13,82.6a26.24,26.24,0,0,1-3.36,10.47h21.5A26.27,26.27,0,0,1,75.9,82.6Z"/><path class="cls-4" d="M108.8,69.24V29.89a3,3,0,0,0-3-3H31.18v0a3,3,0,0,0-3,3V69.24ZM38.09,39.93h0a2,2,0,1,1,2,2h0A2,2,0,0,1,38.09,39.93Zm-.09,7a1.55,1.55,0,0,1,1.52-1.58H58.6a1.53,1.53,0,0,1,1.51,1.51,1.55,1.55,0,0,1-1.51,1.59H39.52A1.56,1.56,0,0,1,38,46.89Zm5.5-7a2,2,0,1,1,2,2h0A2.06,2.06,0,0,1,43.5,39.93Zm5.44-.08a2,2,0,1,1,2,2h0A2,2,0,0,1,48.94,39.85Zm4.82,17.64a1.55,1.55,0,0,1-1.51,1.59H39.43A1.56,1.56,0,1,1,39.5,56H52.25A1.55,1.55,0,0,1,53.76,57.49Zm9.08-4.12H39.52a.08.08,0,0,1-.07,0,1.55,1.55,0,1,1,.07-3.1H62.91a1.55,1.55,0,1,1-.07,3.1ZM75.33,62.2a1.57,1.57,0,1,1-3.14,0V50a1.57,1.57,0,0,1,.89-1.41l9-4.37a1.62,1.62,0,0,1,.69-.16,1.55,1.55,0,0,1,1.4.88A1.57,1.57,0,0,1,83.4,47L75.33,51ZM98.15,47.44,93,50l0,6.09a1.56,1.56,0,0,1-.87,1.42l-9.36,4.61a1.57,1.57,0,0,1-1.37,0l-5-2.44V56.16l5.65,2.78,7.76-3.83,0-3.58L82.84,55a1.5,1.5,0,0,1-1.37,0l-5-2.44v-.85L79.2,50.4l3,1.46,11.75-5.78L82.16,40.3,70.41,46.08,73,47.34l-.42.2A2.81,2.81,0,0,0,71,49.89l-4.88-2.4a1.52,1.52,0,0,1-.73-.73,1.57,1.57,0,0,1,.73-2.09l15.31-7.52a1.55,1.55,0,0,1,1.39,0l15.31,7.52A1.48,1.48,0,0,1,99,46,1.57,1.57,0,0,1,98.15,47.44Z"/><path class="cls-3" d="M105.82,79a3,3,0,0,0,3-3v-5H28.2v5a3,3,0,0,0,3,3Z"/><path class="cls-5" d="M112.41,76V29.89a6.6,6.6,0,0,0-6.59-6.59H31.18a6.6,6.6,0,0,0-6.59,6.59V76a6.59,6.59,0,0,0,6.59,6.59h26.3c-.46,3.43-1.65,8.07-4.71,11a1.84,1.84,0,0,0-.57,1.31A1.81,1.81,0,0,0,54,96.7H83a1.81,1.81,0,0,0,1.27-3.12C81.2,90.67,80,86,79.55,82.6h26.27A6.59,6.59,0,0,0,112.41,76ZM57.77,93.07A26.24,26.24,0,0,0,61.13,82.6H75.9a26.27,26.27,0,0,0,3.37,10.47ZM31.17,79a3,3,0,0,1-3-3V71.54h80.6V76a3,3,0,0,1-3,3Zm0-52.08v0h74.64a3,3,0,0,1,3,3v38.8H28.2V29.91A3,3,0,0,1,31.18,26.93Z"/><path class="cls-5" d="M98.17,44.67,82.86,37.15a1.55,1.55,0,0,0-1.39,0L66.16,44.67a1.57,1.57,0,0,0-.73,2.09,1.52,1.52,0,0,0,.73.73L71,49.89a2.81,2.81,0,0,1,1.51-2.35l.42-.2-2.56-1.26L82.16,40.3l11.75,5.78L82.16,51.86l-3-1.46-2.69,1.31v.85l5,2.44a1.5,1.5,0,0,0,1.37,0l7.06-3.47,0,3.58-7.76,3.83-5.65-2.78v3.48l5,2.44a1.57,1.57,0,0,0,1.37,0l9.36-4.61a1.56,1.56,0,0,0,.87-1.42L93,50l5.13-2.52A1.57,1.57,0,0,0,99,46,1.48,1.48,0,0,0,98.17,44.67Z"/><path class="cls-5" d="M84.12,44.94a1.55,1.55,0,0,0-1.4-.88,1.62,1.62,0,0,0-.69.16l-9,4.37A1.57,1.57,0,0,0,72.19,50V62.2a1.57,1.57,0,1,0,3.14,0V51L83.4,47A1.57,1.57,0,0,0,84.12,44.94Z"/><path class="cls-5" d="M39.52,48.41H58.6a1.55,1.55,0,0,0,1.51-1.59,1.53,1.53,0,0,0-1.51-1.51H39.52a1.55,1.55,0,0,0,0,3.1Z"/><path class="cls-5" d="M52.25,56H39.5a1.56,1.56,0,1,0-.07,3.11H52.25a1.56,1.56,0,0,0,0-3.11Z"/><path class="cls-5" d="M62.91,50.27H39.52a1.55,1.55,0,1,0-.07,3.1.08.08,0,0,0,.07,0H62.84a1.55,1.55,0,1,0,.07-3.1Z"/><path class="cls-5" d="M40.13,42a2,2,0,1,0-2-2h0a2,2,0,0,0,2,2Z"/><path class="cls-5" d="M45.54,42a2,2,0,1,0-2-2,2,2,0,0,0,2,2Z"/><path class="cls-5" d="M51,41.89h0a2,2,0,1,0-2-2A2,2,0,0,0,51,41.89Z"/></svg>