<svg id="Layer_1" data-name="Layer 1" xmlns="http://www.w3.org/2000/svg" xmlns:xlink="http://www.w3.org/1999/xlink" width="160" height="130" viewBox="0 0 160 130"><defs><style>.cls-1{fill:none;}.cls-2{fill:#5ac6d9;}.cls-3,.cls-5{fill:#fff;}.cls-3{fill-rule:evenodd;}.cls-4{fill:#4e4b6e;}.cls-6{clip-path:url(#clip-path);}.cls-7{clip-path:url(#clip-path-2);}.cls-8{fill:#4f476a;}.cls-9{clip-path:url(#clip-path-3);}.cls-10{clip-path:url(#clip-path-4);}.cls-11{clip-path:url(#clip-path-5);}.cls-12{clip-path:url(#clip-path-6);}.cls-13{clip-path:url(#clip-path-7);}.cls-14{clip-path:url(#clip-path-8);}.cls-15{clip-path:url(#clip-path-9);}.cls-16{clip-path:url(#clip-path-10);}</style><clipPath id="clip-path"><path class="cls-1" d="M78,103.37a1.85,1.85,0,0,0,1.85,1.85h29.22a1.85,1.85,0,1,0,0-3.69H79.87A1.84,1.84,0,0,0,78,103.37"/></clipPath><clipPath id="clip-path-2"><rect class="cls-1" x="-303.51" y="-219.16" width="1434.3" height="1434.3"/></clipPath><clipPath id="clip-path-3"><path class="cls-1" d="M115.82,105.22a1.85,1.85,0,1,0,0-3.69h-.08a1.81,1.81,0,0,0-1.81,1.82v0a1.88,1.88,0,0,0,1.89,1.85"/></clipPath><clipPath id="clip-path-4"><rect class="cls-1" x="-304.15" y="-219.16" width="1434.3" height="1434.3"/></clipPath><clipPath id="clip-path-5"><path class="cls-1" d="M158,221.24s1.4,2,9.53,2,9.76-2,9.76-2a2.83,2.83,0,0,0-2.11-3.23c-2.65-1-4.84-1.29-4.79-3.3a5.14,5.14,0,0,1,.4-2.19.36.36,0,0,0,.22.07c.18,0,.43-.1.69-.54.48-.79.87-1.85,0-2.11.18-1,.4-3.44-1.14-4.71a4.38,4.38,0,0,0-2.61-1l0,0h-.55l0,0a4.38,4.38,0,0,0-2.61,1c-1.54,1.27-1.32,3.7-1.14,4.71-.86.26-.48,1.32,0,2.11.27.44.52.54.69.54a.34.34,0,0,0,.22-.07,5,5,0,0,1,.4,2.19c.05,2-2.14,2.33-4.78,3.3a2.83,2.83,0,0,0-2.12,3.23"/></clipPath><clipPath id="clip-path-6"><path class="cls-1" d="M157.69,230.9a1.46,1.46,0,0,0,1.46,1.46h29.14a1.46,1.46,0,1,0,0-2.92H159.15a1.46,1.46,0,0,0-1.46,1.46"/></clipPath><clipPath id="clip-path-7"><path class="cls-1" d="M194.11,232.36a1.46,1.46,0,1,0,0-2.92h-.06a1.43,1.43,0,0,0-1.43,1.44v0a1.49,1.49,0,0,0,1.49,1.46"/></clipPath><clipPath id="clip-path-8"><path class="cls-1" d="M159.15,248h29.14a1.46,1.46,0,1,0,0-2.92H159.15a1.46,1.46,0,0,0,0,2.92"/></clipPath><clipPath id="clip-path-9"><path class="cls-1" d="M205.28,237.53H159.15a1.46,1.46,0,0,0,0,2.92h46.13a1.46,1.46,0,0,0,0-2.92"/></clipPath><clipPath id="clip-path-10"><path class="cls-1" d="M204,263.52H194L192,260a1.3,1.3,0,0,0-1.26-.64,1.29,1.29,0,0,0-1.11.86l-2.89,8.19-3.47-12.23a1.28,1.28,0,0,0-1.29-1,1.3,1.3,0,0,0-1.25,1l-2.86,12.12-2.72-6.92a1.33,1.33,0,0,0-1.23-.83h0a1.33,1.33,0,0,0-1.22.88l-3.49,9.95h-10a1.31,1.31,0,0,0-1.32,1.3h0a1.32,1.32,0,0,0,1.32,1.31h11a1.33,1.33,0,0,0,1.24-.87l2.63-7.5,3,7.54a1.31,1.31,0,0,0,1.22.83h.09a1.31,1.31,0,0,0,1.19-1l2.66-11.28,3.22,11.33a1.31,1.31,0,0,0,2.5.08l3.32-9.39,1,1.71a1.33,1.33,0,0,0,1.14.65H204a1.31,1.31,0,0,0,1.31-1.3h0a1.31,1.31,0,0,0-1.31-1.3h0"/></clipPath></defs><title>patientsignup</title><g id="Group_4400" data-name="Group 4400"><path id="Path_4325" data-name="Path 4325" class="cls-2" d="M37.09,41.2C34.38,35,17.24,38.1,19.31,46.54,22.25,58.57,39.38,46.44,37.09,41.2Z"/><path id="Path_4326" data-name="Path 4326" class="cls-2" d="M11.22,94.82c24.18,37,120.06,42.51,138.56-1.34,14.05-33.29-45.48-93-75.17-81.75S59.17,45.86,36.4,55.12C8.74,66.37,3.78,83.43,11.22,94.82Z"/><g id="Group_4399" data-name="Group 4399"><g id="Group_4383" data-name="Group 4383"><g id="Group_4382" data-name="Group 4382"><path id="Path_4327" data-name="Path 4327" class="cls-3" d="M42.77,73.2s5.41,7.57,36.78,7.57,37.68-7.57,37.68-7.57,2-8.73-8.17-12.47S90.39,55.76,90.59,48a19.65,19.65,0,0,1,1.54-8.43,1.64,1.64,0,0,0,.87.25c.66,0,1.63-.38,2.65-2.08,1.86-3.06,3.34-7.13,0-8.17.71-3.9,1.54-13.26-4.39-18.18A17.14,17.14,0,0,0,81.17,7.6a.24.24,0,0,0-.11-.06H80c-.39,0-.75,0-1,0a.23.23,0,0,0-.12.06,17.14,17.14,0,0,0-10.09,3.78c-5.93,4.91-5.1,14.28-4.39,18.18-3.33,1-1.86,5.11,0,8.17,1,1.7,2,2.08,2.65,2.08a1.64,1.64,0,0,0,.87-.25A19.5,19.5,0,0,1,69.41,48c.2,7.77-8.27,9-18.47,12.74S42.77,73.2,42.77,73.2"/><path id="Path_4328" data-name="Path 4328" class="cls-4" d="M79.55,82.78c-31.5,0-37.81-7.55-38.42-8.41a1.94,1.94,0,0,1-.32-.72C40,70,40.87,62.29,50.25,58.84c1.75-.64,3.44-1.2,5-1.74C63.55,54.33,67.52,52.79,67.4,48a21.59,21.59,0,0,0-.83-6.24c-1.12-.13-2.6-.81-3.94-3-1.44-2.38-3-5.75-2-8.38a4.4,4.4,0,0,1,1.46-1.95c-.64-4.75-.82-13.53,5.32-18.62a19,19,0,0,1,11-4.22,5.31,5.31,0,0,1,1.64-.07,5,5,0,0,1,1.55.07,18.91,18.91,0,0,1,11,4.22c6.14,5.09,6,13.87,5.32,18.62a4.4,4.4,0,0,1,1.46,1.95c1,2.63-.51,6-2,8.38-1.34,2.21-2.82,2.88-3.94,3A21.25,21.25,0,0,0,92.61,48c-.12,4.81,3.84,6.35,12.11,9.11,1.61.54,3.3,1.11,5,1.74C119.14,62.29,120,70,119.2,73.65a2,2,0,0,1-.41.84C118.07,75.34,111,82.78,79.55,82.78ZM44.65,72.24c1.46,1.27,9.05,6.51,34.9,6.51s34.1-5.22,35.81-6.57c.2-1.79.11-6.94-7-9.56-1.7-.62-3.35-1.17-4.92-1.7-8.09-2.7-15.06-5-14.87-13a21.55,21.55,0,0,1,1.77-9.31,2,2,0,0,1,1.34-1,2,2,0,0,1,1.36.17,3.54,3.54,0,0,0,.89-1.07c1.47-2.42,1.87-4.21,1.63-4.85,0-.07-.08-.22-.5-.35a2,2,0,0,1-1.39-2.28c.48-2.7,1.66-11.83-3.7-16.28A14.91,14.91,0,0,0,81,9.62a2,2,0,0,1-.34,0H79.31a2.11,2.11,0,0,1-.35,0A14.91,14.91,0,0,0,70,12.93c-5.36,4.44-4.19,13.58-3.7,16.28a2,2,0,0,1-1.39,2.28c-.42.13-.47.28-.5.34-.24.65.16,2.44,1.63,4.86a3.2,3.2,0,0,0,.9,1.07,2,2,0,0,1,1.35-.16,2.05,2.05,0,0,1,1.34,1A21.67,21.67,0,0,1,71.43,48c.19,7.89-6.78,10.22-14.87,12.92-1.57.53-3.22,1.08-4.93,1.71C44.46,65.26,44.44,70.5,44.65,72.24ZM93.3,37.92l0,0Zm-26.6,0,0,0,0,0Z"/></g></g><g id="Group_4384" data-name="Group 4384"><rect id="Rectangle_255" data-name="Rectangle 255" class="cls-5" x="31.49" y="90.11" width="97.02" height="25.18" rx="2.12"/><path id="Path_4329" data-name="Path 4329" class="cls-4" d="M124.52,117.31h-89a6,6,0,0,1-6-6V94.1a6,6,0,0,1,6-6h89a6,6,0,0,1,6,6v17.2A6,6,0,0,1,124.52,117.31Zm-89-25.18a2,2,0,0,0-2,2v17.2a2,2,0,0,0,2,2h89a2,2,0,0,0,2-2V94.11a2,2,0,0,0-2-2Z"/></g><g id="Group_4385" data-name="Group 4385"><circle id="Ellipse_3373" data-name="Ellipse 3373" class="cls-5" cx="53.35" cy="102.7" r="16.07"/><path id="Path_4330" data-name="Path 4330" class="cls-4" d="M53.35,120.79A18.09,18.09,0,1,1,71.43,102.7,18.1,18.1,0,0,1,53.35,120.79Zm0-32.14a14.06,14.06,0,1,0,14.05,14,14.08,14.08,0,0,0-14.05-14Z"/></g><g id="AUyLiE"><g id="Group_4387" data-name="Group 4387"><g id="Group_4386" data-name="Group 4386"><path id="Path_4331" data-name="Path 4331" class="cls-4" d="M49.7,107.34c.7-1.37,1.34-2.67,2-3.94a55.27,55.27,0,0,1,5.69-8.79,2.58,2.58,0,0,1,2.79-.8c.6.22.75.61.38,1.14-.25.37-.55.72-.83,1.08a63.76,63.76,0,0,0-7.17,12.5c-.31.68-.61,1.36-.91,2a2.18,2.18,0,0,1-2.93.93,2.49,2.49,0,0,1-.67-.54l-4-5.43c-.5-.68-.45-1.17.28-1.57a5.2,5.2,0,0,1,1.62-.52,1.33,1.33,0,0,1,1.37.69C48.09,105.19,48.88,106.22,49.7,107.34Z"/></g></g></g><g id="Group_4398" data-name="Group 4398"><g id="Group_4392" data-name="Group 4392"><g class="cls-6"><g id="Group_4391" data-name="Group 4391"><g id="Group_4390" data-name="Group 4390"><g class="cls-7"><g id="Group_4389" data-name="Group 4389"><g id="Group_4388" data-name="Group 4388"><rect id="Rectangle_256" data-name="Rectangle 256" class="cls-8" x="71.01" y="94.52" width="54.62" height="17.7"/></g></g></g></g></g></g></g><g id="Group_4397" data-name="Group 4397"><g class="cls-9"><g id="Group_4396" data-name="Group 4396"><g id="Group_4395" data-name="Group 4395"><g class="cls-10"><g id="Group_4394" data-name="Group 4394"><g id="Group_4393" data-name="Group 4393"><rect id="Rectangle_258" data-name="Rectangle 258" class="cls-8" x="106.92" y="94.52" width="17.76" height="17.7"/></g></g></g></g></g></g></g></g></g></g></svg>