<svg id="Layer_1" data-name="Layer 1" xmlns="http://www.w3.org/2000/svg" width="160" height="130" viewBox="0 0 160 130"><defs><style>.cls-1{fill:#f06392;}.cls-2,.cls-4{fill:#fff;}.cls-3{fill:#4e4b6e;}.cls-4{stroke:#4e4b6e;stroke-miterlimit:10;stroke-width:3.65px;}</style></defs><title>Sales site icons</title><path id="Path_1013-3" data-name="Path 1013-3" class="cls-1" d="M147.11,34.27C122.4,1.13,33.11,2.63,18.63,45.19c-11,32.31,47.9,84.4,74.75,71.7s12.24-33.19,32.8-43.49C151.16,60.88,154.71,44.47,147.11,34.27Z"/><path id="Path_1014-2" data-name="Path 1014-2" class="cls-1" d="M11.07,71.47c-5.75,3-1.87,19.54,6,17.06C28.3,85,15.9,69,11.07,71.47Z"/><path class="cls-2" d="M102.4,59.61,94.69,59A1.81,1.81,0,0,1,93,57.17c0-.67,0-11,0-12.21A13,13,0,1,0,67,45v.9c0,8.33,0,10.43,0,10.73a1.83,1.83,0,0,1-1.71,1.88l-7.83.46a1.82,1.82,0,0,1-1.82-1.69c0-.34,0-.58,0-11.41V45a24.42,24.42,0,0,1,48.83,0c0,.12,0,12.16-.06,13a1.82,1.82,0,0,1-1.82,1.69Z"/><path class="cls-3" d="M80,22.37A22.62,22.62,0,0,1,102.6,45c0,.12,0,12.14-.06,12.83l-7.72-.57c0-.73,0-11.34,0-12.26a14.86,14.86,0,1,0-29.71,0v.89c0,8.32,0,10.46,0,10.8l-7.72.45c0-.26,0-.53,0-11.26V45A22.61,22.61,0,0,1,80,22.37m0-3.65A26.27,26.27,0,0,0,53.77,45v.87c0,10.88,0,11.13,0,11.54a3.64,3.64,0,0,0,3.63,3.38h.22l7.72-.45a3.65,3.65,0,0,0,3.44-3.75c0-.22,0-1.69,0-10.68V45a11.21,11.21,0,1,1,22.41,0c0,1.19,0,11.44,0,12.16a3.66,3.66,0,0,0,3.38,3.74l7.72.56h.27a3.64,3.64,0,0,0,3.63-3.38c.07-.89.07-13,.07-13.09A26.27,26.27,0,0,0,80,18.72Z"/><path class="cls-4" d="M111.71,51H48.29a2.87,2.87,0,0,0-2.87,2.87v50.85a2.87,2.87,0,0,0,2.87,2.87h63.42a2.87,2.87,0,0,0,2.87-2.87V53.91A2.87,2.87,0,0,0,111.71,51ZM84.58,84v8a4.58,4.58,0,0,1-9.16,0V84a10.16,10.16,0,1,1,9.16,0Z"/></svg>