<?xml version="1.0" encoding="utf-8"?>
<!-- Generator: Adobe Illustrator 23.0.1, SVG Export Plug-In . SVG Version: 6.00 Build 0)  -->
<svg version="1.1" id="Layer_1" xmlns="http://www.w3.org/2000/svg" xmlns:xlink="http://www.w3.org/1999/xlink" x="0px" y="0px"
	 viewBox="0 0 230 130" style="enable-background:new 0 0 230 130;" xml:space="preserve">
<style type="text/css">
	.st0{fill:#F06392;}
	.st1{fill:#FFFFFF;}
	.st2{fill:#4E4B6F;}
</style>
<path class="st0" d="M49.5,88.4c-5.7,3-1.9,19.5,6,17C66.8,101.9,54.4,85.8,49.5,88.4z"/>
<path class="st0" d="M179.1,98.6c-23.6,30.7-106.9,24.8-119.7-17c-9.7-31.6,46.2-78.8,71-65.3s10.8,32.6,29.8,43.5
	C183.4,73.2,186.4,89.2,179.1,98.6z"/>
<path class="st1" d="M91.5,69.9h12.7v26.4H91.5V69.9z"/>
<path class="st2" d="M93.1,95.4h11V70.7h-11V95.4z M105,97.1H92.2c-0.5,0-0.8-0.4-0.8-0.8V69.9c0-0.5,0.4-0.8,0.8-0.8H105
	c0.5,0,0.8,0.4,0.8,0.8v26.4C105.8,96.7,105.5,97.1,105,97.1z"/>
<g>
	<path class="st1" d="M110.5,60.8h12.7v35.5h-12.7V60.8z"/>
	<path class="st2" d="M112,95.4h11V61.6h-11V95.4z M123.9,97.1h-12.8c-0.5,0-0.8-0.4-0.8-0.8V60.8c0-0.5,0.4-0.8,0.8-0.8h12.8
		c0.5,0,0.8,0.4,0.8,0.8v35.5C124.8,96.7,124.4,97.1,123.9,97.1z"/>
</g>
<path class="st1" d="M129.8,50.8h12.7v45.5h-12.7V50.8z"/>
<g>
	<path class="st2" d="M130.6,95.4h11V51.6h-11V95.4z M142.5,97.1h-12.8c-0.5,0-0.8-0.4-0.9-0.8V50.8c0-0.5,0.4-0.9,0.8-0.9h12.8
		c0.5,0,0.9,0.4,0.9,0.8v45.5C143.4,96.7,143,97.1,142.5,97.1z"/>
	<path class="st2" d="M157.3,103.7H77.8c-1,0-1.8-0.8-1.8-1.8V26.7c0-1,0.8-1.8,1.8-1.8s1.8,0.8,1.8,1.8v73.4h77.7
		c1-0.1,1.9,0.7,1.9,1.7c0.1,1-0.7,1.9-1.7,1.9C157.4,103.7,157.4,103.7,157.3,103.7z"/>
	<path class="st2" d="M91.8,61.2c-0.4,0-0.8-0.2-1.2-0.5c-0.7-0.6-0.7-1.7-0.1-2.4l13-13.9c0.6-0.6,1.6-0.7,2.2-0.2l6.8,5L123.8,36
		c0.6-0.7,1.6-0.8,2.3-0.2l7.6,5.2l12.6-12c0.7-0.6,1.7-0.6,2.4,0c0.6,0.7,0.6,1.7-0.1,2.4l-13.6,13c-0.6,0.6-1.5,0.6-2.1,0.2
		l-7.5-5.2l-11.2,13.3c-0.6,0.7-1.6,0.8-2.3,0.2l-6.8-5l-12,12.8C92.7,61,92.3,61.2,91.8,61.2z"/>
	<path class="st2" d="M147.6,41.5c-0.9,0-1.7-0.8-1.7-1.7v-8.4h-8.1c-0.9,0.1-1.8-0.6-1.8-1.6c-0.1-0.9,0.6-1.8,1.6-1.8h0.3h9.8
		c0.9,0,1.7,0.8,1.7,1.7v10.1C149.3,40.7,148.6,41.5,147.6,41.5z"/>
</g>
</svg>
