<?xml version="1.0" encoding="utf-8"?>
<!-- Generator: Adobe Illustrator 23.0.2, SVG Export Plug-In . SVG Version: 6.00 Build 0)  -->
<svg version="1.1" id="Layer_1" xmlns="http://www.w3.org/2000/svg" xmlns:xlink="http://www.w3.org/1999/xlink" x="0px" y="0px"
	 viewBox="0 0 200 179.9" style="enable-background:new 0 0 200 179.9;" xml:space="preserve">
<style type="text/css">
	.st0{fill:#4E4B6D;}
	.st1{fill:#5AC7DA;}
	.st2{enable-background:new    ;}
</style>
<title>thirty</title>
<g id="Group_4346">
	<path id="Subtraction_1" class="st0" d="M151.3,164.8H48.7V21.4h27v5.5h48.6v-5.5h27L151.3,164.8L151.3,164.8z"/>
	<g id="Group_3618">
		<path id="Path_1866" class="st1" d="M147.6,18.2h-21.7V14c0-1.1-0.9-2.1-2-2.1H109c-1.4-3.8-5-6.3-9-6.3c-4,0.1-7.6,2.6-9,6.3
			H76.2c-1.1,0-2.1,0.9-2.1,2v4.3H52.4c-4.1,0.1-7.5,3.4-7.5,7.5v135c0,4.1,3.3,7.5,7.4,7.5c0,0,0,0,0,0h95.4c4.1,0,7.5-3.3,7.5-7.4
			V25.8C155,21.7,151.7,18.4,147.6,18.2z M149.1,160.8c0,0.8-0.6,1.5-1.3,1.5H52.4c-0.8,0-1.4-0.5-1.5-1.3V25.8
			c0-0.8,0.6-1.5,1.3-1.5h21.9V27c0,1.1,0.9,2.1,2,2.1c0,0,0,0,0,0h47.4c1.1,0,2.1-0.9,2.1-2v-2.8h21.7c0.8-0.1,1.4,0.5,1.5,1.3
			c0,0,0,0,0,0c0,0.1,0,0.1,0,0.2v135L149.1,160.8z M92.8,16.1c1.1,0.1,2-0.7,2.1-1.8c0.4-2.8,2.9-4.8,5.8-4.5
			c2.3,0.3,4.2,2.1,4.5,4.5c0.2,1,1.1,1.8,2.1,1.8h14.5v8.7H78.3v-8.7H92.8z"/>
		<circle id="Ellipse_2602" class="st1" cx="100" cy="14.9" r="2.7"/>
	</g>
	<g id="_30">
		<g class="st2">
			<path class="st1" d="M77.1,115.1c-2-0.3-3.8-0.9-5.2-1.6c-1.4-0.7-2.2-1.7-2.2-2.9c0-0.4,0.2-1,0.5-1.7c0.3-0.7,0.7-1.4,1.1-2
				c0.4-0.6,0.9-0.9,1.3-0.9c0.2,0,0.8,0.2,1.6,0.6c1.2,0.6,2.3,1,3.4,1.4c1.1,0.3,2.3,0.5,3.8,0.5c1.8,0,3.2-0.5,4.3-1.5
				c1.1-1,1.6-2.5,1.6-4.3c0-2-0.6-3.6-1.7-4.6c-1.1-1-2.9-1.5-5.4-1.5h-1.7c-0.6,0-1.1-0.2-1.4-0.7c-0.3-0.5-0.4-1.2-0.4-2.3v-1.1
				c0-1,0.1-1.8,0.4-2.3c0.3-0.5,0.7-0.7,1.4-0.7h1.1c1.9,0,3.4-0.5,4.5-1.4c1.1-0.9,1.7-2.1,1.7-3.6c0-1.5-0.4-2.7-1.2-3.6
				c-0.8-0.9-2-1.3-3.6-1.3c-1.3,0-2.4,0.1-3.3,0.4c-0.9,0.3-1.7,0.6-2.5,1c-0.6,0.3-1,0.5-1.3,0.5c-0.6,0-1.3-0.6-2-1.7
				c-0.7-1.1-1.1-2.1-1.1-2.9c0-1.4,1.1-2.5,3.4-3.2c2.3-0.8,5-1.1,8.3-1.1c3.8,0,6.8,1,9,2.9c2.2,1.9,3.3,4.5,3.3,7.7
				c0,2-0.5,3.8-1.5,5.4c-1,1.5-2.4,2.7-4.1,3.4v0.2c2.3,0.9,4.1,2.3,5.2,4.2c1.2,1.9,1.7,4.1,1.7,6.6c0,3.9-1.3,7-3.8,9.3
				c-2.5,2.3-5.8,3.4-9.8,3.4C81.1,115.6,79.2,115.4,77.1,115.1z"/>
			<path class="st1" d="M108.2,113c-2.1-1.7-3.8-4.2-4.9-7.4c-1.1-3.2-1.7-7.1-1.7-11.6c0-4.5,0.6-8.4,1.7-11.6
				c1.1-3.2,2.8-5.7,4.9-7.4c2.1-1.7,4.7-2.6,7.6-2.6c3,0,5.5,0.9,7.6,2.6c2.1,1.7,3.8,4.2,4.9,7.4c1.1,3.2,1.7,7.1,1.7,11.6
				c0,4.5-0.6,8.4-1.7,11.6c-1.1,3.2-2.8,5.7-4.9,7.4c-2.1,1.7-4.7,2.6-7.6,2.6C112.9,115.6,110.3,114.7,108.2,113z M119.7,104.9
				c0.9-2.4,1.4-6.1,1.4-10.8c0-4.8-0.5-8.4-1.4-10.8s-2.2-3.7-3.9-3.7s-3,1.2-3.9,3.7c-0.9,2.4-1.4,6.1-1.4,10.8
				c0,4.8,0.5,8.4,1.4,10.8c0.9,2.4,2.2,3.7,3.9,3.7S118.8,107.3,119.7,104.9z"/>
		</g>
	</g>
</g>
</svg>
