<?xml version="1.0" encoding="utf-8"?>
<!-- Generator: Adobe Illustrator 23.0.1, SVG Export Plug-In . SVG Version: 6.00 Build 0)  -->
<svg version="1.1" id="Layer_1" xmlns="http://www.w3.org/2000/svg" xmlns:xlink="http://www.w3.org/1999/xlink" x="0px" y="0px"
	 viewBox="0 0 230 130" style="enable-background:new 0 0 230 130;" xml:space="preserve">
<style type="text/css">
	.st0{fill:#FFD44F;}
	.st1{fill:#FFFFFF;}
	.st2{fill:#4E4B6F;}
	.st3{clip-path:url(#SVGID_2_);}
	.st4{clip-path:url(#SVGID_4_);}
	.st5{clip-path:url(#SVGID_6_);}
	.st6{clip-path:url(#SVGID_8_);}
	.st7{fill:#4F476A;}
	.st8{clip-path:url(#SVGID_10_);}
	.st9{clip-path:url(#SVGID_12_);}
	.st10{clip-path:url(#SVGID_14_);}
	.st11{clip-path:url(#SVGID_16_);}
	.st12{clip-path:url(#SVGID_18_);}
	.st13{clip-path:url(#SVGID_20_);}
	.st14{clip-path:url(#SVGID_22_);}
	.st15{clip-path:url(#SVGID_24_);}
</style>
<title>Sales site icons</title>
<path class="st0" d="M157.6,91.6c2.4,5.9,18.5,3.5,16.8-4.5C172,75.8,155.6,86.6,157.6,91.6z"/>
<path class="st0" d="M181.1,41.3c-24.4-30.5-112.6-29.1-126.9,10c-10.9,29.7,47.3,77.6,73.8,66s12.1-30.5,32.4-40
	C185.1,65.7,188.6,50.7,181.1,41.3z"/>
<path class="st1" d="M132.7,102.7H97.1c-2.9,0-5.2-2.4-5.2-5.2v-77c0-2.9,2.4-5.2,5.2-5.2l0,0h35.6c2.9,0,5.2,2.4,5.2,5.2l0,0v77
	C138,100.3,135.6,102.7,132.7,102.7L132.7,102.7z"/>
<path class="st2" d="M97.1,17c-1.9,0-3.4,1.5-3.4,3.4l0,0v77c0,1.9,1.5,3.4,3.4,3.4h35.6c1.9,0,3.4-1.5,3.4-3.4l0,0v-77
	c0-1.9-1.5-3.4-3.4-3.4l0,0C132.7,17,97.1,17,97.1,17z M132.7,104.5H97.1c-3.9,0-7.1-3.2-7.1-7.1v-77c0-3.9,3.2-7.1,7.1-7.1h35.6
	c3.9,0,7.1,3.2,7.1,7.1v77C139.8,101.3,136.7,104.5,132.7,104.5L132.7,104.5L132.7,104.5z"/>
<path class="st2" d="M137.5,28.9H92.3c-0.7,0-1.2-0.6-1.2-1.2c0-0.7,0.6-1.2,1.2-1.2h45.2c0.7,0,1.2,0.6,1.2,1.2
	S138.2,28.9,137.5,28.9L137.5,28.9z"/>
<path class="st2" d="M120.4,23.2h-11c-0.9,0-1.6-0.7-1.6-1.6s0.7-1.6,1.6-1.6h11c0.9,0,1.6,0.7,1.6,1.6S121.3,23.2,120.4,23.2
	L120.4,23.2z"/>
<path class="st2" d="M137.5,90.5H92.3c-0.7,0-1.2-0.5-1.2-1.2s0.5-1.2,1.2-1.2l0,0h45.2c0.7,0,1.2,0.5,1.2,1.2
	C138.7,89.9,138.2,90.5,137.5,90.5L137.5,90.5L137.5,90.5z"/>
<path class="st2" d="M114.9,93.2c1.4,0,2.6,1.1,2.7,2.6c0,0.7-0.3,1.4-0.8,1.9c-1,1-2.7,1-3.7,0s-1-2.7,0-3.7l0,0
	C113.5,93.5,114.2,93.2,114.9,93.2z"/>
<g>
	<g>
		<g>
			<defs>
				<path id="SVGID_1_" d="M106.5,68.2h16c0.7-0.1,1.3-0.7,1.2-1.4c-0.1-0.6-0.6-1.1-1.2-1.2h-16c-0.7,0.1-1.3,0.7-1.2,1.4
					C105.4,67.7,105.9,68.2,106.5,68.2z"/>
			</defs>
			<clipPath id="SVGID_2_">
				<use xlink:href="#SVGID_1_"  style="overflow:visible;"/>
			</clipPath>
			<g class="st3">
				<g>
					<g>
						<g>
							<g>
								<defs>
									<rect id="SVGID_3_" x="105" y="65" width="19" height="4"/>
								</defs>
								<clipPath id="SVGID_4_">
									<use xlink:href="#SVGID_3_"  style="overflow:visible;"/>
								</clipPath>
								<g class="st4">
									<g>
										<g>
											<g>
												<defs>
													<rect id="SVGID_5_" x="104" y="64" width="21" height="6"/>
												</defs>
												<clipPath id="SVGID_6_">
													<use xlink:href="#SVGID_5_"  style="overflow:visible;"/>
												</clipPath>
												<g class="st5">
													<g>
														<g>
															<g>
																<g>
																	<defs>
																		<rect id="SVGID_7_" x="105" y="65" width="19" height="4"/>
																	</defs>
																	<clipPath id="SVGID_8_">
																		<use xlink:href="#SVGID_7_"  style="overflow:visible;"/>
																	</clipPath>
																	<g class="st6">
																		<rect x="97.9" y="58.3" class="st7" width="33.1" height="17.2"/>
																	</g>
																</g>
															</g>
														</g>
													</g>
												</g>
											</g>
										</g>
									</g>
								</g>
							</g>
						</g>
					</g>
				</g>
			</g>
		</g>
	</g>
</g>
<g>
	<g>
		<g>
			<defs>
				<path id="SVGID_9_" d="M117.2,74.6h-10.7c-0.7,0-1.3,0.6-1.3,1.3c0,0.7,0.6,1.3,1.3,1.3l0,0h10.7c0.7,0,1.3-0.6,1.3-1.3
					C118.5,75.1,117.9,74.6,117.2,74.6z"/>
			</defs>
			<clipPath id="SVGID_10_">
				<use xlink:href="#SVGID_9_"  style="overflow:visible;"/>
			</clipPath>
			<g class="st8">
				<g>
					<g>
						<g>
							<g>
								<defs>
									<rect id="SVGID_11_" x="105" y="74" width="14" height="4"/>
								</defs>
								<clipPath id="SVGID_12_">
									<use xlink:href="#SVGID_11_"  style="overflow:visible;"/>
								</clipPath>
								<g class="st9">
									<g>
										<g>
											<g>
												<defs>
													<rect id="SVGID_13_" x="104" y="73" width="16" height="6"/>
												</defs>
												<clipPath id="SVGID_14_">
													<use xlink:href="#SVGID_13_"  style="overflow:visible;"/>
												</clipPath>
												<g class="st10">
													<g>
														<g>
															<g>
																<g>
																	<defs>
																		<rect id="SVGID_15_" x="105" y="74" width="14" height="4"/>
																	</defs>
																	<clipPath id="SVGID_16_">
																		<use xlink:href="#SVGID_15_"  style="overflow:visible;"/>
																	</clipPath>
																	<g class="st11">
																		<rect x="97.9" y="67.3" class="st7" width="27.8" height="17.2"/>
																	</g>
																</g>
															</g>
														</g>
													</g>
												</g>
											</g>
										</g>
									</g>
								</g>
							</g>
						</g>
					</g>
				</g>
			</g>
		</g>
	</g>
</g>
<g>
	<g>
		<g>
			<defs>
				<path id="SVGID_17_" d="M106.5,72.4H126c0.7,0,1.3-0.6,1.3-1.3c0-0.7-0.6-1.3-1.3-1.3l0,0h-19.5c-0.7,0-1.3,0.6-1.3,1.3
					S105.8,72.4,106.5,72.4L106.5,72.4z"/>
			</defs>
			<clipPath id="SVGID_18_">
				<use xlink:href="#SVGID_17_"  style="overflow:visible;"/>
			</clipPath>
			<g class="st12">
				<g>
					<g>
						<g>
							<g>
								<defs>
									<rect id="SVGID_19_" x="105" y="69" width="23" height="4"/>
								</defs>
								<clipPath id="SVGID_20_">
									<use xlink:href="#SVGID_19_"  style="overflow:visible;"/>
								</clipPath>
								<g class="st13">
									<g>
										<g>
											<g>
												<defs>
													<rect id="SVGID_21_" x="104" y="68" width="25" height="6"/>
												</defs>
												<clipPath id="SVGID_22_">
													<use xlink:href="#SVGID_21_"  style="overflow:visible;"/>
												</clipPath>
												<g class="st14">
													<g>
														<g>
															<g>
																<g>
																	<defs>
																		<rect id="SVGID_23_" x="105" y="69" width="23" height="4"/>
																	</defs>
																	<clipPath id="SVGID_24_">
																		<use xlink:href="#SVGID_23_"  style="overflow:visible;"/>
																	</clipPath>
																	<g class="st15">
																		<rect x="97.9" y="62.5" class="st7" width="36.7" height="17.2"/>
																	</g>
																</g>
															</g>
														</g>
													</g>
												</g>
											</g>
										</g>
									</g>
								</g>
							</g>
						</g>
					</g>
				</g>
			</g>
		</g>
	</g>
</g>
<path class="st1" d="M109.4,57.8v-7.6c0.1-3.1,2.8-5.6,5.9-5.4c3,0.1,5.3,2.5,5.4,5.4v8.1"/>
<path class="st2" d="M120.7,59.5c-0.7,0-1.2-0.6-1.2-1.2v-8c0-2.5-2-4.5-4.5-4.5s-4.5,2-4.5,4.5l0,0v7.6c0,0.7-0.5,1.2-1.2,1.2
	s-1.2-0.5-1.2-1.2l0,0v-7.7c0-3.8,3.1-6.9,6.9-6.9s6.9,3.1,6.9,6.9v8c0,0.7-0.4,1.2-1.1,1.3C120.8,59.5,120.8,59.5,120.7,59.5z"/>
<path class="st2" d="M123,59.5h-16c-0.7,0-1.2-0.6-1.2-1.2c0-0.7,0.6-1.2,1.2-1.2h16c0.7,0,1.2,0.6,1.2,1.2
	C124.3,58.9,123.7,59.5,123,59.5z"/>
<path class="st2" d="M115.1,40.7c1,0,1.9,0.8,1.9,1.9s-0.8,1.9-1.9,1.9c-0.5,0-1-0.2-1.4-0.6c-0.7-0.7-0.7-1.9,0-2.6l0,0
	C114.1,40.9,114.6,40.7,115.1,40.7z"/>
<path class="st2" d="M115.1,57.4c1,0,1.9,0.8,1.9,1.9c0,1-0.9,1.9-1.9,1.9c-0.5,0-1-0.2-1.3-0.5c-0.4-0.3-0.6-0.8-0.6-1.3
	s0.2-1,0.6-1.3C114.1,57.6,114.6,57.4,115.1,57.4z"/>
</svg>
