<svg id="Layer_1" data-name="Layer 1" xmlns="http://www.w3.org/2000/svg" xmlns:xlink="http://www.w3.org/1999/xlink" width="160" height="130" viewBox="0 0 160 130"><defs><style>.cls-1,.cls-15{fill:none;}.cls-2{fill:#5ac7da;}.cls-10,.cls-3{fill:#fff;}.cls-4{clip-path:url(#clip-path);}.cls-5{clip-path:url(#clip-path-2);}.cls-6{clip-path:url(#clip-path-3);}.cls-7{clip-path:url(#clip-path-4);}.cls-8{clip-path:url(#clip-path-5);}.cls-9{clip-path:url(#clip-path-6);}.cls-10,.cls-15{stroke:#4e4b6e;stroke-linecap:round;stroke-linejoin:round;}.cls-10{stroke-width:4.05px;}.cls-11{fill:#4e4b6e;}.cls-12{clip-path:url(#clip-path-7);}.cls-13{clip-path:url(#clip-path-8);}.cls-14{clip-path:url(#clip-path-9);}.cls-15{stroke-width:3.65px;}</style><clipPath id="clip-path"><path class="cls-1" d="M-401.63,48.39s1.41,2,9.53,2,9.77-2,9.77-2a2.85,2.85,0,0,0-2.12-3.23c-2.64-1-4.84-1.29-4.79-3.3a5.09,5.09,0,0,1,.4-2.18.46.46,0,0,0,.23.06c.17,0,.42-.1.68-.53.49-.8.87-1.85,0-2.12.19-1,.4-3.44-1.13-4.71a4.47,4.47,0,0,0-2.62-1h-.6a4.47,4.47,0,0,0-2.62,1c-1.53,1.27-1.32,3.7-1.14,4.71-.86.27-.48,1.32,0,2.12.27.44.52.53.69.53a.46.46,0,0,0,.23-.06,5.09,5.09,0,0,1,.4,2.18c.05,2-2.15,2.34-4.79,3.3a2.85,2.85,0,0,0-2.12,3.23"/></clipPath><clipPath id="clip-path-2"><path class="cls-1" d="M-402,58.05a1.46,1.46,0,0,0,1.47,1.46h29.14a1.46,1.46,0,0,0,1.46-1.46,1.45,1.45,0,0,0-1.46-1.45h-29.14A1.46,1.46,0,0,0-402,58.05"/></clipPath><clipPath id="clip-path-3"><path class="cls-1" d="M-365.55,59.51a1.46,1.46,0,0,0,1.46-1.45,1.46,1.46,0,0,0-1.46-1.46h-.07A1.43,1.43,0,0,0-367,58v0a1.49,1.49,0,0,0,1.5,1.45"/></clipPath><clipPath id="clip-path-4"><path class="cls-1" d="M-400.51,75.12h29.14a1.46,1.46,0,0,0,1.46-1.46,1.46,1.46,0,0,0-1.46-1.45h-29.14A1.46,1.46,0,0,0-402,73.66a1.46,1.46,0,0,0,1.47,1.46"/></clipPath><clipPath id="clip-path-5"><path class="cls-1" d="M-354.39,64.69h-46.13A1.46,1.46,0,0,0-402,66.14a1.46,1.46,0,0,0,1.46,1.46h46.13a1.46,1.46,0,0,0,1.46-1.46,1.45,1.45,0,0,0-1.46-1.45"/></clipPath><clipPath id="clip-path-6"><path class="cls-1" d="M-355.7,90.67h-9.93l-2-3.52a1.3,1.3,0,0,0-1.26-.65,1.31,1.31,0,0,0-1.12.87l-2.89,8.18-3.47-12.23a1.27,1.27,0,0,0-1.29-.95,1.31,1.31,0,0,0-1.25,1l-2.86,12.12-2.72-6.92a1.31,1.31,0,0,0-1.22-.83h0a1.32,1.32,0,0,0-1.21.87l-3.5,9.95h-10a1.31,1.31,0,0,0-1.31,1.31h0a1.31,1.31,0,0,0,1.31,1.31h10.95a1.31,1.31,0,0,0,1.24-.88l2.64-7.5,3,7.55a1.31,1.31,0,0,0,1.22.83h.1a1.31,1.31,0,0,0,1.18-1l2.66-11.28,3.22,11.34a1.32,1.32,0,0,0,1.22,1,1.29,1.29,0,0,0,1.28-.87l3.32-9.4,1,1.71a1.26,1.26,0,0,0,1.13.65h10.7a1.3,1.3,0,0,0,1.31-1.3h0a1.31,1.31,0,0,0-1.31-1.31h0"/></clipPath><clipPath id="clip-path-7"><path class="cls-1" d="M-778.15-244.38h-9.94l-2-3.53a1.3,1.3,0,0,0-1.25-.65,1.33,1.33,0,0,0-1.12.87l-2.89,8.18-3.47-12.23a1.28,1.28,0,0,0-1.29-.95,1.32,1.32,0,0,0-1.25,1l-2.86,12.12-2.72-6.92a1.33,1.33,0,0,0-1.23-.83h0a1.3,1.3,0,0,0-1.21.88l-3.5,10h-10a1.31,1.31,0,0,0-1.32,1.3h0a1.32,1.32,0,0,0,1.32,1.31h11a1.31,1.31,0,0,0,1.24-.88l2.63-7.49,3,7.54a1.31,1.31,0,0,0,1.22.83h.09a1.31,1.31,0,0,0,1.19-1l2.66-11.28,3.22,11.34a1.29,1.29,0,0,0,1.22.95,1.29,1.29,0,0,0,1.28-.87l3.32-9.39,1,1.7a1.32,1.32,0,0,0,1.14.66h10.7a1.31,1.31,0,0,0,1.31-1.31h0a1.31,1.31,0,0,0-1.31-1.31h0"/></clipPath><clipPath id="clip-path-8"><path class="cls-1" d="M-778.61,19.17s2.12,3,14.42,3,14.78-3,14.78-3a4.29,4.29,0,0,0-3.2-4.89c-4-1.46-7.32-1.95-7.25-5a7.63,7.63,0,0,1,.61-3.3.67.67,0,0,0,.34.1c.26,0,.64-.15,1-.81.73-1.2,1.3-2.8,0-3.21.27-1.53.6-5.2-1.73-7.13a6.77,6.77,0,0,0-3.95-1.48l-.05,0h-.82l-.05,0a6.77,6.77,0,0,0-3.95,1.48c-2.33,1.93-2,5.6-1.73,7.13-1.3.41-.73,2,0,3.21.41.66.79.81,1,.81a.71.71,0,0,0,.35-.1,7.77,7.77,0,0,1,.6,3.3c.07,3.05-3.24,3.54-7.24,5a4.29,4.29,0,0,0-3.21,4.89"/></clipPath><clipPath id="clip-path-9"><path class="cls-1" d="M-710.51-84h-9.93l-2-3.53a1.3,1.3,0,0,0-1.25-.65,1.33,1.33,0,0,0-1.12.87l-2.89,8.19-3.47-12.23a1.28,1.28,0,0,0-1.29-1,1.32,1.32,0,0,0-1.25,1l-2.86,12.12-2.72-6.92a1.32,1.32,0,0,0-1.22-.83h0a1.3,1.3,0,0,0-1.21.88l-3.5,10h-10a1.3,1.3,0,0,0-1.31,1.3h0a1.3,1.3,0,0,0,1.31,1.31h11a1.31,1.31,0,0,0,1.24-.88l2.63-7.49,3,7.54a1.31,1.31,0,0,0,1.22.83h.1a1.31,1.31,0,0,0,1.18-1l2.66-11.28,3.22,11.33a1.29,1.29,0,0,0,1.22,1,1.29,1.29,0,0,0,1.28-.87l3.32-9.39,1,1.71a1.33,1.33,0,0,0,1.14.65h10.7a1.31,1.31,0,0,0,1.31-1.31h0A1.31,1.31,0,0,0-710.5-84h0"/></clipPath></defs><title>Timely</title><g id="Group_723" data-name="Group 723"><path id="Path_1013" data-name="Path 1013" class="cls-2" d="M10.21,97.58C35.08,133.83,132.5,133.27,151,87.28,165,52.36,104-4.85,74,8.61S58.5,44.47,35.45,55.39C7.45,68.67,2.56,86.43,10.21,97.58Z"/></g><circle class="cls-3" cx="80" cy="65" r="50.77"/><circle class="cls-10" cx="80" cy="65" r="39.09"/><path class="cls-11" d="M80.07,98.1h-.22a1.91,1.91,0,0,1,0-3.82H80a1.94,1.94,0,0,1,2,1.91A1.88,1.88,0,0,1,80.07,98.1ZM64.47,94a1.88,1.88,0,0,1-1-.26l-.16-.09a1.92,1.92,0,0,1,1.91-3.32l.16.1A1.91,1.91,0,0,1,66.13,93,1.93,1.93,0,0,1,64.47,94Zm31.06,0A1.9,1.9,0,0,1,93.87,93a1.87,1.87,0,0,1,.64-2.59l.1-.05a2,2,0,0,1,2.65.67,1.88,1.88,0,0,1-.65,2.59l-.09,0A2,2,0,0,1,95.53,94Zm11.41-11.32a2,2,0,0,1-1-.27,1.92,1.92,0,0,1-.66-2.63l.08-.14a1.92,1.92,0,0,1,3.32,1.91l-.12.2A1.92,1.92,0,0,1,106.94,82.64ZM53,82.59a1.93,1.93,0,0,1-1.66-1l-.1-.18a1.91,1.91,0,1,1,3.33-1.88l.08.14A1.92,1.92,0,0,1,54,82.33,2,2,0,0,1,53,82.59Zm58.16-15.52a1.91,1.91,0,0,1-1.91-1.91V65a1.92,1.92,0,0,1,1.91-1.93A1.89,1.89,0,0,1,113.1,65v.19A1.91,1.91,0,0,1,111.19,67.07ZM48.81,67A1.9,1.9,0,0,1,46.9,65.1V65a2,2,0,0,1,1.91-2,1.87,1.87,0,0,1,1.91,1.87v.19A1.9,1.9,0,0,1,48.81,67ZM107.1,51.46a1.9,1.9,0,0,1-1.67-1l-.08-.13a1.92,1.92,0,0,1,3.31-1.93l.11.2a1.91,1.91,0,0,1-.73,2.6A2,2,0,0,1,107.1,51.46Zm-54.17-.05a1.91,1.91,0,0,1-1.66-2.87l.1-.17a1.91,1.91,0,1,1,3.3,1.93l-.08.15A1.91,1.91,0,0,1,52.93,51.41ZM95.75,40a2,2,0,0,1-1-.27l-.14-.08a1.92,1.92,0,0,1,1.91-3.32l.19.11a1.91,1.91,0,0,1,.67,2.62A1.93,1.93,0,0,1,95.75,40ZM64.3,40a1.92,1.92,0,0,1-1-3.57l.19-.1a1.91,1.91,0,1,1,1.89,3.32l-.14.08A1.92,1.92,0,0,1,64.3,40Zm15.57-4.24a1.91,1.91,0,1,1,0-3.82h.33a1.91,1.91,0,0,1,0,3.82h-.32Z"/><path id="Path_1014" data-name="Path 1014" class="cls-2" d="M141.15,31.55c-3.65,4.21,4.7,15.9,10.28,11.38C159.35,36.49,144.26,28,141.15,31.55Z"/><path class="cls-15" d="M38,36.11A50.41,50.41,0,1,1,32.37,47"/><polyline class="cls-15" points="26.29 48.27 33.56 45.62 36.21 52.88"/><path class="cls-11" d="M77.74,55.1V44.88c0-1.6.87-2.63,2.2-2.67s2.32,1,2.32,2.66q0,9.56,0,19.12a2,2,0,0,0,.65,1.57c3.93,3.88,7.83,7.79,11.74,11.69a5.05,5.05,0,0,1,.79.94,2.23,2.23,0,0,1-3,3.09,5.84,5.84,0,0,1-1-.85C87.17,76.21,83,72,78.74,67.76a3.15,3.15,0,0,1-1-2.43C77.76,61.92,77.74,58.51,77.74,55.1Z"/></svg>