<?xml version="1.0" encoding="utf-8"?>
<!-- Generator: Adobe Illustrator 24.3.0, SVG Export Plug-In . SVG Version: 6.00 Build 0)  -->
<svg version="1.1" id="Layer_1" xmlns="http://www.w3.org/2000/svg" xmlns:xlink="http://www.w3.org/1999/xlink" x="0px" y="0px"
	 viewBox="0 0 150 48" style="enable-background:new 0 0 150 48;" xml:space="preserve">
<style type="text/css">
	.st0{fill:#FFFFFF;}
</style>
<g>
	<path id="Path_278" class="st0" d="M20.2,31l-4.6-11.9L10.8,31L4.1,15.4h1.6l5,11.5l4.8-12l4.8,12l5-11.5h1.7L20.2,31z"/>
	<path id="Path_279" class="st0" d="M30.4,30.3V15.4h1.5v14.9H30.4z"/>
	<path id="Path_280" class="st0" d="M44.1,29.4c-1,0.8-2.2,1.3-3.5,1.2c-2.2,0.1-4.2-1.2-5.2-3.1l1.3-0.8c0.4,0.7,0.9,1.3,1.5,1.7
		c0.7,0.5,1.6,0.7,2.4,0.7c2.3,0,3.4-1,3.4-2.9c0-0.9-0.5-1.7-1.2-2.2c-0.3-0.2-0.7-0.3-1-0.5c-0.4-0.2-1-0.4-1.6-0.6
		c-0.9-0.3-1.8-0.7-2.6-1.3c-0.8-0.7-1.2-1.7-1.2-2.7c0-1,0.4-1.9,1.2-2.6c0.8-0.8,1.8-1.2,2.9-1.1c1.6,0,3.1,0.6,4.2,1.7l-1.1,0.9
		c-0.8-0.8-2-1.3-3.1-1.2c-1.7,0-2.6,0.8-2.6,2.3c0,0.6,0.3,1.3,0.8,1.7c0.6,0.4,1.3,0.8,2.1,1c0.7,0.2,1.4,0.5,2,0.8
		c0.4,0.2,0.8,0.4,1.2,0.7c1,0.8,1.6,1.9,1.5,3.2C45.5,27.5,45,28.6,44.1,29.4z"/>
	<path id="Path_281" class="st0" d="M49,22.6c-0.1,1.7,0.5,3.5,1.6,4.8c1.2,1.2,2.9,1.9,4.6,1.8c0.9,0,1.9-0.2,2.7-0.5
		c1.2-0.6,2.1-1.5,2.8-2.6l1.3,0.6c-0.9,1.7-2.5,3-4.3,3.6c-0.8,0.3-1.7,0.4-2.5,0.4c-2.1,0.1-4.1-0.7-5.5-2.2
		c-1.5-1.5-2.3-3.5-2.2-5.5c-0.1-4.1,3.1-7.6,7.2-7.7c0.2,0,0.3,0,0.5,0c2-0.1,4,0.7,5.5,2.1c1.5,1.4,2.3,3.3,2.2,5.3L49,22.6
		L49,22.6z M59.1,17.9c-1.1-0.8-2.5-1.2-3.9-1.2c-2.9-0.2-5.4,1.8-6.1,4.5h12.1C61,19.8,60.3,18.6,59.1,17.9z"/>
	<path id="Path_282" class="st0" d="M78.3,35.3c-1.4,1.4-3.3,2.1-5.3,2c-4.1,0-6.5-1.6-7.3-4.8h1.5c0.3,1.2,1.1,2.2,2.3,2.6
		c1.1,0.5,2.3,0.7,3.5,0.7c1.6,0.1,3.1-0.5,4.3-1.5c1.1-1.2,1.6-2.7,1.5-4.3v-2.2c-2.6,3.3-7.5,3.8-10.8,1.2c-1.8-1.5-2.9-3.7-2.9-6
		c-0.1-4.2,3.3-7.6,7.5-7.7c0.1,0,0.1,0,0.2,0c2.3,0,4.5,1,5.9,2.8v-2.6h1.5V30C80.4,32,79.7,33.9,78.3,35.3z M77.3,18.5
		c-2.4-2.4-6.4-2.5-8.8,0c-1.2,1.2-1.8,2.8-1.8,4.4c0,3.4,2.8,6.2,6.2,6.3c3.4,0,6.2-2.8,6.3-6.2C79.1,21.3,78.5,19.7,77.3,18.5z"/>
	<path id="Path_283" class="st0" d="M91.7,17.6c-0.4-0.3-0.8-0.5-1.2-0.7c-0.4-0.2-0.9-0.3-1.4-0.3c-0.4,0-0.8,0.1-1.2,0.4
		c-0.4,0.3-0.7,0.6-0.9,0.9c-0.3,0.4-0.5,0.8-0.6,1.2c-0.1,0.4-0.2,0.8-0.2,1.3v9.8h-1.5V15.4h1.5v2c0.3-0.6,0.7-1.1,1.2-1.5
		c0.4-0.4,1-0.7,1.7-0.7c0.6,0,1.2,0.1,1.8,0.3c0.6,0.2,1.1,0.5,1.6,0.9L91.7,17.6z"/>
	<path id="Path_284" class="st0" d="M105.7,28.3c-3,3-7.8,3.1-10.9,0.1c-1.5-1.5-2.3-3.5-2.3-5.5c0-2,0.8-4,2.2-5.4
		c1.4-1.5,3.4-2.3,5.4-2.3c4.2,0,7.7,3.4,7.7,7.6c0,0,0,0.1,0,0.1C107.9,24.9,107.1,26.9,105.7,28.3z M104.6,18.5
		c-1.2-1.2-2.8-1.9-4.4-1.8c-1.7,0-3.2,0.7-4.4,1.9c-2.4,2.4-2.4,6.3,0.1,8.7c2.4,2.4,6.3,2.4,8.7-0.1C107,24.7,107,20.9,104.6,18.5
		L104.6,18.5z"/>
	<path id="Path_285" class="st0" d="M121,29c-1.1,1.1-2.6,1.7-4.1,1.6c-1.5,0.1-3-0.5-4.1-1.5c-1-1.2-1.5-2.8-1.4-4.3v-9.3h1.5v9.3
		c-0.1,1.2,0.3,2.3,0.9,3.3c0.8,0.8,1.9,1.3,3.1,1.2c2.8,0,4.1-1.5,4.1-4.4v-9.3h1.4v9.3C122.6,26.3,122.1,27.8,121,29z"/>
	<path id="Path_286" class="st0" d="M140,28.3c-3.1,3-8,3-11-0.1c-0.2-0.2-0.4-0.5-0.6-0.7v9.8h-1.5V15.4h1.5v2.8
		c2.6-3.4,7.5-4,10.9-1.4c0.2,0.2,0.5,0.4,0.7,0.6c1.5,1.4,2.3,3.4,2.2,5.5C142.3,24.9,141.5,26.9,140,28.3z M138.9,18.5
		c-2.4-2.4-6.4-2.5-8.8,0c-1.2,1.2-1.8,2.8-1.8,4.4c0,3.4,2.8,6.2,6.2,6.3c3.4,0,6.2-2.8,6.3-6.2C140.8,21.3,140.1,19.7,138.9,18.5z
		"/>
	<circle id="Ellipse_62" class="st0" cx="31.1" cy="11.1" r="1.2"/>
	<path id="Path_287" class="st0" d="M145.9,29.3c0,0.7-0.6,1.2-1.2,1.2c-0.7,0-1.2-0.6-1.2-1.2c0-0.7,0.6-1.2,1.2-1.2c0,0,0,0,0,0
		C145.3,28.1,145.9,28.6,145.9,29.3C145.9,29.3,145.9,29.3,145.9,29.3z"/>
</g>
</svg>
