<svg xmlns="http://www.w3.org/2000/svg" width="222.295" height="222.295" viewBox="0 0 222.295 222.295"><defs><style>.a{fill:#5ac7da;}.b{fill:#4e4b6e;}.c{fill:#fff;}.d{fill:#524d6d;}</style></defs><g transform="translate(-607.363 -1482.063)"><g transform="translate(607.363 1482.063)"><g transform="translate(0)"><ellipse class="a" cx="108.918" cy="108.918" rx="108.918" ry="108.918" transform="translate(2.23 2.23)"/><path class="b" d="M111.148,222.3h0a111.148,111.148,0,1,1,0-222.3h.025a111.148,111.148,0,0,1-.025,222.3Zm0-217.836a106.688,106.688,0,0,0-.025,213.376h.025A106.677,106.677,0,0,0,186.592,35.728,105.9,105.9,0,0,0,111.148,4.46Z" transform="translate(0)"/></g><g transform="translate(5.334)"><path class="c" d="M3.05,76.221l103.541,33.6V88.708L106.616.9A108.942,108.942,0,0,0,3.05,76.221Z" transform="translate(-0.827 1.33)"/><path class="b" d="M107.917,113.378a2.238,2.238,0,0,1-.694-.1L3.682,79.681a2.2,2.2,0,0,1-1.412-2.8A110.793,110.793,0,0,1,107.942,0a2.2,2.2,0,0,1,2.23,2.23l-.025,108.918a2.217,2.217,0,0,1-2.23,2.23ZM7.2,76.138l98.487,31.937.025-103.591A106.368,106.368,0,0,0,7.2,76.138Z" transform="translate(-2.153)"/></g><g transform="translate(31.565 31.59)"><ellipse class="c" cx="77.352" cy="77.352" rx="77.352" ry="77.352" transform="translate(2.23 2.205)"/><path class="b" d="M92.322,171.89h0A79.574,79.574,0,0,1,36.055,36.04,79.111,79.111,0,0,1,92.322,12.75h.025A79.66,79.66,0,0,1,171.9,92.357h0A79.665,79.665,0,0,1,92.322,171.89Zm0-154.7A75.124,75.124,0,0,0,39.2,145.428a74.607,74.607,0,0,0,53.121,22h.025a75.123,75.123,0,1,0-.025-150.245Zm77.352,75.147Z" transform="translate(-12.74 -12.75)"/></g></g><g transform="translate(679.109 1572.268)"><path class="d" d="M6.47,42.211a11.034,11.034,0,0,1-4.9-4.617A13.442,13.442,0,0,1,0,31.1a12.609,12.609,0,0,1,1.739-6.869,9.012,9.012,0,0,1,4.446-3.791A11,11,0,0,1,2.85,16.873a10.461,10.461,0,0,1-1.2-5.273A11.425,11.425,0,0,1,3.164,5.843,11,11,0,0,1,7.724,1.6,16.11,16.11,0,0,1,15.163,0a14.919,14.919,0,0,1,6.755,1.454A10.574,10.574,0,0,1,26.307,5.3a9.79,9.79,0,0,1,1.539,5.358,10.115,10.115,0,0,1-1.368,5.672,10.8,10.8,0,0,1-3.962,3.477q6.755,3.078,6.755,11.828a12.334,12.334,0,0,1-1.511,5.871A11.5,11.5,0,0,1,23.029,42.1a16.625,16.625,0,0,1-8.18,1.824A18.271,18.271,0,0,1,6.47,42.211Zm12.17-7.182a5.923,5.923,0,0,0,1.425-3.876,6.615,6.615,0,0,0-.969-3.705,7.3,7.3,0,0,0-2.48-2.28,28.478,28.478,0,0,0-4.076-1.739A8,8,0,0,0,10,26.364a9.3,9.3,0,0,0-.855,4.19,6.5,6.5,0,0,0,1.482,4.5,5.112,5.112,0,0,0,4.1,1.682A4.8,4.8,0,0,0,18.64,35.028Zm.371-23.742a3.789,3.789,0,0,0-1.226-2.964,4.261,4.261,0,0,0-2.936-1.14,4.229,4.229,0,0,0-2.993,1.112A3.927,3.927,0,0,0,10.6,11.287a4.4,4.4,0,0,0,1.283,3.363,13.394,13.394,0,0,0,3.791,2.28A6.534,6.534,0,0,0,19.011,11.287Z"/><path class="d" d="M18.276,41.327a16.141,16.141,0,0,1-4.988-7.553,35.393,35.393,0,0,1-1.739-11.8,35.276,35.276,0,0,1,1.739-11.8,16.507,16.507,0,0,1,4.988-7.553A12.055,12.055,0,0,1,26.057,0a12.055,12.055,0,0,1,7.781,2.622,16.141,16.141,0,0,1,4.988,7.553,35.509,35.509,0,0,1,1.739,11.8,35.276,35.276,0,0,1-1.739,11.8,16.356,16.356,0,0,1-4.988,7.553,12.055,12.055,0,0,1-7.781,2.622A12.216,12.216,0,0,1,18.276,41.327ZM30.019,33q1.368-3.762,1.368-11.03c0-4.874-.456-8.55-1.368-11.059s-2.252-3.734-3.962-3.734-3.05,1.254-3.962,3.734c-.912,2.508-1.368,6.185-1.368,11.059S21.184,30.525,22.1,33c.912,2.508,2.252,3.734,3.962,3.734S29.107,35.513,30.019,33Z" transform="translate(21.369 0)"/><g transform="translate(64.185 2.565)"><path class="d" d="M24.116,11.9c-1.055-.912-1.6-2.508-1.6-4.817s.542-3.933,1.6-4.817A5.8,5.8,0,0,1,28.049.9a5.8,5.8,0,0,1,3.933,1.368c1.055.912,1.6,2.508,1.6,4.817s-.542,3.933-1.6,4.817a5.8,5.8,0,0,1-3.933,1.368A5.8,5.8,0,0,1,24.116,11.9Zm5.672-4.845c0-2.024-.57-3.021-1.739-3.021a1.443,1.443,0,0,0-1.4.855,5.345,5.345,0,0,0-.4,2.166,5.891,5.891,0,0,0,.4,2.252,1.352,1.352,0,0,0,1.368.912C29.218,10.22,29.788,9.165,29.788,7.056ZM26.71,26.922a.445.445,0,0,1-.2-.371,1.409,1.409,0,0,1,.171-.542L39.849,2.126A1.818,1.818,0,0,1,41.474,1.1H43.1a1.048,1.048,0,0,1,.57.143.415.415,0,0,1,.2.371,1.678,1.678,0,0,1-.171.513L30.529,26.01A1.818,1.818,0,0,1,28.9,27.036h-1.6A1.179,1.179,0,0,1,26.71,26.922ZM38.4,25.9c-1.055-.912-1.6-2.508-1.6-4.817s.542-3.933,1.6-4.817a6.338,6.338,0,0,1,7.866,0c1.055.912,1.6,2.508,1.6,4.817s-.542,3.933-1.6,4.817a6.338,6.338,0,0,1-7.866,0Zm5.672-4.817c0-2.024-.57-3.021-1.739-3.021a1.379,1.379,0,0,0-1.368.855,5.345,5.345,0,0,0-.4,2.166,5.891,5.891,0,0,0,.4,2.252,1.352,1.352,0,0,0,1.368.912C43.5,24.243,44.067,23.188,44.067,21.079Z" transform="translate(-22.52 -0.9)"/></g></g></g></svg>