<svg id="Layer_1" data-name="Layer 1" xmlns="http://www.w3.org/2000/svg" xmlns:xlink="http://www.w3.org/1999/xlink" width="160" height="130" viewBox="0 0 160 130"><defs><style>.cls-1,.cls-14{fill:none;}.cls-2{fill:#78b1e0;}.cls-3{clip-path:url(#clip-path);}.cls-4{clip-path:url(#clip-path-2);}.cls-5{clip-path:url(#clip-path-3);}.cls-6{clip-path:url(#clip-path-4);}.cls-7{clip-path:url(#clip-path-5);}.cls-8{clip-path:url(#clip-path-6);}.cls-9{clip-path:url(#clip-path-7);}.cls-10{clip-path:url(#clip-path-8);}.cls-11{clip-path:url(#clip-path-9);}.cls-12{fill:#4e4b6e;}.cls-13{fill:#fff;}.cls-14{stroke:#4e4b6e;stroke-linecap:round;stroke-linejoin:round;stroke-width:3.65px;}</style><clipPath id="clip-path"><path class="cls-1" d="M-167.19,48.39s1.41,2,9.53,2,9.77-2,9.77-2A2.85,2.85,0,0,0-150,45.16c-2.64-1-4.84-1.29-4.79-3.3a5.25,5.25,0,0,1,.4-2.18.46.46,0,0,0,.23.06c.17,0,.43-.1.69-.53.48-.8.86-1.85,0-2.12.18-1,.4-3.44-1.14-4.71a4.45,4.45,0,0,0-2.62-1h-.6a4.47,4.47,0,0,0-2.62,1c-1.53,1.27-1.32,3.7-1.13,4.71-.87.27-.49,1.32,0,2.12.26.44.51.53.68.53a.46.46,0,0,0,.23-.06,5.09,5.09,0,0,1,.4,2.18c.05,2-2.14,2.34-4.79,3.3a2.85,2.85,0,0,0-2.12,3.23"/></clipPath><clipPath id="clip-path-2"><path class="cls-1" d="M-167.54,58.05a1.47,1.47,0,0,0,1.47,1.46h29.14a1.46,1.46,0,0,0,1.46-1.46,1.45,1.45,0,0,0-1.46-1.45h-29.14a1.46,1.46,0,0,0-1.47,1.45"/></clipPath><clipPath id="clip-path-3"><path class="cls-1" d="M-131.11,59.51a1.46,1.46,0,0,0,1.46-1.45,1.46,1.46,0,0,0-1.46-1.46h-.07A1.43,1.43,0,0,0-132.61,58v0a1.49,1.49,0,0,0,1.5,1.45"/></clipPath><clipPath id="clip-path-4"><path class="cls-1" d="M-166.07,75.12h29.14a1.46,1.46,0,0,0,1.46-1.46,1.46,1.46,0,0,0-1.46-1.45h-29.14a1.47,1.47,0,0,0-1.47,1.45,1.47,1.47,0,0,0,1.47,1.46"/></clipPath><clipPath id="clip-path-5"><path class="cls-1" d="M-119.95,64.69h-46.12a1.47,1.47,0,0,0-1.47,1.45,1.47,1.47,0,0,0,1.47,1.46h46.12a1.47,1.47,0,0,0,1.47-1.46,1.47,1.47,0,0,0-1.47-1.45"/></clipPath><clipPath id="clip-path-6"><path class="cls-1" d="M-121.26,90.67h-9.93l-2-3.52a1.3,1.3,0,0,0-1.26-.65,1.31,1.31,0,0,0-1.12.87l-2.89,8.18L-142,83.32a1.27,1.27,0,0,0-1.29-.95,1.31,1.31,0,0,0-1.25,1l-2.86,12.12-2.72-6.92a1.31,1.31,0,0,0-1.22-.83h0a1.32,1.32,0,0,0-1.22.87l-3.5,9.95h-10a1.31,1.31,0,0,0-1.31,1.31h0a1.31,1.31,0,0,0,1.31,1.31h10.95a1.3,1.3,0,0,0,1.24-.88l2.64-7.5,3,7.55a1.32,1.32,0,0,0,1.22.83h.1a1.31,1.31,0,0,0,1.18-1l2.67-11.28,3.21,11.34a1.32,1.32,0,0,0,1.22,1,1.31,1.31,0,0,0,1.29-.87l3.31-9.4,1,1.71a1.27,1.27,0,0,0,1.13.65h10.7a1.3,1.3,0,0,0,1.31-1.3h0a1.31,1.31,0,0,0-1.31-1.31h0"/></clipPath><clipPath id="clip-path-7"><path class="cls-1" d="M-543.71-244.38h-9.93l-2.05-3.53a1.3,1.3,0,0,0-1.25-.65,1.33,1.33,0,0,0-1.12.87l-2.89,8.18-3.47-12.23a1.28,1.28,0,0,0-1.29-.95,1.32,1.32,0,0,0-1.25,1l-2.86,12.12-2.72-6.92a1.32,1.32,0,0,0-1.22-.83h0a1.3,1.3,0,0,0-1.21.88l-3.5,10h-10a1.3,1.3,0,0,0-1.31,1.3h0a1.3,1.3,0,0,0,1.31,1.31h10.95a1.31,1.31,0,0,0,1.24-.88l2.63-7.49,3,7.54a1.31,1.31,0,0,0,1.22.83h.1a1.31,1.31,0,0,0,1.18-1l2.66-11.28,3.22,11.34a1.29,1.29,0,0,0,1.22.95,1.29,1.29,0,0,0,1.28-.87l3.32-9.39,1,1.7a1.32,1.32,0,0,0,1.14.66h10.7a1.31,1.31,0,0,0,1.31-1.31h0a1.31,1.31,0,0,0-1.31-1.31h0"/></clipPath><clipPath id="clip-path-8"><path class="cls-1" d="M-544.17,19.17s2.12,3,14.42,3,14.78-3,14.78-3a4.29,4.29,0,0,0-3.2-4.89c-4-1.46-7.32-1.95-7.25-5a7.78,7.78,0,0,1,.61-3.3.67.67,0,0,0,.34.1c.26,0,.64-.15,1-.81.73-1.2,1.31-2.8,0-3.21.28-1.53.6-5.2-1.72-7.13a6.82,6.82,0,0,0-4-1.48l0,0H-530l0,0a6.77,6.77,0,0,0-4,1.48c-2.33,1.93-2,5.6-1.73,7.13-1.3.41-.72,2,0,3.21.41.66.79.81,1.05.81a.67.67,0,0,0,.34-.1,7.77,7.77,0,0,1,.6,3.3c.08,3.05-3.24,3.54-7.24,5a4.3,4.3,0,0,0-3.21,4.89"/></clipPath><clipPath id="clip-path-9"><path class="cls-1" d="M-476.07-84H-486l-2-3.53a1.32,1.32,0,0,0-1.26-.65,1.33,1.33,0,0,0-1.12.87l-2.89,8.19-3.47-12.23a1.28,1.28,0,0,0-1.29-1,1.32,1.32,0,0,0-1.25,1l-2.86,12.12-2.72-6.92a1.31,1.31,0,0,0-1.22-.83h0a1.31,1.31,0,0,0-1.21.88l-3.5,10h-10a1.3,1.3,0,0,0-1.31,1.3h0a1.31,1.31,0,0,0,1.31,1.31h10.95a1.31,1.31,0,0,0,1.24-.88l2.64-7.49,3,7.54a1.31,1.31,0,0,0,1.22.83h.1a1.31,1.31,0,0,0,1.18-1l2.66-11.28,3.22,11.33a1.3,1.3,0,0,0,1.22,1,1.28,1.28,0,0,0,1.28-.87l3.32-9.39,1,1.71a1.3,1.3,0,0,0,1.13.65h10.7a1.31,1.31,0,0,0,1.31-1.31h0a1.31,1.31,0,0,0-1.31-1.3h0"/></clipPath></defs><title>Barrierfree</title><g id="Group_4339" data-name="Group 4339"><path id="Path_1013-3" data-name="Path 1013-3" class="cls-2" d="M144.32,35.87C119.15,4.44,28.19,5.86,13.44,46.21c-11.2,30.64,48.79,80,76.15,68S102.05,82.73,123,73C148.44,61.09,152.06,45.53,144.32,35.87Z"/></g><path class="cls-12" d="M74.52,35.6A87.42,87.42,0,0,1,90.6,26.88a121.57,121.57,0,0,1,17.06-5.71,96,96,0,0,1,12.93-2.24c4.11-.42,8.61-.54,12.59.74a4.05,4.05,0,0,1,2.83,4.8c-1.56,11.37-8.38,21-15.14,29.93a107.33,107.33,0,0,1-19.29,19.16c-.38,5.45-2,11.14-5.75,15.3A52.64,52.64,0,0,1,87,96.52a54.6,54.6,0,0,1-9.68,5.74,43.54,43.54,0,0,1-5.73,2.07c-2.68.77-4.08-.33-3.85-3.15.4-4.89.81-9.78,1.22-14.73l-4.61-.07a3.56,3.56,0,0,1-3.06-1.67c-1.26-1.8-2.53-3.59-3.88-5.51-.82.58-1.49,1.09-2.2,1.55a2.52,2.52,0,1,1-3-4.08c.66-.53,1.38-1,2.2-1.56-1.2-1.72-2.26-3.4-3.5-4.92a4.28,4.28,0,0,1-.79-4.64c.46-1.17.85-2.37,1.32-3.69-.47-.14-.92-.29-1.39-.41-4.35-1.16-8.71-2.3-13.06-3.48-2.63-.71-3.16-2.48-1.54-4.68,4.34-5.9,10-9.9,16.1-13.75a50.51,50.51,0,0,1,5.54-3C65.15,32.87,74.52,35.6,74.52,35.6ZM89.6,75.06c3.39-2.15,6.86-4.08,10-6.4,11.21-8.19,19.3-19,26.17-30.93a1.48,1.48,0,0,0,.06-1.2A44.64,44.64,0,0,0,118,25.11a1.81,1.81,0,0,0-1.88-.59,114.08,114.08,0,0,0-26,7.94A71.63,71.63,0,0,0,72.25,43.82l-2.88,2.52,9,11.88c1-.69,1.86-1.33,2.76-1.93,1.37-.94,2.72-1.94,4.16-2.76a2.15,2.15,0,0,1,2.88.72,2.28,2.28,0,0,1,.09,3A5.85,5.85,0,0,1,87,58.37c-1.85,1.33-3.72,2.64-5.61,4ZM58.69,72.13l15.56-11L65.71,49.93c-1.24,1.47-2.34,2.67-3.32,4A41.21,41.21,0,0,0,55.46,66a2.15,2.15,0,0,0,.09,1.6C56.5,69.13,57.59,70.57,58.69,72.13Zm3,4.2c1.13,1.6,2.18,3.16,3.33,4.65a1.54,1.54,0,0,0,1.18.4A52.07,52.07,0,0,0,73.83,80c3.64-.84,7.3-1.52,11.24-2.72-2.77-4.23-5.28-8.05-7.84-11.94ZM41.52,53.92c4,1,7.74,2,11.47,3a1.31,1.31,0,0,0,1.74-.69A64.17,64.17,0,0,1,65.11,43.48c1.24-1.2,2.54-2.35,3.86-3.57a11.06,11.06,0,0,0-6.52,0C58.59,41,55.33,43.3,52,45.43A53.56,53.56,0,0,0,41.52,53.92Zm53.9,23.65c-.25.17-.48.26-.66.37a68.07,68.07,0,0,1-19.71,7.5c-.78.16-1,.56-1,1.29-.16,2.24-.38,4.48-.57,6.73-.14,1.64-.27,3.29-.42,5a7.38,7.38,0,0,0,.92-.31A69.15,69.15,0,0,0,92.3,85.45,12.13,12.13,0,0,0,95.42,77.57Z"/><path class="cls-13" d="M89.6,75.06,81.35,62.34c1.89-1.33,3.76-2.64,5.61-4a5.85,5.85,0,0,0,1.33-1.13,2.28,2.28,0,0,0-.09-3,2.15,2.15,0,0,0-2.88-.72c-1.44.82-2.79,1.82-4.16,2.76-.9.6-1.77,1.24-2.76,1.93l-9-11.88,2.88-2.52A71.63,71.63,0,0,1,90.08,32.46a114.08,114.08,0,0,1,26-7.94,1.81,1.81,0,0,1,1.88.59,44.64,44.64,0,0,1,7.87,11.42,1.48,1.48,0,0,1-.06,1.2c-6.87,11.88-15,22.74-26.17,30.93C96.46,71,93,72.91,89.6,75.06Zm3.43-24a11.28,11.28,0,0,0,15.5,2.64A11.13,11.13,0,1,0,93,51.08Z"/><path class="cls-13" d="M58.69,72.13c-1.1-1.56-2.19-3-3.14-4.52a2.15,2.15,0,0,1-.09-1.6,41.21,41.21,0,0,1,6.93-12.13c1-1.28,2.08-2.48,3.32-4l8.54,11.22Z"/><path class="cls-13" d="M61.66,76.33l15.57-11c2.56,3.89,5.07,7.71,7.84,11.94a69,69,0,0,1-9.2,2.88,42.33,42.33,0,0,1-5.24.84c-.88.09-1.75.16-2.63.23a7.69,7.69,0,0,1-2.39.07c-.86-.22-1.37-1.32-1.85-2C63.05,78.33,62.36,77.32,61.66,76.33Z"/><path class="cls-13" d="M41.52,53.92A56.28,56.28,0,0,1,52,45a40.89,40.89,0,0,1,10.46-5.09,11.06,11.06,0,0,1,6.52,0c-1.32,1.22-2.62,2.37-3.86,3.57A64.17,64.17,0,0,0,54.73,56.21,1.31,1.31,0,0,1,53,56.9C49.26,55.89,45.51,55,41.52,53.92Z"/><path class="cls-13" d="M96.28,77.05a15.23,15.23,0,0,1-3.8,8.74C87.17,91.18,81.38,94.87,74,98.18c-.24.11-.5.17-.92.31.15-1.74.28-3.39.42-5,.19-2.25.41-4.49.57-6.73,0-.73.25-1.13,1-1.29a67.41,67.41,0,0,0,19.6-7.5C94.83,77.83,96,77.21,96.28,77.05Z"/><path class="cls-13" d="M123.47,23.42a37.65,37.65,0,0,1,7.64.29.47.47,0,0,1,.35.58,27.49,27.49,0,0,1-2.28,7.22Z"/><path class="cls-12" d="M93,51.08a11.15,11.15,0,1,1,15.5,2.64A11.24,11.24,0,0,1,93,51.08Zm14.07-10a6.13,6.13,0,1,0-1.43,8.5A6.13,6.13,0,0,0,107.1,41.09Z"/><path class="cls-13" d="M107.1,41.09a6.13,6.13,0,1,1-10,7,6.13,6.13,0,0,1,10-7Z"/><path id="Path_1014-2" data-name="Path 1014-2" class="cls-2" d="M124.82,86.47c-5.85-2.43-15.35,10.76-8.51,15.1C126.07,107.76,129.74,88.52,124.82,86.47Z"/><line class="cls-14" x1="41.66" y1="75.66" x2="30.87" y2="82.88"/><line class="cls-14" x1="42.82" y1="85.47" x2="19.85" y2="101.51"/><line class="cls-14" x1="51.68" y1="89.85" x2="36.4" y2="100.45"/></svg>