<svg xmlns="http://www.w3.org/2000/svg" xmlns:xlink="http://www.w3.org/1999/xlink" width="335.476" height="341.564" viewBox="0 0 335.476 341.564"><defs><style>.a,.g,.n,.p,.z{fill:none;}.b{fill:url(#a);}.c{fill:url(#b);}.d{clip-path:url(#c);}.e{fill:#665d56;}.f{fill:#dbae9d;}.g{stroke:#95683f;stroke-width:3.538px;}.g,.n,.p,.z{stroke-miterlimit:10;}.h{fill:#c4927e;}.i{fill:#865d52;}.j{fill:#313131;}.k{fill:#555179;}.l{fill:#404367;}.m{fill:#040505;}.n,.p{stroke:#865d52;}.n{stroke-width:0.981px;}.aa,.ab,.o,.w,.x{fill:#fff;}.p{stroke-width:1.079px;}.q{fill:#a36164;}.r{fill:#5c574d;}.s{fill:#ede7d8;}.t,.u{fill:#b77f6e;}.u{opacity:0.35;}.v{fill:#95683f;}.w{opacity:0.39;}.x{opacity:0.26;}.y{fill:#e8b09f;}.z{stroke:#716760;stroke-width:2.733px;}.aa{opacity:0.33;}.ab{opacity:0.12;}.ac{fill:#261a18;}</style><linearGradient id="a" x1="0.118" y1="-0.078" x2="0.673" y2="0.885" gradientUnits="objectBoundingBox"><stop offset="0" stop-color="#fff192"/><stop offset="0.988" stop-color="#7ac9c9"/></linearGradient><linearGradient id="b" x1="-0.29" y1="-0.933" x2="2.897" y2="4.69" xlink:href="#a"/><clipPath id="c"><path class="a" d="M273.487,330.417c48.681,84.548,264.318,100.33,313.122,1.8,18.219-36.781.1-151.822-34.063-192.139-35.318-41.682-82.679-88.274-127.657-80.7-80.64,13.589-55.558,106.185-108.475,126.334-55.019,20.949-61.917,93.536-56.591,118.4C260.716,308.289,271.332,326.677,273.487,330.417Z" transform="translate(-258.341 -58.565)"/></clipPath></defs><g transform="translate(-258.341 -58.565)"><path class="b" d="M273.54,330.876c48.681,84.548,264.318,100.33,313.122,1.8,37.054-74.81-87.8-212.04-156.654-187.518s-40.342,76.658-93.259,96.808C272.487,266.433,258.563,304.867,273.54,330.876Z" transform="translate(-0.053 -0.459)"/><path class="c" d="M331.7,206.94c-9.6-19.084-62.951-6.284-55,19.891C288.034,264.135,339.786,223.014,331.7,206.94Z" transform="translate(-0.096 -0.763)"/><g transform="translate(258.341 58.565)"><g class="d"><g transform="translate(52.295 16.388)"><path class="e" d="M401.714,173.447s1.425,8.373-6.056,13.182c-5.448,3.5-8.817.534-8.817.534s12.884,14.279,33.993-.505,6.977,11.192,6.977,11.192l16.744,3.206s10.243,9.53,16.922,5.789,4.721-16.12,4.988-19.326c.89,7.926,5.967,13.359,9.618,13-7.57-3.652-8.1-12.38-7.3-16.21,2.493,18.882,18.514,17.817,18.514,17.817-4.876-4.849-8.257-21.053-3.754-32.526,1.537.658,1.7,15.538.133,20.6,1.291-.071,3.4-12.249,2.1-22.188,3.561,2.773,1.576,15.245,1.576,15.245s9.613-15.905,6.612-31.23-4.87-33.017-4.4-36.279,10.793-21.213-4.393-30.3c2.227,2.315,4.186,10.2-1.8,15.794,0,0,5.976-9.675.349-16.424s-11.648-3.941-11.648-3.941-7.755-9.585-23.787-4.193c7.477-.725,14.977,1.684,18.963,6.068,0,0-11.911-10.608-35.292-1.623s-20.577,18.8-20.577,18.8-30.073,26.34-14.856,48.212c-1.827-3.106-5.64-11.612,2.015-23.194,0,0-4.59,11.129-.2,21.6s4.929,19.8-.652,27.758-12.351,3.206-12.351,3.206S394.351,184.581,401.714,173.447Z" transform="translate(-311.332 -75.043)"/><path class="f" d="M420.914,150.706c-2.316-.8,3.155,23.12-8.551,37.407-3.043,3.716-12.467,5.335-17.723,7.392-.388,11.019,29.7,61.958,49.519,63.413s22.266-50.41,22.266-50.41-5.192-2.326-6.145-7.481-.854-13.14,3.172-22.182c6.9-15.508-35.145-26.625-35.145-26.625Z" transform="translate(-311.383 -75.458)"/><ellipse class="g" cx="8.381" cy="6.189" rx="8.381" ry="6.189" transform="translate(153.234 100.733) rotate(-68.709)"/><path class="h" d="M449.622,244.491c-17.457-4.393-35.982-33.607-36.219-43.818s8.431-26.838,8.431-26.838l-1.187-11.994-.416.125c-.231,7.928-1.533,18.476-7.868,26.208-3.043,3.715-12.467,5.335-17.723,7.392-.254,7.2,12.522,31.47,26.936,47.816C440.36,245.309,459.309,246.93,449.622,244.491Z" transform="translate(-311.383 -75.519)"/><path class="h" d="M461.484,186.119s-10.073,24.744-21.927,23.865-19.124-39.571-20.39-49.508S461.484,186.119,461.484,186.119Z" transform="translate(-311.517 -75.502)"/><path class="i" d="M463.469,185.42c-.546.184-9.56,12.067-20.528,10-7.244-1.365-13.063-8.432-21.371-27.791,24.27,8.975,41.318,16.686,41.318,16.686" transform="translate(-311.531 -75.551)"/><path class="f" d="M472.469,103.12c.514-.284,2.828,1.3,3.214,1.543a19.525,19.525,0,0,1,6.129,5.993c4.311,6.89,3.894,14.254,2.88,21.968-.384,2.921-.8,5.817-.915,8.745-.131,3.26-1.574,6.32-2.264,9.473-.854,3.9-.384,7.883-1.473,11.774-2.711,9.686-11.084,16.4-17.435,23.721-2.45,2.825-4.942,5.325-8.7,6.167a21.463,21.463,0,0,1-11.574-.832c-4.867-1.717-8.862-5.217-12.212-9.049A48.647,48.647,0,0,1,418.6,156.081c-.766-4.19-1.01-6.206-1.01-6.206s-.306,2.914-2.246,3.092c-6,.55-4.333-16.081-3.991-19.226.269-2.461.334-6.48,3.536-6.927,3.361-.469,4.251,3.05,4.094,5.838,0,0-.157,5.353,2.325,6.993-.261-3.017-2.363-10.141,7.246-17.038,7.355-6.237,7.745-10.647,7.863-14s1.247-7.733,9.225-8.991c7.357-1.161,12.362.12,15.338,1.86S468.264,105.458,472.469,103.12Z" transform="translate(-311.472 -75.175)"/><path class="h" d="M445.641,99.616c-7.978,1.258-9.109,5.638-9.225,8.991s-.507,7.764-7.863,14c-9.609,6.9-7.507,14.022-7.246,17.038-2.482-1.64-2.325-6.993-2.325-6.993.156-2.788-.734-6.307-4.094-5.838-3.2.447-3.268,4.465-3.536,6.927-.342,3.145-2.013,19.776,3.991,19.226,1.939-.178,2.246-3.092,2.246-3.092s.245,2.016,1.01,6.206a48.647,48.647,0,0,0,11.517,26.542,33.9,33.9,0,0,0,9.082,7.645c-16.375-12.569-18.016-31.25-12.138-34.233-7.971-7.7-.845-21.954,5.48-20.978-2.754-4.444,1.84-9.87,11.209-16.315,6.989-4.808,9.251-14.715,9.949-19.438A31.556,31.556,0,0,0,445.641,99.616Z" transform="translate(-311.472 -75.176)"/><path class="j" d="M461.021,384.219s43.215-9.023,53.389-8.093,35.32,1.1,41.1,35.305c3.861,22.854,9.16,45.548,11.175,68.631a291.05,291.05,0,0,0,8.34,48.2c3.523,13.491,7.152,30.272,15.751,41.627,5.354,7.07,23.857,33.343,27.014,39.051s8.2,9.847,19.173,12.591,11.638,3.967,12.247,7.894-27.635,18.574-38.42,20.1-14.517-6.359-17.6-10.706-13.83-18.1-19.466-19.974c-2.427,1.134,5.534,34.766,5.534,34.766l-4.748,1.115s-8.885-31.976-15.026-36.8-14.287-10.983-11.594-23.512,8.546-25.736-.07-35.234-34.034-32.144-31.436-100.813c-2.99-26.6-3.946-33.073-15.482-33.933s-21.29-2.139-34.111,23.788-22.008,41.734-22.008,41.734l-3.66-87.049Z" transform="translate(-311.638 -76.694)"/><path class="j" d="M449.046,490.409l23.193-1.752s-13.546,10.57-8.045,75.334c4.516,53.152,2.694,61.6-.2,63.663-10.364,7.359-19.973,19.466-13.454,34.966s8.366,24.958,7.455,30.683-2.609,17.956-.568,21.046a22.922,22.922,0,0,1,2.841,7.034s25.9,2.56,34.937,1.063c3.614-3.542,6.933-10.206,3.55-17.677s-8.6-43.559-6.94-51.152c3.269-14.95,3.665-30.6,6.757-45.675,4.56-22.239,12.208-43.444,16.7-65.623,3.247-16.047,5.787-32.388,9.9-48.245,3.286-12.668,13.776-71.454-19.451-72.167s-32.652,17.468-46.5,39.816S445.9,484.7,445.9,484.7Z" transform="translate(-311.664 -76.945)"/><path class="k" d="M467.918,380.916c-.75-.263-23.324,20.128-20.48,58.906,6.285,38.8,3.613,49.491-.306,58.427-.594.139-6.577-13.328-44.216-11.783-19.464.8-64.023,2.842-78.6-17.726-23.988-33.843-13.419-80.988,13.3-114.832,34.624-43.857,26.6-71.132,26.6-71.132L466.1,380.389" transform="translate(-310.924 -76.182)"/><path class="l" d="M468.093,380.916l-1.815-.527-21.26-20.367c-3.023-1.66-5.729-2.579-9.052-1.892a194.227,194.227,0,0,0-19.006-6.118,18.918,18.918,0,0,1-6.452-2.669c-2.111-1.574-3.585-3.355-6.256-4.115a3.8,3.8,0,0,1-1.457-.607,3.243,3.243,0,0,1-.735-1.074c-.886-1.766-5.126-5.128-2.272-17.068l-.036-.172c5.121,10.961,16.389,17.35,27.787,19.957a34.038,34.038,0,0,0,3.76.613l-66.909-64.1s7.218,24.558-21.62,64.535c.61,1.689,1.259,3.351,1.992,4.95,3.392,7.4,8.161,13.711,14.82,17.9,23.442,14.73,51.962,21,79.346,22.579,6.663.384,13.208.349,19.253.091C463.033,384.845,467.757,380.8,468.093,380.916Z" transform="translate(-311.099 -76.182)"/><path class="l" d="M445.578,243.662s-24.39-16.161-35.36-30.329c-11.772-15.206-14.842-17.616-16.779-17.6-1.972.4-11.984,4.8-19.053,6.764-8.062,2.235-22.837,6.829-25.809,18.171s-2.814,85.877,4.416,112.668,8.8,30.806,18.778,35.976,36.991,12.478,62.592,14.043a208.17,208.17,0,0,0,48.882-3.276s-2.488-15.132,4.2-22.649c.368-4.032-1.253-7.47-1.95-10.437s-1.079-5.131.841-7.085,4.42-10.242,4.42-10.242,3.538,10,3.4,13.666.883,13.63,5.489,18.309a90.742,90.742,0,0,1,9.191,11.68s9.434-10.752,14.653-12.791,9.076-1.881,19.363,4.866c2.08-5.81-2.508-10.681-5.071-16.529s-3.449-13.09-6.38-17.035-6.281-39.285-6.227-44.12-3.7-40.024-8.213-47.792-16.8-17.4-23.936-19.794-15.145-5.836-19.8-7.81A57.958,57.958,0,0,1,466,208.751S467,231.683,445.578,243.662Z" transform="translate(-311.121 -75.705)"/><path class="k" d="M395.381,316.958c-2.9,11.929,1.332,15.307,2.212,17.076a3.24,3.24,0,0,0,.731,1.077,3.779,3.779,0,0,0,1.454.612c2.669.769,4.136,2.556,6.243,4.138a18.948,18.948,0,0,0,6.442,2.692,194.464,194.464,0,0,1,18.984,6.186c3.944-.8,7.006.641,10.766,2.92s17.075,3.786,22.9,5.674a27.749,27.749,0,0,0,15.837.382,16.021,16.021,0,0,1,6.867-.308c-5.96,8.037-3.966,22.93-3.966,22.93a225.4,225.4,0,0,1-49.57,3.019c-27.378-1.674-55.876-8.05-79.264-22.863-6.644-4.208-11.391-10.539-14.757-17.95-7.511-16.541-8.142-38.468-7.644-54.2a270.111,270.111,0,0,1,3.177-32.058c1.5-9.846,2.444-20.61,5.786-30.006,5.072-14.258,12.063-21.995,31.288-26.605,7.133-1.711,18.518-3.534,20.49-3.934,1.937-.017,5.007,2.393,16.779,17.6,10.971,14.169,35.36,30.329,35.36,30.329,21.419-11.979,20.417-34.91,20.417-34.91a57.96,57.96,0,0,0,7.223,3.563c5.438,2.3,10.953,5,16.595,6.7,5.368,1.619,10.325,3.107,15.131,6.145,10.47,6.622,15.925,16.009,20.525,27.129a110.708,110.708,0,0,1,8.573,41.794c.055,11.919-4.137,26.125-.517,37.751,1.461,4.692,1.691,11.188,4.253,17.036.9,2.053,2.047,3.986,3.07,5.882-15.756-10.785-31.773-.15-34.592,4.4-2.878-2.392-9.958-13.879-6.133-19.722s5.722-35.092,2.97-45.216-4.451-33.892-1.865-43.141c-5.588,8.2-4.393,26.891-2.756,34.4a66.155,66.155,0,0,1-3.892,38.357c-2.666,6.269-16.986,12.191-13.585,17.34s1.392,8.064-1.138,6.09-15.577-13.812-35.8-10.627c-6.874,1.082-14.057,1.811-20.914.217-11.388-2.646-22.633-9.076-27.714-20.055" transform="translate(-311.042 -75.705)"/><path class="f" d="M484.641,381.234c-.386,0-4.035-11.983,4.042-23.052,4.426-2.886,13.277-9.723,14.8-11.616s4.138-3.977,7.27-3.3,9.764.118,12.513-.308,6.858-.921,8,1.409c2.878,1.328,6.629,4.767,7.623,6.6s5.233,5.22,4.8,6.825c2.268,2.724,3.095,6.381,1.55,7.4-1.421-3.517-6.6-7.184-8.6-8.624s-6.673-4.287-6.673-4.287a15.9,15.9,0,0,1-8.186,2.736c-4.354-.011-10.744,5.309-11.706,8.415S505.242,381.374,484.641,381.234Z" transform="translate(-311.87 -76.51)"/><path class="f" d="M531.712,359.511c-2.158-.391-3.886-1.258-7.411-.806s-5.1,2.824-6.171,3.984-5.6,6.167-7.193,8.827-2.15,6.579-1.873,9.894.878,7.339.9,9.179a3.42,3.42,0,0,0,2.877,3.457c1.711.35,4.173-3.3,5.2-6.01s.719-7.87.719-7.87l2.077-1.552s1.322,8.831,1.774,11.292,1.216,6.111,1.216,6.111-.482,5.634.979,7.284c-.682,3.937-.627,8.265,1.394,9.1s3.687-1.5,4.694-4.056c-.043,2.577,1.545,3.206,2.366,3.41s2.146.518,4.881-7.168c1.508-2.734,1.845-2.9,1.845-2.9s-.414,2.414.773,2.844,2.973-.76,4.754-4.017a42.643,42.643,0,0,0,4.4-11.405c.735-3.8,1.314-11.558,1.01-9.651s1.032-4.938-1.014-7.254a77.348,77.348,0,0,0-8.983-8.305C538.853,362.551,533.87,359.9,531.712,359.511Z" transform="translate(-312.01 -76.598)"/><path class="l" d="M395.9,310.988s5.23-40.3,2.215-60.962-14.39-28.93-14.39-28.93S416.762,226.7,395.9,310.988Z" transform="translate(-311.323 -75.844)"/><path class="m" d="M452.306,140.322a7.465,7.465,0,0,0-6.8-4.885c-4.618-.357-5.678,1.317-5.678,1.317l.67.475Z" transform="translate(-311.631 -75.374)"/><path class="n" d="M467.951,142.372s4.072-2.349,8-1.24a5.727,5.727,0,0,1,4.087,4.089" transform="translate(-311.785 -75.404)"/><path class="o" d="M452.186,140.3a8.808,8.808,0,0,0-6.073-3.914c-4.132-.572-5.623.828-5.623.828S443.581,140.445,452.186,140.3Z" transform="translate(-311.634 -75.379)"/><path class="m" d="M466.669,144.076a8.876,8.876,0,0,1,9.471-1.56,6.275,6.275,0,0,1,3.747,3.454l-2.291.22Z" transform="translate(-311.778 -75.409)"/><path class="p" d="M453.99,139.877a7.83,7.83,0,0,0-7.117-5.037c-5.536-.23-7.569,1.587-7.569,1.587" transform="translate(-311.628 -75.371)"/><path class="o" d="M466.639,144.131c-.059-.055,3.645-2.37,6.8-1.684a11.149,11.149,0,0,1,5.481,3.632S470.055,147.272,466.639,144.131Z" transform="translate(-311.778 -75.412)"/><path class="h" d="M441.432,169.6c.134.134,1.558,8.432,9,10.287,5.329,1.33,9.218-2.049,11.044-5.923S441.432,169.6,441.432,169.6Z" transform="translate(-311.64 -75.562)"/><path class="q" d="M464.976,169.869a.24.24,0,0,0-.173-.4q-1.787-.06-3.576-.083a35.542,35.542,0,0,1-5.951-.268,20.21,20.21,0,0,1-4.749-1.472c-1.508-.68-2.936-1.586-4.507-2.118a13.694,13.694,0,0,0-6.2-.847,2.382,2.382,0,0,0-.615.135c-.313.144-.282.109-.152.437.36.9.822,1.794,1.258,2.665a26.889,26.889,0,0,0,3.934,6.011,14.431,14.431,0,0,0,6.4,4.3,10.77,10.77,0,0,0,3.141.462,9.2,9.2,0,0,0,6.49-2.415,39.284,39.284,0,0,0,2.624-3.728c.441-.564.852-1.148,1.311-1.7C464.318,170.728,464.668,170.226,464.976,169.869Z" transform="translate(-311.626 -75.534)"/><path class="r" d="M443.844,136.261a2.645,2.645,0,0,0-.181,2.766,18.743,18.743,0,0,0,3.822.979,2.651,2.651,0,0,0,1.1-2.88,8.3,8.3,0,0,0-2.459-.738A13.039,13.039,0,0,0,443.844,136.261Z" transform="translate(-311.65 -75.379)"/><path class="r" d="M474.145,142.642a6.79,6.79,0,0,0-.7-.195,8.133,8.133,0,0,0-4.287.45,2.721,2.721,0,0,0-.116.635,2.655,2.655,0,0,0,1.013,2.239,17.549,17.549,0,0,0,2.532.416,2.653,2.653,0,0,0,1.554-3.544Z" transform="translate(-311.791 -75.412)"/><path class="s" d="M441.1,166.058a.326.326,0,0,0-.338.284c-.059.445-.077,1.266.521,1.555a1.543,1.543,0,0,0,1.494.763s.329.9.749,1.069a3.011,3.011,0,0,0,1.379-.128s.2,1.437,1.086,1.822a1.626,1.626,0,0,0,1.507-.247s.343,1.3,1.009,1.514a3.345,3.345,0,0,0,1.514.022,1.86,1.86,0,0,0,1.548,1.088c1.485.3,1.98.164,2.134-.042.062.339,2.635.818,3.215.274.558.326,1.974-.144,1.974-.144a8.616,8.616,0,0,0,1.337-.508,8.022,8.022,0,0,0,2.307-2l.146-.935a15.117,15.117,0,0,1-9.353.025C448.2,168.891,444.68,166.253,441.1,166.058Z" transform="translate(-311.636 -75.542)"/><path class="h" d="M472.354,169.471s-6.631,7.35-8.195,13.554C466.006,180.7,472.354,169.471,472.354,169.471Z" transform="translate(-311.764 -75.561)"/><path class="h" d="M430.479,161.946s3.991,7.971,2.455,16.153C432.777,173.122,430.479,161.946,430.479,161.946Z" transform="translate(-311.58 -75.52)"/><path class="t" d="M452,144.646s-6,.283-9.444-2.054a16.866,16.866,0,0,1-4.708-4.388S439.9,147.472,452,144.646Z" transform="translate(-311.62 -75.39)"/><path class="h" d="M480.177,148.63a16.019,16.019,0,0,1-13.7-.482S470.514,153.951,480.177,148.63Z" transform="translate(-311.777 -75.444)"/><path class="u" d="M437.632,137.076s-5.459-.2-8.186-4.158C429.617,135.608,431.377,137.691,437.632,137.076Z" transform="translate(-311.574 -75.361)"/><path class="u" d="M480.595,146.212s2.082.17,2.839-.914C483.383,147.173,481.721,147.169,480.595,146.212Z" transform="translate(-311.854 -75.428)"/><path class="i" d="M417.365,133.8s-.283-3.877-1.986-4.115-2.6,5.574-2.6,5.574S414.314,128.268,417.365,133.8Z" transform="translate(-311.482 -75.343)"/><path class="i" d="M417.345,138.049a4.837,4.837,0,0,0-.893,4.453c-1.6-.8-3.2.894-3.2.894a17.943,17.943,0,0,0,.524-4.26c-.125-1.58.406-3.409,1.281-3.717S416.524,134.857,417.345,138.049Z" transform="translate(-311.485 -75.373)"/><path class="e" d="M457.81,134.353c1.723-1.1-1.2-3.114-2.018-3.728-3.346-2.518-9.715-4.64-14.56-3.6s-5.684,4.7-5.684,4.7,2.491-4.392,8.658-3.315a22.851,22.851,0,0,1,10.045,4.862c.876.666,2.381,1.787,3.518,1.1Z" transform="translate(-311.607 -75.327)"/><path class="e" d="M469.982,136.058a14.627,14.627,0,0,1,9.263-1.362c5.205.8,5.259,4.946,5.259,4.946a6.776,6.776,0,0,0-4.322-2.795,15.328,15.328,0,0,0-5.589.426c-.973.208-1.946.412-2.927.581-.454.078-.909.139-1.362.22a1.5,1.5,0,0,1-1.168-.121.876.876,0,0,1-.087-1.181A2.273,2.273,0,0,1,469.982,136.058Z" transform="translate(-311.79 -75.369)"/><circle class="m" cx="0.87" cy="0.87" r="0.87" transform="translate(133.513 61.782)"/><path class="o" d="M447.171,137.952a1.908,1.908,0,0,0-1.24-.523l.258-.611a1.907,1.907,0,0,1,1.24.523Z" transform="translate(-311.664 -75.382)"/><circle class="m" cx="0.87" cy="0.87" r="0.87" transform="translate(159.057 67.637)"/><path class="o" d="M472.855,143.839a1.907,1.907,0,0,0-1.24-.523l.258-.61a1.9,1.9,0,0,1,1.24.523Z" transform="translate(-311.805 -75.414)"/><path class="v" d="M419.15,153.818a9.381,9.381,0,0,0-1.025-2.932c-.057-.107-.488-.558-.556-.664a6.612,6.612,0,0,1-.593,1.877,8.21,8.21,0,0,1,.573,2,15.382,15.382,0,0,1-.291,5.337,13.019,13.019,0,0,1-2.151,4.783,7.64,7.64,0,0,1-1.617,1.671,1.883,1.883,0,0,1-1.332.476,1.257,1.257,0,0,1-.5-.248,2.656,2.656,0,0,1-.553-.687,7.058,7.058,0,0,1-.793-2.156,16.051,16.051,0,0,1,1.408-10.207,7.393,7.393,0,0,1,1.527-2,3.206,3.206,0,0,1,.838-.547.979.979,0,0,0,.173-.784c-.067-.424-.334-.958-.632-.868a5.2,5.2,0,0,0-1.488.828,9.6,9.6,0,0,0-2.1,2.349,17.555,17.555,0,0,0-2.35,5.6,17.206,17.206,0,0,0-.357,6.159,9.618,9.618,0,0,0,1.015,3.21,5.855,5.855,0,0,0,1.2,1.537,4.051,4.051,0,0,0,4.262.8,5.588,5.588,0,0,0,1.661-1.018,8.906,8.906,0,0,0,2.011-2.677,19.689,19.689,0,0,0,1.751-5.852A17.145,17.145,0,0,0,419.15,153.818Z" transform="translate(-311.452 -75.448)"/><path class="w" d="M442.934,131.8a11.805,11.805,0,0,0-5.05-.312c-3.881,1-3.287,10.182-2.49,13.193.442,1.673,2.451,3.189,5.385,4.105A33.163,33.163,0,0,1,442.934,131.8Z" transform="translate(-311.603 -75.352)"/><path class="x" d="M482.121,139.879c-.473,6.645-3.313,13.2-4.936,16.465a6.117,6.117,0,0,0,1.5.2c1.188-.148,4.288-.618,7.716-6.932C489.532,143.837,490.06,140.759,482.121,139.879Z" transform="translate(-311.836 -75.399)"/><g transform="translate(128.857 61.245)"><path class="y" d="M441.646,136.626a3.417,3.417,0,0,0-1.155.592,5.826,5.826,0,0,0,1.017.768A1.45,1.45,0,0,1,441.646,136.626Z" transform="translate(-440.491 -136.626)"/><path class="y" d="M450.375,140.287c.595.026,1.208.04,1.866.029a8.046,8.046,0,0,0-1.232-1.5A1.361,1.361,0,0,1,450.375,140.287Z" transform="translate(-440.545 -136.638)"/></g><g transform="translate(154.861 68.073)"><path class="y" d="M467.744,143.492a5.186,5.186,0,0,0-1.1.645,5.632,5.632,0,0,0,1.028.72A1.684,1.684,0,0,1,467.744,143.492Z" transform="translate(-466.638 -143.492)"/><path class="y" d="M477.8,144.868a2.542,2.542,0,0,1-.538,1.378c1.037-.065,1.717-.153,1.717-.153A11.642,11.642,0,0,0,477.8,144.868Z" transform="translate(-466.697 -143.5)"/></g><path class="z" d="M467.86,95.533s-12.469-10.806-32.538-5.225-32.775,29.925-28.263,41.325" transform="translate(-311.446 -75.118)"/><path class="h" d="M452.253,161.632c.134.133.327,4.928,3.266,5.641,2,.484,4.676-1.365,5.433-2.167-1.751.652-4.631.89-6.012-.268A16.752,16.752,0,0,1,452.253,161.632Z" transform="translate(-311.699 -75.518)"/><path class="i" d="M449.029,159.989a5.5,5.5,0,0,1,.624-.088,3.846,3.846,0,0,1,1.464.188c1.422.485,2.115,1.942,3.02,3.031a5.26,5.26,0,0,0,3.413,2.019,4.825,4.825,0,0,0,4.69-1.855,1.991,1.991,0,0,1,1.922-.594,3.452,3.452,0,0,1-1.951,1.158,5.463,5.463,0,0,1-6.108,2.293c-2.962-.913-3.408-3.638-4.134-4.453C450.758,160.331,449.623,160.643,449.029,159.989Z" transform="translate(-311.681 -75.508)"/><path class="t" d="M447.582,155.808c-.633-.346-2.613.356-4.661,1.989-3.153,2.513-6.427,4.29-9.9,3.711a5.185,5.185,0,0,1-4.231-3.562s4.462,4.4,10.911.223C445.267,154.561,447.137,155.1,447.582,155.808Z" transform="translate(-311.57 -75.483)"/><path class="t" d="M448.6,160.1a3.053,3.053,0,0,1-1.336-3.94c1.068-2.7,4.409-2.271,5.477-1.225.8-.446,2.428-2.568,2.992-5.21a12.357,12.357,0,0,1-2.546,6.54.636.636,0,0,1-.843,0,2.734,2.734,0,0,0-3.379-.361C447.724,156.656,447.222,159.044,448.6,160.1Z" transform="translate(-311.67 -75.453)"/><path class="h" d="M462.76,149.542s-.564,7.1-.03,8.7a2.345,2.345,0,0,1,3.414.682c.62.9-.059,2.969-.059,2.969s.868-1.1,2.969,1.871a8.183,8.183,0,0,0,3.592,2.909c.652.268,5.611,1.187,7.095-3.176C479.355,166.879,466.916,168.246,462.76,149.542Z" transform="translate(-311.755 -75.452)"/><ellipse class="aa" cx="0.997" cy="3.735" rx="0.997" ry="3.735" transform="translate(136.145 100.283) rotate(-77.481)"/><ellipse class="ab" cx="1.626" cy="3.505" rx="1.626" ry="3.505" transform="translate(133.871 110.863) rotate(-77.481)"/><path class="h" d="M461.743,133.932s2.908-2.855,3.967-9.063c-.6,3.354-.968,9.019-.528,9.966C464.1,133.569,463.337,133.137,461.743,133.932Z" transform="translate(-311.751 -75.316)"/><path class="ac" d="M484.012,139.059a30.853,30.853,0,0,0-6.441-.547c-8.551.128-12.769,2.037-14.825,1.742-2.908-.413-5.735-4.824-12.663-7.5a43.7,43.7,0,0,0-13.77-3.06c-3.752-.21-10.47-2.878-11.681-3.369a17.159,17.159,0,0,0-1.113,1.414,55.376,55.376,0,0,1,7.364,3.153,29.34,29.34,0,0,1,3.108,1.962s-1.45,12.565,1.836,14.959c3.5,2.553,13.033,4.334,18.437.9,3.936-2.64,4.608-6.963,7.6-6.724s1.776,7.857,4.234,10.568a12.357,12.357,0,0,0,3.854,2.655,22.089,22.089,0,0,0,5.331,1.77,9.9,9.9,0,0,0,5.55-.115,7.982,7.982,0,0,0,2.43-1.655,19.668,19.668,0,0,0,4.177-6.126,37.211,37.211,0,0,0,1.966-5.333c.4-1.243.989-1.441.989-1.441l.339-1.328A36.592,36.592,0,0,0,484.012,139.059Zm-25.435,1.569c-.115,1.139-2.148,8.352-9.366,8.949s-13.084-1.912-13.879-4.925-1.39-12.2,2.49-13.193,13.638,2.873,17.43,5.373C457.745,138.258,458.657,139.846,458.578,140.628Zm27.526,8.907a26.254,26.254,0,0,1-1.622,2.639A15.48,15.48,0,0,1,483,153.991a9.326,9.326,0,0,1-1.326,1.154,6.287,6.287,0,0,1-1.146.648,5.2,5.2,0,0,1-.947.3,7.573,7.573,0,0,1-3.356-.091c-.353-.082-.7-.174-1.054-.266q-1.17-.307-2.314-.7c-.8-.275-1.6-.583-2.371-.934a15.8,15.8,0,0,1-2.116-1.137,6.917,6.917,0,0,1-1.55-1.311,3.545,3.545,0,0,1-.358-.508c-1.758-3.066-1.306-7.331-1.061-8.5.119-.568,3.488-3.557,13.969-3.042,1.185.059,2.227.151,3.145.276l.133.02c.157.022.31.045.459.07l.227.038.34.063.231.045.032.007C489.632,141.32,488.928,144.334,486.1,149.535Z" transform="translate(-311.541 -75.324)"/></g></g></g></g></svg>