<svg id="Layer_1" data-name="Layer 1" xmlns="http://www.w3.org/2000/svg" xmlns:xlink="http://www.w3.org/1999/xlink" width="160" height="130" viewBox="0 0 160 130"><defs><style>.cls-1{fill:none;}.cls-2{clip-path:url(#clip-path);}.cls-3{clip-path:url(#clip-path-2);}.cls-4{fill:#78b1e0;}.cls-5{fill:#fff;}.cls-6{fill:#4e4b6e;}.cls-7{clip-path:url(#clip-path-3);}.cls-8{clip-path:url(#clip-path-4);}.cls-9{clip-path:url(#clip-path-5);}.cls-10{clip-path:url(#clip-path-6);}.cls-11{clip-path:url(#clip-path-7);}.cls-12{clip-path:url(#clip-path-8);}</style><clipPath id="clip-path"><path class="cls-1" d="M-136.8,103.37a1.85,1.85,0,0,0,1.85,1.85h29.22a1.85,1.85,0,0,0,1.85-1.85,1.84,1.84,0,0,0-1.85-1.84h-29.22a1.84,1.84,0,0,0-1.85,1.84"/></clipPath><clipPath id="clip-path-2"><path class="cls-1" d="M-99,105.22a1.85,1.85,0,0,0,1.85-1.85A1.84,1.84,0,0,0-99,101.53h-.09a1.82,1.82,0,0,0-1.81,1.82v0a1.9,1.9,0,0,0,1.9,1.85"/></clipPath><clipPath id="clip-path-3"><path class="cls-1" d="M-56.78,221.24s1.4,2,9.53,2,9.76-2,9.76-2A2.83,2.83,0,0,0-39.61,218c-2.64-1-4.83-1.29-4.78-3.3a5.14,5.14,0,0,1,.4-2.19.34.34,0,0,0,.22.07c.17,0,.43-.1.69-.54.48-.79.86-1.85,0-2.11.18-1,.4-3.44-1.14-4.71a4.38,4.38,0,0,0-2.61-1l0,0h-.55l0,0a4.38,4.38,0,0,0-2.61,1c-1.54,1.27-1.32,3.7-1.14,4.71-.86.26-.48,1.32,0,2.11.27.44.52.54.69.54a.34.34,0,0,0,.22-.07,5,5,0,0,1,.4,2.19c.05,2-2.14,2.33-4.78,3.3a2.83,2.83,0,0,0-2.12,3.23"/></clipPath><clipPath id="clip-path-4"><path class="cls-1" d="M-57.13,230.9a1.46,1.46,0,0,0,1.46,1.46h29.14a1.46,1.46,0,0,0,1.46-1.46,1.46,1.46,0,0,0-1.46-1.46H-55.67a1.46,1.46,0,0,0-1.46,1.46"/></clipPath><clipPath id="clip-path-5"><path class="cls-1" d="M-20.71,232.36a1.47,1.47,0,0,0,1.47-1.46,1.47,1.47,0,0,0-1.47-1.46h-.07a1.44,1.44,0,0,0-1.43,1.44v0a1.49,1.49,0,0,0,1.49,1.46"/></clipPath><clipPath id="clip-path-6"><path class="cls-1" d="M-55.67,248h29.14a1.46,1.46,0,0,0,1.46-1.46,1.46,1.46,0,0,0-1.46-1.46H-55.67a1.46,1.46,0,0,0-1.46,1.46A1.46,1.46,0,0,0-55.67,248"/></clipPath><clipPath id="clip-path-7"><path class="cls-1" d="M-9.54,237.53H-55.67A1.46,1.46,0,0,0-57.13,239a1.46,1.46,0,0,0,1.46,1.46H-9.54A1.46,1.46,0,0,0-8.08,239a1.46,1.46,0,0,0-1.46-1.46"/></clipPath><clipPath id="clip-path-8"><path class="cls-1" d="M-10.85,263.52h-9.94l-2-3.53a1.3,1.3,0,0,0-1.26-.64,1.29,1.29,0,0,0-1.11.86l-2.89,8.19-3.47-12.23a1.28,1.28,0,0,0-1.3-1,1.29,1.29,0,0,0-1.24,1L-37,268.34l-2.73-6.92a1.3,1.3,0,0,0-1.22-.83h0a1.33,1.33,0,0,0-1.22.88l-3.5,9.95h-10a1.31,1.31,0,0,0-1.31,1.3h0A1.31,1.31,0,0,0-55.67,274h11a1.31,1.31,0,0,0,1.23-.87l2.64-7.5,3,7.54a1.3,1.3,0,0,0,1.22.83h.09a1.33,1.33,0,0,0,1.19-1l2.66-11.28,3.21,11.33a1.34,1.34,0,0,0,1.23,1,1.32,1.32,0,0,0,1.28-.88l3.32-9.39,1,1.71a1.33,1.33,0,0,0,1.14.65h10.69a1.31,1.31,0,0,0,1.32-1.3h0a1.31,1.31,0,0,0-1.31-1.3h0"/></clipPath></defs><title>courseselection</title><g id="Group_4403" data-name="Group 4403"><path id="Path_4334" data-name="Path 4334" class="cls-4" d="M122.67,90c2.52,6.3,19.74,3.7,17.94-4.79C138,73.05,120.54,84.65,122.67,90Z"/><path id="Path_4335" data-name="Path 4335" class="cls-4" d="M147.78,36.22C121.71,3.66,27.48,5.13,12.2,46.93.6,78.67,62.75,129.84,91.08,117.37S104,84.76,125.69,74.64C152.05,62.35,155.8,46.23,147.78,36.22Z"/><g id="Group_4402" data-name="Group 4402"><g id="Group_4401" data-name="Group 4401"><rect id="Rectangle_260" data-name="Rectangle 260" class="cls-5" x="44.77" y="15.16" width="69.66" height="93.81"/><path id="Path_4336" data-name="Path 4336" class="cls-5" d="M47.73,66.81,32.59,77.1s4.16-7.42,2.28-10.29S30,61.57,28.73,67s-4.94,9.9-5.64,12.57-3.86,8.41-5,9.2.39,3.07.39,3.07l11.09,15.93a17.46,17.46,0,0,1,8.9-3.66c4.85-.3,5.84-1.19,5.84-1.19l11.58-8.21Z"/></g><g id="Group_3759" data-name="Group 3759"><path id="Path_2074" data-name="Path 2074" class="cls-1" d="M58.23,40a4.45,4.45,0,0,0,4.45-4.45h0a4.46,4.46,0,0,0-4.45-4.46h0a4.46,4.46,0,0,0-4.46,4.46A4.38,4.38,0,0,0,58.07,40h.16Z"/><path id="Path_2075" data-name="Path 2075" class="cls-1" d="M47.57,105.09a1.73,1.73,0,0,0,1.73,1.74h61.81a1.73,1.73,0,0,0,1.74-1.73h0V97.53H54.74l-7,4.65v2.91Zm32-6.59a3.67,3.67,0,0,1,3.67,3.68h0a3.68,3.68,0,1,1-7.35,0h0a4,4,0,0,1,3.67-3.68Z"/><path id="Path_2076" data-name="Path 2076" class="cls-1" d="M56.29,60.53a7.18,7.18,0,0,1,7-4.84,7.3,7.3,0,0,1,7.17,5.81h36.8a2.14,2.14,0,1,1,0,4.27H69.85a7.39,7.39,0,0,1-6.78,4.65A7.23,7.23,0,0,1,59,69.26a7.18,7.18,0,0,1-1.75,1.35l-4.06,2.71a10.08,10.08,0,0,1,1.74,4.26H65.79a7.5,7.5,0,0,1,7-5.23,7.25,7.25,0,0,1,7,5.23h27.12A2.13,2.13,0,0,1,109,79.71h0a2.13,2.13,0,0,1-2.13,2.14H79.73a7.51,7.51,0,0,1-7,5.24,7.28,7.28,0,0,1-7-5.24H55.71a8.1,8.1,0,0,1,1.16,4.07,3.23,3.23,0,0,1-.58,1.93,8.72,8.72,0,0,1,1.93,5.24,5.87,5.87,0,0,1-1.16,2.71h55.79V18.7A1.75,1.75,0,0,0,111.12,17H49.32a1.75,1.75,0,0,0-1.75,1.73V65l4.26-2.91A6.59,6.59,0,0,1,56.29,60.53ZM107,51.23H98.9a7.51,7.51,0,0,1-7,5.24,7.26,7.26,0,0,1-7-5.24H54.16a2.13,2.13,0,0,1,0-4.26H85a7.5,7.5,0,0,1,7-5.23,7.25,7.25,0,0,1,7,5.23H107a2.13,2.13,0,0,1,0,4.26Zm-48.82-23a7.28,7.28,0,0,1,7,5.23H107a2.13,2.13,0,1,1,0,4.26H65.2a7.51,7.51,0,0,1-7,5.24,7.36,7.36,0,1,1,0-14.72Z"/><path id="Path_2077" data-name="Path 2077" class="cls-1" d="M91.93,44.65a4.46,4.46,0,0,0-4.45,4.46h0a4.46,4.46,0,0,0,8.91,0h0a4.39,4.39,0,0,0-4.31-4.46h-.15Z"/><path id="Path_2078" data-name="Path 2078" class="cls-1" d="M79.54,103.92a1.75,1.75,0,0,0,0-3.49h0a1.75,1.75,0,0,0-1.75,1.75h0a1.75,1.75,0,0,0,1.73,1.74h0Z"/><path id="Path_2079" data-name="Path 2079" class="cls-1" d="M73,84a4.46,4.46,0,0,0,0-8.91h0a4.46,4.46,0,0,0-4.46,4.46h0A4.5,4.5,0,0,0,73,84Z"/><path id="Path_2080" data-name="Path 2080" class="cls-1" d="M60,62.86h0a5,5,0,0,1,.78,3.68v.19a3.85,3.85,0,0,0,2.51.78,4.46,4.46,0,1,0,0-8.91A4.54,4.54,0,0,0,59,61.89Z"/><path id="Path_2081" data-name="Path 2081" class="cls-6" d="M111.11,12.7H49.32a6,6,0,0,0-6,6V67.9L47.57,65V18.7A1.75,1.75,0,0,1,49.3,17h61.81a1.75,1.75,0,0,1,1.74,1.73V95.79H56.2a1.41,1.41,0,0,1-.58.58h.1l-2,1.36h59v7.55a1.73,1.73,0,0,1-1.73,1.74H49.31a1.73,1.73,0,0,1-1.74-1.73v-3.55l-.72.38a32.28,32.28,0,0,1-3.35,1.75v1.22a6,6,0,0,0,6,6h61.79a6,6,0,0,0,6-6V18.7A6.34,6.34,0,0,0,111.11,12.7Z"/><path id="Path_2082" data-name="Path 2082" class="cls-6" d="M79.53,105.86a3.68,3.68,0,0,0,0-7.36h0a3.68,3.68,0,0,0-3.68,3.68h0A3.81,3.81,0,0,0,79.53,105.86Zm0-5.42a1.74,1.74,0,0,1,1.75,1.74h0a1.75,1.75,0,1,1-1.76-1.74h0Z"/><path id="Path_2083" data-name="Path 2083" class="cls-6" d="M58.23,42.91a7.25,7.25,0,0,0,7-5.24H107a2.13,2.13,0,0,0,0-4.26H65.2a7.27,7.27,0,0,0-7-5.23,7.37,7.37,0,0,0,0,14.73Zm0-11.82a4.46,4.46,0,0,1,4.45,4.46h0A4.45,4.45,0,0,1,58.23,40h0a4.46,4.46,0,0,1-4.46-4.45,4.39,4.39,0,0,1,4.3-4.46h.16Z"/><path id="Path_2084" data-name="Path 2084" class="cls-6" d="M107,47H98.9a7.51,7.51,0,0,0-7-5.24A7.26,7.26,0,0,0,85,47H54.16a2.13,2.13,0,1,0,0,4.26H85a7.51,7.51,0,0,0,7,5.23,7.25,7.25,0,0,0,7-5.23H107a2.13,2.13,0,0,0,2.13-2.13h0A2.13,2.13,0,0,0,107,47ZM91.93,53.56a4.46,4.46,0,0,1,0-8.91h0a4.46,4.46,0,0,1,4.46,4.45h0a4.38,4.38,0,0,1-4.31,4.45h-.15Z"/><path id="Path_2085" data-name="Path 2085" class="cls-6" d="M47.57,102.18l7-4.65,1.93-1.35h0l.59-.59a7.19,7.19,0,0,0,1.16-2.71,6.59,6.59,0,0,0-1.94-5.23c.19-.58.39-1.16.58-1.94a5.5,5.5,0,0,0-1.16-4.06H65.78a7.51,7.51,0,0,0,7,5.23,7.25,7.25,0,0,0,7-5.23h27.12a2.14,2.14,0,0,0,0-4.27H79.73a7.51,7.51,0,0,0-7-5.22,7.25,7.25,0,0,0-7,5.23H54.93a8.66,8.66,0,0,0-1.74-4.26l4.07-2.71A15.09,15.09,0,0,0,59,69.06a7.17,7.17,0,0,0,4.07,1.16,7.37,7.37,0,0,0,6.78-4.65H107a2.13,2.13,0,1,0,0-4.26H70.23a7.44,7.44,0,0,0-7.16-5.82,7.82,7.82,0,0,0-7,4.85,7,7,0,0,0-4.46,1.54L47.57,65l-4.26,2.91-7.55,5.23c1.16-3.48,1.16-4.84,1-5.62a5.72,5.72,0,0,0-3.3-4.64,4.24,4.24,0,0,0-5.23,1.35c-.19.19-.39.58-2.71,7-.2.39-.78,1.75-1.55,3.1A32.65,32.65,0,0,0,21,82.05c-1,4.06-5.61,7.15-5.61,7.15l.77,1.16L17,91.53h0L28,107.6h0l1.35,1.75a33.27,33.27,0,0,1,5.24-3.1,15.7,15.7,0,0,1,1.93-.39,17.39,17.39,0,0,0,6-1.16,5.28,5.28,0,0,0,1.47-.62,16.72,16.72,0,0,0,2.79-1.51ZM73,75.06a4.46,4.46,0,0,1,4.45,4.46h0a4.46,4.46,0,0,1-8.91,0h0A4.52,4.52,0,0,1,73,75.06ZM63.07,58.4a4.46,4.46,0,0,1,4.46,4.45h0a4.46,4.46,0,0,1-4.46,4.46h0a5.51,5.51,0,0,1-2.52-.78v-.19a5.14,5.14,0,0,0-.77-3.68h0a7.75,7.75,0,0,0-1-1.16,4.61,4.61,0,0,1,4.26-3.1ZM41.57,102a19,19,0,0,1-5.23,1,8.24,8.24,0,0,0-3.1.58,27.55,27.55,0,0,0-3.48,1.94L19.29,89.77a14.4,14.4,0,0,0,4.64-7.54,31,31,0,0,1,2.52-7c.58-1.16,1.55-2.9,1.75-3.48,1.35-3.88,2.13-5.81,2.32-6.2.58-.58,1-.77,1.75-.39a2.92,2.92,0,0,1,1.54,2.52c0,.2.2,1.16-1.16,4.65q-.6,1.68-1.35,3.3l-1,1a1.72,1.72,0,0,0-.39,2.14,1.51,1.51,0,0,0,1.94.39L53.57,64.61a5.23,5.23,0,0,1,2.33-1c.58,0,1,.39,1.54,1.16a2.07,2.07,0,0,1,.39,1.36,3.52,3.52,0,0,1-1.94,2.13L41.56,78a1.4,1.4,0,0,0-.31,2h0a1.4,1.4,0,0,0,1.86.37l7.75-5.23a5.28,5.28,0,0,1,1.36,3.29,1.75,1.75,0,0,1-.59,1.35l-6,4.08a1.72,1.72,0,0,0-.39,2.13,1.51,1.51,0,0,0,1.94.39l5.42-3.68A5.17,5.17,0,0,1,54,85.92a1.79,1.79,0,0,1-.58,1.36l-5.81,3.87a1.4,1.4,0,0,0,1.55,2.33h0l5-3.29a4,4,0,0,1,1,2.9,1.79,1.79,0,0,1-.58,1.36l-4.45,3c-2.42,1.6-4.85,3.48-7.66,4.35Z"/></g></g></g></svg>