<svg id="Layer_1" data-name="Layer 1" xmlns="http://www.w3.org/2000/svg" width="160" height="130" viewBox="0 0 160 130"><defs><style>.cls-1{fill:#5ac7d9;}.cls-2{fill:#fff;}.cls-2,.cls-3,.cls-4,.cls-5,.cls-6{stroke:#4e4b6e;stroke-linecap:round;stroke-linejoin:round;stroke-width:3.65px;}.cls-3,.cls-4,.cls-5,.cls-6{fill:none;}.cls-4{stroke-dasharray:8.19 6.37;}.cls-5{stroke-dasharray:8.18 6.36;}.cls-6{stroke-dasharray:8.31 6.47;}</style></defs><title>Sales site icons</title><path id="Path_1013-4" data-name="Path 1013-4" class="cls-1" d="M149.49,33.17c-28.37-33-126.55-28-141,16.11-10.94,33.51,55.71,84.6,84.8,70.56S105.61,85.37,127.87,74C154.89,60.26,158.21,43.32,149.49,33.17Z"/><path id="Path_1014-3" data-name="Path 1014-3" class="cls-1" d="M132.68,82.58c3.52,6.14,20.94,1,17.84-7.56C146.11,62.88,129.72,77.4,132.68,82.58Z"/><path class="cls-2" d="M118.34,97C115.43,97.94,80,110.33,80,110.33S45,98.4,41.66,97c-4.44-1.83-5.06-5.11-5.06-7.9V41.92a5.06,5.06,0,0,1,5.06-5.05h76.68a5.06,5.06,0,0,1,5.06,5.05v47.2C123.4,91.91,122.4,95.75,118.34,97Z"/><path class="cls-3" d="M49,91c-2.21-.78-3.72-1.33-4.23-1.54,0,0,0-.23,0-.37V85"/><line class="cls-4" x1="44.75" y1="78.62" x2="44.75" y2="52.7"/><polyline class="cls-3" points="44.75 49.52 44.75 45.02 51.24 45.02"/><polyline class="cls-3" points="108.76 45.02 115.25 45.02 115.25 49.52"/><line class="cls-5" x1="115.25" y1="55.88" x2="115.25" y2="81.79"/><path class="cls-3" d="M115.25,85v4.15c0,.13,0,.24,0,.35L111,90.92"/><path class="cls-6" d="M104.86,93c-8.52,3-19.64,6.84-24.89,8.68-8.92-3-20.48-7-27.92-9.61"/><path class="cls-2" d="M80,25.1C64.43,3.52,27.64,34.73,80,59.29,132.35,34.91,95.67,3.57,80,25.1Z"/></svg>