<svg id="Layer_1" data-name="Layer 1" xmlns="http://www.w3.org/2000/svg" xmlns:xlink="http://www.w3.org/1999/xlink" width="160" height="130" viewBox="0 0 160 130"><defs><style>.cls-1{fill:none;}.cls-2{clip-path:url(#clip-path);}.cls-3{clip-path:url(#clip-path-2);}.cls-4{fill:#5ac6d9;}.cls-5{fill:#fff;}.cls-6{fill:#4e4b6f;}.cls-7{clip-path:url(#clip-path-3);}.cls-8{clip-path:url(#clip-path-4);}.cls-9{clip-path:url(#clip-path-5);}.cls-10{fill:#4f476a;}.cls-11{clip-path:url(#clip-path-7);}.cls-12{clip-path:url(#clip-path-8);}.cls-13{clip-path:url(#clip-path-9);}.cls-14{clip-path:url(#clip-path-11);}.cls-15{clip-path:url(#clip-path-12);}.cls-16{clip-path:url(#clip-path-13);}.cls-17{clip-path:url(#clip-path-15);}.cls-18{clip-path:url(#clip-path-16);}.cls-19{clip-path:url(#clip-path-17);}.cls-20{clip-path:url(#clip-path-19);}.cls-21{clip-path:url(#clip-path-20);}.cls-22{clip-path:url(#clip-path-21);}.cls-23{clip-path:url(#clip-path-23);}.cls-24{clip-path:url(#clip-path-24);}.cls-25{clip-path:url(#clip-path-25);}.cls-26{clip-path:url(#clip-path-27);}.cls-27{clip-path:url(#clip-path-28);}.cls-28{clip-path:url(#clip-path-29);}.cls-29{clip-path:url(#clip-path-31);}.cls-30{clip-path:url(#clip-path-32);}.cls-31{clip-path:url(#clip-path-33);}.cls-32{clip-path:url(#clip-path-35);}.cls-33{clip-path:url(#clip-path-36);}.cls-34{clip-path:url(#clip-path-37);}.cls-35{clip-path:url(#clip-path-38);}.cls-36{clip-path:url(#clip-path-39);}.cls-37{clip-path:url(#clip-path-40);}</style><clipPath id="clip-path"><path class="cls-1" d="M-360.94,102.71a1.87,1.87,0,0,0,1.86,1.85h29.22a1.85,1.85,0,0,0,1.85-1.85,1.85,1.85,0,0,0-1.85-1.85h-29.22a1.87,1.87,0,0,0-1.86,1.85"/></clipPath><clipPath id="clip-path-2"><path class="cls-1" d="M-323.13,104.56a1.85,1.85,0,0,0,1.85-1.85,1.85,1.85,0,0,0-1.85-1.85h-.09a1.83,1.83,0,0,0-1.81,1.83v0a1.9,1.9,0,0,0,1.9,1.85"/></clipPath><clipPath id="clip-path-3"><path class="cls-1" d="M116.8,42.57l-19-9.33a1.93,1.93,0,0,0-1.72,0l-19,9.33a1.94,1.94,0,0,0,0,3.5l6.05,3A3.48,3.48,0,0,1,85,46.13l.51-.24-3.18-1.57,14.58-7.17,14.57,7.17L96.94,51.48l-3.67-1.81L89.93,51.3v1.06l6.16,3a1.93,1.93,0,0,0,.85.2,2,2,0,0,0,.86-.2l8.76-4.3,0,4.43L97,60.26l-7-3.45v4.33l6.16,3a1.93,1.93,0,0,0,.85.2,2,2,0,0,0,.86-.2l11.6-5.71a2,2,0,0,0,1.09-1.77l-.06-7.54L116.8,46a2,2,0,0,0,1.07-1.75A1.86,1.86,0,0,0,116.8,42.57Z"/></clipPath><clipPath id="clip-path-4"><rect class="cls-1" x="75.93" y="32.32" width="42.48" height="32.12"/></clipPath><clipPath id="clip-path-5"><rect class="cls-1" x="74.9" y="31.28" width="44.55" height="34.19"/></clipPath><clipPath id="clip-path-7"><path class="cls-1" d="M99.38,42.91a1.93,1.93,0,0,0-2.6-.9L85.67,47.43a2,2,0,0,0-1.1,1.75V64.31a2,2,0,0,0,3.9,0V50.39l10-4.88a2,2,0,0,0,.9-2.6Z"/></clipPath><clipPath id="clip-path-8"><rect class="cls-1" x="84.22" y="41.64" width="16.58" height="24.86"/></clipPath><clipPath id="clip-path-9"><rect class="cls-1" x="83.18" y="40.61" width="18.65" height="26.94"/></clipPath><clipPath id="clip-path-11"><path class="cls-1" d="M44.05,47.21H67.72a1.93,1.93,0,0,0,0-3.85H44.05a1.93,1.93,0,0,0,0,3.85Z"/></clipPath><clipPath id="clip-path-12"><rect class="cls-1" x="41.74" y="42.68" width="27.97" height="5.18"/></clipPath><clipPath id="clip-path-13"><rect class="cls-1" x="40.71" y="41.64" width="30.04" height="7.25"/></clipPath><clipPath id="clip-path-15"><path class="cls-1" d="M59.84,56.59H44a1.91,1.91,0,0,0-1.92,1.9v0A1.92,1.92,0,0,0,44,60.43H59.84a1.92,1.92,0,0,0,0-3.84Z"/></clipPath><clipPath id="clip-path-16"><rect class="cls-1" x="41.74" y="56.15" width="20.72" height="5.18"/></clipPath><clipPath id="clip-path-17"><rect class="cls-1" x="40.71" y="55.11" width="22.79" height="7.25"/></clipPath><clipPath id="clip-path-19"><path class="cls-1" d="M44.05,53.37H73a1.93,1.93,0,0,0,0-3.85H44.05a1.93,1.93,0,0,0,0,3.85Z"/></clipPath><clipPath id="clip-path-20"><rect class="cls-1" x="41.74" y="48.9" width="34.19" height="5.18"/></clipPath><clipPath id="clip-path-21"><rect class="cls-1" x="40.71" y="47.86" width="36.26" height="7.25"/></clipPath><clipPath id="clip-path-23"><path class="cls-1" d="M44.81,39.21a2.51,2.51,0,0,0,2.53-2.52h0a2.52,2.52,0,0,0-2.49-2.53h0a2.53,2.53,0,0,0,0,5.06Z"/></clipPath><clipPath id="clip-path-24"><rect class="cls-1" x="41.74" y="33.36" width="6.22" height="6.22"/></clipPath><clipPath id="clip-path-25"><rect class="cls-1" x="40.71" y="32.32" width="8.29" height="8.29"/></clipPath><clipPath id="clip-path-27"><path class="cls-1" d="M51.53,39.21a2.52,2.52,0,0,0,2.53-2.52h0a2.52,2.52,0,0,0-2.5-2.53h0a2.53,2.53,0,0,0,0,5.06Z"/></clipPath><clipPath id="clip-path-28"><rect class="cls-1" x="49" y="33.36" width="5.18" height="6.22"/></clipPath><clipPath id="clip-path-29"><rect class="cls-1" x="47.96" y="32.32" width="7.25" height="8.29"/></clipPath><clipPath id="clip-path-31"><path class="cls-1" d="M58.27,39.13A2.53,2.53,0,0,0,60.8,36.6h0a2.52,2.52,0,0,0-2.52-2.52h0a2.53,2.53,0,0,0,0,5.06Z"/></clipPath><clipPath id="clip-path-32"><rect class="cls-1" x="55.21" y="33.36" width="6.22" height="6.22"/></clipPath><clipPath id="clip-path-33"><rect class="cls-1" x="54.18" y="32.32" width="8.29" height="8.29"/></clipPath><clipPath id="clip-path-35"><path class="cls-1" d="M-280.92,220.57s1.41,2,9.53,2,9.77-2,9.77-2a2.85,2.85,0,0,0-2.12-3.23c-2.64-1-4.83-1.29-4.78-3.3a5.08,5.08,0,0,1,.39-2.18.46.46,0,0,0,.23.06c.17,0,.43-.1.69-.53.48-.8.86-1.85,0-2.12.18-1,.4-3.44-1.14-4.71a4.44,4.44,0,0,0-2.61-1h-.61a4.5,4.5,0,0,0-2.62,1c-1.53,1.27-1.32,3.7-1.13,4.71-.87.27-.48,1.32,0,2.12.26.44.51.53.69.53a.43.43,0,0,0,.22-.06A5.09,5.09,0,0,1-274,214c.05,2-2.14,2.34-4.79,3.3a2.85,2.85,0,0,0-2.12,3.23"/></clipPath><clipPath id="clip-path-36"><path class="cls-1" d="M-281.26,230.23a1.46,1.46,0,0,0,1.46,1.46h29.14a1.46,1.46,0,0,0,1.46-1.46,1.45,1.45,0,0,0-1.46-1.45H-279.8a1.45,1.45,0,0,0-1.46,1.45"/></clipPath><clipPath id="clip-path-37"><path class="cls-1" d="M-244.84,231.69a1.45,1.45,0,0,0,1.46-1.45,1.46,1.46,0,0,0-1.46-1.46h-.07a1.43,1.43,0,0,0-1.43,1.43v0a1.49,1.49,0,0,0,1.5,1.45"/></clipPath><clipPath id="clip-path-38"><path class="cls-1" d="M-279.8,247.3h29.14a1.46,1.46,0,0,0,1.46-1.46,1.46,1.46,0,0,0-1.46-1.45H-279.8a1.45,1.45,0,0,0-1.46,1.45,1.46,1.46,0,0,0,1.46,1.46"/></clipPath><clipPath id="clip-path-39"><path class="cls-1" d="M-233.68,236.87H-279.8a1.46,1.46,0,0,0-1.46,1.46,1.45,1.45,0,0,0,1.46,1.45h46.12a1.46,1.46,0,0,0,1.47-1.45,1.47,1.47,0,0,0-1.47-1.46"/></clipPath><clipPath id="clip-path-40"><path class="cls-1" d="M-235,262.85h-9.93l-2-3.52a1.3,1.3,0,0,0-1.26-.65,1.33,1.33,0,0,0-1.12.87l-2.89,8.18-3.46-12.23a1.3,1.3,0,0,0-1.3-.95,1.31,1.31,0,0,0-1.25,1l-2.86,12.12-2.72-6.92a1.31,1.31,0,0,0-1.22-.83h0a1.32,1.32,0,0,0-1.22.87l-3.5,9.95h-10a1.31,1.31,0,0,0-1.31,1.31h0a1.31,1.31,0,0,0,1.31,1.31h10.95a1.3,1.3,0,0,0,1.24-.88L-265,265l3,7.55a1.33,1.33,0,0,0,1.23.83h.09a1.31,1.31,0,0,0,1.18-1l2.67-11.28,3.21,11.34a1.32,1.32,0,0,0,1.22.95,1.31,1.31,0,0,0,1.29-.87l3.31-9.4,1,1.71a1.3,1.3,0,0,0,1.13.66H-235a1.31,1.31,0,0,0,1.31-1.31h0a1.31,1.31,0,0,0-1.31-1.31h0"/></clipPath></defs><title>learning</title><g id="Group_4485" data-name="Group 4485"><path id="Path_4337" data-name="Path 4337" class="cls-4" d="M32,44.11c-2.72-6.22-19.86-3.1-17.79,5.34C17.15,61.48,34.28,49.35,32,44.11Z"/><path id="Path_4338" data-name="Path 4338" class="cls-4" d="M11.22,92.41c24.18,37,120.06,42.51,138.56-1.34C163.83,57.78,104.3-2,74.61,9.32S59.17,43.45,36.4,52.71C8.74,64,3.78,81,11.22,92.41Z"/><g id="Group_4484" data-name="Group 4484"><path id="Path_4339" data-name="Path 4339" class="cls-5" d="M68.91,84s.53,13.77-6.9,20.84H98C90.56,97.79,91.09,84,91.09,84"/><path id="Path_4340" data-name="Path 4340" class="cls-6" d="M98,107.1H62a2.25,2.25,0,0,1-1.55-3.87c6.61-6.27,6.21-19,6.21-19.15a2.24,2.24,0,0,1,2.15-2.33h0a2.3,2.3,0,0,1,2.33,2.15c0,.52.36,10.88-4.48,18.69H93.36c-4.84-7.81-4.5-18.18-4.48-18.69a2.31,2.31,0,0,1,2.33-2.15,2.26,2.26,0,0,1,2.15,2.33c0,.14-.41,12.88,6.2,19.15a2.23,2.23,0,0,1,.53,2.46A2.28,2.28,0,0,1,98,107.1Z"/><path id="Path_4341" data-name="Path 4341" class="cls-5" d="M126.29,87.38H33.71a6,6,0,0,1-5.94-5.94V24.23a6,6,0,0,1,5.94-5.93h92.58a6,6,0,0,1,5.94,5.93V81.44a6,6,0,0,1-5.93,5.94Z"/><path id="Path_4342" data-name="Path 4342" class="cls-6" d="M33.71,20.56a3.71,3.71,0,0,0-3.7,3.7v57.2a3.71,3.71,0,0,0,3.7,3.7h92.58a3.71,3.71,0,0,0,3.7-3.7V24.23a3.71,3.71,0,0,0-3.7-3.69H33.71Zm92.58,69.05H33.71a8.17,8.17,0,0,1-8.17-8.17V24.23a8.19,8.19,0,0,1,8.17-8.17h92.58a8.19,8.19,0,0,1,8.17,8.17V81.44A8.17,8.17,0,0,1,126.29,89.61Z"/><g id="Group_4413" data-name="Group 4413"><g class="cls-7"><g id="Group_4412" data-name="Group 4412"><g id="Group_4411" data-name="Group 4411"><g id="Group_4410" data-name="Group 4410"><g class="cls-8"><g id="Group_4409" data-name="Group 4409"><g id="Group_4408" data-name="Group 4408"><g class="cls-9"><g id="Group_4407" data-name="Group 4407"><g id="Group_4406" data-name="Group 4406"><g id="Group_4405" data-name="Group 4405"><g class="cls-8"><g id="Group_4404" data-name="Group 4404"><rect id="Rectangle_261" data-name="Rectangle 261" class="cls-10" x="65.23" y="22.22" width="63.45" height="52.95"/></g></g></g></g></g></g></g></g></g></g></g></g></g></g><g id="Group_4423" data-name="Group 4423"><g class="cls-11"><g id="Group_4422" data-name="Group 4422"><g id="Group_4421" data-name="Group 4421"><g id="Group_4420" data-name="Group 4420"><g class="cls-12"><g id="Group_4419" data-name="Group 4419"><g id="Group_4418" data-name="Group 4418"><g class="cls-13"><g id="Group_4417" data-name="Group 4417"><g id="Group_4416" data-name="Group 4416"><g id="Group_4415" data-name="Group 4415"><g class="cls-12"><g id="Group_4414" data-name="Group 4414"><rect id="Rectangle_265" data-name="Rectangle 265" class="cls-10" x="73.81" y="31.02" width="36.59" height="46.06"/></g></g></g></g></g></g></g></g></g></g></g></g></g></g><g id="Group_4433" data-name="Group 4433"><g class="cls-14"><g id="Group_4432" data-name="Group 4432"><g id="Group_4431" data-name="Group 4431"><g id="Group_4430" data-name="Group 4430"><g class="cls-15"><g id="Group_4429" data-name="Group 4429"><g id="Group_4428" data-name="Group 4428"><g class="cls-16"><g id="Group_4427" data-name="Group 4427"><g id="Group_4426" data-name="Group 4426"><g id="Group_4425" data-name="Group 4425"><g class="cls-15"><g id="Group_4424" data-name="Group 4424"><rect id="Rectangle_269" data-name="Rectangle 269" class="cls-10" x="31.34" y="32.56" width="49.1" height="25.44"/></g></g></g></g></g></g></g></g></g></g></g></g></g></g><g id="Group_4443" data-name="Group 4443"><g class="cls-17"><g id="Group_4442" data-name="Group 4442"><g id="Group_4441" data-name="Group 4441"><g id="Group_4440" data-name="Group 4440"><g class="cls-18"><g id="Group_4439" data-name="Group 4439"><g id="Group_4438" data-name="Group 4438"><g class="cls-19"><g id="Group_4437" data-name="Group 4437"><g id="Group_4436" data-name="Group 4436"><g id="Group_4435" data-name="Group 4435"><g class="cls-18"><g id="Group_4434" data-name="Group 4434"><rect id="Rectangle_273" data-name="Rectangle 273" class="cls-10" x="31.34" y="45.8" width="41.24" height="25.44"/></g></g></g></g></g></g></g></g></g></g></g></g></g></g><g id="Group_4453" data-name="Group 4453"><g class="cls-20"><g id="Group_4452" data-name="Group 4452"><g id="Group_4451" data-name="Group 4451"><g id="Group_4450" data-name="Group 4450"><g class="cls-21"><g id="Group_4449" data-name="Group 4449"><g id="Group_4448" data-name="Group 4448"><g class="cls-22"><g id="Group_4447" data-name="Group 4447"><g id="Group_4446" data-name="Group 4446"><g id="Group_4445" data-name="Group 4445"><g class="cls-21"><g id="Group_4444" data-name="Group 4444"><rect id="Rectangle_277" data-name="Rectangle 277" class="cls-10" x="31.34" y="38.72" width="54.36" height="25.44"/></g></g></g></g></g></g></g></g></g></g></g></g></g></g><g id="Group_4463" data-name="Group 4463"><g class="cls-23"><g id="Group_4462" data-name="Group 4462"><g id="Group_4461" data-name="Group 4461"><g id="Group_4460" data-name="Group 4460"><g class="cls-24"><g id="Group_4459" data-name="Group 4459"><g id="Group_4458" data-name="Group 4458"><g class="cls-25"><g id="Group_4457" data-name="Group 4457"><g id="Group_4456" data-name="Group 4456"><g id="Group_4455" data-name="Group 4455"><g class="cls-24"><g id="Group_4454" data-name="Group 4454"><rect id="Rectangle_281" data-name="Rectangle 281" class="cls-10" x="31.49" y="23.38" width="26.64" height="26.64"/></g></g></g></g></g></g></g></g></g></g></g></g></g></g><g id="Group_4473" data-name="Group 4473"><g class="cls-26"><g id="Group_4472" data-name="Group 4472"><g id="Group_4471" data-name="Group 4471"><g id="Group_4470" data-name="Group 4470"><g class="cls-27"><g id="Group_4469" data-name="Group 4469"><g id="Group_4468" data-name="Group 4468"><g class="cls-28"><g id="Group_4467" data-name="Group 4467"><g id="Group_4466" data-name="Group 4466"><g id="Group_4465" data-name="Group 4465"><g class="cls-27"><g id="Group_4464" data-name="Group 4464"><rect id="Rectangle_285" data-name="Rectangle 285" class="cls-10" x="38.21" y="23.38" width="26.64" height="26.64"/></g></g></g></g></g></g></g></g></g></g></g></g></g></g><g id="Group_4483" data-name="Group 4483"><g class="cls-29"><g id="Group_4482" data-name="Group 4482"><g id="Group_4481" data-name="Group 4481"><g id="Group_4480" data-name="Group 4480"><g class="cls-30"><g id="Group_4479" data-name="Group 4479"><g id="Group_4478" data-name="Group 4478"><g class="cls-31"><g id="Group_4477" data-name="Group 4477"><g id="Group_4476" data-name="Group 4476"><g id="Group_4475" data-name="Group 4475"><g class="cls-30"><g id="Group_4474" data-name="Group 4474"><rect id="Rectangle_289" data-name="Rectangle 289" class="cls-10" x="44.95" y="23.29" width="26.64" height="26.64"/></g></g></g></g></g></g></g></g></g></g></g></g></g></g><path id="Path_4351" data-name="Path 4351" class="cls-6" d="M130.64,75.28H29.36a1.11,1.11,0,0,1-1.12-1.09v0a1.11,1.11,0,0,1,1.1-1.12h101.3a1.11,1.11,0,0,1,1.12,1.09v0A1.13,1.13,0,0,1,130.64,75.28Z"/></g></g></svg>