<svg id="Layer_1" data-name="Layer 1" xmlns="http://www.w3.org/2000/svg" width="56.44mm" height="45.86mm" viewBox="0 0 160 130"><defs><style>.cls-1{fill:#5ac7da;}.cls-2,.cls-4{fill:#fff;}.cls-3{fill:#4e4b6f;}.cls-4{fill-rule:evenodd;}.cls-5{fill:#4e4b6e;stroke-miterlimit:10;stroke-width:1.16px;}.cls-5,.cls-6{stroke:#4e4b6e;}.cls-6{fill:none;stroke-linecap:round;stroke-linejoin:round;stroke-width:3.47px;}</style></defs><title>proen0</title><g id="Group_723" data-name="Group 723"><path id="Path_1013" data-name="Path 1013" class="cls-1" d="M10.21,97.58C35.08,133.83,132.5,133.27,151,87.28,165,52.36,104-4.85,74,8.61S58.5,44.47,35.45,55.39C7.45,68.67,2.56,86.43,10.21,97.58Z"/></g><g id="Group_4488" data-name="Group 4488"><path id="Rectangle_293" data-name="Rectangle 293" class="cls-2" d="M46.71,17.3h66.58a3.08,3.08,0,0,1,3.07,3.08V114.6a3.06,3.06,0,0,1-3,3.07H46.72a3.06,3.06,0,0,1-3.08-3.06h0V20.38A3.08,3.08,0,0,1,46.71,17.3Z"/><path id="Path_4361" data-name="Path 4361" class="cls-3" d="M46.72,19.41a1,1,0,0,0-1,1V114.6a1,1,0,0,0,1,1h66.57a1,1,0,0,0,1-1V20.38a1,1,0,0,0-1-1Zm66.57,100.37H46.72a5.16,5.16,0,0,1-5.18-5.16h0V20.38A5.16,5.16,0,0,1,46.7,15.2h66.59a5.16,5.16,0,0,1,5.17,5.17h0V114.6a5.16,5.16,0,0,1-5.16,5.18Z"/><path id="Path_4362" data-name="Path 4362" class="cls-4" d="M85,12.15a5.08,5.08,0,0,0-10.06,0H63.44v9.22H96.57V12.15Z"/><path id="Path_4363" data-name="Path 4363" class="cls-3" d="M65,19.83H95V13.66H85a1.52,1.52,0,0,1-1.52-1.3,3.54,3.54,0,0,0-7,0A1.51,1.51,0,0,1,75,13.66H65Zm31.61,3.05H63.45a1.52,1.52,0,0,1-1.52-1.5h0V12.15a1.52,1.52,0,0,1,1.5-1.52H73.8a6.59,6.59,0,0,1,12.42,0H96.57a1.52,1.52,0,0,1,1.52,1.5h0v9.24a1.52,1.52,0,0,1-1.51,1.51h0Z"/><path id="Path_4364" data-name="Path 4364" class="cls-3" d="M80,11.07a1.84,1.84,0,1,1-1.82,1.86,1.87,1.87,0,0,1,.54-1.32A1.76,1.76,0,0,1,80,11.07Z"/></g><path id="Path_1014" data-name="Path 1014" class="cls-1" d="M139.19,26.63c3.85-4-3.88-16.12-9.69-11.9C121.26,20.76,135.9,30,139.19,26.63Z"/><g id="AUyLiE"><path class="cls-5" d="M60.7,46.17c.44-.88.85-1.71,1.29-2.53A35.6,35.6,0,0,1,65.63,38a1.65,1.65,0,0,1,1.79-.51c.39.14.48.39.24.73s-.35.46-.53.69a41.37,41.37,0,0,0-4.6,8c-.19.44-.38.87-.58,1.31a1.39,1.39,0,0,1-2.3.25L57.09,45c-.32-.44-.29-.75.18-1a3.5,3.5,0,0,1,1-.33.85.85,0,0,1,.88.44C59.66,44.79,60.17,45.46,60.7,46.17Z"/></g><line class="cls-6" x1="70.62" y1="44.05" x2="97.27" y2="44.05"/><line class="cls-6" x1="102.34" y1="44.05" x2="102.33" y2="44.05"/><g id="AUyLiE-2" data-name="AUyLiE"><path class="cls-5" d="M60.7,71.69c.44-.88.85-1.72,1.29-2.53a35.24,35.24,0,0,1,3.64-5.64,1.63,1.63,0,0,1,1.79-.5c.39.14.48.38.24.72s-.35.46-.53.69a41.15,41.15,0,0,0-4.6,8c-.19.43-.38.87-.58,1.3a1.39,1.39,0,0,1-2.3.25l-2.56-3.48c-.32-.44-.29-.75.18-1a3.5,3.5,0,0,1,1-.33.85.85,0,0,1,.88.44C59.66,70.31,60.17,71,60.7,71.69Z"/></g><line class="cls-6" x1="70.62" y1="69.56" x2="97.27" y2="69.56"/><line class="cls-6" x1="102.34" y1="69.56" x2="102.33" y2="69.56"/><g id="AUyLiE-3" data-name="AUyLiE"><path class="cls-5" d="M60.7,97.2c.44-.88.85-1.71,1.29-2.53A35.24,35.24,0,0,1,65.63,89a1.63,1.63,0,0,1,1.79-.5c.39.14.48.38.24.72s-.35.46-.53.69a41.15,41.15,0,0,0-4.6,8c-.19.43-.38.87-.58,1.3a1.39,1.39,0,0,1-2.3.25L57.09,96c-.32-.44-.29-.75.18-1a3.5,3.5,0,0,1,1-.33.85.85,0,0,1,.88.44C59.66,95.82,60.17,96.48,60.7,97.2Z"/></g><line class="cls-6" x1="70.62" y1="95.07" x2="97.27" y2="95.07"/><line class="cls-6" x1="102.34" y1="95.07" x2="102.33" y2="95.07"/></svg>