<svg id="Layer_1" data-name="Layer 1" xmlns="http://www.w3.org/2000/svg" xmlns:xlink="http://www.w3.org/1999/xlink" viewBox="0 0 137 120"><defs><style>.cls-1{fill:none;clip-rule:evenodd;}.cls-2{fill:#d3f0f5;}.cls-3{fill:#bea9d2;}.cls-4{fill:#fff;}.cls-5{fill:#4e4b6e;}.cls-6{clip-path:url(#clip-path);}.cls-7{clip-path:url(#clip-path-2);}</style><clipPath id="clip-path"><path class="cls-1" d="M152.65,262.47a.92.92,0,0,0,.92.91h14.5a.92.92,0,1,0,0-1.83h-14.5a.92.92,0,0,0-.92.92"/></clipPath><clipPath id="clip-path-2"><path class="cls-1" d="M171.41,263.38a.92.92,0,0,0,0-1.83h0a.91.91,0,0,0-.9.92.94.94,0,0,0,.95.91"/></clipPath></defs><g id="Group_723" data-name="Group 723"><path id="Path_1013" data-name="Path 1013" class="cls-2" d="M12.47,86.75c20.42,29.76,100.4,29.3,115.57-8.46C139.53,49.62,89.49,2.65,64.82,13.7S52.12,43.14,33.19,52.11C10.2,63,6.19,77.59,12.47,86.75Z"/><path id="Path_1014" data-name="Path 1014" class="cls-2" d="M18.85,51.64c-2.54-3.79-13.61.27-11.25,5.68C11,65,21,54.88,18.85,51.64Z"/></g><path class="cls-3" d="M78.32,58.91l-.12.39-6,24.06L80.5,70.15,77.86,67.1a1.56,1.56,0,0,1-.33-1.39,1.58,1.58,0,0,1,.94-1.07l3.26-1.25-.44-7.8L79.53,54Z"/><path class="cls-4" d="M56.76,42.42a1.57,1.57,0,0,1,1.18-.17,1.6,1.6,0,0,1,1.1.81,19.31,19.31,0,0,1,1.57,8.36,1.58,1.58,0,0,1,0,.38v.77L62,58.77a7,7,0,0,0,13.19-.31l1.51-6.08a1.57,1.57,0,0,1-.3-.93c0-.42,0-.82,0-1.21v0h0A18.49,18.49,0,0,1,78,43.09a1.63,1.63,0,0,1,1.09-.81,1.59,1.59,0,0,1,1.19.17,2.56,2.56,0,0,0,1-1.06c1.36-2.24,1.73-3.89,1.48-4.53,0-.08-.1-.27-.56-.41A1.63,1.63,0,0,1,81,34.55c.45-2.44,1.52-10.77-3.39-14.83a13.63,13.63,0,0,0-8.15-3H67.56a13.57,13.57,0,0,0-8.15,3C54.52,23.79,55.58,32.1,56,34.55a1.63,1.63,0,0,1-1.13,1.87c-.46.14-.52.32-.57.41-.23.63.13,2.28,1.49,4.53A2.62,2.62,0,0,0,56.76,42.42Z"/><path class="cls-3" d="M107.05,87.07l-1.94-16a9.2,9.2,0,0,0-5.78-7.48L87.45,58.93l.89,1.51a15.66,15.66,0,0,1,2.14,7.9v9a6.45,6.45,0,1,1-3.08,0v-9A12.63,12.63,0,0,0,85.67,62l-1-1.74.24,4.07a1.54,1.54,0,0,1-1,1.54l-2.26.87,2,2.26a1.52,1.52,0,0,1,.14,1.82L70.09,92.64a2.1,2.1,0,0,1-.63.63,2,2,0,0,1-2.73-.63L53.11,70.85A1.55,1.55,0,0,1,53.25,69l2-2.26-2.27-.87a1.53,1.53,0,0,1-1-1.52l.28-4.8a13.15,13.15,0,0,0-3.8,8.73,6.48,6.48,0,0,1,5.22,5.8l2,10.59a5.56,5.56,0,0,1,.09.82,5.1,5.1,0,0,1-5,5.22v.68a.47.47,0,0,1-.47.47h-1.7a.46.46,0,0,1-.46-.47V87.16a.47.47,0,0,1,.46-.46h1.71a.47.47,0,0,1,.46.46v.48l.28,0a2,2,0,0,0,1.58-2.34l-2-10.77a3.39,3.39,0,0,0-3.31-3.26,3.35,3.35,0,0,0-3.32,3.1l-2,11a2,2,0,0,0,.44,1.63,2,2,0,0,0,1.54.73v-.5a.47.47,0,0,1,.47-.46h1.57a.47.47,0,0,1,.46.46v4.29h0a.45.45,0,0,1-.47.45H44.33a.46.46,0,0,1-.46-.46v-.66a5.33,5.33,0,0,1-1-.09,5.11,5.11,0,0,1-4-6l2-10.79a6.29,6.29,0,0,1,4.48-5.44,15.16,15.16,0,0,1,3-9.05l-10.6,4.19a9.22,9.22,0,0,0-5.77,7.49l-2,16.46c2.17,1.89,13.43,10.55,38.52,10.55S104.92,89,107.05,87.07Z"/><path class="cls-3" d="M85.6,83.6A3.36,3.36,0,1,0,89,80.24h0A3.37,3.37,0,0,0,85.6,83.6Z"/><path class="cls-3" d="M55.12,63.39l3.26,1.25a1.56,1.56,0,0,1,.94,1.06A1.58,1.58,0,0,1,59,67.1l-2.64,3,8.42,13.48L59.11,59.85v-.09L59,59.3H59l-1.32-5.6-2.15,1.89Z"/><path class="cls-4" d="M63.5,65l5,20.85L73.55,65a9.8,9.8,0,0,1-4.89,1.37A10.3,10.3,0,0,1,63.5,65Z"/><path class="cls-5" d="M110.17,87.16l-2-16.43a12.28,12.28,0,0,0-7.71-10L84.22,54.34a1.47,1.47,0,0,0-.41-.63L79.73,50.1a19.54,19.54,0,0,1,.77-4.36c1-.08,2.25-.57,3.53-2.67s2.62-5.1,1.75-7.4a3.72,3.72,0,0,0-1.34-1.74c.59-4.23.79-12.17-4.73-16.73a16.82,16.82,0,0,0-9.78-3.77,1.37,1.37,0,0,0-.45-.07h-1.9a1.34,1.34,0,0,0-.48.15,16.9,16.9,0,0,0-9.78,3.75C51.77,21.84,52,29.78,52.59,34a3.69,3.69,0,0,0-1.34,1.73c-.87,2.3.52,5.41,1.75,7.41s2.55,2.57,3.53,2.65A18.85,18.85,0,0,1,57.29,50L53,53.71a1.52,1.52,0,0,0-.44.7l-16,6.35a12.28,12.28,0,0,0-7.71,10L26.77,87.85a1.63,1.63,0,0,0,.37,1.61c.47.52,11.71,11.93,41.29,11.93s40.94-11.91,41.45-12.45A1.67,1.67,0,0,0,110.17,87.16Zm-78.26-16a9.22,9.22,0,0,1,5.77-7.49l10.6-4.19a15.16,15.16,0,0,0-3,9.05,6.29,6.29,0,0,0-4.48,5.44l-2,10.79a5.11,5.11,0,0,0,4,6,5.33,5.33,0,0,0,1,.09v.66a.46.46,0,0,0,.46.46H45.9a.45.45,0,0,0,.47-.45h0V87.16a.47.47,0,0,0-.46-.46H44.34a.47.47,0,0,0-.47.46v.5a2,2,0,0,1-1.54-.73,2,2,0,0,1-.44-1.63l2-11a3.35,3.35,0,0,1,3.32-3.1,3.39,3.39,0,0,1,3.31,3.26l2,10.77A2,2,0,0,1,51,87.6l-.28,0v-.48a.47.47,0,0,0-.46-.46H48.56a.47.47,0,0,0-.46.46v4.25a.46.46,0,0,0,.46.47h1.7a.47.47,0,0,0,.47-.47v-.68a5.1,5.1,0,0,0,5-5.22,5.56,5.56,0,0,0-.09-.82l-2-10.59a6.48,6.48,0,0,0-5.22-5.8,13.15,13.15,0,0,1,3.8-8.73l-.28,4.8a1.53,1.53,0,0,0,1,1.52l2.27.87-2,2.26a1.55,1.55,0,0,0-.14,1.83L66.73,92.64a2,2,0,0,0,2.73.63,2.1,2.1,0,0,0,.63-.63L83.72,70.82A1.52,1.52,0,0,0,83.58,69l-2-2.26,2.26-.87a1.54,1.54,0,0,0,1-1.54l-.24-4.07,1,1.74a12.63,12.63,0,0,1,1.73,6.34v9a6.45,6.45,0,1,0,3.08,0v-9a15.66,15.66,0,0,0-2.14-7.9l-.89-1.51,11.88,4.69a9.2,9.2,0,0,1,5.78,7.48l1.94,16c-2.13,2-13.47,11.05-38.62,11.05S32.08,89.46,29.91,87.57ZM54.32,36.83c0-.09.11-.27.57-.41A1.63,1.63,0,0,0,56,34.55c-.44-2.45-1.5-10.76,3.39-14.83a13.57,13.57,0,0,1,8.15-3h1.91a13.63,13.63,0,0,1,8.15,3c4.91,4.06,3.84,12.39,3.39,14.83a1.63,1.63,0,0,0,1.14,1.9c.46.14.56.33.56.41.25.64-.12,2.29-1.48,4.53a2.56,2.56,0,0,1-1,1.06,1.59,1.59,0,0,0-1.19-.17,1.63,1.63,0,0,0-1.09.81,18.49,18.49,0,0,0-1.54,7.11h0v0c0,.39,0,.79,0,1.21a1.57,1.57,0,0,0,.3.93l-1.51,6.08A7,7,0,0,1,62,58.77l-1.47-6.2V51.8a1.58,1.58,0,0,0,0-.38A19.31,19.31,0,0,0,59,43.06a1.6,1.6,0,0,0-1.1-.81,1.57,1.57,0,0,0-1.18.17,2.62,2.62,0,0,1-.95-1.06C54.45,39.11,54.09,37.46,54.32,36.83ZM81.73,63.39l-3.26,1.25a1.58,1.58,0,0,0-.94,1.07,1.56,1.56,0,0,0,.33,1.39l2.64,3.05L72.25,83.36l6-24.06.12-.39L79.53,54l1.76,1.57ZM68.48,85.83,63.5,65a10.3,10.3,0,0,0,5.16,1.43A9.8,9.8,0,0,0,73.55,65ZM59,59.3H59l.15.46v.09l5.66,23.77L56.35,70.14l2.64-3a1.58,1.58,0,0,0,.33-1.4,1.56,1.56,0,0,0-.94-1.06l-3.26-1.25.44-7.8,2.15-1.89ZM89,80.24h0A3.36,3.36,0,1,1,85.6,83.6,3.35,3.35,0,0,1,89,80.24Z"/></svg>