<svg id="Layer_1" data-name="Layer 1" xmlns="http://www.w3.org/2000/svg" xmlns:xlink="http://www.w3.org/1999/xlink" viewBox="0 0 137 120"><defs><style>.cls-1{fill:none;clip-rule:evenodd;}.cls-2{fill:#d3f0f5;}.cls-3{fill:#4e4b6e;}.cls-4{fill:#78b1e0;}.cls-5{fill:#fff;}.cls-6{clip-path:url(#clip-path);}.cls-7{clip-path:url(#clip-path-2);}</style><clipPath id="clip-path"><path class="cls-1" d="M304.73,262.47a.92.92,0,0,0,.92.91h14.5a.92.92,0,1,0,0-1.83h-14.5a.92.92,0,0,0-.92.92"/></clipPath><clipPath id="clip-path-2"><path class="cls-1" d="M323.49,263.38a.92.92,0,1,0,0-1.83h0a.9.9,0,0,0-.9.92.93.93,0,0,0,.94.91"/></clipPath></defs><g id="Group_723" data-name="Group 723"><path id="Path_1013" data-name="Path 1013" class="cls-2" d="M12.47,86.75c20.42,29.76,100.4,29.3,115.57-8.46C139.53,49.62,89.49,2.65,64.82,13.7S52.12,43.14,33.19,52.11C10.2,63,6.19,77.59,12.47,86.75Z"/><path id="Path_1014" data-name="Path 1014" class="cls-2" d="M18.85,51.64c-2.54-3.79-13.61.27-11.25,5.68C11,65,21,54.88,18.85,51.64Z"/></g><ellipse class="cls-3" cx="68.5" cy="103.39" rx="14.83" ry="2.18"/><path class="cls-4" d="M97.72,45.37a29.22,29.22,0,0,0-58.44,0C39.28,69,63,90.3,68.5,95,74,90.3,97.72,69,97.72,45.37Zm-49.57-.21A20.31,20.31,0,0,1,77.33,26.85a6.7,6.7,0,0,1,9.86,5.91,6.62,6.62,0,0,1-.69,2.94,20.14,20.14,0,0,1,2.35,9.46,20.35,20.35,0,1,1-40.7,0Z"/><path class="cls-3" d="M68.5,12.43A33,33,0,0,0,35.56,45.37c0,11.81,5.52,24.82,16,37.6A109,109,0,0,0,67.36,98.82a1.86,1.86,0,0,0,2.28,0A109,109,0,0,0,85.48,83c10.44-12.78,16-25.79,16-37.6A33,33,0,0,0,68.5,12.43ZM39.28,45.37a29.22,29.22,0,0,1,58.44,0C97.72,69,74,90.3,68.5,95,63,90.3,39.28,69,39.28,45.37Z"/><path class="cls-5" d="M57.92,52.86c3.66-1.35,6.69-1.79,6.62-4.58a7.08,7.08,0,0,0-.55-3,.65.65,0,0,1-.31.08c-.24,0-.58-.14-1-.74-.67-1.1-1.2-2.56,0-2.93-.25-1.4-.56-4.77,1.57-6.54A6.16,6.16,0,0,1,68,33.74h.76a6.14,6.14,0,0,1,3.62,1.35c2.13,1.77,1.83,5.13,1.58,6.54,1.19.41.66,1.83,0,2.93-.37.6-.72.74-1,.74a.56.56,0,0,1-.31-.09,7,7,0,0,0-.57,3c-.09,2.79,3,3.23,6.64,4.58,1.64.6,2.63,2.51,3.23,4.44a18,18,0,0,0,3-19.58,6.69,6.69,0,0,1-9.59-9.29A18.13,18.13,0,0,0,54.16,56.26,6.1,6.1,0,0,1,57.92,52.86Z"/><path class="cls-3" d="M88.85,45.16A20.14,20.14,0,0,0,86.5,35.7a6.62,6.62,0,0,0,.69-2.94,6.7,6.7,0,0,0-9.86-5.91A20.34,20.34,0,1,0,88.85,45.16Zm-38.5,0A18.14,18.14,0,0,1,75.43,28.39a6.62,6.62,0,0,0-1.63,4.37A6.69,6.69,0,0,0,85,37.68a18,18,0,0,1-3,19.58c-.6-1.93-1.59-3.84-3.23-4.44C75.1,51.47,72,51,72.13,48.24a7,7,0,0,1,.57-3,.56.56,0,0,0,.31.09c.24,0,.59-.14,1-.74.66-1.1,1.19-2.52,0-2.93.25-1.41.55-4.77-1.58-6.54a6.14,6.14,0,0,0-3.62-1.35H68a6.16,6.16,0,0,0-3.71,1.39c-2.13,1.77-1.82,5.14-1.57,6.54-1.2.37-.67,1.83,0,2.93.37.6.71.74,1,.74a.65.65,0,0,0,.31-.08,7.08,7.08,0,0,1,.55,3c.07,2.79-3,3.23-6.62,4.58a6.1,6.1,0,0,0-3.76,3.4A18.06,18.06,0,0,1,50.35,45.16Zm34.7-12.4A4.56,4.56,0,1,1,80.5,28.2,4.55,4.55,0,0,1,85.05,32.76Z"/><path class="cls-5" d="M75.94,32.76A4.56,4.56,0,1,0,80.5,28.2,4.56,4.56,0,0,0,75.94,32.76Zm6.74.87H81.34V35a.84.84,0,0,1-.83.84h0a.84.84,0,0,1-.83-.84V33.63H78.31a.83.83,0,0,1-.83-.83v0a.83.83,0,0,1,.83-.83h1.35V30.6a.83.83,0,0,1,.83-.83h0a.83.83,0,0,1,.83.83v1.34h1.34a.83.83,0,0,1,.83.83v0A.83.83,0,0,1,82.68,33.63Z"/><path class="cls-3" d="M83.51,32.77a.83.83,0,0,0-.83-.83H81.34V30.6a.83.83,0,0,0-.83-.83h0a.83.83,0,0,0-.83.83v1.34H78.31a.83.83,0,0,0-.83.83v0a.83.83,0,0,0,.83.83h1.35V35a.84.84,0,0,0,.83.84h0a.84.84,0,0,0,.83-.84V33.63h1.34a.83.83,0,0,0,.83-.83Z"/></svg>