<svg id="Layer_1" data-name="Layer 1" xmlns="http://www.w3.org/2000/svg" xmlns:xlink="http://www.w3.org/1999/xlink" width="160" height="130" viewBox="0 0 160 130"><defs><style>.cls-1{fill:none;}.cls-2{fill:#5ac7da;}.cls-3,.cls-5{fill:#fff;}.cls-4{fill:#4e4b6f;}.cls-5{fill-rule:evenodd;}.cls-6{clip-path:url(#clip-path);}.cls-7{clip-path:url(#clip-path-2);}.cls-8{fill:#4f476a;}.cls-9{clip-path:url(#clip-path-3);}.cls-10{clip-path:url(#clip-path-5);}.cls-11{clip-path:url(#clip-path-7);}.cls-12{clip-path:url(#clip-path-9);}.cls-13{clip-path:url(#clip-path-11);}.cls-14{clip-path:url(#clip-path-13);}.cls-15{clip-path:url(#clip-path-14);}.cls-16{clip-path:url(#clip-path-15);}</style><clipPath id="clip-path"><path class="cls-1" d="M56.28,48.39s1.4,2,9.53,2,9.77-2,9.77-2a2.85,2.85,0,0,0-2.12-3.23c-2.65-1-4.84-1.29-4.79-3.3a5.09,5.09,0,0,1,.4-2.18.46.46,0,0,0,.23.06c.17,0,.42-.1.68-.53.49-.8.87-1.85,0-2.12.19-1,.4-3.44-1.13-4.71a4.47,4.47,0,0,0-2.62-1h-.6a4.47,4.47,0,0,0-2.62,1c-1.53,1.27-1.32,3.7-1.14,4.71-.86.27-.48,1.32,0,2.12.27.44.52.53.69.53a.46.46,0,0,0,.23-.06,5.09,5.09,0,0,1,.4,2.18c.05,2-2.15,2.34-4.79,3.3a2.85,2.85,0,0,0-2.12,3.23"/></clipPath><clipPath id="clip-path-2"><rect class="cls-1" x="-239.23" y="-196.6" width="1132.43" height="1132.43"/></clipPath><clipPath id="clip-path-3"><path class="cls-1" d="M55.93,58.05a1.46,1.46,0,0,0,1.47,1.46H86.54a1.46,1.46,0,1,0,0-2.91H57.4a1.46,1.46,0,0,0-1.47,1.45"/></clipPath><clipPath id="clip-path-5"><path class="cls-1" d="M92.36,59.51a1.46,1.46,0,1,0,0-2.91h-.07A1.43,1.43,0,0,0,90.86,58v0a1.49,1.49,0,0,0,1.49,1.45"/></clipPath><clipPath id="clip-path-7"><path class="cls-1" d="M57.4,75.12H86.54a1.46,1.46,0,1,0,0-2.91H57.4a1.46,1.46,0,1,0,0,2.91"/></clipPath><clipPath id="clip-path-9"><path class="cls-1" d="M103.52,64.69H57.39a1.46,1.46,0,1,0,0,2.91h46.13a1.46,1.46,0,1,0,0-2.91"/></clipPath><clipPath id="clip-path-11"><path class="cls-1" d="M102.21,90.67H92.28l-2-3.52A1.28,1.28,0,0,0,89,86.5a1.31,1.31,0,0,0-1.12.87L85,95.55,81.5,83.32a1.27,1.27,0,0,0-1.29-.95,1.31,1.31,0,0,0-1.25,1L76.1,95.5l-2.72-6.92a1.31,1.31,0,0,0-1.22-.83h0a1.32,1.32,0,0,0-1.21.87l-3.5,9.95h-10a1.31,1.31,0,0,0-1.31,1.31h0a1.31,1.31,0,0,0,1.31,1.31H68.35a1.31,1.31,0,0,0,1.24-.88l2.63-7.5,3,7.55a1.31,1.31,0,0,0,1.22.83h.1a1.31,1.31,0,0,0,1.18-1L80.35,88.9l3.22,11.34a1.31,1.31,0,0,0,2.5.08l3.32-9.4,1,1.71a1.29,1.29,0,0,0,1.14.65h10.7a1.3,1.3,0,0,0,1.31-1.3h0a1.31,1.31,0,0,0-1.31-1.31h0"/></clipPath><clipPath id="clip-path-13"><path class="cls-1" d="M-320.24-244.38h-9.94l-2-3.53a1.31,1.31,0,0,0-1.26-.65,1.31,1.31,0,0,0-1.11.87l-2.89,8.18-3.47-12.23a1.29,1.29,0,0,0-1.29-.95,1.32,1.32,0,0,0-1.25,1l-2.86,12.12-2.72-6.92a1.33,1.33,0,0,0-1.23-.83h0a1.33,1.33,0,0,0-1.22.88l-3.49,10h-10a1.31,1.31,0,0,0-1.32,1.3h0a1.31,1.31,0,0,0,1.32,1.31h10.95a1.32,1.32,0,0,0,1.24-.88l2.63-7.49,3,7.54a1.31,1.31,0,0,0,1.22.83h.09a1.32,1.32,0,0,0,1.19-1l2.66-11.28,3.21,11.34a1.31,1.31,0,0,0,1.23.95,1.29,1.29,0,0,0,1.28-.87l3.32-9.39,1,1.7a1.32,1.32,0,0,0,1.14.66h10.7a1.31,1.31,0,0,0,1.31-1.31h0a1.31,1.31,0,0,0-1.31-1.31h0"/></clipPath><clipPath id="clip-path-14"><path class="cls-1" d="M-320.7,19.17s2.12,3,14.42,3,14.78-3,14.78-3a4.29,4.29,0,0,0-3.21-4.89c-4-1.46-7.32-1.95-7.24-5a7.77,7.77,0,0,1,.6-3.3.7.7,0,0,0,.34.1c.26,0,.65-.15,1.05-.81.73-1.2,1.3-2.8,0-3.21.27-1.53.6-5.2-1.73-7.13a6.77,6.77,0,0,0-3.95-1.48l-.05,0h-.82l-.05,0a6.82,6.82,0,0,0-4,1.48c-2.32,1.93-2,5.6-1.72,7.13-1.3.41-.73,2,0,3.21.4.66.78.81,1,.81a.67.67,0,0,0,.34-.1,7.63,7.63,0,0,1,.61,3.3c.07,3.05-3.25,3.54-7.24,5a4.29,4.29,0,0,0-3.21,4.89"/></clipPath><clipPath id="clip-path-15"><path class="cls-1" d="M-252.6-84h-9.93l-2.05-3.53a1.3,1.3,0,0,0-1.25-.65,1.33,1.33,0,0,0-1.12.87l-2.89,8.19-3.47-12.23a1.28,1.28,0,0,0-1.29-1,1.32,1.32,0,0,0-1.25,1l-2.86,12.12-2.72-6.92a1.33,1.33,0,0,0-1.23-.83h0a1.3,1.3,0,0,0-1.21.88l-3.5,10h-10a1.31,1.31,0,0,0-1.32,1.3h0a1.32,1.32,0,0,0,1.32,1.31h11a1.31,1.31,0,0,0,1.24-.88l2.63-7.49,3,7.54a1.31,1.31,0,0,0,1.22.83h.09a1.31,1.31,0,0,0,1.19-1l2.66-11.28,3.22,11.33a1.29,1.29,0,0,0,1.22,1,1.29,1.29,0,0,0,1.28-.87l3.32-9.39,1,1.71a1.33,1.33,0,0,0,1.14.65h10.7a1.31,1.31,0,0,0,1.31-1.31h0a1.31,1.31,0,0,0-1.31-1.3h0"/></clipPath></defs><title>Useful</title><g id="Group_723" data-name="Group 723"><path id="Path_1013" data-name="Path 1013" class="cls-2" d="M10.21,97.58C35.08,133.83,132.5,133.27,151,87.28,165,52.36,104-4.85,74,8.61S58.5,44.47,35.45,55.39C7.45,68.67,2.56,86.43,10.21,97.58Z"/></g><g id="Group_4488" data-name="Group 4488"><path id="Rectangle_293" data-name="Rectangle 293" class="cls-3" d="M46.71,17.3h66.58a3.08,3.08,0,0,1,3.07,3.08V114.6a3.06,3.06,0,0,1-3.07,3.07H46.72a3.07,3.07,0,0,1-3.08-3.07V20.38A3.08,3.08,0,0,1,46.71,17.3Z"/><path id="Path_4361" data-name="Path 4361" class="cls-4" d="M46.72,19.41a1,1,0,0,0-1,1V114.6a1,1,0,0,0,1,1h66.57a1,1,0,0,0,1-1V20.38a1,1,0,0,0-1-1Zm66.57,100.37H46.72a5.17,5.17,0,0,1-5.18-5.17h0V20.38a5.17,5.17,0,0,1,5.17-5.18h66.58a5.17,5.17,0,0,1,5.17,5.17h0V114.6a5.17,5.17,0,0,1-5.17,5.18Z"/><path id="Path_4362" data-name="Path 4362" class="cls-5" d="M85,12.15a5.08,5.08,0,0,0-10.06,0H63.44v9.22H96.57V12.15Z"/><path id="Path_4363" data-name="Path 4363" class="cls-4" d="M65,19.83H95V13.66H85a1.52,1.52,0,0,1-1.52-1.3,3.54,3.54,0,0,0-7,0A1.52,1.52,0,0,1,75,13.66h-10v6.17Zm31.61,3.05H63.45a1.51,1.51,0,0,1-1.52-1.5h0V12.15a1.51,1.51,0,0,1,1.51-1.52H73.8a6.59,6.59,0,0,1,12.42,0H96.57a1.51,1.51,0,0,1,1.52,1.5v9.24a1.51,1.51,0,0,1-1.51,1.51Z"/><path id="Path_4364" data-name="Path 4364" class="cls-4" d="M80,11.07a1.84,1.84,0,1,1-1.28.54A1.76,1.76,0,0,1,80,11.07Z"/></g><g id="Group_4513" data-name="Group 4513"><g id="Group_4492" data-name="Group 4492"><g class="cls-6"><g id="Group_4491" data-name="Group 4491"><g id="Group_4490" data-name="Group 4490"><g class="cls-7"><g id="Group_4489" data-name="Group 4489"><rect id="Rectangle_294" data-name="Rectangle 294" class="cls-8" x="50.71" y="25.85" width="30.44" height="30.03"/></g></g></g></g></g></g><g id="Group_4496" data-name="Group 4496"><g class="cls-9"><g id="Group_4495" data-name="Group 4495"><g id="Group_4494" data-name="Group 4494"><g class="cls-7"><g id="Group_4493" data-name="Group 4493"><rect id="Rectangle_296" data-name="Rectangle 296" class="cls-8" x="50.4" y="51.07" width="43.13" height="13.97"/></g></g></g></g></g></g><g id="Group_4500" data-name="Group 4500"><g class="cls-10"><g id="Group_4499" data-name="Group 4499"><g id="Group_4498" data-name="Group 4498"><g class="cls-7"><g id="Group_4497" data-name="Group 4497"><rect id="Rectangle_298" data-name="Rectangle 298" class="cls-8" x="85.33" y="51.07" width="14.02" height="13.97"/></g></g></g></g></g></g><g id="Group_4504" data-name="Group 4504"><g class="cls-11"><g id="Group_4503" data-name="Group 4503"><g id="Group_4502" data-name="Group 4502"><g class="cls-7"><g id="Group_4501" data-name="Group 4501"><rect id="Rectangle_300" data-name="Rectangle 300" class="cls-8" x="50.4" y="66.68" width="43.13" height="13.97"/></g></g></g></g></g></g><g id="Group_4508" data-name="Group 4508"><g class="cls-12"><g id="Group_4507" data-name="Group 4507"><g id="Group_4506" data-name="Group 4506"><g class="cls-7"><g id="Group_4505" data-name="Group 4505"><rect id="Rectangle_302" data-name="Rectangle 302" class="cls-8" x="50.4" y="59.16" width="60.11" height="13.97"/></g></g></g></g></g></g><g id="Group_4512" data-name="Group 4512"><g class="cls-13"><g id="Group_4511" data-name="Group 4511"><g id="Group_4510" data-name="Group 4510"><g class="cls-7"><g id="Group_4509" data-name="Group 4509"><rect id="Rectangle_304" data-name="Rectangle 304" class="cls-8" x="50.55" y="76.84" width="58.5" height="29.88"/></g></g></g></g></g></g></g><path id="Path_1014" data-name="Path 1014" class="cls-2" d="M139.19,26.63c3.85-4-3.88-16.12-9.69-11.9C121.26,20.76,135.9,30,139.19,26.63Z"/></svg>