<svg xmlns="http://www.w3.org/2000/svg" width="27.349" height="21.85" viewBox="0 0 27.349 21.85">
  <path id="Path_9233" data-name="Path 9233" d="M344.976,226.87a1,1,0,0,1,.872,1c.006.082.007.162.007.244q0,4.6,0,9.206a1.411,1.411,0,0,1-.3.965.637.637,0,0,1-.5.244c-1.181,0-2.361.006-3.542,0a2.12,2.12,0,0,1-1.521-.714,4,4,0,0,1-.986-1.891,5.354,5.354,0,0,1-.144-1.318c0-1.262,0-2.523,0-3.785a4.978,4.978,0,0,1,.584-2.458,2.668,2.668,0,0,1,1.487-1.349,3.872,3.872,0,0,1,.663-.116,2.213,2.213,0,0,1,.275,0c0-.063,0-.12,0-.178a10.4,10.4,0,0,1,.261-2.574,9.734,9.734,0,0,1,7.337-7.221,9.024,9.024,0,0,1,1.9-.226c.788-.009,1.577-.012,2.365,0a9.7,9.7,0,0,1,9.033,6.47,9.78,9.78,0,0,1,.558,3.348c0,.122,0,.245,0,.365.187.021.365.03.54.062a2.293,2.293,0,0,1,1.385.873,4.3,4.3,0,0,1,.915,2.333c.03.309.043.621.044.931.005,1.121,0,2.243,0,3.364a5.629,5.629,0,0,1-.3,2,3.47,3.47,0,0,1-1.224,1.707,2.1,2.1,0,0,1-1.235.388c-1.113,0-2.225-.01-3.337,0a.8.8,0,0,1-.779-.545,1.933,1.933,0,0,1-.119-.608q-.012-4.668,0-9.335a1.22,1.22,0,0,1,.431-1.021.8.8,0,0,1,.538-.136.613.613,0,0,0,.012-.076,6.8,6.8,0,0,0-.63-3.242,6.606,6.606,0,0,0-5.976-3.758c-.657,0-1.313-.006-1.97,0a6.485,6.485,0,0,0-4.861,2.112,6.264,6.264,0,0,0-1.688,3.593C345.009,225.963,345,226.416,344.976,226.87Z" transform="translate(-338.86 -216.682)" fill="#4e4b6d"/>
</svg>
