<svg xmlns="http://www.w3.org/2000/svg" width="222.295" height="222.295" viewBox="0 0 222.295 222.295"><defs><style>.a{fill:#ffd54f;}.b{fill:#4e4b6e;}.c{fill:#fff;}.d{fill:#4e4b6d;}</style></defs><g transform="translate(-920.835 -1482.063)"><g transform="translate(920.835 1482.063)"><ellipse class="a" cx="108.918" cy="108.918" rx="108.918" ry="108.918" transform="translate(2.23 2.23)"/><path class="b" d="M111.148,222.3A111.148,111.148,0,1,1,222.3,111.148,111.26,111.26,0,0,1,111.148,222.3Zm0-217.836A106.688,106.688,0,1,0,217.836,111.148,106.819,106.819,0,0,0,111.148,4.46Z"/><path class="c" d="M109.768.9a108.918,108.918,0,0,0,0,217.836Z" transform="translate(1.33 1.33)"/><path class="b" d="M111.1,222.3h0A111.148,111.148,0,0,1,111.1,0h0a2.2,2.2,0,0,1,2.23,2.23V220.065a2.229,2.229,0,0,1-.644,1.586A2.338,2.338,0,0,1,111.1,222.3ZM108.868,4.485a106.687,106.687,0,0,0,0,213.326Z"/><g transform="translate(31.565 31.565)"><ellipse class="c" cx="77.352" cy="77.352" rx="77.352" ry="77.352" transform="translate(2.23 2.23)"/><path class="b" d="M92.322,171.9A79.582,79.582,0,1,1,171.9,92.322,79.676,79.676,0,0,1,92.322,171.9Zm0-154.7a75.123,75.123,0,1,0,75.123,75.123A75.2,75.2,0,0,0,92.322,17.2Z" transform="translate(-12.74 -12.74)"/></g></g><g transform="translate(993.568 1568.939)"><path class="d" d="M5.9,43.018a13.036,13.036,0,0,1-4.332-1.6A2.787,2.787,0,0,1,0,39.17a4.7,4.7,0,0,1,.542-1.739,9.975,9.975,0,0,1,1.311-2.138,2.058,2.058,0,0,1,1.454-.941,10.4,10.4,0,0,1,1.568.57,21.615,21.615,0,0,0,3.164,1.055,15.519,15.519,0,0,0,3.933.456,6.764,6.764,0,0,0,4.788-1.682,6.015,6.015,0,0,0,1.767-4.617,6.886,6.886,0,0,0-1.767-5.1q-1.8-1.71-5.9-1.71h-6.7a2.26,2.26,0,0,1-1.767-.542,3.038,3.038,0,0,1-.485-1.938L3.078,2.631A3.013,3.013,0,0,1,3.791.75,2.523,2.523,0,0,1,5.672.18h18.1A1.572,1.572,0,0,1,25.2.921a4.786,4.786,0,0,1,.428,2.337V4.911A3.275,3.275,0,0,1,25.2,6.792a1.628,1.628,0,0,1-1.425.57H11.344l-.6,8.75h1.6c4.988,0,8.807,1.055,11.429,3.135,2.651,2.081,3.962,5.615,3.962,10.6a13.112,13.112,0,0,1-2.28,7.98,12.74,12.74,0,0,1-5.814,4.418,20.958,20.958,0,0,1-7.61,1.34A30.911,30.911,0,0,1,5.9,43.018Z" transform="translate(0 0.333)"/><path class="d" d="M18.076,41.327a16.141,16.141,0,0,1-4.988-7.553,35.392,35.392,0,0,1-1.739-11.8,35.276,35.276,0,0,1,1.739-11.8,16.507,16.507,0,0,1,4.988-7.553A12.079,12.079,0,0,1,25.886,0a12.055,12.055,0,0,1,7.781,2.622,16.141,16.141,0,0,1,4.988,7.553,35.509,35.509,0,0,1,1.739,11.8,35.276,35.276,0,0,1-1.739,11.8,16.356,16.356,0,0,1-4.988,7.553,12.055,12.055,0,0,1-7.781,2.622A12.24,12.24,0,0,1,18.076,41.327ZM29.819,33q1.368-3.762,1.368-11.03c0-4.874-.456-8.55-1.368-11.059s-2.252-3.734-3.962-3.734-3.05,1.254-3.962,3.734c-.912,2.508-1.368,6.185-1.368,11.059S20.984,30.525,21.9,33c.912,2.508,2.252,3.734,3.962,3.734S28.907,35.513,29.819,33Z" transform="translate(20.999 0)"/><g transform="translate(63.644 2.565)"><path class="d" d="M23.926,11.9c-1.055-.912-1.6-2.508-1.6-4.817s.542-3.933,1.6-4.817A5.8,5.8,0,0,1,27.859.9a5.8,5.8,0,0,1,3.933,1.368c1.055.912,1.6,2.508,1.6,4.817s-.542,3.933-1.6,4.817a5.8,5.8,0,0,1-3.933,1.368A5.8,5.8,0,0,1,23.926,11.9ZM29.6,7.056c0-2.024-.57-3.021-1.739-3.021a1.443,1.443,0,0,0-1.4.855,5.345,5.345,0,0,0-.4,2.166,5.891,5.891,0,0,0,.4,2.252,1.352,1.352,0,0,0,1.368.912C29.028,10.22,29.6,9.165,29.6,7.056ZM26.52,26.922a.387.387,0,0,1-.2-.371,1.409,1.409,0,0,1,.171-.542L39.659,2.126A1.818,1.818,0,0,1,41.284,1.1h1.625a1.048,1.048,0,0,1,.57.143.415.415,0,0,1,.2.371,1.678,1.678,0,0,1-.171.513L30.339,26.01a1.818,1.818,0,0,1-1.625,1.026H27.09A1.13,1.13,0,0,1,26.52,26.922ZM38.177,25.9c-1.055-.912-1.6-2.508-1.6-4.817s.542-3.933,1.6-4.817a6.338,6.338,0,0,1,7.866,0c1.055.912,1.6,2.508,1.6,4.817s-.542,3.933-1.6,4.817a6.338,6.338,0,0,1-7.866,0Zm5.7-4.817c0-2.024-.57-3.021-1.739-3.021a1.379,1.379,0,0,0-1.368.855,5.345,5.345,0,0,0-.4,2.166,5.891,5.891,0,0,0,.4,2.252,1.352,1.352,0,0,0,1.368.912C43.279,24.243,43.877,23.188,43.877,21.079Z" transform="translate(-22.33 -0.9)"/></g></g></g></svg>