<svg id="Layer_1" data-name="Layer 1" xmlns="http://www.w3.org/2000/svg" xmlns:xlink="http://www.w3.org/1999/xlink" viewBox="0 0 192.87 190.5"><defs><style>.cls-1{fill:none;clip-rule:evenodd;}.cls-2{clip-path:url(#clip-path);}.cls-3{clip-path:url(#clip-path-2);}.cls-4{fill:#90d5ac;}.cls-5{fill:#fff;stroke:#4e4b6e;stroke-linecap:round;stroke-linejoin:round;stroke-width:4px;}</style><clipPath id="clip-path"><path class="cls-1" d="M103.31-78.18a1.44,1.44,0,0,0,1.45,1.44h22.89a1.44,1.44,0,0,0,1.45-1.44,1.45,1.45,0,0,0-1.45-1.45H104.76a1.45,1.45,0,0,0-1.45,1.45"/></clipPath><clipPath id="clip-path-2"><path class="cls-1" d="M132.92-76.74a1.44,1.44,0,0,0,1.46-1.44,1.45,1.45,0,0,0-1.46-1.45h-.06a1.43,1.43,0,0,0-1.42,1.45,1.47,1.47,0,0,0,1.48,1.44"/></clipPath></defs><g id="Group_5948" data-name="Group 5948"><path id="Path_4359" data-name="Path 4359" class="cls-4" d="M24.17,86.87C20.08,80.78,2.46,87.41,6.29,96,11.75,108.21,27.62,92,24.17,86.87Z"/><path id="Path_4360" data-name="Path 4360" class="cls-4" d="M16.84,138.33c31,45.56,147.07,48.19,167.36-7.91,15.42-42.59-59.31-115.18-94.66-99.67S72.49,74.46,45.41,87.16C12.51,102.58,7.32,124.31,16.84,138.33Z"/><g id="Group_5947" data-name="Group 5947"><g id="Group_5946" data-name="Group 5946"><path id="Path_8636" data-name="Path 8636" class="cls-5" d="M124.76,40.14a30.4,30.4,0,0,1-1.07-3.64s0-1.1,1.08-.61c2.79.49,3.26,2.4,3.26,5.25,0,5.11,3.43,10,7.89,11.08a52.82,52.82,0,0,0,6.26.82,3.86,3.86,0,0,0,2.81-.81c1.51-1.19,3.37-1.9,4.67-3.41.78-.91,1.91-.56,2.8-.35a21.77,21.77,0,0,1,2.42,1.2c1.51.58,1,2.16.55,2.93a12.34,12.34,0,0,0-1.7,5.5A6.15,6.15,0,0,1,151.27,63a4.39,4.39,0,0,0-1.67,4.65c.23,1.37-.35,1.6-.35,1.6a12.49,12.49,0,0,1-2.83-.58c-4.8-.82-7.12,1.41-6.69,6.24.13,1.47.75,2.89-.13,4.47q-4.11,7.36-7.9,14.93c-1.48,2.94-3.89,4.89-6.51,6.62-1,.63-2.4,1-2.94-.4a2.62,2.62,0,0,0-2.7-1.72c-1,0-1.51-.72-2.2-1.12-1-.58-1.35-1.58-.21-2.35a6.68,6.68,0,0,0,2.37-3.08,50.3,50.3,0,0,0,2.42-6.86c.69-2.76,0-6.28-4.18-7.54a25.23,25.23,0,0,1-8.09-4.18c-2.6-2-2.1-5.33,1-6.39a8.88,8.88,0,0,0,3-1.68c2.46-2.12,2.94-5.19,3.86-8.07s1.38-5.66,0-8.49a11.4,11.4,0,0,1-1-2.23c-.41-1.52-1.22-3.09,0-4.64a1.51,1.51,0,0,0-1.23-.53,1.06,1.06,0,0,1-1.15-1.28c.36-2-1.44-3.58-.95-5.68a2.11,2.11,0,0,0-1.72-2.15c-1.58-.13-2.11-1.3-2.8-2.29-1.58-2.25-2.83-4.81-4.91-6.6-3-2.65-3-6.06-3-9.54s-2-2.78-1.69-5.35,1.6-.58,2.58,2a11.06,11.06,0,0,0,4.36,4.8c1.1.51,2.32.84,3.43,1.39a6.1,6.1,0,0,1,3.5,4,9.07,9.07,0,0,0,1.93,3.47c.68.8,1.27,1.84-.17,2.6a4,4,0,0,0,1,2.5,8.55,8.55,0,0,1,1.75,5"/><path id="Path_8637" data-name="Path 8637" class="cls-5" d="M93.7,133.05c-2.56,1.55-5.24,2.93-7.64,4.7s-4.72,3.71-5.1,7a20.38,20.38,0,0,1-3.35,9.34,4.49,4.49,0,0,0-.7,3.19,2.06,2.06,0,0,1-.59,2c-3.46,3.12-5.95,7.1-9.12,10.47-2.33,2.46-6.32,4.73-11.08,2.44a37.37,37.37,0,0,1-4.46-2.38A4.09,4.09,0,0,0,48,169c-1.5.44-2.5-.31-2.77-2.09a6.75,6.75,0,0,1-2.28.25c-3.17.28-6.37.31-8.46-2.78-.47-.7-1.26-1.74-.75-2.35,1.08-1.3.12-3.22,1.54-4.3-.15-3.47,2.27-5.4,4.45-7.47,1.92-1.82,3.78-3.68,4.64-6.27a8.6,8.6,0,0,1,4-4.88,7.87,7.87,0,0,0,2.31-2.14,7.68,7.68,0,0,1,5.17-3.38c1.26-.17,3-.64,3.59-1.95a4.11,4.11,0,0,1,3.31-2.33,5.63,5.63,0,0,0,2.82-1.67c1.14-1,2-2.34,3.42-3.06a9.35,9.35,0,0,0,3.47-3.4s3.82-9.47,2.69-13.83c3.66-1.41,8.59-5.35,8.87-9.72A9.63,9.63,0,0,1,90,89.43c1.79-.8,3.7-1.37,5.55-2l-.51.13c3.41-.88,4.55,4.71,4.61,7.26a.78.78,0,0,0,.08.4.72.72,0,0,0,.49.24c2.37.45,5.44.37,6.4-2.18.3-.78.55-1.52,1.6-1.67a10.89,10.89,0,0,1,.62,1.68,2.13,2.13,0,0,0,1.44,1.59c1.94.76,2.42,1.36,1.34,2.8a4.23,4.23,0,0,0-.43,3.86c.61,2.51-1.19,4.38-2.35,6.46-1.87,3.33-3.58,6.77-5.18,10.24-1.09,2.35-3.06,5.81-2.71,8.51"/><path id="Path_8638" data-name="Path 8638" class="cls-5" d="M47.25,175.42A1.51,1.51,0,0,0,45.84,177a2.17,2.17,0,0,0,0,.25,2.65,2.65,0,0,1-1,2.39,5.23,5.23,0,0,0-1.56,2.18c-.47,1.26-.24,1.8,1,1.5a11.8,11.8,0,0,0,4.76-2.5.62.62,0,0,0,.16-.68c-.26-1.25-.63-2.48-.81-3.74-.1-.71-.64-.74-1-1"/></g></g></g></svg>