<?xml version="1.0" encoding="utf-8"?>
<!-- Generator: Adobe Illustrator 23.0.2, SVG Export Plug-In . SVG Version: 6.00 Build 0)  -->
<svg version="1.1" id="Layer_1" xmlns="http://www.w3.org/2000/svg" xmlns:xlink="http://www.w3.org/1999/xlink" x="0px" y="0px"
	 viewBox="0 0 200 179.9" style="enable-background:new 0 0 200 179.9;" xml:space="preserve">
<style type="text/css">
	.st0{enable-background:new    ;}
	.st1{fill:#4E4B6D;}
	.st2{fill:#6884AA;}
</style>
<title>ten</title>
<g id="Group_4347">
	<g id="_10">
		<g class="st0">
			<path class="st1" d="M70.3,127.1c-0.3-0.5-0.4-1.2-0.4-2.3v-1c0-1,0.1-1.8,0.4-2.3c0.3-0.5,0.7-0.7,1.4-0.7h8v-27L71.5,95
				c-0.7,0-1.2-0.6-1.5-1.7c-0.3-1.1-0.5-2.2-0.5-3.4c0-0.9,0.5-1.5,1.6-1.7l15-2.8c0.5,0,1.1,0.2,1.6,0.5c0.6,0.3,0.8,0.6,0.8,1
				v33.9H95c0.6,0,1.1,0.2,1.4,0.7c0.3,0.5,0.4,1.2,0.4,2.3v1c0,1-0.1,1.8-0.4,2.3c-0.3,0.5-0.7,0.7-1.4,0.7H71.7
				C71,127.9,70.6,127.6,70.3,127.1z"/>
			<path class="st1" d="M108,125.8c-2.1-1.7-3.8-4.2-4.9-7.4c-1.1-3.2-1.7-7.1-1.7-11.6c0-4.5,0.6-8.4,1.7-11.6
				c1.1-3.2,2.8-5.7,4.9-7.4c2.1-1.7,4.7-2.6,7.6-2.6c3,0,5.5,0.9,7.6,2.6c2.1,1.7,3.8,4.2,4.9,7.4c1.1,3.2,1.7,7.1,1.7,11.6
				c0,4.5-0.6,8.4-1.7,11.6c-1.1,3.2-2.8,5.7-4.9,7.4c-2.1,1.7-4.7,2.6-7.6,2.6C112.6,128.4,110.1,127.5,108,125.8z M119.5,117.6
				c0.9-2.4,1.4-6.1,1.4-10.8c0-4.8-0.5-8.4-1.4-10.8s-2.2-3.7-3.9-3.7s-3,1.2-3.9,3.7c-0.9,2.4-1.4,6.1-1.4,10.8
				c0,4.8,0.5,8.4,1.4,10.8c0.9,2.4,2.2,3.7,3.9,3.7S118.6,120.1,119.5,117.6z"/>
		</g>
	</g>
	<g id="Group_3619">
		<path id="Path_1867" class="st2" d="M154.2,61.2L110,19.5c-0.5-0.6-1.3-0.9-2.1-0.9H52.2c-4.1,0-7.5,3.3-7.6,7.4c0,0,0,0,0,0
			v135.8c0,4.1,3.3,7.5,7.4,7.6h95.8c4.1,0,7.5-3.3,7.6-7.4c0,0,0,0,0,0V63.4C155.4,62.5,154.9,61.7,154.2,61.2z M149.3,161.5
			c0.1,0.8-0.5,1.5-1.3,1.5c0,0,0,0,0,0H52.2c-0.8,0.1-1.5-0.5-1.5-1.3c0,0,0,0,0,0c0-0.1,0-0.1,0-0.2V26.1c0-0.8,0.6-1.5,1.3-1.5
			c0,0,0,0,0,0h53.5v32.7c0,5,4.1,9.1,9.1,9.1h34.8L149.3,161.5z M114.5,60.3c-1.7,0-3-1.3-3-3V29.1l33,31.2H114.5z"/>
	</g>
</g>
</svg>
