<?xml version="1.0" encoding="utf-8"?>
<!-- Generator: Adobe Illustrator 23.0.2, SVG Export Plug-In . SVG Version: 6.00 Build 0)  -->
<svg version="1.1" id="Layer_1" xmlns="http://www.w3.org/2000/svg" xmlns:xlink="http://www.w3.org/1999/xlink" x="0px" y="0px"
	 viewBox="0 0 200 179.9" style="enable-background:new 0 0 200 179.9;" xml:space="preserve">
<style type="text/css">
	.st0{enable-background:new    ;}
	.st1{fill:#4E4B6D;}
	.st2{fill:#5AC7DA;}
	.st3{fill:#D1D3D4;}
</style>
<title>eighty</title>
<g id="Group_4349">
	<g>
		<g class="st0">
			<path class="st1" d="M64,111.1c-2.2-1.1-3.8-2.6-4.8-4.5s-1.5-4-1.5-6.3c0-2.7,0.6-4.9,1.7-6.7c1.1-1.8,2.6-3,4.4-3.7
				c-1.4-1-2.5-2.1-3.3-3.5c-0.8-1.4-1.2-3.1-1.2-5.2c0-2,0.5-3.9,1.5-5.7c1-1.7,2.5-3.1,4.5-4.2c2-1,4.4-1.6,7.3-1.6
				c2.5,0,4.7,0.5,6.6,1.4c1.9,0.9,3.3,2.2,4.3,3.8c1,1.6,1.5,3.3,1.5,5.3c0,2.4-0.5,4.2-1.4,5.6c-0.9,1.3-2.2,2.5-3.9,3.4
				c4.4,2,6.6,5.9,6.6,11.6c0,2-0.5,3.9-1.5,5.7c-1,1.8-2.5,3.3-4.6,4.5c-2.1,1.2-4.8,1.8-8,1.8C68.9,112.8,66.2,112.2,64,111.1z
				 M75.9,104c0.9-1.1,1.4-2.4,1.4-3.8c0-1.5-0.3-2.7-1-3.6c-0.6-0.9-1.5-1.7-2.4-2.2c-1-0.5-2.3-1.1-4-1.7
				c-1.1,0.8-1.9,1.8-2.5,2.9c-0.6,1.1-0.8,2.5-0.8,4.1c0,1.8,0.5,3.3,1.4,4.4s2.3,1.7,4,1.7C73.7,105.7,75,105.2,75.9,104z
				 M76.3,80.8c0-1.2-0.4-2.2-1.2-2.9c-0.8-0.7-1.8-1.1-2.9-1.1c-1.2,0-2.1,0.4-2.9,1.1c-0.8,0.7-1.2,1.7-1.2,2.9
				c0,1.4,0.4,2.5,1.3,3.3c0.8,0.8,2.1,1.5,3.7,2.2C75.2,84.9,76.3,83,76.3,80.8z"/>
			<path class="st1" d="M96.5,110.2c-2.1-1.7-3.8-4.2-4.9-7.4c-1.1-3.2-1.7-7.1-1.7-11.6c0-4.5,0.6-8.4,1.7-11.6
				c1.1-3.2,2.8-5.7,4.9-7.4c2.1-1.7,4.7-2.6,7.6-2.6s5.5,0.9,7.6,2.6s3.8,4.2,4.9,7.4c1.1,3.2,1.7,7.1,1.7,11.6
				c0,4.5-0.6,8.4-1.7,11.6c-1.1,3.2-2.8,5.7-4.9,7.4c-2.1,1.7-4.7,2.6-7.6,2.6S98.6,111.9,96.5,110.2z M108,102.1
				c0.9-2.4,1.4-6.1,1.4-10.8c0-4.8-0.5-8.4-1.4-10.8c-0.9-2.4-2.2-3.7-3.9-3.7s-3,1.2-3.9,3.7c-0.9,2.4-1.4,6.1-1.4,10.8
				c0,4.8,0.5,8.4,1.4,10.8c0.9,2.4,2.2,3.7,3.9,3.7S107.1,104.5,108,102.1z"/>
		</g>
	</g>
	<g>
		<g class="st0">
			<path class="st1" d="M122.8,79.7c-0.9-0.8-1.4-2.1-1.4-4.1c0-2,0.5-3.3,1.4-4.1s2-1.2,3.4-1.2s2.5,0.4,3.4,1.2s1.4,2.1,1.4,4.1
				c0,2-0.5,3.3-1.4,4.1c-0.9,0.8-2,1.2-3.4,1.2S123.7,80.4,122.8,79.7z M127.7,75.5c0-1.7-0.5-2.6-1.5-2.6c-0.6,0-1,0.2-1.2,0.7
				c-0.2,0.5-0.3,1.1-0.3,1.8c0,0.8,0.1,1.4,0.3,1.9c0.2,0.5,0.6,0.8,1.2,0.8C127.2,78.3,127.7,77.4,127.7,75.5z M125,92.5
				c-0.1-0.1-0.2-0.2-0.2-0.3c0-0.1,0.1-0.3,0.2-0.5l11.2-20.4c0.3-0.6,0.8-0.9,1.4-0.9h1.4c0.2,0,0.4,0,0.5,0.1
				c0.1,0.1,0.2,0.2,0.2,0.3c0,0.1-0.1,0.2-0.2,0.4l-11.2,20.4c-0.3,0.6-0.8,0.9-1.4,0.9h-1.4C125.3,92.6,125.2,92.6,125,92.5z
				 M135,91.6c-0.9-0.8-1.4-2.1-1.4-4.1c0-2,0.5-3.3,1.4-4.1c0.9-0.8,2-1.2,3.4-1.2s2.5,0.4,3.4,1.2c0.9,0.8,1.4,2.1,1.4,4.1
				c0,2-0.5,3.3-1.4,4.1c-0.9,0.8-2,1.2-3.4,1.2S135.9,92.4,135,91.6z M139.8,87.5c0-1.7-0.5-2.6-1.5-2.6c-0.6,0-1,0.2-1.2,0.7
				c-0.2,0.5-0.3,1.1-0.3,1.8c0,0.8,0.1,1.4,0.3,1.9c0.2,0.5,0.6,0.8,1.2,0.8C139.3,90.2,139.8,89.3,139.8,87.5z"/>
		</g>
	</g>
	<g id="Group_3614">
		<g id="Group_3613">
			<path id="Path_1843" class="st2" d="M104.1,10L104,27.1c34.6,2.3,60.8,32.2,58.5,66.8c-2.3,34.6-32.2,60.8-66.8,58.5
				c-34.6-2.3-60.8-32.2-58.5-66.8c0.3-4.1,1-8.2,2-12.2L23,68.1c-12,42.5,12.7,86.7,55.2,98.8s86.7-12.7,98.8-55.2
				c12-42.5-12.7-86.7-55.2-98.8C116,11.3,110.1,10.3,104.1,10z"/>
			<path id="Path_1844" class="st3" d="M26.7,61.4L43,66.8c9.1-22.9,30.8-38.4,55.4-39.7l0.2-17.2C66.4,11.1,38.1,31.4,26.7,61.4z"
				/>
		</g>
	</g>
</g>
</svg>
