<?xml version="1.0" encoding="utf-8"?>
<!-- Generator: Adobe Illustrator 23.0.2, SVG Export Plug-In . SVG Version: 6.00 Build 0)  -->
<svg version="1.1" id="Layer_1" xmlns="http://www.w3.org/2000/svg" xmlns:xlink="http://www.w3.org/1999/xlink" x="0px" y="0px"
	 viewBox="0 0 200 179.9" style="enable-background:new 0 0 200 179.9;" xml:space="preserve">
<style type="text/css">
	.st0{enable-background:new    ;}
	.st1{fill:#4E4B6D;}
	.st2{fill-rule:evenodd;clip-rule:evenodd;fill:#BEA9D2;}
	.st3{fill-rule:evenodd;clip-rule:evenodd;fill:#D1D3D4;}
</style>
<title>nineteen</title>
<g id="_19_20">
	<g class="st0">
		<path class="st1" d="M31,166.3c-0.3-0.5-0.4-1.2-0.4-2.3v-1c0-1,0.1-1.8,0.4-2.3c0.3-0.5,0.7-0.7,1.4-0.7h8v-27l-8.2,1.2
			c-0.7,0-1.2-0.6-1.5-1.7c-0.3-1.1-0.5-2.2-0.5-3.4c0-0.9,0.5-1.5,1.6-1.7l15-2.8c0.5,0,1.1,0.2,1.6,0.5c0.6,0.3,0.8,0.6,0.8,1V160
			h6.4c0.6,0,1.1,0.2,1.4,0.7c0.3,0.5,0.4,1.2,0.4,2.3v1c0,1-0.1,1.8-0.4,2.3c-0.3,0.5-0.7,0.7-1.4,0.7H32.4
			C31.8,167,31.3,166.8,31,166.3z"/>
	</g>
	<g class="st0">
		<path class="st1" d="M62.6,166.4c-0.4-0.6-0.8-1.3-1-2.1c-0.2-0.8-0.4-1.4-0.4-1.9c0-0.4,0-0.7,0.2-0.9c0.1-0.2,0.3-0.3,0.6-0.4
			c3-0.9,5.7-2.4,8.1-4.5s4-4.5,5-7.4c-1.8,1-3.9,1.5-6,1.5c-1.7,0-3.5-0.4-5.3-1.3c-1.8-0.8-3.3-2.2-4.6-4.1
			c-1.3-1.9-1.9-4.4-1.9-7.4c0-3.1,0.7-5.6,2-7.6c1.4-2,3.1-3.5,5.2-4.4c2.1-0.9,4.4-1.4,6.9-1.4c2.4,0,4.7,0.5,6.9,1.6
			c2.1,1.1,3.9,2.8,5.3,5.1c1.4,2.3,2,5.3,2,9c0,6.9-1.5,12.3-4.6,16.3s-6.3,6.8-9.8,8.4c-3.5,1.6-5.8,2.4-6.9,2.4
			C63.6,167.3,63.1,167,62.6,166.4z M76.4,142.2c0-0.6,0.1-1.5,0.1-2.8c0-2.8-0.5-4.8-1.4-6.1c-0.9-1.2-2.2-1.9-3.8-1.9
			c-1.4,0-2.7,0.6-3.6,1.7c-1,1.2-1.5,2.6-1.5,4.5c0,1.8,0.5,3.3,1.4,4.4c1,1.1,2.3,1.6,4,1.6C73.1,143.7,74.7,143.2,76.4,142.2z"/>
	</g>
	<g class="st0">
		<path class="st1" d="M83.5,170.8c0-0.1,0.1-0.4,0.2-0.8l17.5-43.4c0.5-1.2,1.7-1.8,3.7-1.8h1.4c1.7,0,2.5,0.3,2.5,1
			c0,0.2-0.1,0.5-0.2,0.8L91.2,170c-0.5,1.2-1.7,1.8-3.7,1.8H86C84.3,171.8,83.5,171.5,83.5,170.8z"/>
	</g>
	<g class="st0">
		<path class="st1" d="M111.3,165.1c-0.4-1.3-0.5-2.4-0.5-3.4c0-0.4,0.1-0.7,0.2-0.9l15.2-18.7c1.5-1.9,2.3-3.8,2.3-5.8
			c0-1.6-0.5-2.8-1.6-3.6c-1-0.8-2.4-1.3-4-1.3c-1.1,0-2.1,0.2-2.9,0.5c-0.8,0.3-1.7,0.8-2.6,1.4c-0.7,0.5-1.2,0.7-1.5,0.7
			c-0.9,0-1.7-0.5-2.4-1.4c-0.7-1-1.1-1.9-1.1-2.7c0-1.7,1.2-3,3.7-4c2.4-1,5.2-1.5,8.3-1.5c4.1,0,7.3,1.1,9.7,3.2
			c2.3,2.2,3.5,5,3.5,8.5c0,3.5-1.2,6.8-3.7,9.8l-11.3,14h13.9c0.6,0,1.1,0.2,1.4,0.7c0.3,0.5,0.4,1.2,0.4,2.3v1
			c0,1-0.1,1.8-0.4,2.3c-0.3,0.5-0.7,0.7-1.4,0.7h-23.9C112,167,111.6,166.4,111.3,165.1z"/>
	</g>
	<g class="st0">
		<path class="st1" d="M148.1,165c-2.1-1.7-3.8-4.2-4.9-7.4c-1.1-3.2-1.7-7.1-1.7-11.6c0-4.5,0.6-8.4,1.7-11.6
			c1.1-3.2,2.8-5.7,4.9-7.4s4.7-2.6,7.6-2.6s5.5,0.9,7.6,2.6s3.8,4.2,4.9,7.4c1.1,3.2,1.7,7.1,1.7,11.6c0,4.5-0.6,8.4-1.7,11.6
			c-1.1,3.2-2.8,5.7-4.9,7.4c-2.1,1.7-4.7,2.6-7.6,2.6S150.3,166.7,148.1,165z M159.7,156.8c0.9-2.4,1.4-6.1,1.4-10.8
			c0-4.8-0.5-8.4-1.4-10.8c-0.9-2.4-2.2-3.7-3.9-3.7s-3,1.2-3.9,3.7s-1.4,6.1-1.4,10.8c0,4.8,0.5,8.4,1.4,10.8
			c0.9,2.4,2.2,3.7,3.9,3.7S158.8,159.3,159.7,156.8z"/>
	</g>
</g>
<g id="Group_4350">
	<g id="Group_3615">
		<path id="Path_1845" class="st2" d="M31.4,114.9c0,0,1.8,2.5,12.2,2.5s12.5-2.5,12.5-2.5s0.7-2.9-2.7-4.1s-6.2-1.6-6.1-4.2
			c0-1,0.1-1.9,0.5-2.8c0.1,0.1,0.2,0.1,0.3,0.1c0.2,0,0.5-0.1,0.9-0.7c0.6-1,1.1-2.4,0-2.7c0.2-1.3,0.5-4.4-1.5-6
			c-0.9-0.7-2.1-1.2-3.3-1.2h-0.8c-1.2,0-2.4,0.4-3.4,1.2c-2,1.6-1.7,4.7-1.5,6c-1.1,0.4-0.6,1.7,0,2.7c0.4,0.5,0.7,0.7,0.9,0.7
			c0.1,0,0.2,0,0.3-0.1c0.4,0.9,0.5,1.9,0.5,2.8c0,2.6-2.7,3-6.1,4.2S31.4,114.9,31.4,114.9"/>
		<path id="Path_1853" class="st2" d="M31.4,87.1c0,0,1.8,2.5,12.2,2.5s12.5-2.5,12.5-2.5s0.7-2.9-2.7-4.1s-6.2-1.6-6.1-4.2
			c0-1,0.1-1.9,0.5-2.8C47.9,76,48,76,48,76c0.2,0,0.5-0.1,0.9-0.7c0.6-1,1.1-2.4,0-2.7c0.2-1.3,0.5-4.4-1.5-6
			c-0.9-0.7-2.1-1.2-3.3-1.2h-0.8c-1.2,0-2.4,0.5-3.4,1.2c-2,1.6-1.7,4.7-1.5,6c-1.1,0.4-0.6,1.7,0,2.7c0.4,0.6,0.7,0.7,0.9,0.7
			c0.1,0,0.2,0,0.3,0c0.4,0.9,0.5,1.9,0.5,2.8c0,2.6-2.7,3-6.1,4.2S31.4,87.1,31.4,87.1"/>
		<path id="Path_1858" class="st2" d="M31.4,59.2c0,0,1.8,2.5,12.2,2.5s12.5-2.5,12.5-2.5s0.7-2.9-2.7-4.1s-6.2-1.6-6.1-4.2
			c0-1,0.1-1.9,0.5-2.8c0.1,0.1,0.2,0.1,0.3,0.1c0.2,0,0.5-0.1,0.9-0.7c0.6-1,1.1-2.4,0-2.7c0.2-1.3,0.5-4.4-1.5-6
			c-0.9-0.7-2.1-1.2-3.3-1.2h-0.8c-1.2,0-2.4,0.5-3.4,1.2c-2,1.6-1.7,4.7-1.5,6c-1.1,0.4-0.6,1.7,0,2.7c0.4,0.5,0.7,0.7,0.9,0.7
			c0.1,0,0.2,0,0.3-0.1c0.4,0.9,0.5,1.8,0.5,2.8c0,2.6-2.7,3-6.1,4.2S31.4,59.2,31.4,59.2"/>
		<path id="Path_1863" class="st2" d="M31.4,31.4c0,0,1.8,2.5,12.2,2.5s12.5-2.5,12.5-2.5s0.7-2.9-2.7-4.1s-6.2-1.6-6.1-4.2
			c0-1,0.1-1.9,0.5-2.8c0.1,0.1,0.2,0.1,0.3,0.1c0.2,0,0.5-0.1,0.9-0.7c0.6-1,1.1-2.4,0-2.7c0.2-1.3,0.5-4.4-1.5-6
			c-0.9-0.7-2.1-1.2-3.3-1.2h-0.8c-1.2,0-2.4,0.5-3.4,1.2c-2,1.6-1.7,4.7-1.5,6c-1.1,0.4-0.6,1.7,0,2.7c0.4,0.5,0.7,0.7,0.9,0.7
			c0.1,0,0.2,0,0.3-0.1c0.4,0.9,0.5,1.9,0.5,2.8c0,2.6-2.7,3-6.1,4.2S31.4,31.3,31.4,31.4"/>
		<path id="Path_1846" class="st2" d="M59.5,114.9c0,0,1.8,2.5,12.2,2.5s12.5-2.5,12.5-2.5s0.7-2.9-2.7-4.1s-6.2-1.6-6.1-4.2
			c0-1,0.1-1.9,0.5-2.8c0.1,0.1,0.2,0.1,0.3,0.1c0.2,0,0.5-0.1,0.9-0.7c0.6-1,1.1-2.4,0-2.7c0.2-1.3,0.5-4.4-1.4-6
			c-0.9-0.7-2.1-1.2-3.3-1.3h-0.8c-1.2,0-2.4,0.5-3.4,1.3c-2,1.6-1.7,4.7-1.4,6c-1.1,0.4-0.6,1.7,0,2.7c0.4,0.5,0.7,0.7,0.9,0.7
			c0.1,0,0.2,0,0.3-0.1c0.4,0.9,0.5,1.9,0.5,2.8c0,2.6-2.7,3-6.1,4.2S59.5,114.9,59.5,114.9"/>
		<path id="Path_1852" class="st2" d="M59.5,87.1c0,0,1.8,2.5,12.2,2.5s12.5-2.5,12.5-2.5s0.7-2.9-2.7-4.1s-6.2-1.6-6.1-4.2
			c0-1,0.1-1.9,0.5-2.8C76,76,76.1,76,76.2,76c0.2,0,0.5-0.1,0.9-0.7c0.6-1,1.1-2.4,0-2.7c0.2-1.3,0.5-4.4-1.4-6
			c-0.9-0.7-2.1-1.2-3.3-1.2h-0.8c-1.2,0-2.4,0.5-3.4,1.3c-2,1.6-1.7,4.7-1.4,6c-1.1,0.4-0.6,1.7,0,2.7c0.4,0.6,0.7,0.7,0.9,0.7
			c0.1,0,0.2,0,0.3-0.1c0.4,0.9,0.5,1.9,0.5,2.8c0,2.6-2.7,3-6.1,4.2S59.5,87.1,59.5,87.1"/>
		<path id="Path_1857" class="st2" d="M59.5,59.2c0,0,1.8,2.5,12.2,2.5s12.5-2.5,12.5-2.5s0.7-2.9-2.7-4.1s-6.2-1.6-6.1-4.2
			c0-1,0.1-1.9,0.5-2.8c0.1,0.1,0.2,0.1,0.3,0.1c0.2,0,0.5-0.1,0.9-0.7c0.6-1,1.1-2.4,0-2.7c0.2-1.3,0.5-4.4-1.4-6
			c-0.9-0.7-2.1-1.2-3.3-1.2h-0.8c-1.2,0-2.4,0.5-3.4,1.3c-2,1.6-1.7,4.7-1.4,6c-1.1,0.4-0.6,1.7,0,2.7c0.4,0.5,0.7,0.7,0.9,0.7
			c0.1,0,0.2,0,0.3-0.1c0.4,0.9,0.5,1.8,0.5,2.8c0,2.6-2.7,3-6.1,4.2S59.5,59.2,59.5,59.2"/>
		<path id="Path_1862" class="st2" d="M59.5,31.4c0,0,1.8,2.5,12.2,2.5s12.5-2.5,12.5-2.5s0.7-2.9-2.7-4.1s-6.2-1.6-6.1-4.2
			c0-1,0.1-1.9,0.5-2.8c0.1,0.1,0.2,0.1,0.3,0.1c0.2,0,0.5-0.1,0.9-0.7c0.6-1,1.1-2.4,0-2.7c0.2-1.3,0.5-4.4-1.4-6
			c-0.9-0.7-2.1-1.2-3.3-1.2h-0.8c-1.2,0-2.4,0.5-3.4,1.3c-2,1.6-1.7,4.7-1.4,6c-1.1,0.4-0.6,1.7,0,2.7c0.4,0.5,0.7,0.7,0.9,0.7
			c0.1,0,0.2,0,0.3-0.1c0.4,0.9,0.5,1.9,0.5,2.8c0,2.6-2.7,3-6.1,4.2S59.5,31.3,59.5,31.4"/>
		<path id="Path_1847" class="st2" d="M87.7,114.9c0,0,1.8,2.5,12.2,2.5s12.5-2.5,12.5-2.5s0.7-2.9-2.7-4.1s-6.2-1.6-6.1-4.2
			c0-1,0.1-1.9,0.5-2.8c0.1,0.1,0.2,0.1,0.3,0.1c0.2,0,0.5-0.1,0.9-0.7c0.6-1,1.1-2.4,0-2.7c0.2-1.3,0.5-4.4-1.4-6
			c-0.9-0.7-2.1-1.2-3.3-1.2h-0.8c-1.2,0-2.4,0.5-3.4,1.3c-2,1.6-1.7,4.7-1.4,6c-1.1,0.4-0.6,1.7,0,2.7c0.4,0.5,0.7,0.7,0.9,0.7
			c0.1,0,0.2,0,0.3-0.1c0.4,0.9,0.5,1.9,0.5,2.8c0,2.6-2.7,3-6.1,4.2S87.7,114.9,87.7,114.9"/>
		<path id="Path_1851" class="st2" d="M87.7,87.1c0,0,1.8,2.5,12.2,2.5s12.5-2.5,12.5-2.5s0.7-2.9-2.7-4.1s-6.2-1.6-6.1-4.2
			c0-1,0.1-1.9,0.5-2.8c0.1,0.1,0.2,0.1,0.3,0.1c0.2,0,0.5-0.1,0.9-0.7c0.6-1,1.1-2.4,0-2.7c0.2-1.3,0.5-4.4-1.4-6
			c-0.9-0.7-2.1-1.2-3.3-1.2h-0.8c-1.2,0-2.4,0.5-3.4,1.3c-2,1.6-1.7,4.7-1.4,6c-1.1,0.4-0.6,1.7,0,2.7c0.4,0.6,0.7,0.7,0.9,0.7
			c0.1,0,0.2,0,0.3-0.1c0.4,0.9,0.5,1.9,0.5,2.8c0,2.6-2.7,3-6.1,4.2S87.7,87.1,87.7,87.1"/>
		<path id="Path_1856" class="st2" d="M87.7,59.2c0,0,1.8,2.5,12.2,2.5s12.5-2.5,12.5-2.5s0.7-2.9-2.7-4.1s-6.2-1.6-6.1-4.2
			c0-1,0.1-1.9,0.5-2.8c0.1,0.1,0.2,0.1,0.3,0.1c0.2,0,0.5-0.1,0.9-0.7c0.6-1,1.1-2.4,0-2.7c0.2-1.3,0.5-4.4-1.4-6
			c-0.9-0.7-2.1-1.2-3.3-1.2h-0.8c-1.2,0-2.4,0.5-3.4,1.3c-2,1.6-1.7,4.7-1.4,6c-1.1,0.4-0.6,1.7,0,2.7c0.4,0.5,0.7,0.7,0.9,0.7
			c0.1,0,0.2,0,0.3-0.1c0.4,0.9,0.5,1.8,0.5,2.8c0,2.6-2.7,3-6.1,4.2S87.7,59.2,87.7,59.2"/>
		<path id="Path_1861" class="st2" d="M87.7,31.4c0,0,1.8,2.5,12.2,2.5s12.5-2.5,12.5-2.5s0.7-2.9-2.7-4.1s-6.2-1.6-6.1-4.2
			c0-1,0.1-1.9,0.5-2.8c0.1,0.1,0.2,0.1,0.3,0.1c0.2,0,0.5-0.1,0.9-0.7c0.6-1,1.1-2.4,0-2.7c0.2-1.3,0.5-4.4-1.4-6
			c-0.9-0.7-2.1-1.2-3.3-1.2h-0.8c-1.2,0-2.4,0.5-3.4,1.3c-2,1.6-1.7,4.7-1.4,6c-1.1,0.4-0.6,1.7,0,2.7c0.4,0.5,0.7,0.7,0.9,0.7
			c0.1,0,0.2,0,0.3-0.1c0.4,0.9,0.5,1.9,0.5,2.8c0,2.6-2.7,3-6.1,4.2S87.7,31.4,87.7,31.4"/>
		<path id="Path_1848" class="st2" d="M115.8,114.9c0,0,1.8,2.5,12.2,2.5s12.5-2.5,12.5-2.5s0.7-2.9-2.7-4.1s-6.2-1.6-6.1-4.2
			c0-1,0.1-1.9,0.5-2.8c0.1,0.1,0.2,0.1,0.3,0.1c0.2,0,0.5-0.1,0.9-0.7c0.6-1,1.1-2.4,0-2.7c0.2-1.3,0.5-4.4-1.4-6
			c-0.9-0.7-2.1-1.2-3.3-1.2h-0.8c-1.2,0-2.4,0.5-3.4,1.3c-2,1.6-1.7,4.7-1.4,6c-1.1,0.4-0.6,1.7,0,2.7c0.4,0.5,0.7,0.7,0.9,0.7
			c0.1,0,0.2,0,0.3-0.1c0.4,0.9,0.5,1.9,0.5,2.8c0,2.6-2.7,3-6.1,4.2S115.8,114.9,115.8,114.9"/>
		<path id="Path_1850" class="st2" d="M115.8,87.1c0,0,1.8,2.5,12.2,2.5s12.5-2.5,12.5-2.5s0.7-2.9-2.7-4.1s-6.2-1.6-6.1-4.2
			c0-1,0.1-1.9,0.5-2.8c0.1,0.1,0.2,0.1,0.3,0.1c0.2,0,0.5-0.1,0.9-0.7c0.6-1,1.1-2.4,0-2.7c0.2-1.3,0.5-4.4-1.4-6
			c-0.9-0.7-2.1-1.2-3.3-1.2h-0.8c-1.2,0-2.4,0.5-3.4,1.3c-2,1.6-1.7,4.7-1.4,6c-1.1,0.4-0.6,1.7,0,2.7c0.4,0.6,0.7,0.7,0.9,0.7
			c0.1,0,0.2,0,0.2,0c0.4,0.9,0.5,1.9,0.5,2.8c0,2.6-2.7,3-6.1,4.2S115.7,87.1,115.8,87.1"/>
		<path id="Path_1855" class="st2" d="M115.8,59.2c0,0,1.8,2.5,12.2,2.5s12.5-2.5,12.5-2.5s0.7-2.9-2.7-4.1s-6.2-1.6-6.1-4.2
			c0-1,0.1-1.9,0.5-2.8c0.1,0.1,0.2,0.1,0.3,0.1c0.2,0,0.5-0.1,0.9-0.7c0.6-1,1.1-2.4,0-2.7c0.2-1.3,0.5-4.4-1.4-6
			c-0.9-0.7-2.1-1.2-3.3-1.2h-0.8c-1.2,0-2.4,0.5-3.4,1.3c-2,1.6-1.7,4.7-1.4,6c-1.1,0.4-0.6,1.7,0,2.7c0.4,0.5,0.7,0.7,0.9,0.7
			c0.1,0,0.2,0,0.3-0.1c0.4,0.9,0.5,1.8,0.5,2.8c0,2.6-2.7,3-6.1,4.2S115.8,59.2,115.8,59.2"/>
		<path id="Path_1860" class="st2" d="M115.8,31.4c0,0,1.8,2.5,12.2,2.5s12.5-2.5,12.5-2.5s0.7-2.9-2.7-4.1s-6.2-1.6-6.1-4.2
			c0-1,0.1-1.9,0.5-2.8c0.1,0.1,0.2,0.1,0.3,0.1c0.2,0,0.5-0.1,0.9-0.7c0.6-1,1.1-2.4,0-2.7c0.2-1.3,0.5-4.4-1.4-6
			c-0.9-0.7-2.1-1.2-3.3-1.2h-0.8c-1.2,0-2.4,0.5-3.4,1.3c-2,1.6-1.7,4.7-1.4,6c-1.1,0.4-0.6,1.7,0,2.7c0.4,0.5,0.7,0.7,0.9,0.7
			c0.1,0,0.2,0,0.3-0.1c0.4,0.9,0.5,1.9,0.5,2.8c0,2.6-2.7,3-6.1,4.2S115.8,31.4,115.8,31.4"/>
		<path id="Path_1849" class="st3" d="M143.9,114.9c0,0,1.8,2.5,12.2,2.5s12.5-2.5,12.5-2.5s0.7-2.9-2.7-4.1s-6.2-1.6-6.1-4.2
			c0-1,0.1-1.9,0.5-2.8c0.1,0.1,0.2,0.1,0.3,0.1c0.2,0,0.5-0.1,0.9-0.7c0.6-1,1.1-2.4,0-2.7c0.2-1.3,0.5-4.4-1.4-6
			c-0.9-0.7-2.1-1.2-3.3-1.2h-0.8c-1.2,0-2.4,0.5-3.4,1.3c-1.9,1.6-1.7,4.7-1.4,6c-1.1,0.4-0.6,1.7,0,2.7c0.4,0.5,0.7,0.7,0.9,0.7
			c0.1,0,0.2,0,0.3-0.1c0.4,0.9,0.5,1.9,0.5,2.8c0.1,2.6-2.7,3-6.1,4.2S143.9,114.9,143.9,114.9"/>
		<path id="Path_1854" class="st2" d="M143.9,87.1c0,0,1.8,2.5,12.2,2.5s12.5-2.5,12.5-2.5s0.7-2.9-2.7-4.1s-6.2-1.6-6.1-4.2
			c0-1,0.1-1.9,0.5-2.8c0.1,0.1,0.2,0.1,0.3,0.1c0.2,0,0.5-0.1,0.9-0.7c0.6-1,1.1-2.4,0-2.7c0.2-1.3,0.5-4.4-1.4-6
			c-0.9-0.7-2.1-1.2-3.3-1.2h-0.8c-1.2,0-2.4,0.5-3.4,1.3c-1.9,1.6-1.7,4.7-1.4,6c-1.1,0.4-0.6,1.7,0,2.7c0.4,0.6,0.7,0.7,0.9,0.7
			c0.1,0,0.2,0,0.3-0.1c0.4,0.9,0.5,1.9,0.5,2.8c0.1,2.6-2.7,3-6.1,4.2S143.9,87.1,143.9,87.1"/>
		<path id="Path_1859" class="st2" d="M143.9,59.2c0,0,1.8,2.5,12.2,2.5s12.5-2.5,12.5-2.5s0.7-2.9-2.7-4.1s-6.2-1.6-6.1-4.2
			c0-1,0.1-1.9,0.5-2.8c0.1,0.1,0.2,0.1,0.3,0.1c0.2,0,0.5-0.1,0.9-0.7c0.6-1,1.1-2.4,0-2.7c0.2-1.3,0.5-4.4-1.4-6
			c-0.9-0.7-2.1-1.2-3.3-1.2h-0.8c-1.2,0-2.4,0.5-3.4,1.3c-1.9,1.6-1.7,4.7-1.4,6c-1.1,0.4-0.6,1.7,0,2.7c0.4,0.5,0.7,0.7,0.9,0.7
			c0.1,0,0.2,0,0.3-0.1c0.4,0.9,0.5,1.8,0.5,2.8c0.1,2.6-2.7,3-6.1,4.2S143.9,59.2,143.9,59.2"/>
		<path id="Path_1864" class="st2" d="M143.9,31.4c0,0,1.8,2.5,12.2,2.5s12.5-2.5,12.5-2.5s0.7-2.9-2.7-4.1s-6.2-1.6-6.1-4.2
			c0-1,0.1-1.9,0.5-2.8c0.1,0.1,0.2,0.1,0.3,0.1c0.2,0,0.5-0.1,0.9-0.7c0.6-1,1.1-2.4,0-2.7c0.2-1.3,0.5-4.4-1.4-6
			c-0.9-0.7-2.1-1.2-3.3-1.2h-0.8c-1.2,0-2.4,0.5-3.4,1.3c-1.9,1.6-1.7,4.7-1.4,6c-1.1,0.4-0.6,1.7,0,2.7c0.4,0.5,0.7,0.7,0.9,0.7
			c0.1,0,0.2,0,0.3-0.1c0.4,0.9,0.5,1.9,0.5,2.8c0.1,2.6-2.7,3-6.1,4.2S143.9,31.4,143.9,31.4"/>
	</g>
</g>
</svg>
