<svg id="Layer_1" data-name="Layer 1" xmlns="http://www.w3.org/2000/svg" viewBox="0 0 137 120"><defs><style>.cls-1{fill:#d3f0f5;}.cls-2{fill:#fff;}.cls-3{fill:#4e4b6e;}.cls-4{fill:#bea9d2;}</style></defs><g id="Group_723" data-name="Group 723"><path id="Path_1013" data-name="Path 1013" class="cls-1" d="M11.16,88.07C31.46,117.65,111,117.2,126,79.66c11.43-28.49-38.32-75.18-62.89-64.2S50.55,44.73,31.73,53.63C8.91,64.48,4.92,78.94,11.16,88.07Z"/><path id="Path_1014" data-name="Path 1014" class="cls-1" d="M21,49.32c-2-4.14-13.44-1.56-11.83,4.07C11.48,61.41,22.69,52.79,21,49.32Z"/></g><path class="cls-2" d="M111.55,36.39a11.13,11.13,0,0,0-2.88-4.15,11.41,11.41,0,0,0-4.34-2.45,10.78,10.78,0,0,0-5.11-.31,15.87,15.87,0,0,0-2.53.72h0a11.28,11.28,0,0,0-6,14.78,5.27,5.27,0,0,1,.29,2.55l-.85,3.94,4-.85a1.88,1.88,0,0,1,.84-.13,3.68,3.68,0,0,1,1.69.42,18.82,18.82,0,0,0,2.54.72h.12a12.35,12.35,0,0,0,1.72.15,11.26,11.26,0,0,0,8.89-4.32,9.94,9.94,0,0,0,1.14-1.8,11.58,11.58,0,0,0,1.11-3.35,13.09,13.09,0,0,0,.14-3.25A8.6,8.6,0,0,0,111.55,36.39ZM100.94,47.82a1.27,1.27,0,1,1,1.27-1.27A1.27,1.27,0,0,1,100.94,47.82Zm1.41-6.39v1.64a1.27,1.27,0,0,1-2.53-.19,4.15,4.15,0,0,1,2.11-3.81,1.73,1.73,0,0,0,1-1.55,1.84,1.84,0,0,0-3.67,0,1.27,1.27,0,0,1-2.53,0,.38.38,0,0,1,0-.15h0a4.13,4.13,0,0,1,4.22-4.06,4.53,4.53,0,0,1,4.3,2.92v.14A4.12,4.12,0,0,1,102.35,41.43Z"/><path class="cls-3" d="M111,30.45v0a14,14,0,0,0-19.85,0,13.85,13.85,0,0,0-3,15.5,1.91,1.91,0,0,1,.14.85L87,52.73A1.14,1.14,0,0,0,87.41,54a1.58,1.58,0,0,0,1,.42h.28l6.06-1.27a1.84,1.84,0,0,1,.84.14A14,14,0,0,0,111,30.45Zm1.14,11.87A11.58,11.58,0,0,1,111,45.67a9.94,9.94,0,0,1-1.14,1.8A11.26,11.26,0,0,1,101,51.79a12.35,12.35,0,0,1-1.72-.15h-.12a18.82,18.82,0,0,1-2.54-.72,3.68,3.68,0,0,0-1.69-.42,1.88,1.88,0,0,0-.84.13l-4,.85.85-3.94A5.27,5.27,0,0,0,90.65,45a11.28,11.28,0,0,1,6-14.78h0a15.87,15.87,0,0,1,2.53-.72,10.78,10.78,0,0,1,5.11.31,11.41,11.41,0,0,1,4.34,2.45,11.13,11.13,0,0,1,2.88,4.15,8.6,8.6,0,0,1,.68,2.68A13.09,13.09,0,0,1,112.09,42.32Z"/><path class="cls-3" d="M105.24,36.34v-.12a4.53,4.53,0,0,0-4.3-2.92,4.13,4.13,0,0,0-4.22,4.06h0a.38.38,0,0,0,0,.15,1.27,1.27,0,0,0,2.53,0,1.84,1.84,0,0,1,3.67,0,1.73,1.73,0,0,1-1,1.55,4.15,4.15,0,0,0-2.11,3.81,1.27,1.27,0,0,0,2.53.19V41.43a4.12,4.12,0,0,0,2.89-5.07Z"/><path class="cls-3" d="M100.94,45.28a1.27,1.27,0,1,0,1.27,1.27A1.27,1.27,0,0,0,100.94,45.28Z"/><path class="cls-4" d="M76.26,62.1l-.11.35L70.73,84.36l7.52-12-2.41-2.78a1.42,1.42,0,0,1,.56-2.24l3-1.14L79,59.07l-1.6-1.43Z"/><path class="cls-2" d="M56.63,47.07a1.54,1.54,0,0,1,2.07.59,17.45,17.45,0,0,1,1.43,7.61,1.34,1.34,0,0,1-.05.35v.7L61.42,62a6.35,6.35,0,0,0,12-.28l1.37-5.53a1.48,1.48,0,0,1-.27-.85c0-.39,0-.75,0-1.1v0h0A16.83,16.83,0,0,1,76,47.69,1.53,1.53,0,0,1,78,47.1a2.3,2.3,0,0,0,.87-1c1.24-2,1.57-3.54,1.35-4.13,0-.07-.1-.25-.51-.37a1.48,1.48,0,0,1-1-1.73c.41-2.23,1.38-9.81-3.09-13.51a12.35,12.35,0,0,0-7.42-2.76H66.46A12.33,12.33,0,0,0,59,26.4C54.58,30.11,55.55,37.67,56,39.91a1.48,1.48,0,0,1-1,1.7c-.42.12-.48.29-.51.37-.22.58.11,2.08,1.35,4.13A2.3,2.3,0,0,0,56.63,47.07Z"/><path class="cls-4" d="M102.43,87.74l-1.77-14.55a8.41,8.41,0,0,0-5.26-6.81L84.57,62.11l.81,1.37a14.26,14.26,0,0,1,2,7.21V78.9a5.87,5.87,0,1,1-2.8,0V70.69A11.61,11.61,0,0,0,83,64.91L82,63.32,82.24,67a1.42,1.42,0,0,1-.9,1.4l-2.07.79,1.78,2.06a1.37,1.37,0,0,1,.12,1.66L68.76,92.81a1.76,1.76,0,0,1-.57.58,1.81,1.81,0,0,1-2.49-.58L53.3,73a1.4,1.4,0,0,1,.13-1.66l1.78-2.06-2.07-.79a1.4,1.4,0,0,1-.9-1.39l.25-4.37a12,12,0,0,0-3.47,8,5.89,5.89,0,0,1,4.76,5.28l1.81,9.65a4.53,4.53,0,0,1,.07.74,4.65,4.65,0,0,1-4.53,4.76v.61a.43.43,0,0,1-.43.43H49.16a.43.43,0,0,1-.43-.43V87.83a.43.43,0,0,1,.43-.43h1.55a.42.42,0,0,1,.42.43v.43l.26,0a1.8,1.8,0,0,0,1.43-2.13L51,76.28a3.1,3.1,0,0,0-3-3,3.05,3.05,0,0,0-3,2.82l-1.85,10a1.83,1.83,0,0,0,.4,1.49,1.8,1.8,0,0,0,1.4.66v-.45a.44.44,0,0,1,.43-.43h1.43a.42.42,0,0,1,.42.43v3.9h0a.42.42,0,0,1-.43.41H45.3a.42.42,0,0,1-.42-.42v-.6A4.48,4.48,0,0,1,44,91a4.65,4.65,0,0,1-3.67-5.45l1.79-9.83a5.74,5.74,0,0,1,4.09-5,13.83,13.83,0,0,1,2.7-8.24l-9.65,3.82A8.37,8.37,0,0,0,34,73.2l-1.82,15c2,1.72,12.23,9.6,35.08,9.6S100.49,89.52,102.43,87.74Z"/><path class="cls-4" d="M82.89,84.58A3.06,3.06,0,1,0,86,81.52h0A3.07,3.07,0,0,0,82.89,84.58Z"/><path class="cls-4" d="M55.13,66.17l3,1.14a1.4,1.4,0,0,1,.55,2.24l-2.4,2.78L63.91,84.6,58.76,63v-.08l-.13-.42h.06l-1.2-5.1-2,1.72Z"/><path class="cls-2" d="M62.76,67.62l4.54,19,4.62-18.93a9.19,9.19,0,0,1-4.46,1.25A9.51,9.51,0,0,1,62.76,67.62Z"/><path class="cls-3" d="M105.27,87.82l-1.81-15a11.23,11.23,0,0,0-7-9.09L81.63,57.93a1.38,1.38,0,0,0-.37-.58l-3.72-3.28a17.78,17.78,0,0,1,.71-4c.93-.07,2-.52,3.21-2.43s2.39-4.64,1.59-6.74a3.42,3.42,0,0,0-1.22-1.59c.54-3.85.72-11.08-4.3-15.24a15.3,15.3,0,0,0-8.91-3.42,1.14,1.14,0,0,0-.41-.07H66.48a1.32,1.32,0,0,0-.44.13,15.43,15.43,0,0,0-8.91,3.42c-5.05,4.17-4.84,11.4-4.31,15.25A3.33,3.33,0,0,0,51.61,41c-.8,2.1.47,4.92,1.59,6.75s2.32,2.34,3.22,2.41a18.09,18.09,0,0,1,.69,3.78L53.2,57.35a1.42,1.42,0,0,0-.4.65L38.22,63.77a11.22,11.22,0,0,0-7,9.09L29.31,88.45a1.47,1.47,0,0,0,.34,1.47c.42.47,10.67,10.86,37.6,10.86S104.54,89.93,105,89.44A1.5,1.5,0,0,0,105.27,87.82ZM34,73.2a8.37,8.37,0,0,1,5.26-6.81l9.65-3.82a13.83,13.83,0,0,0-2.7,8.24,5.74,5.74,0,0,0-4.09,5l-1.79,9.83A4.65,4.65,0,0,0,44,91a4.48,4.48,0,0,0,.89.09v.6a.42.42,0,0,0,.42.42h1.43a.42.42,0,0,0,.43-.41h0v-3.9a.42.42,0,0,0-.42-.43H45.31a.44.44,0,0,0-.43.43v.45a1.8,1.8,0,0,1-1.4-.66,1.83,1.83,0,0,1-.4-1.49l1.85-10a3.05,3.05,0,0,1,3-2.82,3.1,3.1,0,0,1,3,3l1.85,9.81a1.8,1.8,0,0,1-1.43,2.13l-.26,0v-.43a.42.42,0,0,0-.42-.43H49.16a.43.43,0,0,0-.43.43v3.86a.43.43,0,0,0,.43.43H50.7a.43.43,0,0,0,.43-.43v-.61a4.65,4.65,0,0,0,4.53-4.76,4.53,4.53,0,0,0-.07-.74l-1.81-9.65A5.89,5.89,0,0,0,49,70.65a12,12,0,0,1,3.47-8l-.25,4.37a1.4,1.4,0,0,0,.9,1.39l2.07.79L53.43,71.3A1.4,1.4,0,0,0,53.3,73L65.7,92.81a1.81,1.81,0,0,0,2.49.58,1.76,1.76,0,0,0,.57-.58L81.17,72.94a1.37,1.37,0,0,0-.12-1.66l-1.78-2.06,2.07-.79a1.42,1.42,0,0,0,.9-1.4L82,63.32,83,64.91a11.61,11.61,0,0,1,1.57,5.78V78.9a5.87,5.87,0,1,0,2.8,0V70.69a14.26,14.26,0,0,0-2-7.21l-.81-1.37L95.4,66.38a8.41,8.41,0,0,1,5.26,6.81l1.77,14.55C100.49,89.52,90.16,97.8,67.25,97.8s-33.11-7.88-35.08-9.6ZM54.41,42c0-.08.09-.25.51-.37a1.48,1.48,0,0,0,1-1.7c-.4-2.24-1.37-9.8,3.09-13.51a12.33,12.33,0,0,1,7.42-2.76H68.2a12.35,12.35,0,0,1,7.42,2.76c4.47,3.7,3.5,11.28,3.09,13.51a1.48,1.48,0,0,0,1,1.73c.41.12.51.3.51.37.22.59-.11,2.09-1.35,4.13a2.3,2.3,0,0,1-.87,1,1.53,1.53,0,0,0-2.07.59,16.83,16.83,0,0,0-1.4,6.47h0v0c0,.35,0,.71,0,1.1a1.48,1.48,0,0,0,.27.85l-1.37,5.53a6.35,6.35,0,0,1-12,.28l-1.34-5.64v-.7a1.34,1.34,0,0,0,.05-.35,17.45,17.45,0,0,0-1.43-7.61,1.54,1.54,0,0,0-2.07-.59,2.3,2.3,0,0,1-.87-1C54.52,44.06,54.19,42.56,54.41,42Zm25,24.19-3,1.14a1.42,1.42,0,0,0-.56,2.24l2.41,2.78-7.52,12,5.42-21.91.11-.35,1.1-4.46L79,59.07ZM67.3,86.61l-4.54-19a9.51,9.51,0,0,0,4.7,1.31,9.19,9.19,0,0,0,4.46-1.25ZM58.69,62.45h-.06l.13.42V63L63.91,84.6,56.25,72.33l2.4-2.78a1.4,1.4,0,0,0-.55-2.24l-3-1.14.4-7.1,2-1.72ZM86,81.52h0a3.06,3.06,0,1,1-3.07,3.06A3.08,3.08,0,0,1,86,81.52Z"/></svg>