<svg id="Layer_1" data-name="Layer 1" xmlns="http://www.w3.org/2000/svg" viewBox="0 0 137 120"><defs><style>.cls-1{fill:#d3f0f5;}.cls-2{fill:none;}.cls-3{fill:#5ac7d9;}.cls-4{fill:#fff;}.cls-5{fill:#4f476a;}.cls-6{fill:#4e4b6f;}</style></defs><g id="Group_723" data-name="Group 723"><path id="Path_1013" data-name="Path 1013" class="cls-1" d="M11.09,86.75c20.42,29.76,100.4,29.3,115.57-8.46C138.15,49.62,88.11,2.65,63.44,13.7S50.74,43.14,31.81,52.11C8.83,63,4.81,77.59,11.09,86.75Z"/><path id="Path_1014" data-name="Path 1014" class="cls-1" d="M17.47,51.64c-2.54-3.79-13.61.27-11.24,5.68C9.61,65,19.61,54.88,17.47,51.64Z"/></g><path class="cls-2" d="M70.75,82.33c0,.2,0,.43.08.65,0-.23-.06-.47-.08-.67H58.9a26.17,26.17,0,0,1-3.78,11.25h0A25.56,25.56,0,0,0,58.9,82.33Z"/><path class="cls-2" d="M74.51,93.56h0a19.9,19.9,0,0,1-2.34-4.77A20.19,20.19,0,0,0,74.51,93.56Z"/><path class="cls-3" d="M70.83,83c0-.22-.06-.45-.08-.65H58.9a25.56,25.56,0,0,1-3.77,11.23H74.51a20.19,20.19,0,0,1-2.32-4.77A29.35,29.35,0,0,1,70.83,83Z"/><path class="cls-4" d="M103.86,25.58H25.76a2,2,0,0,0-2,2v40.6H87.74V51.32a4.84,4.84,0,0,1,4.84-4.85h13.23V27.52A2,2,0,0,0,103.86,25.58ZM35.74,55.25H49.83a1.68,1.68,0,0,1-.24,3.36H35.74a1.68,1.68,0,0,1,0-3.36ZM61.1,52.41H35.76a1.69,1.69,0,0,1,0-3.37H61.1a1.69,1.69,0,0,1,0,3.37ZM36.42,39.94a2.22,2.22,0,1,1,2.22-2.22A2.22,2.22,0,0,1,36.42,39.94Zm-.66,3.71H56.53a1.69,1.69,0,0,1,0,3.37H35.76a1.69,1.69,0,0,1,0-3.37Zm6.56-3.71a2.22,2.22,0,1,1,2.22-2.22A2.22,2.22,0,0,1,42.32,39.94Zm5.91,0A2.2,2.2,0,0,1,46,37.72v0a2.22,2.22,0,1,1,2.2,2.24Z"/><path class="cls-3" d="M23.81,77.22a2,2,0,0,0,2,2h62V70.9H23.81Z"/><path class="cls-5" d="M25.76,79.17a2,2,0,0,1-2-2V70.9H23.7V68.13h.11V27.53a2,2,0,0,1,2-2h78.1a2,2,0,0,1,2,1.94v19H109V27.27a5.1,5.1,0,0,0-5.07-4.87H25.76a5.2,5.2,0,0,0-5.11,5.13V77.2a5.14,5.14,0,0,0,5.11,5.11H55.7c-.39,3.1-1.57,8.57-5.1,11.67a1.58,1.58,0,0,0-.19,2.23,1.56,1.56,0,0,0,.89.53h27a1.54,1.54,0,0,0,1.25-1A1.6,1.6,0,0,0,79.09,94c-3.54-3.09-4.71-8.57-5.11-11.68H87.74V79.17ZM74.53,93.56H55.12A26.17,26.17,0,0,0,58.9,82.31H70.75c0,.2,0,.44.08.67a29.35,29.35,0,0,0,1.36,5.81A19.9,19.9,0,0,0,74.53,93.56Z"/><path class="cls-4" d="M111.5,49.51H92.58a1.83,1.83,0,0,0-1.82,1.82V92.77a1.83,1.83,0,0,0,1.82,1.82H111.5a1.83,1.83,0,0,0,1.82-1.82V51.33A1.83,1.83,0,0,0,111.5,49.51Zm-5.33,40.86H98a1.67,1.67,0,0,1-.77,0A1.73,1.73,0,1,1,98,87h8.21a1.73,1.73,0,0,1,0,3.37Z"/><path class="cls-6" d="M111.5,46.47H92.58a4.84,4.84,0,0,0-4.84,4.85V68.13h1.17V70.9H87.74V92.75a4.85,4.85,0,0,0,4.84,4.85H111.5a4.85,4.85,0,0,0,4.85-4.85V51.32h0A4.85,4.85,0,0,0,111.5,46.47Zm1.82,46.3a1.83,1.83,0,0,1-1.82,1.82H92.58a1.83,1.83,0,0,1-1.82-1.82V51.33a1.83,1.83,0,0,1,1.82-1.82H111.5a1.83,1.83,0,0,1,1.82,1.82Z"/><path class="cls-6" d="M106.17,87H98a1.73,1.73,0,1,0-.77,3.37,1.67,1.67,0,0,0,.77,0h8.21a1.73,1.73,0,0,0,0-3.37Z"/><path class="cls-6" d="M35.76,47H56.53a1.69,1.69,0,0,0,0-3.37H35.76a1.69,1.69,0,0,0,0,3.37Z"/><path class="cls-6" d="M35.74,58.61H49.59a1.68,1.68,0,0,0,.24-3.36H35.74a1.68,1.68,0,0,0,0,3.36Z"/><path class="cls-6" d="M61.1,49H35.76a1.69,1.69,0,0,0,0,3.37H61.1a1.69,1.69,0,0,0,0-3.37Z"/><circle class="cls-6" cx="36.42" cy="37.72" r="2.22"/><circle class="cls-6" cx="42.32" cy="37.72" r="2.22"/><path class="cls-6" d="M48.28,35.51A2.21,2.21,0,0,0,46,37.69v0a2.22,2.22,0,1,0,2.25-2.21Z"/><polygon class="cls-5" points="23.7 68.13 23.7 70.9 23.81 70.9 87.73 70.9 88.91 70.9 88.91 68.13 87.73 68.13 23.81 68.13 23.7 68.13"/><g id="Group_723-2" data-name="Group 723"><path id="Path_1013-2" data-name="Path 1013" class="cls-1" d="M11.09,86.75c20.42,29.76,100.4,29.3,115.57-8.46C138.15,49.62,88.11,2.65,63.44,13.7S50.74,43.14,31.81,52.11C8.83,63,4.81,77.59,11.09,86.75Z"/><path id="Path_1014-2" data-name="Path 1014" class="cls-1" d="M17.47,51.64c-2.54-3.79-13.61.27-11.24,5.68C9.61,65,19.61,54.88,17.47,51.64Z"/></g><path class="cls-2" d="M70.75,82.33c0,.2,0,.43.08.65,0-.23-.06-.47-.08-.67H58.9a26.17,26.17,0,0,1-3.78,11.25h0A25.56,25.56,0,0,0,58.9,82.33Z"/><path class="cls-2" d="M74.51,93.56h0a19.9,19.9,0,0,1-2.34-4.77A20.19,20.19,0,0,0,74.51,93.56Z"/><path class="cls-3" d="M70.83,83c0-.22-.06-.45-.08-.65H58.9a25.56,25.56,0,0,1-3.77,11.23H74.51a20.19,20.19,0,0,1-2.32-4.77A29.35,29.35,0,0,1,70.83,83Z"/><path class="cls-4" d="M103.86,25.58H25.76a2,2,0,0,0-2,2v40.6H87.74V51.32a4.84,4.84,0,0,1,4.84-4.85h13.23V27.52A2,2,0,0,0,103.86,25.58ZM35.74,55.25H49.83a1.68,1.68,0,0,1-.24,3.36H35.74a1.68,1.68,0,0,1,0-3.36ZM61.1,52.44H35.76a1.69,1.69,0,0,1,0-3.37L61.1,49a1.69,1.69,0,0,1,1.56,1.56A1.72,1.72,0,0,1,61.1,52.44ZM36.42,39.94a2.22,2.22,0,1,1,2.22-2.22A2.22,2.22,0,0,1,36.42,39.94Zm-.66,3.71H56.53a1.69,1.69,0,0,1,0,3.37H35.76a1.69,1.69,0,0,1,0-3.37Zm6.56-3.71a2.22,2.22,0,1,1,2.22-2.22A2.22,2.22,0,0,1,42.32,39.94Zm5.91,0A2.2,2.2,0,0,1,46,37.72v0a2.22,2.22,0,1,1,2.2,2.24Z"/><path class="cls-3" d="M23.81,77.22a2,2,0,0,0,2,2h62V70.9H23.81Z"/><path class="cls-5" d="M25.76,79.17a2,2,0,0,1-2-2V70.9H23.7V68.13h.11V27.53a2,2,0,0,1,2-2h78.1a2,2,0,0,1,2,1.94v19H109V27.27a5.1,5.1,0,0,0-5.07-4.87H25.76a5.2,5.2,0,0,0-5.11,5.13V77.2a5.14,5.14,0,0,0,5.11,5.11H55.7c-.39,3.1-1.57,8.57-5.1,11.67a1.58,1.58,0,0,0-.19,2.23,1.56,1.56,0,0,0,.89.53h27a1.54,1.54,0,0,0,1.25-1A1.6,1.6,0,0,0,79.09,94c-3.54-3.09-4.71-8.57-5.11-11.68H87.74V79.17ZM74.53,93.56H55.12A26.17,26.17,0,0,0,58.9,82.31H70.75c0,.2,0,.44.08.67a29.35,29.35,0,0,0,1.36,5.81A19.9,19.9,0,0,0,74.53,93.56Z"/><path class="cls-4" d="M111.5,49.51H92.58a1.83,1.83,0,0,0-1.82,1.82V92.77a1.83,1.83,0,0,0,1.82,1.82H111.5a1.83,1.83,0,0,0,1.82-1.82V51.33A1.83,1.83,0,0,0,111.5,49.51Zm-5.33,40.86H98a1.67,1.67,0,0,1-.77,0A1.73,1.73,0,1,1,98,87h8.21a1.73,1.73,0,0,1,0,3.37Z"/><path class="cls-6" d="M111.5,46.47H92.58a4.84,4.84,0,0,0-4.84,4.85V68.13h1.17V70.9H87.74V92.75a4.85,4.85,0,0,0,4.84,4.85H111.5a4.85,4.85,0,0,0,4.85-4.85V51.32h0A4.85,4.85,0,0,0,111.5,46.47Zm1.82,46.3a1.83,1.83,0,0,1-1.82,1.82H92.58a1.83,1.83,0,0,1-1.82-1.82V51.33a1.83,1.83,0,0,1,1.82-1.82H111.5a1.83,1.83,0,0,1,1.82,1.82Z"/><path class="cls-6" d="M106.17,87H98a1.73,1.73,0,1,0-.77,3.37,1.67,1.67,0,0,0,.77,0h8.21a1.73,1.73,0,0,0,0-3.37Z"/><path class="cls-6" d="M35.76,47H56.53a1.69,1.69,0,0,0,0-3.37H35.76a1.69,1.69,0,0,0,0,3.37Z"/><path class="cls-6" d="M35.74,58.61H49.59a1.68,1.68,0,0,0,.24-3.36H35.74a1.68,1.68,0,0,0,0,3.36Z"/><circle class="cls-6" cx="36.42" cy="37.72" r="2.22"/><circle class="cls-6" cx="42.32" cy="37.72" r="2.22"/><path class="cls-6" d="M48.28,35.51A2.21,2.21,0,0,0,46,37.69v0a2.22,2.22,0,1,0,2.25-2.21Z"/><polygon class="cls-5" points="23.7 68.13 23.7 70.9 23.81 70.9 87.73 70.9 88.91 70.9 88.91 68.13 87.73 68.13 23.81 68.13 23.7 68.13"/><rect class="cls-4" x="31.85" y="48.73" width="33.81" height="5.04"/><path class="cls-6" d="M61.1,49.57H35.76a1.69,1.69,0,0,0,0,3.37H61.1a1.69,1.69,0,0,0,0-3.37Z"/></svg>