<svg id="Layer_1" data-name="Layer 1" xmlns="http://www.w3.org/2000/svg" xmlns:xlink="http://www.w3.org/1999/xlink" width="160" height="130" viewBox="0 0 160 130"><defs><style>.cls-1,.cls-2,.cls-22{fill:none;}.cls-2{clip-rule:evenodd;}.cls-3{fill:#51c3c5;}.cls-4{clip-path:url(#clip-path);}.cls-5{clip-path:url(#clip-path-2);}.cls-20,.cls-6{fill:#fff;}.cls-7{clip-path:url(#clip-path-3);}.cls-8{clip-path:url(#clip-path-5);}.cls-9{clip-path:url(#clip-path-6);}.cls-10{fill:#4f476a;}.cls-11,.cls-12{fill:#4e4b6f;}.cls-12{fill-rule:evenodd;}.cls-13{clip-path:url(#clip-path-8);}.cls-14{clip-path:url(#clip-path-9);}.cls-15{clip-path:url(#clip-path-10);}.cls-16{clip-path:url(#clip-path-11);}.cls-17{clip-path:url(#clip-path-12);}.cls-18{clip-path:url(#clip-path-13);}.cls-19{clip-path:url(#clip-path-14);}.cls-20,.cls-22{stroke:#4e4b6e;stroke-linecap:round;stroke-linejoin:round;}.cls-20{stroke-width:2.3px;}.cls-21{fill:#4e4b6e;}.cls-22{stroke-width:3.47px;}</style><clipPath id="clip-path"><path class="cls-1" d="M91.37,112.11c-3.24-4.76-4.34-10.64-4.72-14.06H71.88c-.38,3.42-1.49,9.32-4.72,14.06Z"/></clipPath><clipPath id="clip-path-2"><rect class="cls-1" x="14.76" y="6.84" width="129.76" height="129.76"/></clipPath><clipPath id="clip-path-3"><rect class="cls-1" x="24.2" y="23.36" width="110.13" height="92.7"/></clipPath><clipPath id="clip-path-5"><rect class="cls-1" x="24.2" y="23.36" width="110.89" height="94.37"/></clipPath><clipPath id="clip-path-6"><path class="cls-1" d="M127.94,23.36H30.57a6.4,6.4,0,0,0-6.37,6.39V91.68a6.39,6.39,0,0,0,6.37,6.37H67.89c-.49,3.87-2,10.68-6.36,14.56A2,2,0,0,0,61,114.8a2,2,0,0,0,1.84,1.29H95.71a1.94,1.94,0,0,0,1.84-1.29,2,2,0,0,0-.54-2.19c-4.41-3.85-5.87-10.69-6.36-14.56H128a6.37,6.37,0,0,0,6.36-6.37V29.75A6.38,6.38,0,0,0,128,23.36Zm2.43,68.32a2.43,2.43,0,0,1-2.43,2.43H30.57a2.42,2.42,0,0,1-2.43-2.42h0V29.75a2.42,2.42,0,0,1,2.42-2.43h97.37a2.42,2.42,0,0,1,2.43,2.42h0ZM86.65,98.05c.38,3.42,1.49,9.32,4.72,14.06H67.16c3.24-4.76,4.34-10.64,4.72-14.06Z"/></clipPath><clipPath id="clip-path-8"><path class="cls-2" d="M448.45-94.95s1.72,2.4,11.68,2.4,12-2.4,12-2.4.64-2.77-2.59-4-5.93-1.58-5.87-4a6.22,6.22,0,0,1,.49-2.67.51.51,0,0,0,.28.08c.21,0,.51-.12.84-.66.59-1,1.06-2.27,0-2.59.22-1.24.49-4.22-1.39-5.78a5.49,5.49,0,0,0-3.21-1.2h-.74a5.49,5.49,0,0,0-3.2,1.2c-1.88,1.56-1.62,4.54-1.4,5.78-1.05.32-.59,1.62,0,2.59.33.54.64.66.85.66a.46.46,0,0,0,.27-.08,6.22,6.22,0,0,1,.49,2.67c.06,2.47-2.62,2.86-5.86,4s-2.6,4-2.6,4"/></clipPath><clipPath id="clip-path-9"><path class="cls-2" d="M448-83.12a1.8,1.8,0,0,0,1.8,1.79h35.7a1.79,1.79,0,0,0,1.79-1.79,1.79,1.79,0,0,0-1.79-1.78h-35.7a1.79,1.79,0,0,0-1.8,1.78"/></clipPath><clipPath id="clip-path-10"><path class="cls-2" d="M492.65-81.33a1.79,1.79,0,0,0,1.79-1.79,1.79,1.79,0,0,0-1.79-1.78h-.09a1.76,1.76,0,0,0-1.75,1.78,1.83,1.83,0,0,0,1.84,1.79"/></clipPath><clipPath id="clip-path-11"><path class="cls-2" d="M449.82-62.21h35.7A1.79,1.79,0,0,0,487.31-64a1.79,1.79,0,0,0-1.79-1.78h-35.7A1.79,1.79,0,0,0,448-64a1.8,1.8,0,0,0,1.8,1.79"/></clipPath><clipPath id="clip-path-12"><path class="cls-2" d="M506.32-75h-56.5a1.79,1.79,0,0,0-1.8,1.78,1.8,1.8,0,0,0,1.8,1.79h56.5a1.8,1.8,0,0,0,1.8-1.79,1.79,1.79,0,0,0-1.8-1.78"/></clipPath><clipPath id="clip-path-13"><path class="cls-2" d="M504.72-43.16H492.54L490-47.48a1.59,1.59,0,0,0-1.54-.79,1.62,1.62,0,0,0-1.37,1.06l-3.54,10-4.25-15a1.56,1.56,0,0,0-1.58-1.17,1.61,1.61,0,0,0-1.53,1.24l-3.5,14.84-3.34-8.48a1.6,1.6,0,0,0-1.49-1h0a1.6,1.6,0,0,0-1.49,1.07l-4.29,12.19H449.82a1.6,1.6,0,0,0-1.61,1.6,1.61,1.61,0,0,0,1.61,1.6h13.41a1.61,1.61,0,0,0,1.52-1.07L468-40.54l3.63,9.24a1.62,1.62,0,0,0,1.5,1h.11a1.62,1.62,0,0,0,1.46-1.23l3.26-13.82,3.94,13.88a1.59,1.59,0,0,0,1.49,1.17,1.58,1.58,0,0,0,1.57-1.07L489-42.86l1.21,2.1a1.61,1.61,0,0,0,1.4.8h13.1a1.6,1.6,0,0,0,1.61-1.6,1.61,1.61,0,0,0-1.61-1.6"/></clipPath><clipPath id="clip-path-14"><path class="cls-2" d="M217.8-44.88s1.71,2.38,11.58,2.38,11.86-2.38,11.86-2.38.64-2.75-2.57-3.93-5.88-1.56-5.82-4a6.12,6.12,0,0,1,.49-2.65.46.46,0,0,0,.27.08c.21,0,.51-.12.84-.65.58-1,1.05-2.25,0-2.58.22-1.22.48-4.17-1.39-5.72a5.41,5.41,0,0,0-3.17-1.19.05.05,0,0,0,0,0h-.66l0,0A5.46,5.46,0,0,0,226-64.34c-1.87,1.55-1.61,4.5-1.39,5.72-1,.33-.58,1.61,0,2.58.33.53.63.65.84.65a.46.46,0,0,0,.27-.08,6.12,6.12,0,0,1,.49,2.65c.06,2.45-2.6,2.84-5.81,4s-2.58,3.93-2.58,3.93"/></clipPath></defs><title>convenient0</title><g id="Group_723" data-name="Group 723"><path id="Path_1013" data-name="Path 1013" class="cls-3" d="M9.47,97.86c24.87,36.25,122.29,35.69,140.79-10.3,14-34.92-47-92.13-77-78.67S57.76,44.75,34.71,55.67C6.71,69,1.82,86.71,9.47,97.86Z"/></g><g id="Group_80" data-name="Group 80"><g id="Group_71" data-name="Group 71"><g class="cls-4"><g id="Group_70" data-name="Group 70"><g class="cls-5"><g id="Group_69" data-name="Group 69"><rect id="Rectangle_18" data-name="Rectangle 18" class="cls-6" x="55.37" y="86.26" width="47.8" height="37.65"/></g></g></g></g></g><g id="Group_72" data-name="Group 72"><rect id="Rectangle_20" data-name="Rectangle 20" class="cls-6" x="27.6" y="25.91" width="104.07" height="69.81"/></g><g id="Group_79" data-name="Group 79"><g class="cls-7"><g id="Group_78" data-name="Group 78"><g class="cls-5"><g id="Group_77" data-name="Group 77"><g id="Group_76" data-name="Group 76"><g class="cls-8"><g id="Group_75" data-name="Group 75"><g class="cls-9"><g id="Group_74" data-name="Group 74"><g class="cls-8"><g id="Group_73" data-name="Group 73"><rect id="Rectangle_21" data-name="Rectangle 21" class="cls-10" x="12.4" y="11.56" width="133.72" height="116.31"/></g></g></g></g></g></g></g></g></g></g></g></g></g><g id="Group_81" data-name="Group 81"><path id="Path_154" data-name="Path 154" class="cls-6" d="M137.47,115.23H113.88a4.17,4.17,0,0,1-4.16-4.15V59.41a4.17,4.17,0,0,1,4.16-4.15h23.59a4.15,4.15,0,0,1,4.15,4.15v51.67A4.16,4.16,0,0,1,137.47,115.23Z"/><path id="Path_155" data-name="Path 155" class="cls-11" d="M137.47,117.12H113.88a6.06,6.06,0,0,1-6-6.05V59.41a6.06,6.06,0,0,1,6-6h23.59a6.06,6.06,0,0,1,6,6v51.67A6.05,6.05,0,0,1,137.47,117.12ZM113.88,57.17a2.26,2.26,0,0,0-2.27,2.26V111.1a2.27,2.27,0,0,0,2.27,2.27h23.59a2.27,2.27,0,0,0,2.27-2.27V59.43a2.27,2.27,0,0,0-2.27-2.26Z"/></g><g id="Group_89" data-name="Group 89"><path id="Path_162" data-name="Path 162" class="cls-12" d="M130.79,103.9H120.56a2.1,2.1,0,1,0,0,4.2H130.8a2.1,2.1,0,0,0,0-4.2"/></g><circle class="cls-20" cx="48.75" cy="48.56" r="7.21"/><rect class="cls-21" x="47.67" y="44.74" width="2.16" height="7.73" rx="0.99"/><rect class="cls-21" x="47.67" y="44.74" width="2.16" height="7.73" rx="0.99" transform="translate(97.35 -0.15) rotate(90)"/><line class="cls-22" x1="43.26" y1="62.78" x2="69.91" y2="62.78"/><line class="cls-22" x1="74.99" y1="62.78" x2="74.97" y2="62.78"/><line class="cls-22" x1="43.26" y1="70.32" x2="83.03" y2="70.32"/><line class="cls-22" x1="43.26" y1="77.86" x2="72.88" y2="77.86"/></svg>