<svg id="Layer_1" data-name="Layer 1" xmlns="http://www.w3.org/2000/svg" xmlns:xlink="http://www.w3.org/1999/xlink" width="160" height="130" viewBox="0 0 160 130"><defs><style>.cls-1{fill:none;}.cls-2{clip-path:url(#clip-path);}.cls-3{clip-path:url(#clip-path-2);}.cls-4{clip-path:url(#clip-path-3);}.cls-5{clip-path:url(#clip-path-4);}.cls-6{clip-path:url(#clip-path-5);}.cls-7{clip-path:url(#clip-path-6);}.cls-8,.cls-9{fill:#78b1e0;}.cls-10,.cls-9{stroke:#4e4b6e;stroke-linecap:round;stroke-linejoin:round;stroke-width:3.65px;}.cls-10{fill:#fff;}.cls-11{clip-path:url(#clip-path-7);}.cls-12{clip-path:url(#clip-path-8);}.cls-13{clip-path:url(#clip-path-9);}.cls-14{fill:#57547a;}</style><clipPath id="clip-path"><path class="cls-1" d="M283.74,48.39s1.4,2,9.53,2,9.76-2,9.76-2a2.84,2.84,0,0,0-2.11-3.23c-2.65-1-4.84-1.29-4.79-3.3a5.09,5.09,0,0,1,.4-2.18.43.43,0,0,0,.22.06c.18,0,.43-.1.69-.53.48-.8.87-1.85,0-2.12.19-1,.4-3.44-1.14-4.71a4.44,4.44,0,0,0-2.61-1h-.61a4.44,4.44,0,0,0-2.61,1c-1.54,1.27-1.32,3.7-1.14,4.71-.86.27-.48,1.32,0,2.12.27.44.52.53.69.53a.46.46,0,0,0,.23-.06,5.08,5.08,0,0,1,.39,2.18c.05,2-2.14,2.34-4.78,3.3a2.85,2.85,0,0,0-2.12,3.23"/></clipPath><clipPath id="clip-path-2"><path class="cls-1" d="M283.39,58.05a1.46,1.46,0,0,0,1.46,1.46H314a1.46,1.46,0,1,0,0-2.91H284.85a1.45,1.45,0,0,0-1.46,1.45"/></clipPath><clipPath id="clip-path-3"><path class="cls-1" d="M319.81,59.51a1.46,1.46,0,1,0,0-2.91h-.06A1.43,1.43,0,0,0,318.32,58v0a1.49,1.49,0,0,0,1.49,1.45"/></clipPath><clipPath id="clip-path-4"><path class="cls-1" d="M284.85,75.12H314a1.46,1.46,0,1,0,0-2.91H284.85a1.46,1.46,0,1,0,0,2.91"/></clipPath><clipPath id="clip-path-5"><path class="cls-1" d="M331,64.69H284.85a1.46,1.46,0,1,0,0,2.91H331a1.46,1.46,0,1,0,0-2.91"/></clipPath><clipPath id="clip-path-6"><path class="cls-1" d="M329.67,90.67h-9.94l-2-3.52a1.28,1.28,0,0,0-1.25-.65,1.31,1.31,0,0,0-1.12.87l-2.89,8.18L309,83.32a1.27,1.27,0,0,0-1.29-.95,1.31,1.31,0,0,0-1.25,1L303.56,95.5l-2.72-6.92a1.33,1.33,0,0,0-1.23-.83h0a1.31,1.31,0,0,0-1.21.87l-3.5,9.95h-10a1.32,1.32,0,0,0-1.32,1.31h0a1.32,1.32,0,0,0,1.32,1.31h10.95a1.31,1.31,0,0,0,1.24-.88l2.63-7.5,3,7.55a1.31,1.31,0,0,0,1.22.83H304a1.31,1.31,0,0,0,1.19-1l2.66-11.28L311,100.24a1.31,1.31,0,0,0,2.5.08l3.32-9.4,1,1.71a1.29,1.29,0,0,0,1.14.65h10.7A1.3,1.3,0,0,0,331,92h0a1.31,1.31,0,0,0-1.31-1.31h0"/></clipPath><clipPath id="clip-path-7"><path class="cls-1" d="M-92.78-244.38h-9.94l-2-3.53a1.32,1.32,0,0,0-1.26-.65,1.34,1.34,0,0,0-1.12.87l-2.89,8.18-3.46-12.23a1.3,1.3,0,0,0-1.3-.95,1.31,1.31,0,0,0-1.24,1l-2.87,12.12-2.72-6.92a1.3,1.3,0,0,0-1.22-.83h0a1.33,1.33,0,0,0-1.22.88l-3.5,10h-10a1.3,1.3,0,0,0-1.31,1.3h0a1.31,1.31,0,0,0,1.31,1.31h11a1.3,1.3,0,0,0,1.23-.88l2.64-7.49,3,7.54a1.3,1.3,0,0,0,1.22.83h.09a1.33,1.33,0,0,0,1.19-1l2.66-11.28,3.21,11.34a1.31,1.31,0,0,0,1.23.95,1.29,1.29,0,0,0,1.28-.87l3.32-9.39,1,1.7a1.32,1.32,0,0,0,1.14.66h10.69a1.32,1.32,0,0,0,1.32-1.31h0a1.32,1.32,0,0,0-1.31-1.31h0"/></clipPath><clipPath id="clip-path-8"><path class="cls-1" d="M-93.24,19.17s2.12,3,14.42,3,14.78-3,14.78-3a4.3,4.3,0,0,0-3.21-4.89c-4-1.46-7.32-1.95-7.24-5a7.62,7.62,0,0,1,.6-3.3.67.67,0,0,0,.34.1c.26,0,.65-.15,1-.81.73-1.2,1.31-2.8,0-3.21.28-1.53.61-5.2-1.72-7.13a6.77,6.77,0,0,0-4-1.48l0,0h-.83l0,0a6.82,6.82,0,0,0-4,1.48c-2.32,1.93-2,5.6-1.72,7.13-1.31.41-.73,2,0,3.21.4.66.78.81,1,.81A.67.67,0,0,0-83.4,6a7.78,7.78,0,0,1,.61,3.3c.07,3.05-3.25,3.54-7.25,5a4.29,4.29,0,0,0-3.2,4.89"/></clipPath><clipPath id="clip-path-9"><path class="cls-1" d="M-25.14-84h-9.94l-2-3.53a1.31,1.31,0,0,0-1.26-.65,1.31,1.31,0,0,0-1.11.87l-2.89,8.19-3.47-12.23a1.29,1.29,0,0,0-1.3-1,1.32,1.32,0,0,0-1.24,1l-2.86,12.12L-54-86.06a1.3,1.3,0,0,0-1.22-.83h0a1.33,1.33,0,0,0-1.22.88l-3.49,10H-70a1.3,1.3,0,0,0-1.31,1.3h0A1.31,1.31,0,0,0-70-73.45h11a1.3,1.3,0,0,0,1.23-.88l2.64-7.49,3,7.54a1.31,1.31,0,0,0,1.22.83h.09a1.33,1.33,0,0,0,1.19-1L-47-85.73l3.21,11.33a1.31,1.31,0,0,0,1.23,1,1.29,1.29,0,0,0,1.28-.87L-38-83.71-37-82a1.33,1.33,0,0,0,1.14.65h10.69a1.32,1.32,0,0,0,1.32-1.31h0A1.31,1.31,0,0,0-25.13-84h0"/></clipPath></defs><title>effective</title><g id="Group_723" data-name="Group 723"><path id="Path_1013" data-name="Path 1013" class="cls-8" d="M10.21,97.58C35.08,133.83,132.5,133.27,151,87.28,165,52.36,104-4.85,74,8.61S58.5,44.47,35.45,55.39C7.45,68.67,2.56,86.43,10.21,97.58Z"/><path id="Path_1014" data-name="Path 1014" class="cls-8" d="M22.27,50.1c-2.44-5-16.47-1.91-14.5,5C10.59,64.91,24.32,54.35,22.27,50.1Z"/></g><circle class="cls-9" cx="80" cy="65" r="49.49"/><path class="cls-10" d="M32.93,49.75,80,65V15.51A49.48,49.48,0,0,0,32.93,49.75Z"/><circle class="cls-10" cx="80" cy="65" r="35.15"/><path class="cls-14" d="M98.66,48a2.69,2.69,0,0,0-3.79.26L72.38,74.05l-5.25-7.8a2.72,2.72,0,1,0-4.46,3l7,10.32A3.42,3.42,0,0,0,71,80.77a2.41,2.41,0,0,0,.73.24,2.66,2.66,0,0,0,2.48-.89L98.92,51.75A2.68,2.68,0,0,0,98.66,48Z"/></svg>