<svg id="Layer_1" data-name="Layer 1" xmlns="http://www.w3.org/2000/svg" viewBox="0 0 137 120"><defs><style>.cls-1{fill:#d3f0f5;}.cls-2{fill:#78b1e0;}.cls-3{fill:#4e4b6e;}.cls-4{fill:#fff;}</style></defs><g id="Group_723" data-name="Group 723"><path id="Path_1013" data-name="Path 1013" class="cls-1" d="M10.31,86.75c20.42,29.76,100.41,29.3,115.57-8.46C137.37,49.62,87.33,2.65,62.66,13.7S50,43.14,31,52.11C8.05,63,4,77.59,10.31,86.75Z"/><path id="Path_1014" data-name="Path 1014" class="cls-1" d="M20.21,47.77c-2-4.11-13.52-1.57-11.9,4.1C10.62,59.92,21.9,51.25,20.21,47.77Z"/></g><path class="cls-2" d="M70.27,20.23v8.52a31.32,31.32,0,1,1-32,23.3l-8.1-2.62a39.81,39.81,0,1,0,40.15-29.2Z"/><path class="cls-3" d="M68.5,16.64c-.68,0-1.36,0-2,.05l-.62,0-1.44.11-.63.06c-.54.06-1.07.13-1.6.21l-.37.05A43.15,43.15,0,0,0,30.4,39.33l0,.06c-.27.5-.53,1-.78,1.52l-.27.55-.42.95A43.35,43.35,0,1,0,68.5,16.64Zm0,83.17A39.81,39.81,0,0,1,30.12,49.43l8.1,2.62a31.31,31.31,0,1,0,32.05-23.3V20.23A39.81,39.81,0,0,1,68.5,99.81ZM66.73,20.23v8.52A31.35,31.35,0,0,0,39.32,48.68l-8.1-2.62A39.66,39.66,0,0,1,66.73,20.23Zm1.77,12A27.76,27.76,0,1,1,40.74,60,27.79,27.79,0,0,1,68.5,32.24Z"/><path class="cls-4" d="M31.22,46.06l8.1,2.62A31.35,31.35,0,0,1,66.73,28.75V20.23A39.66,39.66,0,0,0,31.22,46.06Z"/><path class="cls-4" d="M68.5,87.76A27.76,27.76,0,1,0,40.74,60,27.79,27.79,0,0,0,68.5,87.76ZM82.87,63.35a1.79,1.79,0,0,1,.7,2.43v0a17.42,17.42,0,0,1-30.19,0A1.8,1.8,0,0,1,54,63.36h0a1.76,1.76,0,0,1,.9-.24,1.78,1.78,0,0,1,1.55.9,13.81,13.81,0,0,0,23.94,0,1.78,1.78,0,0,1,1.55-.9A1.76,1.76,0,0,1,82.87,63.35ZM77.93,49.5a3.19,3.19,0,0,1,0,6.37h0a3.19,3.19,0,0,1,0-6.37ZM55.87,52.69a3.19,3.19,0,1,1,3.19,3.18A3.19,3.19,0,0,1,55.87,52.69Z"/><circle class="cls-4" cx="69.7" cy="60.82" r="20.84"/><g id="AUyLiE"><path class="cls-3" d="M64.61,66.47c1-2.08,2-4,3-6a84.48,84.48,0,0,1,8.59-13.29A3.87,3.87,0,0,1,80.46,46c.91.32,1.13.9.58,1.71-.38.56-.83,1.08-1.25,1.62A96.85,96.85,0,0,0,68.91,68.26l-1.37,3.08a3.29,3.29,0,0,1-4.43,1.41,3.2,3.2,0,0,1-1-.82l-6-8.22c-.75-1-.68-1.81.43-2.37A7.6,7.6,0,0,1,59,60.56a2,2,0,0,1,2.13,1C62.17,63.21,63.37,64.78,64.61,66.47Z"/></g></svg>