<svg id="Layer_1" data-name="Layer 1" xmlns="http://www.w3.org/2000/svg" xmlns:xlink="http://www.w3.org/1999/xlink" width="160" height="130" viewBox="0 0 160 130"><defs><style>.cls-1{fill:none;clip-rule:evenodd;}.cls-2,.cls-3{fill:#78b1e0;}.cls-3,.cls-4{stroke:#4e4b6e;stroke-linecap:round;stroke-linejoin:round;}.cls-3{stroke-width:3.65px;}.cls-4{fill:#fff;stroke-width:3.65px;}.cls-5{fill:#4e4b6e;}.cls-6{clip-path:url(#clip-path);}</style><clipPath id="clip-path"><path class="cls-1" d="M405.36-44.88s1.7,2.38,11.57,2.38,11.86-2.38,11.86-2.38.64-2.75-2.57-3.93-5.87-1.56-5.81-4a6.22,6.22,0,0,1,.48-2.65.5.5,0,0,0,.27.08c.21,0,.52-.12.84-.65.59-1,1.05-2.25,0-2.58.22-1.22.49-4.17-1.38-5.72a5.46,5.46,0,0,0-3.18-1.19l0,0h-.67l0,0a5.46,5.46,0,0,0-3.18,1.19c-1.87,1.55-1.6,4.5-1.38,5.72-1,.33-.59,1.61,0,2.58.32.53.63.65.83.65a.51.51,0,0,0,.28-.08,6.22,6.22,0,0,1,.48,2.65c.06,2.45-2.6,2.84-5.81,4s-2.57,3.93-2.57,3.93"/></clipPath></defs><title>effective0</title><g id="Group_723" data-name="Group 723"><path id="Path_1013" data-name="Path 1013" class="cls-2" d="M10.2,97.86C35.07,134.11,132.49,133.55,151,87.56,165,52.64,104-4.57,74,8.89S58.49,44.75,35.44,55.67C7.44,69,2.55,86.71,10.2,97.86Z"/><path id="Path_1014" data-name="Path 1014" class="cls-2" d="M146.84,110.35c-2.44-5-16.47-1.91-14.5,5C135.16,125.16,148.89,114.6,146.84,110.35Z"/></g><circle class="cls-3" cx="79.99" cy="65.28" r="49.49"/><path class="cls-4" d="M32.92,50,80,65.28V15.79A49.48,49.48,0,0,0,32.92,50Z"/><circle class="cls-4" cx="79.99" cy="65.28" r="35.15"/><g id="AUyLiE"><path class="cls-5" d="M74.89,72.73c1.16-2.29,2.22-4.45,3.35-6.58A93.07,93.07,0,0,1,87.72,51.5a4.26,4.26,0,0,1,4.65-1.32c1,.36,1.24,1,.64,1.89-.42.62-.92,1.19-1.38,1.79a106.3,106.3,0,0,0-12,20.85c-.51,1.13-1,2.26-1.51,3.39a3.62,3.62,0,0,1-6,.65l-6.65-9.06c-.83-1.13-.75-2,.47-2.62a8.67,8.67,0,0,1,2.71-.86A2.22,2.22,0,0,1,71,67.36C72.2,69.14,73.52,70.87,74.89,72.73Z"/></g></svg>