<svg id="Layer_1" data-name="Layer 1" xmlns="http://www.w3.org/2000/svg" width="160" height="130" viewBox="0 0 160 130"><defs><style>.cls-1{fill:#5ac7d9;}.cls-2,.cls-4{fill:#fff;}.cls-2,.cls-3{stroke:#4e4b6e;stroke-linejoin:round;stroke-width:3.93px;}.cls-2{stroke-linecap:round;fill-rule:evenodd;}.cls-3{fill:none;}.cls-5{fill:#4e4b6e;}</style></defs><title>FAQ</title><g id="Group_4585" data-name="Group 4585"><g id="Group_723" data-name="Group 723"><path id="Path_1013" data-name="Path 1013" class="cls-1" d="M10.39,98c24.46,35.65,120.28,35.1,138.4-10.13C162.56,53.53,102.61-2.73,73,10.5s-15.15,35.27-37.82,46C7.68,69.57,2.87,87,10.39,98Z"/><path id="Path_1014" data-name="Path 1014" class="cls-1" d="M22.26,51.31c-2.4-5-16.2-1.88-14.26,4.9C10.77,65.87,24.28,55.49,22.26,51.31Z"/></g><g id="Group_4584" data-name="Group 4584"><path id="Path_4420" data-name="Path 4420" class="cls-2" d="M36.22,79c.87-4.25,1.42-10.2,12.56-14.29S69.17,59.25,69,50.77a21.54,21.54,0,0,0-1.68-9.21,1.67,1.67,0,0,1-1,.27c-.72,0-1.78-.41-2.9-2.26-2-3.35-3.64-7.8,0-8.92-.77-4.27-1.68-14.5,4.8-19.87a18.7,18.7,0,0,1,11-4.12.17.17,0,0,1,.13-.07h2.3a.19.19,0,0,1,.12.07,18.7,18.7,0,0,1,11,4.12c6.48,5.37,5.57,15.6,4.8,19.87,3.64,1.12,2,5.57,0,8.92-1.12,1.85-2.18,2.26-2.9,2.26a1.67,1.67,0,0,1-1-.27,21.54,21.54,0,0,0-1.68,9.21c-.21,8.48,9,9.84,20.18,13.92s14.78,35.78,14.78,35.78-12.76,10.22-47,10.22S33,99.81,33,99.81,35.37,83.12,36.22,79Z"/></g><path id="Path_4421" data-name="Path 4421" class="cls-3" d="M103.28,61.08c-3.66,4.49-12.39,7.65-22.58,7.65-10,0-18.57-3-22.36-7.38"/></g><path id="Path_2424" data-name="Path 2424" class="cls-4" d="M110.83,47.42c3.42-1.25,7.61-2,11-.65,5.17,2.47,10.45,3.87,19.67-4.67,6.32-7,4.38-18.36-4.16-25.11s-9.86-4.46-14.58-2.21C117.8,17,111.6,19.66,110.57,25.42c-1.66,9.3,2.47,14.16,1.8,15.95C111.92,43.4,110.83,47.42,110.83,47.42Z"/><g id="Group_3842" data-name="Group 3842"><g id="message-circle"><g id="message-circle-2"><path id="Path_2425" data-name="Path 2425" class="cls-5" d="M141.06,17.18a19.45,19.45,0,0,0-27.5,0l0,0a19.19,19.19,0,0,0-4.1,21.48,2.47,2.47,0,0,1,.19,1.17L107.86,48a1.59,1.59,0,0,0,.59,1.76,2.14,2.14,0,0,0,1.37.59h.39l8.39-1.76a2.58,2.58,0,0,1,1.17.19,19.38,19.38,0,0,0,21.29-31.63Zm1.57,16.41a16.54,16.54,0,0,1-1.53,4.64,14.35,14.35,0,0,1-1.58,2.49,15.6,15.6,0,0,1-5.42,4.39,15.45,15.45,0,0,1-6.9,1.59,15.81,15.81,0,0,1-2.38-.2l-.16,0a25.15,25.15,0,0,1-3.52-1,5.17,5.17,0,0,0-2.34-.59,2.6,2.6,0,0,0-1.17.19l-5.47,1.18,1.17-5.47a7.27,7.27,0,0,0-.39-3.52A15.64,15.64,0,0,1,121.3,16.8h0a22.27,22.27,0,0,1,3.51-1,14.9,14.9,0,0,1,7.08.43,15.65,15.65,0,0,1,6,3.4,15.36,15.36,0,0,1,4,5.74,12.56,12.56,0,0,1,.94,3.72A17.79,17.79,0,0,1,142.63,33.59Z"/></g></g></g><path id="Path_2426" data-name="Path 2426" class="cls-5" d="M127.19,21.09a5.74,5.74,0,0,0-5.85,5.64.74.74,0,0,0,0,.21,1.76,1.76,0,0,0,3.51,0,2.54,2.54,0,0,1,5.08,0,2.4,2.4,0,0,1-1.37,2.15,5.76,5.76,0,0,0-2.93,5.27h0a1.76,1.76,0,1,0,3.51,0v-2a5.72,5.72,0,0,0,4-7.06c0-.06,0-.11,0-.16A6.27,6.27,0,0,0,127.19,21.09Z"/><circle id="Ellipse_3346" data-name="Ellipse 3346" class="cls-5" cx="127.19" cy="39.44" r="1.76"/></svg>