<svg id="Layer_1" data-name="Layer 1" xmlns="http://www.w3.org/2000/svg" viewBox="0 0 137 120"><defs><style>.cls-1{fill:#d3f0f5;}.cls-2{fill:#fff;}.cls-3{fill:#ffd44f;}.cls-4{fill:#4e4b6e;}</style></defs><g id="Group_723" data-name="Group 723"><path id="Path_1013" data-name="Path 1013" class="cls-1" d="M11.16,88.07C31.46,117.65,111,117.2,126,79.66c11.43-28.49-38.32-75.18-62.89-64.2S50.55,44.73,31.73,53.63C8.91,64.48,4.92,78.94,11.16,88.07Z"/><path id="Path_1014" data-name="Path 1014" class="cls-1" d="M21,49.32c-2-4.14-13.44-1.56-11.83,4.07C11.48,61.41,22.69,52.79,21,49.32Z"/></g><path class="cls-2" d="M67.38,66c5,0,9.69-1.14,12.7-3-3.74-1.67-6.35-3.9-6.26-8.26a17.4,17.4,0,0,1,1.35-7.33,1.68,1.68,0,0,1,1.08-1,1.74,1.74,0,0,1,1.21.08,2.31,2.31,0,0,0,.64-.77c1.29-2.17,1.39-3.39,1.26-3.73,0,0,0-.1-.31-.19a1.69,1.69,0,0,1-1.17-1.93c.38-2.11,1.29-9.27-2.88-12.73a11.87,11.87,0,0,0-6.92-2.58,2,2,0,0,1-.34-.05h-1a2,2,0,0,1-.34.05,11.87,11.87,0,0,0-6.94,2.6c-4.15,3.44-3.24,10.6-2.85,12.71a1.71,1.71,0,0,1-1.18,1.93c-.27.09-.3.16-.31.19-.13.34,0,1.56,1.27,3.74a2.59,2.59,0,0,0,.63.77,1.71,1.71,0,0,1,1.22-.09,1.69,1.69,0,0,1,1.07,1,17.4,17.4,0,0,1,1.35,7.33c.07,4.29-2.47,6.51-6.11,8.18C57.51,64.82,62.22,66,67.38,66Z"/><path class="cls-3" d="M89.51,66.38c-1.33-.49-2.63-.92-3.86-1.33l-1.81-.61c-3.43,3-9.65,5-16.46,5s-13.15-1.91-16.56-5l-2,.68c-1.25.42-2.55.85-3.89,1.34-6.68,2.46-7.31,5.68-7.87,8.52l-.11.54h0c-.49,2.39-1.73,10.93-2.16,13.9,2.57,1.69,12.15,6.93,32.06,6.93S96.35,91.39,99,89.78C97.84,81.27,94.46,68.19,89.51,66.38Z"/><path class="cls-4" d="M90.68,63.17c-1.36-.5-2.69-.94-3.94-1.36-6.48-2.17-9.59-3.37-9.5-7v-.11A14,14,0,0,1,77.87,50,4.42,4.42,0,0,0,81,47.52c1.66-2.79,2.17-5.05,1.53-6.73a3.58,3.58,0,0,0-1.13-1.52c.5-3.79.6-10.71-4.27-14.75a15.31,15.31,0,0,0-8.61-3.33l-.23-.05-.26,0H66.33a1.84,1.84,0,0,0-.42.07,15.31,15.31,0,0,0-8.63,3.35c-4.86,4-4.75,10.94-4.25,14.73a3.46,3.46,0,0,0-1.12,1.52c-.65,1.68-.14,3.94,1.53,6.73A4.42,4.42,0,0,0,56.59,50a13.87,13.87,0,0,1,.63,4.7v.1c.08,3.67-3,4.88-9.5,7.05-1.28.42-2.6.87-4,1.37-8.49,3.12-9.43,7.9-10.05,11.07l-.1.51c-.62,3-2.27,14.64-2.34,15.13a1.72,1.72,0,0,0,.58,1.54c.39.34,9.94,8.26,35,8.26s34.6-7.43,35-7.75a1.72,1.72,0,0,0,.63-1.53C102.19,88,99.49,66.38,90.68,63.17ZM34.78,89.35c.43-3,1.67-11.51,2.16-13.9h0l.11-.54c.56-2.84,1.19-6.06,7.87-8.52,1.34-.49,2.64-.92,3.89-1.34l2-.68c3.41,3.12,9.6,5,16.56,5s13-1.91,16.46-5l1.81.61c1.23.41,2.53.84,3.86,1.33,4.95,1.81,8.33,14.89,9.44,23.4-2.6,1.61-12.11,6.5-32.11,6.5S37.35,91,34.78,89.35ZM60.64,54.74a17.4,17.4,0,0,0-1.35-7.33,1.69,1.69,0,0,0-1.07-1,1.71,1.71,0,0,0-1.22.09,2.59,2.59,0,0,1-.63-.77c-1.3-2.18-1.4-3.4-1.27-3.74,0,0,0-.1.31-.19a1.71,1.71,0,0,0,1.18-1.93c-.39-2.11-1.3-9.27,2.85-12.71a11.87,11.87,0,0,1,6.94-2.6,2,2,0,0,0,.34-.05h1a2,2,0,0,0,.34.05A11.87,11.87,0,0,1,75,27.17c4.17,3.46,3.26,10.62,2.88,12.73a1.69,1.69,0,0,0,1.17,1.93c.27.09.3.16.31.19.13.34,0,1.56-1.26,3.73a2.31,2.31,0,0,1-.64.77,1.74,1.74,0,0,0-1.21-.08,1.68,1.68,0,0,0-1.08,1,17.4,17.4,0,0,0-1.35,7.33c-.09,4.36,2.52,6.59,6.26,8.26-3,1.84-7.69,3-12.7,3s-9.87-1.16-12.85-3.06C58.17,61.25,60.71,59,60.64,54.74Z"/><path class="cls-2" d="M111.55,36.39a11.13,11.13,0,0,0-2.88-4.15,11.41,11.41,0,0,0-4.34-2.45,10.78,10.78,0,0,0-5.11-.31,15.87,15.87,0,0,0-2.53.72h0a11.28,11.28,0,0,0-6,14.78,5.27,5.27,0,0,1,.29,2.55l-.85,3.94,4-.85a1.88,1.88,0,0,1,.84-.13,3.68,3.68,0,0,1,1.69.42,18.82,18.82,0,0,0,2.54.72h.12a12.35,12.35,0,0,0,1.72.15,11.26,11.26,0,0,0,8.89-4.32,9.94,9.94,0,0,0,1.14-1.8,11.58,11.58,0,0,0,1.11-3.35,13.09,13.09,0,0,0,.14-3.25A8.6,8.6,0,0,0,111.55,36.39ZM100.94,47.82a1.27,1.27,0,1,1,1.27-1.27A1.27,1.27,0,0,1,100.94,47.82Zm1.41-6.39v1.64a1.27,1.27,0,0,1-2.53-.19,4.15,4.15,0,0,1,2.11-3.81,1.73,1.73,0,0,0,1-1.55,1.84,1.84,0,0,0-3.67,0,1.27,1.27,0,0,1-2.53,0,.38.38,0,0,1,0-.15h0a4.13,4.13,0,0,1,4.22-4.06,4.53,4.53,0,0,1,4.3,2.92v.14A4.12,4.12,0,0,1,102.35,41.43Z"/><path class="cls-4" d="M111,30.45v0a14,14,0,0,0-19.85,0,13.85,13.85,0,0,0-3,15.5,1.91,1.91,0,0,1,.14.85L87,52.73A1.14,1.14,0,0,0,87.41,54a1.58,1.58,0,0,0,1,.42h.28l6.06-1.27a1.84,1.84,0,0,1,.84.14A14,14,0,0,0,111,30.45Zm1.14,11.87A11.58,11.58,0,0,1,111,45.67a9.94,9.94,0,0,1-1.14,1.8A11.26,11.26,0,0,1,101,51.79a12.35,12.35,0,0,1-1.72-.15h-.12a18.82,18.82,0,0,1-2.54-.72,3.68,3.68,0,0,0-1.69-.42,1.88,1.88,0,0,0-.84.13l-4,.85.85-3.94A5.27,5.27,0,0,0,90.65,45a11.28,11.28,0,0,1,6-14.78h0a15.87,15.87,0,0,1,2.53-.72,10.78,10.78,0,0,1,5.11.31,11.41,11.41,0,0,1,4.34,2.45,11.13,11.13,0,0,1,2.88,4.15,8.6,8.6,0,0,1,.68,2.68A13.09,13.09,0,0,1,112.09,42.32Z"/><path class="cls-4" d="M105.24,36.34v-.12a4.53,4.53,0,0,0-4.3-2.92,4.13,4.13,0,0,0-4.22,4.06h0a.38.38,0,0,0,0,.15,1.27,1.27,0,0,0,2.53,0,1.84,1.84,0,0,1,3.67,0,1.73,1.73,0,0,1-1,1.55,4.15,4.15,0,0,0-2.11,3.81,1.27,1.27,0,0,0,2.53.19V41.43a4.12,4.12,0,0,0,2.89-5.07Z"/><path class="cls-4" d="M100.94,45.28a1.27,1.27,0,1,0,1.27,1.27A1.27,1.27,0,0,0,100.94,45.28Z"/></svg>