<svg id="Layer_1" data-name="Layer 1" xmlns="http://www.w3.org/2000/svg" width="160" height="130" viewBox="0 0 160 130"><defs><style>.cls-1{fill:#78b1e0;}.cls-2{fill:#fff;}.cls-3{fill:#4e4b6e;}.cls-4{fill:none;}</style></defs><title>clinicianFAQ</title><g id="Group_4698" data-name="Group 4698"><g id="Group_4688" data-name="Group 4688"><path id="Path_4428" data-name="Path 4428" class="cls-1" d="M16.89,105.25c7.54,6.68,17.48,10.07,27,12.91a132.08,132.08,0,0,0,31.66,5.55c17.32.82,36.69-1.77,51.89-10.63,12.06-7,23.38-18.86,24.84-33.36A30.17,30.17,0,0,0,151.08,68c-3-10-9.75-18.7-17.06-26C119.09,27.15,97.24,13.36,75.55,12.76a29.26,29.26,0,0,0-14.92,3.11c-29.17,16-10.77,36.12-33.06,49-7.41,4.28-14.48,12.52-17.06,20.69S11.25,100.24,16.89,105.25Z"/><path id="Path_4429" data-name="Path 4429" class="cls-1" d="M29.81,45.29c-4.39-5.83-21.53,1.73-17.26,10C18.63,67.16,33.5,50.2,29.81,45.29Z"/></g><g id="Group_4697" data-name="Group 4697"><g id="Group_4695" data-name="Group 4695"><path id="Path_4430" data-name="Path 4430" class="cls-2" d="M131.2,100.15s1.2-26.23-11.28-31.1S97.18,59.23,95.48,57.66s-3.43-6-3.43-6a59.52,59.52,0,0,0,3.2-6.87c1-2.87,5.43-6.77,4.76-10.35S98.82,26.62,98.69,26,92.44,7.54,80.09,8.57s-18.44,7.7-18.57,16.32S59.66,35.11,59.8,37.1s3.11,7.44,3.11,7.44a6.44,6.44,0,0,1,4.59,4.78s.13,5.18-3.19,7.62c-3.72,2.73-9.28,6-13.54,6.42S35.51,71.75,33.52,73.88,28.74,102,28.74,102s20,15.53,53,13.8S127.36,104.93,131.2,100.15Z"/><g id="Group_4693" data-name="Group 4693"><path id="Path_4431" data-name="Path 4431" class="cls-3" d="M67.86,56.93h0a2.1,2.1,0,0,1-2.11-2.1h0a24.58,24.58,0,0,0-1-7.33c-1.25-.11-2.95-.82-4.52-3.39S56.88,37.59,58,34.65a4.88,4.88,0,0,1,1.71-2.22c-.74-5.41-1-15.55,6-21.38A21.62,21.62,0,0,1,78.25,6.24a2,2,0,0,1,.59-.09h2.43a2,2,0,0,1,.59.09,21.52,21.52,0,0,1,12.5,4.81c7,5.84,6.79,16,6,21.38a4.81,4.81,0,0,1,1.71,2.22c1.11,2.94-.6,6.77-2.23,9.46s-3.26,3.28-4.52,3.38a24.91,24.91,0,0,0-1,7.33,2.1,2.1,0,0,1-2.11,2.11h0a2.1,2.1,0,0,1-2.1-2.11h0c0-6.72,1.93-10.52,2-10.67a2.14,2.14,0,0,1,1.4-1.09,2.1,2.1,0,0,1,1.51.23,3.33,3.33,0,0,0,1.22-1.36c1.74-2.87,2.2-5,1.89-5.79,0-.11-.13-.34-.72-.52A2.11,2.11,0,0,1,96,33.23c.57-3.13,1.94-13.76-4.33-18.95a17.39,17.39,0,0,0-10.4-3.87,2.32,2.32,0,0,1-.38-.06H79.22a2.5,2.5,0,0,1-.38.06,17.42,17.42,0,0,0-10.41,3.87c-6.25,5.19-4.9,15.82-4.33,18.95a2.13,2.13,0,0,1-1.45,2.39c-.58.18-.67.41-.71.52-.31.81.15,2.92,1.89,5.78a3.27,3.27,0,0,0,1.22,1.36,2.09,2.09,0,0,1,1.51-.22A2.12,2.12,0,0,1,68,44.14c.08.16,2,4,2,10.69a2.1,2.1,0,0,1-2.1,2.1Z"/><path id="Path_4432" data-name="Path 4432" class="cls-3" d="M95.25,43.41l0,0Z"/><path id="Path_4433" data-name="Path 4433" class="cls-3" d="M64.85,43.41l0,0Z"/></g><g id="Group_4694" data-name="Group 4694"><path id="Path_4438" data-name="Path 4438" class="cls-4" d="M92.56,64.32l-.15.49-7.6,30.73L95.35,78.67,92,74.77a2,2,0,0,1,.79-3.13L96.94,70l-.58-10-2.28-2-1.54,6.25Z"/><path id="Path_4439" data-name="Path 4439" class="cls-4" d="M66.22,57.66l-2.73,2.41-.58,10,4.18,1.6a2,2,0,0,1,.78,3.13l-3.38,3.9L75.25,95.88,68.07,65.52s0-.08,0-.11l-.2-.57.08,0Z"/><path id="Path_4440" data-name="Path 4440" class="cls-4" d="M106.14,100.15a4.29,4.29,0,1,0-4.29-4.29A4.29,4.29,0,0,0,106.14,100.15Z"/><path id="Path_4441" data-name="Path 4441" class="cls-4" d="M73.64,72.07,80,98.7l6.57-26.55a12.58,12.58,0,0,1-6.3,1.75A13.18,13.18,0,0,1,73.64,72.07Z"/><path id="Path_4442" data-name="Path 4442" class="cls-3" d="M130.72,79.41a15.73,15.73,0,0,0-9.85-12.75L100.1,58.47a1.89,1.89,0,0,0-.52-.81l-6.15-5.44-.77.86-2.47.1.39,2.6-2,7.95a8.91,8.91,0,0,1-16.85.39l0,0-1.87-7.9V53.34H68.52L67,51.67l-6.79,6a1.93,1.93,0,0,0-.54.91l-20.5,8.09a15.73,15.73,0,0,0-9.85,12.75l-2.67,22.07,3.91.48,2.67-22.07a11.8,11.8,0,0,1,7.38-9.56L54.22,65a19.46,19.46,0,0,0-3.78,11.56,8.05,8.05,0,0,0-5.73,6.94l-2.55,13.8a6.51,6.51,0,0,0,6.4,7.71v.84a.6.6,0,0,0,.6.6h2a.61.61,0,0,0,.6-.6h0v-5.42a.61.61,0,0,0-.6-.6h-2a.6.6,0,0,0-.6.6v.64A2.59,2.59,0,0,1,46,98l2.59-14a4.28,4.28,0,0,1,4.25-3.92,4.36,4.36,0,0,1,4.28,4.12L59.7,98a2.56,2.56,0,0,1-2.38,3v-.6a.6.6,0,0,0-.6-.6H54.56a.6.6,0,0,0-.6.6h0v5.42a.6.6,0,0,0,.6.6h2.16a.6.6,0,0,0,.6-.6h0V105a6.52,6.52,0,0,0,6.25-7.72L61.05,83.68a8.27,8.27,0,0,0-6.68-7.4,16.8,16.8,0,0,1,4.87-11.16l-.36,6.13a2,2,0,0,0,1.27,2L63,74.31,60.55,77.2a2,2,0,0,0-.18,2.33l17.4,27.84a2.52,2.52,0,0,0,2.15,1.19,2.49,2.49,0,0,0,2.14-1.18L99.47,79.53a2,2,0,0,0-.18-2.34l-2.5-2.88,2.9-1.11a2,2,0,0,0,1.26-2l-.3-5.21L102,68.26a16.06,16.06,0,0,1,2.2,8.11V87.89a8.25,8.25,0,1,0,4,0V76.37a20.05,20.05,0,0,0-2.74-10.11l-1.14-1.92,15.19,6a11.78,11.78,0,0,1,7.38,9.55L129.47,102l3.92-.47ZM68,65.4s0,.07,0,.11l7.18,30.37L64.49,78.67l3.38-3.91a2,2,0,0,0-.78-3.13L62.91,70l.58-10,2.73-2.41,1.69,7.15-.08,0Zm28.33-5.33.58,10-4.18,1.6A2,2,0,0,0,92,74.77l3.38,3.9L84.81,95.54l7.6-30.73.16-.49h0l1.54-6.25ZM80,98.7,73.64,72.07a13.07,13.07,0,0,0,6.59,1.82,12.48,12.48,0,0,0,6.3-1.75Zm26.18-7.13a4.29,4.29,0,1,1-4.29,4.29,4.29,4.29,0,0,1,4.29-4.29Z"/></g></g><g id="Group_4696" data-name="Group 4696"><path id="Path_4443" data-name="Path 4443" class="cls-3" d="M79.92,118.62c-37.77,0-52.14-14.62-52.74-15.24a2.11,2.11,0,0,1,.07-3h0a2.08,2.08,0,0,1,2.95.07h0c.14.14,13.92,14,49.71,14S129.63,100,129.77,99.87a2.09,2.09,0,0,1,3.07,2.84C132.24,103.36,117.72,118.62,79.92,118.62Z"/></g></g></g><path id="Path_2424" data-name="Path 2424" class="cls-2" d="M110.31,47.87c3.42-1.25,7.61-2,11-.66,5.16,2.48,10.45,3.88,19.66-4.66,6.32-7,4.39-18.37-4.15-25.11s-9.86-4.46-14.58-2.22c-4.94,2.25-11.14,4.88-12.17,10.64-1.66,9.3,2.47,14.16,1.8,16C111.4,43.84,110.31,47.87,110.31,47.87Z"/><g id="Group_3842" data-name="Group 3842"><g id="message-circle"><g id="message-circle-2"><path id="Path_2425" data-name="Path 2425" class="cls-3" d="M140.54,17.63a19.44,19.44,0,0,0-27.5,0l0,0a19.19,19.19,0,0,0-4.1,21.47,2.52,2.52,0,0,1,.2,1.18l-1.76,8.2a1.57,1.57,0,0,0,.59,1.75,2.06,2.06,0,0,0,1.36.59h.39l8.4-1.76a2.48,2.48,0,0,1,1.17.2,19.38,19.38,0,0,0,21.29-31.63ZM142.11,34a16.65,16.65,0,0,1-1.53,4.64,16.21,16.21,0,0,1-1.58,2.5,15.83,15.83,0,0,1-5.42,4.39,15.45,15.45,0,0,1-6.91,1.58A15.67,15.67,0,0,1,124.3,47l-.17,0a23.73,23.73,0,0,1-3.51-1,5.17,5.17,0,0,0-2.34-.59,2.52,2.52,0,0,0-1.18.2l-5.46,1.17,1.17-5.47a7.4,7.4,0,0,0-.39-3.52,15.63,15.63,0,0,1,8.36-20.48l0,0a23.86,23.86,0,0,1,3.52-1,15,15,0,0,1,7.08.43,15.61,15.61,0,0,1,10,9.14,13,13,0,0,1,.94,3.72A17.79,17.79,0,0,1,142.11,34Z"/></g></g></g><path id="Path_2426" data-name="Path 2426" class="cls-3" d="M126.67,21.53a5.75,5.75,0,0,0-5.86,5.64v.22a1.76,1.76,0,0,0,3.52,0,2.54,2.54,0,1,1,5.07,0A2.39,2.39,0,0,1,128,29.54a5.73,5.73,0,0,0-2.93,5.27h0a1.76,1.76,0,0,0,3.51,0h0v-2a5.74,5.74,0,0,0,4-7.07,1,1,0,0,1-.05-.16A6.28,6.28,0,0,0,126.67,21.53Z"/><circle id="Ellipse_3346" data-name="Ellipse 3346" class="cls-3" cx="126.67" cy="39.88" r="1.76"/></svg>