<svg viewBox="0 0 137 120" xmlns="http://www.w3.org/2000/svg"><path d="m122 38.85c-20.11-27-92.74-25.74-104.52 8.88-9 26.29 39 68.66 60.81 58.33s10-27 26.68-35.38c20.3-10.18 23.19-23.53 17.03-31.83z" fill="#d3f0f5"/><path d="m12.3 69.11c-4.68 2.44-1.52 15.89 4.88 13.89 9.14-2.88-.95-15.9-4.88-13.89z" fill="#d3f0f5"/><g fill="#fff"><path d="m53.57 42.61h-11.78a2.45 2.45 0 1 0 0 4.9h16.76a27.21 27.21 0 0 1 -4.98-4.9zm-.83 3.47h-10.74a1 1 0 0 1 0-2h10.74a1 1 0 0 1 0 2z"/><path d="m95.79 43.62a1 1 0 0 0 -1-1h-11.37a26.67 26.67 0 0 1 -4.94 4.84h17.31zm-2.37 2.46h-9.42a1 1 0 0 1 0-2h9.43a1 1 0 0 1 0 2z"/><path d="m99.65 50.78a1 1 0 0 0 -.65-.28h-25c-1.86 1.1-3.59 2-4.9 2.59a1.57 1.57 0 0 1 -.64.14 1.42 1.42 0 0 1 -.63-.15c-1.31-.61-3-1.48-4.88-2.58h-21.16a5.47 5.47 0 0 1 -2.45-.59v35.48a8.77 8.77 0 0 0 8.75 8.76h50.91a1 1 0 0 0 1-1v-12.57h-13.5a8.56 8.56 0 0 1 0-17.12h13.43v-12a1 1 0 0 0 -.28-.68z"/></g><path d="m99.93 80.58v12.6a1 1 0 0 1 -1 1h-50.84a8.77 8.77 0 0 1 -8.75-8.76v-35.5a5.47 5.47 0 0 0 2.45.59h21.21a43.66 43.66 0 0 1 -4.43-3h-16.78a2.45 2.45 0 1 1 0-4.9h11.78a16 16 0 0 1 -1.81-3h-10a5.46 5.46 0 0 0 -5.45 5.45v40.33a11.77 11.77 0 0 0 11.78 11.76h50.91a4 4 0 0 0 4-4v-12.57z" fill="#4e4b6f"/><path d="m83.42 42.66h11.4a1 1 0 0 1 1 1v3.84h-17.34a41.38 41.38 0 0 1 -4.45 3h24.97a1 1 0 0 1 .69.28 1 1 0 0 1 .28.69v12h3v-12a4 4 0 0 0 -1.16-2.81 4 4 0 0 0 -2.81-1.16h-.17v-3.88a4 4 0 0 0 -1.17-2.8 4 4 0 0 0 -2.8-1.16h-9.63a15.75 15.75 0 0 1 -1.81 3z" fill="#4e4b6f"/><path d="m103.53 66h-17a6.06 6.06 0 0 0 0 12.12h17a.28.28 0 0 0 .27-.28v-11.61a.27.27 0 0 0 -.27-.23zm-16.78 3.85a2.17 2.17 0 1 1 -2.17 2.15 2.17 2.17 0 0 1 2.17-2.15z" fill="#fff"/><path d="m103.53 63.46h-17a8.56 8.56 0 0 0 0 17.12h17a2.78 2.78 0 0 0 2.77-2.78v-11.57a2.78 2.78 0 0 0 -2.77-2.77zm.27 14.34a.28.28 0 0 1 -.27.28h-17a6.06 6.06 0 0 1 -.03-12.08h17a.27.27 0 0 1 .27.27z" fill="#4e4b6e"/><path d="m52.74 44.08h-10.74a1 1 0 0 0 0 2h10.74a1 1 0 0 0 0-2z" fill="#4e4b6f"/><path d="m86.75 74.19a2.17 2.17 0 1 0 -2.17-2.19 2.17 2.17 0 0 0 2.17 2.19z" fill="#4e4b6f"/><path d="m93.42 44.08h-9.42a1 1 0 0 0 0 2h9.43a1 1 0 0 0 0-2z" fill="#4e4b6f"/><path d="m68.5 50.07c13.91-6.66 15-13.13 14.76-15.63a6.59 6.59 0 0 0 -4.94-5.76c-3.18-.9-6.4.38-8.61 3.42a1.52 1.52 0 0 1 -1.22.62 1.49 1.49 0 0 1 -1.21-.62 8.23 8.23 0 0 0 -6.62-3.73 7.48 7.48 0 0 0 -2 .27 6.59 6.59 0 0 0 -4.95 5.74c-.18 2.5.86 8.98 14.79 15.69z" fill="#f06392"/><path d="m53.57 42.61a27.21 27.21 0 0 0 5 4.9 43.66 43.66 0 0 0 4.43 3c1.85 1.1 3.57 2 4.88 2.58a1.42 1.42 0 0 0 .63.15 1.57 1.57 0 0 0 .64-.14c1.31-.62 3-1.49 4.9-2.59a41.38 41.38 0 0 0 4.45-3 26.67 26.67 0 0 0 4.94-4.84 15.75 15.75 0 0 0 1.81-3 11 11 0 0 0 1-5.46 9.59 9.59 0 0 0 -7.12-8.41 10.62 10.62 0 0 0 -10.63 3.1 10.62 10.62 0 0 0 -10.61-3.14 9.54 9.54 0 0 0 -7.13 8.38 10.89 10.89 0 0 0 1 5.48 16 16 0 0 0 1.81 2.99zm.17-8.23a6.59 6.59 0 0 1 4.95-5.74 7.48 7.48 0 0 1 2-.27 8.23 8.23 0 0 1 6.62 3.73 1.49 1.49 0 0 0 1.21.62 1.52 1.52 0 0 0 1.22-.62c2.21-3 5.43-4.32 8.61-3.42a6.59 6.59 0 0 1 4.94 5.76c.2 2.5-.85 9-14.76 15.63-13.96-6.71-15-13.19-14.79-15.69z" fill="#4e4b6e"/><path d="m97.28 30.49c4.58-2.24 7.19-5 7-7.33a2.86 2.86 0 0 0 -2.15-2.49 3.51 3.51 0 0 0 -3.84 1.55 1.25 1.25 0 0 1 -1 .51 1.25 1.25 0 0 1 -1-.51 3.7 3.7 0 0 0 -3-1.69 3.12 3.12 0 0 0 -.85.12 2.84 2.84 0 0 0 -2.15 2.48c-.19 2.37 2.41 5.1 6.99 7.36z" fill="#f06392"/><path d="m96.75 33a1.23 1.23 0 0 0 1.06 0c8.19-3.82 9.13-7.94 9-10.06a5.34 5.34 0 0 0 -4-4.69 5.81 5.81 0 0 0 -5.52 1.36 5.8 5.8 0 0 0 -5.51-1.38 5.33 5.33 0 0 0 -4 4.68c-.15 2.09.77 6.25 8.97 10.09zm-6.45-9.87a2.84 2.84 0 0 1 2.15-2.48 3.12 3.12 0 0 1 .85-.12 3.7 3.7 0 0 1 3 1.69 1.25 1.25 0 0 0 1 .51 1.25 1.25 0 0 0 1-.51 3.51 3.51 0 0 1 3.84-1.55 2.86 2.86 0 0 1 2.15 2.49c.19 2.37-2.42 5.09-7 7.33-4.59-2.26-7.19-4.99-6.99-7.36z" fill="#4e4b6e"/></svg>