<svg id="Layer_1" data-name="Layer 1" xmlns="http://www.w3.org/2000/svg" viewBox="0 0 137 120"><defs><style>.cls-1{fill:#d3f0f5;}.cls-2,.cls-7{fill:#fff;}.cls-3,.cls-4{fill:#4e4b6e;}.cls-4,.cls-6,.cls-7{stroke:#4e4b6e;}.cls-4,.cls-7{stroke-miterlimit:10;}.cls-5{fill:#bea9d2;}.cls-6{fill:none;stroke-linecap:round;stroke-linejoin:round;stroke-dasharray:3.5 4;}.cls-6,.cls-7{stroke-width:2px;}</style></defs><g id="Group_723" data-name="Group 723"><path id="Path_1013" data-name="Path 1013" class="cls-1" d="M11.16,88.07C31.46,117.65,111,117.2,126,79.66c11.43-28.49-38.32-75.18-62.89-64.2S50.55,44.73,31.73,53.63C8.91,64.48,4.92,78.94,11.16,88.07Z"/><path id="Path_1014" data-name="Path 1014" class="cls-1" d="M21,49.32c-2-4.14-13.44-1.56-11.83,4.07C11.48,61.41,22.69,52.79,21,49.32Z"/></g><circle class="cls-2" cx="66.92" cy="58.26" r="6.52"/><g id="ecAgCX"><path class="cls-3" d="M99.14,60.29q0-17.41,0-34.84a7.33,7.33,0,0,0-7.57-7.6H42.25a7.33,7.33,0,0,0-7.55,7.54q0,34.89,0,69.77a7.31,7.31,0,0,0,7.56,7.52H91.59a7,7,0,0,0,1.12-.06,7.33,7.33,0,0,0,6.43-7.55Q99.16,77.69,99.14,60.29Z"/><path class="cls-4" d="M99.14,60.29q0,17.4,0,34.78a7.33,7.33,0,0,1-6.43,7.55,7,7,0,0,1-1.12.06H42.27a7.31,7.31,0,0,1-7.56-7.52q0-34.89,0-69.77a7.33,7.33,0,0,1,7.55-7.54H91.57a7.33,7.33,0,0,1,7.57,7.6Q99.16,42.87,99.14,60.29ZM96.3,55V25.6a4.53,4.53,0,0,0-4.86-4.88h-49a4.52,4.52,0,0,0-4.86,4.87q0,29.51,0,59c0,.69.2.85.87.85q28.51,0,57,0c.75,0,.87-.24.87-.91Q96.28,69.75,96.3,55ZM66.92,88.27q-14.27,0-28.52,0c-.66,0-.89.16-.87.85,0,2,0,4,0,6a5,5,0,0,0,.2,1.45,4.5,4.5,0,0,0,4.65,3.22H64.33q13.59,0,27.18,0A4.51,4.51,0,0,0,96.3,95c0-1.9,0-3.8,0-5.69,0-1.09.2-1-1.06-1Z"/><path class="cls-2" d="M96.3,55q0,14.79,0,29.58c0,.67-.12.91-.87.91q-28.53,0-57,0c-.67,0-.87-.16-.87-.85q0-29.5,0-59a4.52,4.52,0,0,1,4.86-4.87h49A4.53,4.53,0,0,1,96.3,25.6ZM75.41,22H58.46v2.78H75.41Z"/><path class="cls-5" d="M66.92,88.27H95.23c1.26,0,1.06,0,1.06,1,0,1.89,0,3.79,0,5.69a4.51,4.51,0,0,1-4.79,4.8q-13.59,0-27.18,0H42.41a4.5,4.5,0,0,1-4.65-3.22,5,5,0,0,1-.2-1.45c0-2,0-4,0-6,0-.69.21-.85.87-.85Q52.65,88.29,66.92,88.27Zm0,11A5.29,5.29,0,1,0,61.63,94,5.31,5.31,0,0,0,66.9,99.31Z"/><path class="cls-3" d="M75.41,22v2.78H58.46V22Z"/><path class="cls-3" d="M66.9,99.31A5.29,5.29,0,1,1,72.22,94,5.31,5.31,0,0,1,66.9,99.31ZM69.34,94A2.42,2.42,0,0,0,64.5,94a2.42,2.42,0,1,0,4.84.08Z"/><path class="cls-5" d="M69.34,94A2.42,2.42,0,1,1,64.5,94a2.42,2.42,0,0,1,4.84.08Z"/><rect class="cls-2" x="53.77" y="21.26" width="29.81" height="5.65"/></g><line class="cls-6" x1="46.34" y1="38.18" x2="90.66" y2="38.18"/><line class="cls-6" x1="46.34" y1="53.53" x2="90.66" y2="53.53"/><line class="cls-6" x1="46.34" y1="68.88" x2="90.66" y2="68.88"/><circle class="cls-7" cx="55.14" cy="53.09" r="6.52"/><path class="cls-3" d="M55.14,60.07a7,7,0,1,0-7-7A7,7,0,0,0,55.14,60.07Zm0-12.87a5.89,5.89,0,1,1-5.89,5.89A5.89,5.89,0,0,1,55.14,47.2Z"/><path class="cls-3" d="M52.89,52.87A.89.89,0,1,0,52,52,.89.89,0,0,0,52.89,52.87Z"/><path class="cls-3" d="M57.39,52.87a.89.89,0,1,0-.88-.88A.88.88,0,0,0,57.39,52.87Z"/><path class="cls-3" d="M55.14,57.32a4.28,4.28,0,0,0,3.7-2.14.55.55,0,0,0-1-.55,3.17,3.17,0,0,1-5.5,0,.56.56,0,0,0-.75-.2.55.55,0,0,0-.21.75A4.31,4.31,0,0,0,55.14,57.32Z"/><circle class="cls-7" cx="78.64" cy="68.68" r="6.52"/><path class="cls-3" d="M78.64,75.66a7,7,0,1,0-7-7A7,7,0,0,0,78.64,75.66Zm0-12.87a5.89,5.89,0,1,1-5.89,5.89A5.89,5.89,0,0,1,78.64,62.79Z"/><path class="cls-3" d="M76.39,68.46a.88.88,0,1,0-.88-.88A.88.88,0,0,0,76.39,68.46Z"/><path class="cls-3" d="M80.89,68.46a.88.88,0,1,0-.88-.88A.88.88,0,0,0,80.89,68.46Z"/><path class="cls-3" d="M75.14,72.29a.55.55,0,0,0,.75-.2,3.17,3.17,0,0,1,5.5,0,.56.56,0,0,0,.48.27.52.52,0,0,0,.27-.07.54.54,0,0,0,.2-.75,4.27,4.27,0,0,0-7.4,0A.54.54,0,0,0,75.14,72.29Z"/><circle class="cls-7" cx="67.13" cy="38.29" r="6.52"/><path class="cls-3" d="M67.13,45.28a7,7,0,1,0-7-7A7,7,0,0,0,67.13,45.28Zm0-12.87a5.89,5.89,0,1,1-5.89,5.88A5.89,5.89,0,0,1,67.13,32.41Z"/><path class="cls-3" d="M64.88,38.35a.88.88,0,1,0-.88-.88A.88.88,0,0,0,64.88,38.35Z"/><path class="cls-3" d="M69.38,38.35a.88.88,0,1,0-.88-.88A.88.88,0,0,0,69.38,38.35Z"/><path class="cls-3" d="M64.18,40.66a.54.54,0,0,0,.55.55h4.8a.54.54,0,0,0,.55-.55.55.55,0,0,0-.55-.55h-4.8A.55.55,0,0,0,64.18,40.66Z"/></svg>