<?xml version="1.0" encoding="utf-8"?>
<!-- Generator: Adobe Illustrator 23.0.6, SVG Export Plug-In . SVG Version: 6.00 Build 0)  -->
<svg version="1.1" id="Layer_1" xmlns="http://www.w3.org/2000/svg" xmlns:xlink="http://www.w3.org/1999/xlink" x="0px" y="0px"
	 viewBox="0 0 145.1 151.9" style="enable-background:new 0 0 145.1 151.9;" xml:space="preserve">
<style type="text/css">
	.st0{fill:#90D5AC;}
	.st1{fill:#FFFFFF;}
	.st2{fill:#585170;}
	.st3{enable-background:new    ;}
</style>
<g transform="translate(-229 -361.095)">
	<g transform="translate(-255.833 169.353)">
		<path class="st0" d="M490.5,270.3c20.2,31.9,103.7,34.5,120.9-4.3c13.1-29.5-37.3-80.5-63.5-69.9s-14.3,30.2-34.5,38.9
			C489,245.5,484.3,260.5,490.5,270.3z"/>
		<path class="st0" d="M613.5,279.3c4.7,3.6,16.6-6.1,11.4-11.7C617.5,259.7,609.5,276.3,613.5,279.3z"/>
	</g>
	<g transform="translate(-10 53)">
		<circle class="st1" cx="306.2" cy="360" r="38.5"/>
		<g transform="translate(264 315.797)">
			<path class="st2" d="M42.9,86.9C19.7,86.9,0.8,68,0.8,44.8c0-23.3,18.9-42.1,42.1-42.1C66.2,2.7,85,21.5,85,44.8c0,0,0,0,0,0
				C85,68,66.2,86.9,42.9,86.9z M42.9,9.3C23.3,9.3,7.4,25.2,7.4,44.8c0,19.6,15.9,35.5,35.5,35.5s35.5-15.9,35.5-35.5c0,0,0,0,0,0
				C78.4,25.2,62.5,9.3,42.9,9.3L42.9,9.3z"/>
			<path class="st2" d="M29.4,43.5c2.9,0,5.3-2.4,5.3-5.3c0-2.9-2.4-5.3-5.3-5.3S24,35.2,24,38.1C24.1,41.1,26.4,43.4,29.4,43.5"/>
			<path class="st2" d="M56.5,43.5c2.9,0,5.3-2.4,5.3-5.3c0-2.9-2.4-5.3-5.3-5.3c-2.9,0-5.3,2.4-5.3,5.3
				C51.2,41.1,53.6,43.4,56.5,43.5"/>
			<path class="st2" d="M42.9,70.3c9.2,0,17.7-4.9,22.3-12.9c0.9-1.6,0.4-3.6-1.2-4.5c-1.6-0.9-3.6-0.4-4.5,1.2
				c-3.4,5.9-9.7,9.6-16.6,9.6c-6.8,0-13.2-3.7-16.6-9.6c-0.9-1.6-2.9-2.1-4.5-1.2s-2.1,2.9-1.2,4.5c0,0,0,0,0,0
				C25.2,65.4,33.7,70.3,42.9,70.3"/>
		</g>
	</g>
	<g class="st3">
		<path class="st0" d="M250.6,495.2v-17.9c0-0.6,0.6-0.9,1.7-0.9h1c1.1,0,1.7,0.3,1.7,0.9v6.9h7.6v-6.9c0-0.6,0.6-0.9,1.7-0.9h1
			c1.1,0,1.7,0.3,1.7,0.9v17.9c0,0.6-0.6,0.9-1.7,0.9h-1c-1.1,0-1.7-0.3-1.7-0.9v-7.3h-7.6v7.3c0,0.6-0.6,0.9-1.7,0.9h-1
			C251.2,496.1,250.6,495.8,250.6,495.2z"/>
		<path class="st0" d="M272,494.2c-1.2-1.3-1.8-3.1-1.8-5.5c0-2.6,0.6-4.6,1.8-5.8c1.2-1.2,2.9-1.8,5-1.8c2.1,0,3.6,0.7,4.6,2
			c1,1.3,1.5,3.1,1.5,5.2c0,0.2-0.2,0.6-0.6,1c-0.4,0.4-0.7,0.7-0.9,0.7h-7.1c0.1,1.1,0.4,1.8,1,2.3c0.5,0.4,1.3,0.7,2.3,0.7
			c0.5,0,1-0.1,1.4-0.2c0.4-0.1,0.9-0.3,1.3-0.5c0.3-0.1,0.5-0.2,0.6-0.2c0.2,0,0.4,0.1,0.6,0.4c0.2,0.3,0.4,0.6,0.6,0.9
			c0.2,0.3,0.2,0.6,0.2,0.8c0,0.4-0.3,0.8-0.9,1.1c-0.6,0.3-1.3,0.5-2.1,0.7c-0.8,0.1-1.5,0.2-2.1,0.2
			C275,496.2,273.2,495.6,272,494.2z M279,487.2c0-0.9-0.2-1.5-0.5-2.1c-0.3-0.5-0.8-0.8-1.5-0.8c-1.4,0-2.2,0.9-2.5,2.8H279z"/>
		<path class="st0" d="M286.3,495.1c-0.7-0.7-1-1.7-1-3c0-1.5,0.5-2.7,1.6-3.7s3.2-1.5,6.4-1.5V486c0-0.5-0.2-0.9-0.5-1.2
			c-0.3-0.3-0.9-0.4-1.7-0.4c-0.6,0-1.2,0.1-1.7,0.2c-0.5,0.1-0.9,0.3-1.3,0.4s-0.6,0.3-0.6,0.3c-0.2,0-0.4-0.1-0.6-0.4
			c-0.2-0.3-0.4-0.6-0.6-1c-0.2-0.4-0.3-0.6-0.3-0.9c0-0.3,0.2-0.6,0.7-0.9c0.5-0.3,1.1-0.5,1.9-0.7c0.8-0.2,1.7-0.3,2.7-0.3
			c2.1,0,3.6,0.4,4.6,1.2c1,0.8,1.4,2,1.4,3.4v5.3c0,0.9,0,1.5,0.1,2s0.1,0.9,0.2,1.5c0.1,0.2,0.1,0.4,0.1,0.6
			c0,0.3-0.4,0.5-1.1,0.7c-0.8,0.2-1.4,0.2-2,0.2c-0.3,0-0.6-0.1-0.7-0.4c-0.1-0.3-0.2-0.6-0.3-0.9c-0.1-0.3-0.1-0.5-0.1-0.6
			c-0.1,0.2-0.3,0.5-0.7,0.8c-0.3,0.3-0.8,0.6-1.4,0.9c-0.6,0.3-1.3,0.4-2,0.4C288,496.2,286.9,495.9,286.3,495.1z M292.3,492.4
			c0.5-0.3,0.8-0.8,1-1.3v-1.5c-2.6,0-3.9,0.7-3.9,2.1c0,0.4,0.1,0.7,0.4,0.9c0.2,0.2,0.6,0.3,1,0.3
			C291.3,492.9,291.8,492.8,292.3,492.4z"/>
		<path class="st0" d="M301.1,491.7v-15.9c0-0.6,0.6-0.9,1.7-0.9h0.8c1.1,0,1.7,0.3,1.7,0.9v16c0,0.4,0.1,0.7,0.2,0.9
			c0.2,0.2,0.4,0.3,0.8,0.3c0.1,0,0.2,0,0.4-0.1c0.2,0,0.3-0.1,0.4-0.1c0.2,0,0.3,0.1,0.4,0.4s0.2,0.6,0.3,0.9
			c0.1,0.3,0.1,0.6,0.1,0.7c0,0.9-0.9,1.4-2.7,1.4C302.5,496.2,301.1,494.7,301.1,491.7z"/>
		<path class="st0" d="M309.8,491.7v-7.1h-0.4c-0.3,0-0.5-0.1-0.6-0.3s-0.2-0.6-0.2-1.1v-0.5c0-0.5,0.1-0.8,0.2-1.1
			c0.1-0.2,0.3-0.3,0.6-0.3h0.4l0.4-2.7c0.1-0.6,0.6-0.9,1.5-0.9h0.9c0.9,0,1.4,0.3,1.4,0.9v2.7h1.4c0.3,0,0.5,0.1,0.6,0.3
			c0.1,0.2,0.2,0.6,0.2,1.1v0.5c0,0.5-0.1,0.8-0.2,1.1s-0.3,0.3-0.6,0.3H314v7.1c0,0.4,0.1,0.7,0.2,0.9c0.2,0.2,0.4,0.3,0.8,0.3
			c0.1,0,0.2,0,0.4-0.1c0.2,0,0.3-0.1,0.4-0.1c0.2,0,0.3,0.1,0.4,0.4s0.2,0.6,0.3,0.9c0.1,0.3,0.1,0.6,0.1,0.7
			c0,0.9-0.9,1.4-2.7,1.4C311.2,496.2,309.8,494.7,309.8,491.7z"/>
		<path class="st0" d="M319.1,495.2v-19.4c0-0.6,0.6-0.9,1.7-0.9h0.8c1.1,0,1.7,0.3,1.7,0.9v7.3c0.5-0.6,1-1,1.7-1.4
			c0.7-0.4,1.4-0.5,2.2-0.5c1.4,0,2.5,0.4,3.2,1.1c0.7,0.7,1,1.9,1,3.4v9.5c0,0.6-0.6,0.9-1.7,0.9h-0.8c-1.1,0-1.7-0.3-1.7-0.9v-8.9
			c0-1.2-0.6-1.7-1.8-1.7c-0.5,0-0.9,0.2-1.3,0.5c-0.4,0.3-0.7,0.7-0.9,1.1v9c0,0.6-0.6,0.9-1.7,0.9h-0.8
			C319.6,496.1,319.1,495.8,319.1,495.2z"/>
		<path class="st0" d="M346.4,481.9c0,0.1,0,0.3-0.1,0.5l-6.4,18.8c-0.1,0.4-0.7,0.6-1.6,0.6h-0.5c-1.1,0-1.7-0.2-1.7-0.6
			c0-0.2,0-0.3,0.1-0.5l1.8-4.7l-4.6-13.6c-0.1-0.3-0.1-0.4-0.1-0.5c0-0.4,0.6-0.6,1.7-0.6h0.9c0.9,0,1.4,0.2,1.6,0.6l1.7,5.2
			c0.2,0.5,0.4,1.7,0.8,3.4h0.1c0.4-1.8,0.6-2.9,0.8-3.4l1.7-5.2c0.1-0.4,0.7-0.6,1.6-0.6h0.7C345.9,481.3,346.4,481.5,346.4,481.9z
			"/>
	</g>
</g>
</svg>
