<?xml version="1.0" encoding="utf-8"?>
<!-- Generator: Adobe Illustrator 23.0.6, SVG Export Plug-In . SVG Version: 6.00 Build 0)  -->
<svg version="1.1" id="Layer_1" xmlns="http://www.w3.org/2000/svg" xmlns:xlink="http://www.w3.org/1999/xlink" x="0px" y="0px"
	 viewBox="0 0 145.1 151.9" style="enable-background:new 0 0 145.1 151.9;" xml:space="preserve">
<style type="text/css">
	.st0{fill:#FCC66F;}
	.st1{fill:#FFFFFF;}
	.st2{fill:#585170;}
	.st3{enable-background:new    ;}
</style>
<g transform="translate(-229 -653.095)">
	<g transform="translate(-255.833 461.353)">
		<path class="st0" d="M491.5,271.3c20.2,31.9,103.7,34.5,120.9-4.3c13.1-29.5-37.3-80.5-63.5-69.9s-14.3,30.2-34.5,38.9
			C490,246.5,485.3,261.5,491.5,271.3z"/>
		<path class="st0" d="M614.5,280.3c4.7,3.6,16.6-6.1,11.4-11.7C618.5,260.7,610.5,277.3,614.5,280.3z"/>
	</g>
	<g transform="translate(-28 -15)">
		<circle class="st1" cx="325.2" cy="722" r="38.5"/>
		<g transform="translate(282 675.744)">
			<path class="st2" d="M43.9,87.9C20.7,87.9,1.8,69,1.8,45.8c0-23.3,18.9-42.1,42.1-42.1S86,22.5,86,45.8c0,0,0,0,0,0
				C86,69,67.2,87.9,43.9,87.9z M43.9,10.3c-19.6,0-35.5,15.9-35.5,35.5c0,19.6,15.9,35.5,35.5,35.5c19.6,0,35.5-15.9,35.5-35.5
				c0,0,0,0,0,0C79.4,26.2,63.5,10.3,43.9,10.3L43.9,10.3z"/>
			<path class="st2" d="M30.4,46.1c2.9,0,5.3-2.4,5.3-5.3c0-2.9-2.4-5.3-5.3-5.3c-2.9,0-5.3,2.4-5.3,5.3
				C25,43.7,27.4,46.1,30.4,46.1"/>
			<path class="st2" d="M57.5,46.1c2.9,0,5.3-2.4,5.3-5.3c0-2.9-2.4-5.3-5.3-5.3c-2.9,0-5.3,2.4-5.3,5.3
				C52.2,43.7,54.6,46.1,57.5,46.1"/>
			<path class="st2" d="M26.1,60.1c0,1.8,1.5,3.3,3.3,3.3h29c1.8,0,3.3-1.4,3.4-3.3c0-1.8-1.4-3.3-3.3-3.4c0,0-0.1,0-0.1,0h-29
				C27.6,56.8,26.1,58.2,26.1,60.1"/>
		</g>
	</g>
	<g class="st3">
		<path class="st0" d="M245.9,787.7c-0.2-0.2-0.3-0.5-0.3-0.9v-17.4c0-0.4,0.1-0.7,0.3-0.9c0.2-0.2,0.5-0.3,0.9-0.3h9.8
			c0.3,0,0.5,0.1,0.6,0.3c0.1,0.2,0.2,0.6,0.2,1.1v0.9c0,0.5-0.1,0.8-0.2,1.1c-0.1,0.2-0.3,0.3-0.6,0.3h-6.6v4.1h5.9
			c0.3,0,0.5,0.1,0.6,0.3c0.1,0.2,0.2,0.6,0.2,1.1v0.9c0,0.5-0.1,0.8-0.2,1.1c-0.1,0.2-0.3,0.3-0.6,0.3h-5.9v4.5h6.7
			c0.3,0,0.5,0.1,0.6,0.3c0.1,0.2,0.2,0.6,0.2,1.1v0.9c0,0.5-0.1,0.8-0.2,1.1c-0.1,0.2-0.3,0.3-0.6,0.3h-9.9
			C246.3,788,246.1,787.9,245.9,787.7z"/>
		<path class="st0" d="M260.5,783.7v-15.9c0-0.6,0.6-0.9,1.7-0.9h0.8c1.1,0,1.7,0.3,1.7,0.9v16c0,0.4,0.1,0.7,0.2,0.9
			c0.2,0.2,0.4,0.3,0.8,0.3c0.1,0,0.2,0,0.4-0.1c0.2,0,0.3-0.1,0.4-0.1c0.2,0,0.3,0.1,0.4,0.4c0.1,0.3,0.2,0.6,0.3,0.9
			c0.1,0.3,0.1,0.6,0.1,0.7c0,0.9-0.9,1.4-2.7,1.4C261.9,788.2,260.5,786.7,260.5,783.7z"/>
		<path class="st0" d="M270.1,786.2c-1.2-1.3-1.8-3.1-1.8-5.5c0-2.6,0.6-4.6,1.8-5.8c1.2-1.2,2.9-1.8,5-1.8c2.1,0,3.6,0.7,4.6,2
			c1,1.3,1.5,3.1,1.5,5.2c0,0.2-0.2,0.6-0.6,1c-0.4,0.4-0.7,0.7-0.9,0.7h-7.1c0.1,1.1,0.4,1.8,1,2.3c0.5,0.4,1.3,0.7,2.3,0.7
			c0.5,0,1-0.1,1.4-0.2c0.4-0.1,0.9-0.3,1.3-0.5c0.3-0.1,0.5-0.2,0.6-0.2c0.2,0,0.4,0.1,0.6,0.4c0.2,0.3,0.4,0.6,0.6,0.9
			c0.2,0.3,0.2,0.6,0.2,0.8c0,0.4-0.3,0.8-0.9,1.1c-0.6,0.3-1.3,0.5-2.1,0.7c-0.8,0.1-1.5,0.2-2.1,0.2
			C273.1,788.2,271.3,787.6,270.1,786.2z M277.1,779.2c0-0.9-0.2-1.5-0.5-2.1c-0.3-0.5-0.8-0.8-1.5-0.8c-1.4,0-2.2,0.9-2.5,2.8
			H277.1z"/>
		<path class="st0" d="M286.9,787.5l-4.5-13c-0.1-0.3-0.1-0.4-0.1-0.5c0-0.4,0.6-0.6,1.7-0.6h0.9c0.9,0,1.4,0.2,1.6,0.6l1.7,5.2
			c0.1,0.3,0.3,1,0.5,2.2l0.3,1.2h0.1c0.3-1.6,0.6-2.8,0.8-3.4l1.7-5.2c0.1-0.4,0.7-0.6,1.6-0.6h0.7c1.1,0,1.7,0.2,1.7,0.6
			c0,0.1,0,0.3-0.1,0.5l-4.5,13c-0.1,0.4-0.7,0.6-1.6,0.6h-0.9C287.6,788.1,287.1,787.9,286.9,787.5z"/>
		<path class="st0" d="M297.9,787.1c-0.7-0.7-1-1.7-1-3c0-1.5,0.5-2.7,1.6-3.7s3.2-1.5,6.4-1.5V778c0-0.5-0.2-0.9-0.5-1.2
			c-0.3-0.3-0.9-0.4-1.7-0.4c-0.6,0-1.2,0.1-1.7,0.2c-0.5,0.1-0.9,0.3-1.3,0.4s-0.6,0.3-0.6,0.3c-0.2,0-0.4-0.1-0.6-0.4
			c-0.2-0.3-0.4-0.6-0.6-1c-0.2-0.4-0.3-0.6-0.3-0.9c0-0.3,0.2-0.6,0.7-0.9c0.5-0.3,1.1-0.5,1.9-0.7c0.8-0.2,1.7-0.3,2.7-0.3
			c2.1,0,3.6,0.4,4.6,1.2c1,0.8,1.4,2,1.4,3.4v5.3c0,0.9,0,1.5,0.1,2c0,0.4,0.1,0.9,0.2,1.5c0.1,0.2,0.1,0.4,0.1,0.6
			c0,0.3-0.4,0.5-1.1,0.7c-0.8,0.2-1.4,0.2-2,0.2c-0.3,0-0.6-0.1-0.7-0.4c-0.1-0.3-0.2-0.6-0.3-0.9c-0.1-0.3-0.1-0.5-0.1-0.6
			c-0.1,0.2-0.3,0.5-0.7,0.8c-0.3,0.3-0.8,0.6-1.4,0.9c-0.6,0.3-1.3,0.4-2,0.4C299.6,788.2,298.6,787.9,297.9,787.1z M303.9,784.4
			c0.5-0.3,0.8-0.8,1-1.3v-1.5c-2.6,0-3.9,0.7-3.9,2.1c0,0.4,0.1,0.7,0.4,0.9c0.2,0.2,0.6,0.3,1,0.3
			C303,784.9,303.5,784.8,303.9,784.4z"/>
		<path class="st0" d="M313.2,783.7v-7.1h-0.4c-0.3,0-0.5-0.1-0.6-0.3c-0.1-0.2-0.2-0.6-0.2-1.1v-0.5c0-0.5,0.1-0.8,0.2-1.1
			c0.1-0.2,0.3-0.3,0.6-0.3h0.4l0.4-2.7c0.1-0.6,0.6-0.9,1.5-0.9h0.9c0.9,0,1.4,0.3,1.4,0.9v2.7h1.4c0.3,0,0.5,0.1,0.6,0.3
			c0.1,0.2,0.2,0.6,0.2,1.1v0.5c0,0.5-0.1,0.8-0.2,1.1c-0.1,0.2-0.3,0.3-0.6,0.3h-1.4v7.1c0,0.4,0.1,0.7,0.2,0.9s0.4,0.3,0.8,0.3
			c0.1,0,0.2,0,0.4-0.1c0.2,0,0.3-0.1,0.4-0.1c0.2,0,0.3,0.1,0.4,0.4c0.1,0.3,0.2,0.6,0.3,0.9c0.1,0.3,0.1,0.6,0.1,0.7
			c0,0.9-0.9,1.4-2.7,1.4C314.5,788.2,313.2,786.7,313.2,783.7z"/>
		<path class="st0" d="M323.6,786.2c-1.2-1.3-1.8-3.1-1.8-5.5c0-2.6,0.6-4.6,1.8-5.8c1.2-1.2,2.9-1.8,5-1.8c2.1,0,3.6,0.7,4.6,2
			c1,1.3,1.5,3.1,1.5,5.2c0,0.2-0.2,0.6-0.6,1c-0.4,0.4-0.7,0.7-0.9,0.7h-7.1c0.1,1.1,0.4,1.8,1,2.3c0.5,0.4,1.3,0.7,2.3,0.7
			c0.5,0,1-0.1,1.4-0.2c0.4-0.1,0.9-0.3,1.3-0.5c0.3-0.1,0.5-0.2,0.6-0.2c0.2,0,0.4,0.1,0.6,0.4s0.4,0.6,0.6,0.9
			c0.2,0.3,0.2,0.6,0.2,0.8c0,0.4-0.3,0.8-0.9,1.1c-0.6,0.3-1.3,0.5-2.1,0.7s-1.5,0.2-2.1,0.2C326.6,788.2,324.8,787.6,323.6,786.2z
			 M330.6,779.2c0-0.9-0.2-1.5-0.5-2.1c-0.3-0.5-0.8-0.8-1.5-0.8c-1.4,0-2.2,0.9-2.5,2.8H330.6z"/>
		<path class="st0" d="M339.4,787.3c-0.8-0.6-1.4-1.5-1.9-2.6s-0.7-2.5-0.7-4.1c0-2.3,0.5-4.1,1.6-5.5s2.5-2,4.4-2
			c1.1,0,2.1,0.3,2.9,0.9v-6.2c0-0.6,0.6-0.9,1.7-0.9h0.8c1.1,0,1.7,0.3,1.7,0.9v15.3c0,0.9,0,1.5,0.1,2c0,0.4,0.1,0.9,0.2,1.5
			c0.1,0.2,0.1,0.4,0.1,0.6c0,0.3-0.4,0.5-1.1,0.7c-0.8,0.2-1.4,0.2-2,0.2c-0.3,0-0.6-0.1-0.7-0.4c-0.1-0.3-0.2-0.6-0.3-0.9
			c-0.1-0.3-0.1-0.5-0.1-0.6c-0.3,0.6-0.8,1.1-1.5,1.5c-0.7,0.4-1.4,0.6-2.3,0.6C341.1,788.2,340.2,787.9,339.4,787.3z M345.6,783.2
			v-6.2c-0.6-0.4-1.3-0.5-2-0.5c-1.7,0-2.6,1.4-2.6,4.3c0,2.8,0.8,4.2,2.3,4.2C344.2,784.8,345,784.3,345.6,783.2z"/>
	</g>
</g>
</svg>
