<?xml version="1.0" encoding="utf-8"?>
<!-- Generator: Adobe Illustrator 23.0.6, SVG Export Plug-In . SVG Version: 6.00 Build 0)  -->
<svg version="1.1" id="Layer_1" xmlns="http://www.w3.org/2000/svg" xmlns:xlink="http://www.w3.org/1999/xlink" x="0px" y="0px"
	 viewBox="0 0 145.1 151.9" style="enable-background:new 0 0 145.1 151.9;" xml:space="preserve">
<style type="text/css">
	.st0{fill:#E89662;}
	.st1{enable-background:new    ;}
	.st2{fill:#FFFFFF;}
	.st3{fill:#585170;}
</style>
<g transform="translate(-229 -942.095)">
	<g transform="translate(-255.833 750.353)">
		<path class="st0" d="M491.5,272.3c20.2,31.9,103.7,34.5,120.9-4.3c13.1-29.5-37.3-80.5-63.5-69.9s-14.3,30.2-34.5,38.9
			C490,247.5,485.3,262.5,491.5,272.3z"/>
		<path class="st0" d="M614.5,281.3c4.7,3.6,16.6-6.1,11.4-11.7C618.5,261.7,610.5,278.3,614.5,281.3z"/>
	</g>
	<g class="st1">
		<path class="st0" d="M270.1,1076.2v-17.9c0-0.6,0.6-0.9,1.7-0.9h1c1.1,0,1.7,0.3,1.7,0.9v6.9h7.6v-6.9c0-0.6,0.6-0.9,1.7-0.9h1
			c1.1,0,1.7,0.3,1.7,0.9v17.9c0,0.6-0.6,0.9-1.7,0.9h-1c-1.1,0-1.7-0.3-1.7-0.9v-7.3h-7.6v7.3c0,0.6-0.6,0.9-1.7,0.9h-1
			C270.7,1077.1,270.1,1076.8,270.1,1076.2z"/>
		<path class="st0" d="M290.1,1059.5v-2c0-0.7,0.7-1,2.1-1c1.4,0,2.1,0.3,2.1,1v2c0,0.7-0.7,1.1-2.1,1.1
			C290.8,1060.5,290.1,1060.2,290.1,1059.5z M290.1,1076.2v-13c0-0.6,0.6-0.9,1.7-0.9h0.8c1.1,0,1.7,0.3,1.7,0.9v13
			c0,0.6-0.6,0.9-1.7,0.9h-0.8C290.7,1077.1,290.1,1076.8,290.1,1076.2z"/>
		<path class="st0" d="M296.6,1079.1c0-0.7,0.2-1.4,0.7-1.9c0.4-0.6,1.1-1,1.9-1.3l0-0.1c-0.4-0.2-0.7-0.5-0.9-0.8
			c-0.2-0.4-0.3-0.8-0.3-1.3s0.1-0.9,0.4-1.3c0.3-0.4,0.7-0.7,1.2-1c-1.5-0.8-2.3-2.2-2.3-4.2c0-1.7,0.6-3,1.7-3.8
			c1.1-0.8,2.6-1.2,4.4-1.2c0.7,0,1.4,0.1,2.2,0.2h4.5c0.3,0,0.5,0.1,0.6,0.3c0.1,0.2,0.2,0.6,0.2,1.1v0.5c0,0.9-0.2,1.3-0.7,1.3
			c-0.2,0-0.3,0-0.6,0c-0.2,0-0.4,0-0.6-0.1l-0.1,0.1c0.1,0.2,0.2,0.4,0.3,0.7c0.1,0.3,0.1,0.6,0.1,0.9c0,1.7-0.5,2.9-1.6,3.7
			c-1.1,0.8-2.4,1.2-4.1,1.2c-1.1,0-1.7,0.3-1.7,0.8c0,0.3,0.2,0.5,0.6,0.7s1.1,0.3,2,0.4c0.7,0.1,1.2,0.2,1.5,0.2
			c1.3,0.3,2.4,0.7,3.2,1.3c0.8,0.6,1.2,1.5,1.2,2.8c0,1-0.3,1.8-0.9,2.5s-1.4,1.3-2.5,1.7c-1.1,0.4-2.4,0.6-3.8,0.6
			C298.8,1082.9,296.6,1081.6,296.6,1079.1z M305.7,1079.3c0.5-0.2,0.7-0.6,0.7-1c0-0.4-0.3-0.7-0.9-0.9c-0.6-0.2-1.8-0.3-3.4-0.5
			c-0.5,0.2-0.8,0.4-1.1,0.7s-0.4,0.6-0.4,0.9c0,0.4,0.2,0.7,0.7,0.9c0.5,0.2,1.2,0.3,2.2,0.3
			C304.5,1079.7,305.2,1079.5,305.7,1079.3z M304.9,1068.6c0.4-0.3,0.6-0.8,0.6-1.5c0-0.7-0.2-1.2-0.6-1.5s-0.9-0.5-1.5-0.5
			c-0.6,0-1.1,0.2-1.5,0.5s-0.6,0.8-0.6,1.5c0,0.7,0.2,1.1,0.6,1.5c0.4,0.3,0.9,0.5,1.5,0.5C304,1069.1,304.5,1068.9,304.9,1068.6z"
			/>
		<path class="st0" d="M313.1,1076.2v-19.4c0-0.6,0.6-0.9,1.7-0.9h0.8c1.1,0,1.7,0.3,1.7,0.9v7.3c0.5-0.6,1-1,1.7-1.4
			s1.4-0.5,2.2-0.5c1.4,0,2.5,0.4,3.2,1.1s1,1.9,1,3.4v9.5c0,0.6-0.6,0.9-1.7,0.9h-0.8c-1.1,0-1.7-0.3-1.7-0.9v-8.9
			c0-1.2-0.6-1.7-1.8-1.7c-0.5,0-0.9,0.2-1.3,0.5c-0.4,0.3-0.7,0.7-0.9,1.1v9c0,0.6-0.6,0.9-1.7,0.9h-0.8
			C313.6,1077.1,313.1,1076.8,313.1,1076.2z"/>
	</g>
	<g transform="translate(-28 175)">
		<circle class="st2" cx="325.2" cy="822" r="38.5"/>
		<g transform="translate(282 775.008)">
			<path class="st3" d="M30.4,43.8c2.9,0,5.3-2.4,5.3-5.3c0-2.9-2.4-5.3-5.3-5.3c-2.9,0-5.3,2.4-5.3,5.3
				C25.1,41.4,27.4,43.8,30.4,43.8"/>
			<path class="st3" d="M57.5,43.8c2.9,0,5.3-2.4,5.3-5.3c0-2.9-2.4-5.3-5.3-5.3c-2.9,0-5.3,2.4-5.3,5.3
				C52.2,41.4,54.6,43.8,57.5,43.8"/>
			<path class="st3" d="M43.9,88.9C20.7,88.9,1.8,70,1.8,46.8c0-23.3,18.9-42.1,42.1-42.1S86,23.5,86,46.8c0,0,0,0,0,0
				C86,70,67.2,88.9,43.9,88.9z M43.9,11.3c-19.6,0-35.5,15.9-35.5,35.5s15.9,35.5,35.5,35.5s35.5-15.9,35.5-35.5c0,0,0,0,0,0
				C79.4,27.2,63.5,11.3,43.9,11.3z"/>
			<path class="st3" d="M63.6,68.9H24.3c-1.8,0-3.3-1.5-3.3-3.3c0-0.5,0.1-1,0.3-1.4c4.6-9.7,13.3-15.8,22.7-15.8s18,6.1,22.7,15.8
				c0.8,1.7,0.1,3.6-1.6,4.4C64.6,68.8,64.1,68.9,63.6,68.9L63.6,68.9z M43.9,55c-5.1,0-10.1,2.6-13.8,7.3h27.5
				C54,57.7,49,55,43.9,55z"/>
		</g>
	</g>
</g>
</svg>
