<?xml version="1.0" encoding="utf-8"?>
<!-- Generator: Adobe Illustrator 23.0.6, SVG Export Plug-In . SVG Version: 6.00 Build 0)  -->
<svg version="1.1" id="Layer_1" xmlns="http://www.w3.org/2000/svg" xmlns:xlink="http://www.w3.org/1999/xlink" x="0px" y="0px"
	 viewBox="0 0 145.1 151.9" style="enable-background:new 0 0 145.1 151.9;" xml:space="preserve">
<style type="text/css">
	.st0{fill:#D56666;}
	.st1{enable-background:new    ;}
	.st2{fill:#FFFFFF;}
	.st3{fill:#585170;}
</style>
<g transform="translate(-229 -1231.095)">
	<g transform="translate(-255.833 1039.353)">
		<path class="st0" d="M491.7,271.6c19.9,31.5,102.4,34.1,119.4-4.3c12.9-29.1-36.8-79.4-62.7-69s-14.2,29.9-34,38.4
			C490.3,247.1,485.6,261.9,491.7,271.6z"/>
		<path class="st0" d="M613.2,280.5c4.7,3.6,16.4-6,11.3-11.5C617.2,261.1,609.3,277.5,613.2,280.5z"/>
	</g>
	<g class="st1">
		<path class="st0" d="M243.2,1365.5l-6-18c-0.1-0.3-0.1-0.4-0.1-0.5c0-0.4,0.6-0.6,1.7-0.6h0.9c0.9,0,1.5,0.3,1.7,0.8l3.8,12.1
			l0.3,1h0.1l0.3-1l3.9-12.1c0.2-0.5,0.7-0.8,1.7-0.8h0.9c1.1,0,1.7,0.2,1.7,0.6c0,0.1,0,0.3-0.1,0.5l-6,18
			c-0.1,0.4-0.7,0.6-1.6,0.6h-1.5C243.8,1366.1,243.3,1365.9,243.2,1365.5z"/>
		<path class="st0" d="M256.5,1364.2c-1.2-1.3-1.8-3.1-1.8-5.5c0-2.6,0.6-4.6,1.8-5.8c1.2-1.2,2.9-1.8,5-1.8c2.1,0,3.6,0.7,4.6,2
			c1,1.3,1.5,3.1,1.5,5.2c0,0.2-0.2,0.6-0.6,1c-0.4,0.4-0.7,0.7-0.9,0.7H259c0.1,1.1,0.4,1.8,1,2.3c0.5,0.4,1.3,0.7,2.3,0.7
			c0.5,0,1-0.1,1.4-0.2c0.4-0.1,0.9-0.3,1.3-0.5c0.3-0.1,0.5-0.2,0.6-0.2c0.2,0,0.4,0.1,0.6,0.4c0.2,0.3,0.4,0.6,0.6,0.9
			c0.2,0.3,0.2,0.6,0.2,0.8c0,0.4-0.3,0.8-0.9,1.1c-0.6,0.3-1.3,0.5-2.1,0.7c-0.8,0.1-1.5,0.2-2.1,0.2
			C259.6,1366.2,257.8,1365.6,256.5,1364.2z M263.6,1357.2c0-0.9-0.2-1.5-0.5-2.1c-0.3-0.5-0.8-0.8-1.5-0.8c-1.4,0-2.2,0.9-2.5,2.8
			H263.6z"/>
		<path class="st0" d="M270.4,1365.2v-8.9c0-0.8,0-1.5-0.1-1.9c0-0.4-0.1-0.9-0.2-1.5c-0.1-0.3-0.1-0.5-0.1-0.6
			c0-0.3,0.4-0.5,1.1-0.7c0.8-0.1,1.4-0.2,2-0.2c0.3,0,0.6,0.1,0.7,0.4c0.1,0.3,0.2,0.5,0.3,0.8c0.1,0.3,0.1,0.5,0.1,0.6
			c0.4-0.7,0.8-1.2,1.2-1.6s1.1-0.6,1.8-0.6c0.6,0,1,0.2,1.2,0.5c0.2,0.3,0.4,0.7,0.4,1c0,0.4-0.1,0.9-0.3,1.5
			c-0.2,0.6-0.4,0.9-0.6,0.9c-0.1,0-0.3,0-0.6-0.1c-0.3-0.1-0.5-0.1-0.7-0.1c-0.5,0-0.9,0.1-1.3,0.4c-0.4,0.3-0.7,0.6-0.9,1v9
			c0,0.6-0.6,0.9-1.7,0.9h-0.8C271,1366.1,270.4,1365.8,270.4,1365.2z"/>
		<path class="st0" d="M292.3,1351.9c0,0.1,0,0.3-0.1,0.5l-6.4,18.8c-0.1,0.4-0.7,0.6-1.6,0.6h-0.5c-1.1,0-1.7-0.2-1.7-0.6
			c0-0.2,0-0.3,0.1-0.5l1.8-4.7l-4.6-13.6c-0.1-0.3-0.1-0.4-0.1-0.5c0-0.4,0.6-0.6,1.7-0.6h0.9c0.9,0,1.4,0.2,1.6,0.6l1.7,5.2
			c0.2,0.5,0.4,1.7,0.8,3.4h0.1c0.4-1.8,0.6-2.9,0.8-3.4l1.7-5.2c0.1-0.4,0.7-0.6,1.6-0.6h0.7
			C291.7,1351.3,292.3,1351.5,292.3,1351.9z"/>
		<path class="st0" d="M301.2,1365.2v-17.9c0-0.6,0.6-0.9,1.7-0.9h1c1.1,0,1.7,0.3,1.7,0.9v6.9h7.6v-6.9c0-0.6,0.6-0.9,1.7-0.9h1
			c1.1,0,1.7,0.3,1.7,0.9v17.9c0,0.6-0.6,0.9-1.7,0.9h-1c-1.1,0-1.7-0.3-1.7-0.9v-7.3h-7.6v7.3c0,0.6-0.6,0.9-1.7,0.9h-1
			C301.8,1366.1,301.2,1365.8,301.2,1365.2z"/>
		<path class="st0" d="M321.3,1348.5v-2c0-0.7,0.7-1,2.1-1c1.4,0,2.1,0.3,2.1,1v2c0,0.7-0.7,1.1-2.1,1.1
			C322,1349.5,321.3,1349.2,321.3,1348.5z M321.3,1365.2v-13c0-0.6,0.6-0.9,1.7-0.9h0.8c1.1,0,1.7,0.3,1.7,0.9v13
			c0,0.6-0.6,0.9-1.7,0.9H323C321.8,1366.1,321.3,1365.8,321.3,1365.2z"/>
		<path class="st0" d="M327.7,1368.1c0-0.7,0.2-1.4,0.7-1.9c0.4-0.6,1.1-1,1.9-1.3l0-0.1c-0.4-0.2-0.7-0.5-0.9-0.8
			c-0.2-0.4-0.3-0.8-0.3-1.3s0.1-0.9,0.4-1.3c0.3-0.4,0.7-0.7,1.2-1c-1.5-0.8-2.3-2.2-2.3-4.2c0-1.7,0.6-3,1.7-3.8
			c1.1-0.8,2.6-1.2,4.4-1.2c0.7,0,1.4,0.1,2.2,0.2h4.5c0.3,0,0.5,0.1,0.6,0.3c0.1,0.2,0.2,0.6,0.2,1.1v0.5c0,0.9-0.2,1.3-0.7,1.3
			c-0.2,0-0.3,0-0.6,0c-0.2,0-0.4,0-0.6-0.1l-0.1,0.1c0.1,0.2,0.2,0.4,0.3,0.7c0.1,0.3,0.1,0.6,0.1,0.9c0,1.7-0.5,2.9-1.6,3.7
			c-1.1,0.8-2.4,1.2-4.1,1.2c-1.1,0-1.7,0.3-1.7,0.8c0,0.3,0.2,0.5,0.6,0.7c0.4,0.1,1.1,0.3,2,0.4c0.7,0.1,1.2,0.2,1.5,0.2
			c1.3,0.3,2.4,0.7,3.2,1.3c0.8,0.6,1.2,1.5,1.2,2.8c0,1-0.3,1.8-0.9,2.5s-1.4,1.3-2.5,1.7c-1.1,0.4-2.4,0.6-3.8,0.6
			C329.9,1371.9,327.7,1370.6,327.7,1368.1z M336.8,1368.3c0.5-0.2,0.7-0.6,0.7-1c0-0.4-0.3-0.7-0.9-0.9c-0.6-0.2-1.8-0.3-3.4-0.5
			c-0.5,0.2-0.8,0.4-1.1,0.7s-0.4,0.6-0.4,0.9c0,0.4,0.2,0.7,0.7,0.9c0.5,0.2,1.2,0.3,2.2,0.3
			C335.6,1368.7,336.4,1368.5,336.8,1368.3z M336,1357.6c0.4-0.3,0.6-0.8,0.6-1.5c0-0.7-0.2-1.2-0.6-1.5s-0.9-0.5-1.5-0.5
			c-0.6,0-1.1,0.2-1.5,0.5c-0.4,0.3-0.6,0.8-0.6,1.5c0,0.7,0.2,1.1,0.6,1.5c0.4,0.3,0.9,0.5,1.5,0.5
			C335.1,1358.1,335.6,1357.9,336,1357.6z"/>
		<path class="st0" d="M344.2,1365.2v-19.4c0-0.6,0.6-0.9,1.7-0.9h0.8c1.1,0,1.7,0.3,1.7,0.9v7.3c0.5-0.6,1-1,1.7-1.4
			c0.7-0.4,1.4-0.5,2.2-0.5c1.4,0,2.5,0.4,3.2,1.1c0.7,0.7,1,1.9,1,3.4v9.5c0,0.6-0.6,0.9-1.7,0.9H354c-1.1,0-1.7-0.3-1.7-0.9v-8.9
			c0-1.2-0.6-1.7-1.8-1.7c-0.5,0-0.9,0.2-1.3,0.5c-0.4,0.3-0.7,0.7-0.9,1.1v9c0,0.6-0.6,0.9-1.7,0.9h-0.8
			C344.7,1366.1,344.2,1365.8,344.2,1365.2z"/>
	</g>
	<g transform="translate(-28 714)">
		<circle class="st2" cx="324.7" cy="571.6" r="38"/>
		<g transform="translate(282 524.867)">
			<path class="st3" d="M43.4,87.9c-23,0-41.6-18.6-41.6-41.6S20.4,4.8,43.4,4.8c23,0,41.6,18.6,41.6,41.6
				C85,69.3,66.4,87.9,43.4,87.9z M43.4,11.3c-19.3,0-35,15.7-35,35c0,19.3,15.7,35,35,35c19.3,0,35-15.7,35-35c0,0,0,0,0,0
				C78.4,27,62.7,11.4,43.4,11.3L43.4,11.3z"/>
			<path class="st3" d="M62.8,68.2H24c-1.8,0-3.3-1.5-3.3-3.3c0-0.5,0.1-1,0.3-1.4C25.6,54,34.2,48,43.4,48s17.8,6,22.4,15.6
				c0.8,1.6,0.1,3.6-1.6,4.4C63.8,68.1,63.3,68.2,62.8,68.2z M43.4,54.5c-5,0-10,2.6-13.6,7.2H57C53.4,57.1,48.4,54.5,43.4,54.5z"/>
			<path class="st3" d="M19.7,45.6c0.7,1.7,2.6,2.5,4.3,1.8l14.3-5.7c1.7-0.7,2.5-2.6,1.8-4.3c-0.3-0.8-1-1.5-1.8-1.8L24,29.8
				c-1.7-0.7-3.6,0.1-4.3,1.8c-0.7,1.7,0.1,3.6,1.8,4.3c0,0,0,0,0.1,0l6.7,2.7l-6.7,2.7C19.9,42,19.1,43.9,19.7,45.6"/>
			<path class="st3" d="M48.5,41.6l14.3,5.7c1.7,0.7,3.6-0.1,4.3-1.8c0.7-1.7-0.1-3.6-1.8-4.3l-6.7-2.7l6.7-2.7
				c1.7-0.7,2.5-2.6,1.8-4.3c-0.7-1.6-2.5-2.4-4.2-1.8l-14.3,5.7c-1.7,0.7-2.5,2.6-1.8,4.3C47,40.7,47.7,41.3,48.5,41.6"/>
		</g>
	</g>
</g>
</svg>
