<svg xmlns="http://www.w3.org/2000/svg" viewBox="0 0 217.027 59.413"><defs><style>.a{fill:#6682a8;}.b{fill:#f06292;}.c{fill:#ffd54f;}.d{fill:#4dd0e1;}</style></defs><g transform="translate(-0.002)"><g transform="translate(64.404 18.444)"><path class="a" d="M222.992,73.869a16.252,16.252,0,0,1,3.457-.349,5.269,5.269,0,0,1,3.348.9,3.351,3.351,0,0,1,1.117,2.779,3.123,3.123,0,0,1-.023.328c-.015.132-.038.3-.065.5l-.437,2.583H236.6l-1.05,6.523H229.3l-.962,5.823a2.721,2.721,0,0,0-.044.525,1.258,1.258,0,0,0,1.445,1.4,3.129,3.129,0,0,0,2.495-1.794,5.851,5.851,0,0,1,2.671,1.4,3.171,3.171,0,0,1,.833,2.275,4.1,4.1,0,0,1-.349,1.75,5.29,5.29,0,0,1-1.269,1.577,8.585,8.585,0,0,1-6.039,2.014,9.24,9.24,0,0,1-6.239-1.882,6.962,6.962,0,0,1-2.167-5.559,18.3,18.3,0,0,1,.22-2.495Z" transform="translate(-219.67 -70.409)"/><path class="a" d="M282.937,63.259a16.016,16.016,0,0,1,3.372-.349q4.508,0,4.509,3.676a7.207,7.207,0,0,1-.088.833l-1.226,7.4a7.1,7.1,0,0,1,5.6-2.583,4.985,4.985,0,0,1,3.9,1.554,6.15,6.15,0,0,1,1.4,4.269,12.017,12.017,0,0,1-.132,1.794q-.132.875-.308,1.838l-1.182,7.048a14.571,14.571,0,0,0-.264,2.451,8.266,8.266,0,0,0,.264,2.319,9.94,9.94,0,0,1-4.333.921,5.568,5.568,0,0,1-3.372-.833,3.086,3.086,0,0,1-1.094-2.627,10.58,10.58,0,0,1,.088-1.313l1.445-8.578a4.262,4.262,0,0,0,.064-.481c.015-.176.021-.334.021-.481q0-1.139-1.182-1.138-1.618,0-1.97,2.014l-2.187,12.956H277.73Z" transform="translate(-260.708 -62.91)"/><path class="a" d="M361.33,107.98a14.762,14.762,0,0,1,.985-5.471,12.663,12.663,0,0,1,2.691-4.245,11.268,11.268,0,0,1,3.984-2.647,13.363,13.363,0,0,1,4.946-.9,10.279,10.279,0,0,1,5.01,1.138,7.7,7.7,0,0,1,3.175,3.2,9.9,9.9,0,0,1,1.094,4.726,15.173,15.173,0,0,1-1.577,7.048,11.04,11.04,0,0,1-4.357,4.662,12.733,12.733,0,0,1-6.456,1.6q-4.552,0-7.025-2.407A8.923,8.923,0,0,1,361.33,107.98Zm10.244,2.847a2.072,2.072,0,0,0,1.686-.985,7.613,7.613,0,0,0,1.138-2.647,13.094,13.094,0,0,0,.416-3.2,4.266,4.266,0,0,0-.46-2.3,1.6,1.6,0,0,0-1.422-.677,2.1,2.1,0,0,0-1.73.985,7.57,7.57,0,0,0-1.138,2.671,14.222,14.222,0,0,0-.416,3.436Q369.647,110.824,371.574,110.827Z" transform="translate(-319.798 -85.394)"/><path class="a" d="M444.6,95.279a10.893,10.893,0,0,1,3.457-.569,5.638,5.638,0,0,1,3.436.833,3.169,3.169,0,0,1,1.073,2.671c0,.176-.009.358-.023.548s-.038.372-.064.548l-1.577,9.279a4.262,4.262,0,0,0-.065.481c-.015.176-.023.337-.023.481q0,1.139,1.181,1.138,1.618,0,1.97-2.014l2.231-13.4a10.893,10.893,0,0,1,3.457-.569,5.638,5.638,0,0,1,3.436.833,3.169,3.169,0,0,1,1.073,2.671c0,.176-.009.358-.02.548s-.038.372-.065.548l-2.014,11.774a17.849,17.849,0,0,0-.22,2.671,10.219,10.219,0,0,0,.264,2.539,12.847,12.847,0,0,1-3.72.569,6.174,6.174,0,0,1-2.955-.525,3.746,3.746,0,0,1-1.466-1.838,7.181,7.181,0,0,1-2.6,1.991,9.326,9.326,0,0,1-3.48.548,5.82,5.82,0,0,1-4.269-1.489,5.517,5.517,0,0,1-1.51-4.116,23.882,23.882,0,0,1,.437-3.984Z" transform="translate(-376.889 -85.387)"/><path class="a" d="M527.088,114.977a6.08,6.08,0,0,1-2.079,1.161,8.948,8.948,0,0,1-2.6.328,5.635,5.635,0,0,1-4.685-2.1,9.551,9.551,0,0,1-1.662-6.039,14.361,14.361,0,0,1,1.75-7.092,12.246,12.246,0,0,1,4.726-4.837,13.713,13.713,0,0,1,6.872-1.686,19.3,19.3,0,0,1,5.034.592,14.732,14.732,0,0,1,4.157,1.859l-2.847,16.764a22.5,22.5,0,0,1-2.275,7.288,9.465,9.465,0,0,1-4,3.873,13.757,13.757,0,0,1-6.239,1.269,14.627,14.627,0,0,1-6.347-1.094,6.416,6.416,0,0,1-2.275-1.706,3.446,3.446,0,0,1-.7-2.146,4.268,4.268,0,0,1,.833-2.495,5.216,5.216,0,0,1,2.231-1.794,7.932,7.932,0,0,0,2.583,2.386,6.91,6.91,0,0,0,3.2.677,3.717,3.717,0,0,0,2.715-.985,5.607,5.607,0,0,0,1.4-3Zm2.275-13.4a2.532,2.532,0,0,0-1.226-.3,2.676,2.676,0,0,0-2.014.877,6.09,6.09,0,0,0-1.313,2.342,9.79,9.79,0,0,0-.481,3.087q0,2.669,1.882,2.671,1.662,0,2.014-2.058Z" transform="translate(-427.645 -85.387)"/><path class="a" d="M603.337,63.259a16.018,16.018,0,0,1,3.372-.349q4.508,0,4.509,3.676a7.2,7.2,0,0,1-.088.833l-1.226,7.4a7.1,7.1,0,0,1,5.6-2.583,4.985,4.985,0,0,1,3.9,1.554,6.15,6.15,0,0,1,1.4,4.269,12.03,12.03,0,0,1-.132,1.794q-.132.875-.308,1.838l-1.182,7.048a14.572,14.572,0,0,0-.264,2.451,8.266,8.266,0,0,0,.264,2.319,9.94,9.94,0,0,1-4.333.921,5.568,5.568,0,0,1-3.372-.833,3.086,3.086,0,0,1-1.094-2.627,10.563,10.563,0,0,1,.088-1.313l1.445-8.578a4.311,4.311,0,0,0,.065-.481c.015-.176.021-.334.021-.481q0-1.139-1.182-1.138-1.618,0-1.97,2.014l-2.187,12.956H598.13Z" transform="translate(-487.174 -62.91)"/><path class="a" d="M685.822,73.869a16.251,16.251,0,0,1,3.457-.349,5.269,5.269,0,0,1,3.348.9,3.352,3.352,0,0,1,1.117,2.779,3.1,3.1,0,0,1-.023.328c-.015.132-.038.3-.065.5l-.437,2.583h6.215l-1.05,6.523h-6.259l-.962,5.823a2.727,2.727,0,0,0-.044.525,1.258,1.258,0,0,0,1.445,1.4,3.129,3.129,0,0,0,2.495-1.794,5.85,5.85,0,0,1,2.671,1.4,3.17,3.17,0,0,1,.833,2.275,4.1,4.1,0,0,1-.349,1.75,5.288,5.288,0,0,1-1.269,1.577,8.585,8.585,0,0,1-6.04,2.014,9.24,9.24,0,0,1-6.239-1.882,6.962,6.962,0,0,1-2.167-5.559,18.308,18.308,0,0,1,.22-2.495Z" transform="translate(-546.809 -70.409)"/></g><g transform="translate(103.373)"><path class="a" d="M358.19,6.951a10.473,10.473,0,0,1,2.214-.223q2.885,0,2.888,2.354a2.134,2.134,0,0,1-.015.252c-.009.073-.023.167-.041.281l-1.372,8.127q-.9,5.268-1.961,6.726a5.775,5.775,0,0,1-2.017,1.809,5.717,5.717,0,0,1-2.577.545,2.73,2.73,0,0,1-2.017-.7,2.652,2.652,0,0,1-.7-1.961,6.042,6.042,0,0,1,.085-.982,4.512,4.512,0,0,0,1.739-.322,2.148,2.148,0,0,0,1.023-1.05,10.077,10.077,0,0,0,.686-2.577Zm.449-3.926A2.936,2.936,0,0,1,359.48.812,3.086,3.086,0,0,1,361.722,0a2.522,2.522,0,0,1,1.78.66,2.085,2.085,0,0,1,.715,1.583,2.936,2.936,0,0,1-.841,2.213,3.086,3.086,0,0,1-2.243.812,2.509,2.509,0,0,1-1.794-.66A2.092,2.092,0,0,1,358.638,3.026Z" transform="translate(-352.59)"/><path class="a" d="M393.451,22.354a6.948,6.948,0,0,1,2.213-.364,3.607,3.607,0,0,1,2.2.534,2.028,2.028,0,0,1,.686,1.709c0,.111-.006.229-.015.352s-.023.237-.041.349l-1.009,5.94a2.911,2.911,0,0,0-.041.308c-.009.111-.015.214-.015.308q0,.73.756.73c.692,0,1.111-.428,1.261-1.29l1.431-8.575a6.948,6.948,0,0,1,2.214-.364,3.608,3.608,0,0,1,2.2.534,2.028,2.028,0,0,1,.686,1.709c0,.111-.006.229-.015.352s-.023.237-.041.349l-1.29,7.538a11.413,11.413,0,0,0-.141,1.709,6.6,6.6,0,0,0,.167,1.624,8.184,8.184,0,0,1-2.381.364,3.91,3.91,0,0,1-1.891-.337,2.4,2.4,0,0,1-.938-1.176,4.619,4.619,0,0,1-1.668,1.275,5.938,5.938,0,0,1-2.228.349,3.726,3.726,0,0,1-2.732-.953,3.531,3.531,0,0,1-.967-2.636,15.118,15.118,0,0,1,.281-2.551Z" transform="translate(-380.34 -15.543)"/><path class="a" d="M442.254,30.221a4.511,4.511,0,0,0,1.275,1.346,2.624,2.624,0,0,0,1.472.475c.5,0,.756-.188.756-.56a.864.864,0,0,0-.223-.589,3.916,3.916,0,0,0-.63-.545c-.27-.2-.613-.425-1.023-.686a6.6,6.6,0,0,1-1.821-1.668,3.027,3.027,0,0,1-.475-1.668,3.683,3.683,0,0,1,.756-2.269,4.753,4.753,0,0,1,2.061-1.542,8,8,0,0,1,3.04-.534,6.958,6.958,0,0,1,3.63.912,2.634,2.634,0,0,1,1.527,2.255,2.2,2.2,0,0,1-.8,1.654,3.259,3.259,0,0,1-1.92.841,2.269,2.269,0,0,0-2.129-1.739.661.661,0,0,0-.463.167.54.54,0,0,0-.182.419.617.617,0,0,0,.238.463,6.243,6.243,0,0,0,.771.545c.355.223.812.534,1.372.924a5.651,5.651,0,0,1,1.639,1.639,3.935,3.935,0,0,1,.49,2.032,3.646,3.646,0,0,1-1.569,3.014,6.489,6.489,0,0,1-4.034,1.19,8.823,8.823,0,0,1-4.008-.786,3.829,3.829,0,0,1-1.36-1.079,2.3,2.3,0,0,1-.408-1.36,2.7,2.7,0,0,1,.475-1.6A4.621,4.621,0,0,1,442.254,30.221Z" transform="translate(-414.543 -15.536)"/><path class="a" d="M486.428,8.643a10.473,10.473,0,0,1,2.214-.223,3.363,3.363,0,0,1,2.143.575,2.153,2.153,0,0,1,.715,1.78c0,.056-.006.126-.015.211s-.023.191-.041.322l-.282,1.654h3.978l-.671,4.175h-4.008l-.616,3.726a1.829,1.829,0,0,0-.029.337.8.8,0,0,0,.923.9,2.008,2.008,0,0,0,1.6-1.149,3.716,3.716,0,0,1,1.709.9,2.032,2.032,0,0,1,.534,1.457,2.6,2.6,0,0,1-.223,1.12,3.367,3.367,0,0,1-.812,1.009,5.5,5.5,0,0,1-3.867,1.29,5.909,5.909,0,0,1-3.993-1.2,4.465,4.465,0,0,1-1.387-3.559,11.738,11.738,0,0,1,.141-1.6Z" transform="translate(-445.685 -5.951)"/><path class="a" d="M555.018,32.525a11.428,11.428,0,0,0-.141,1.709,6.6,6.6,0,0,0,.167,1.624,8.183,8.183,0,0,1-2.38.364,4.089,4.089,0,0,1-1.891-.322,2.31,2.31,0,0,1-.938-1.19,4.319,4.319,0,0,1-3.7,1.624,3.5,3.5,0,0,1-2.914-1.4,6.036,6.036,0,0,1-1.094-3.811,9.825,9.825,0,0,1,1.12-4.723,7.962,7.962,0,0,1,3.055-3.207,8.611,8.611,0,0,1,4.4-1.12,12.027,12.027,0,0,1,3.125.364,10.118,10.118,0,0,1,2.677,1.2Zm-4.345-5.966a1.37,1.37,0,0,0-.756-.2,1.658,1.658,0,0,0-1.275.616,4.369,4.369,0,0,0-.856,1.624,6.785,6.785,0,0,0-.308,2.017c0,1.1.381,1.654,1.149,1.654.709,0,1.14-.428,1.29-1.29Z" transform="translate(-486.561 -15.6)"/></g><g transform="translate(0.002 0.273)"><g transform="translate(0 10.174)"><path class="b" d="M23.787,54.111a.255.255,0,0,0-.264-.355,13.649,13.649,0,0,1-3.213.067A13.945,13.945,0,0,1,7.823,38.587a13.623,13.623,0,0,1,.534-2.63.253.253,0,0,0-.349-.3A13.382,13.382,0,0,0,18.674,60.2a4.043,4.043,0,0,0,2.7,3.665,3.993,3.993,0,0,0,1.061.214.255.255,0,0,0,.267-.3,17.707,17.707,0,0,1-.267-3.407A16.948,16.948,0,0,1,23.787,54.111Z" transform="translate(-0.002 -35.633)"/></g><g transform="translate(11.468)"><path class="c" d="M42.566,7.732a11.153,11.153,0,0,0-3.4,6.7A10.331,10.331,0,0,0,52.223,25.284c2.46-.736,4.055-2.955,5.864-4.626.545-.5,1.108-.994,1.686-1.46a31.336,31.336,0,0,1,6.485-4.084c.484-.226.976-.437,1.472-.633a26.748,26.748,0,0,1,12.39-1.9,16.856,16.856,0,0,1,7.385,2.4.253.253,0,0,0,.372-.308C85.22,8.347,76.214,2.363,63.153,1.068a27.568,27.568,0,0,0-14.2,2.307A22.137,22.137,0,0,0,42.566,7.732Z" transform="translate(-39.117 -0.93)"/></g><g transform="translate(26.155 15.275)"><path class="d" d="M124.007,58.639a7.462,7.462,0,0,0-3.037-3.8,14.618,14.618,0,0,0-8.405-1.788,24.472,24.472,0,0,0-3.973.487,27.52,27.52,0,0,0-14.515,8.487c-2.677,2.938-4.8,6.635-4.861,10.7-.144,9.6,8.265,11.267,11.32,11.554a.648.648,0,0,0,.68-.844,4.939,4.939,0,0,1,1.349-4.969c2.213-2.351,5.289-3.134,8.241-4.084,5.6-1.8,12.12-5.559,13.457-11.792A7.252,7.252,0,0,0,124.007,58.639Z" transform="translate(-89.214 -53.031)"/></g><g transform="translate(40.519 45.762)"><path class="d" d="M138.261,158.269c-.317,1.079.809,2.36,2.515,2.861a4.874,4.874,0,0,0,1.176.194c1.228.05,2.246-.416,2.486-1.24.287-.979-.619-2.117-2.058-2.7-.15-.059-.3-.12-.457-.167C140.22,156.721,138.578,157.191,138.261,158.269Z" transform="translate(-138.208 -157.021)"/></g></g></g></svg>