<svg id="Layer_1" data-name="Layer 1" xmlns="http://www.w3.org/2000/svg" xmlns:xlink="http://www.w3.org/1999/xlink" viewBox="0 0 137 120"><defs><style>.cls-1,.cls-2{fill:none;}.cls-1{clip-rule:evenodd;}.cls-3{fill:#d3f0f5;}.cls-4,.cls-6{fill:#fff;}.cls-4{fill-rule:evenodd;}.cls-5{fill:#4e4b6e;}.cls-7{fill:#5ac7d9;}.cls-8{clip-path:url(#clip-path);}.cls-9{clip-path:url(#clip-path-2);}.cls-10{fill:#4f476a;}.cls-11{clip-path:url(#clip-path-3);}.cls-12{clip-path:url(#clip-path-4);}</style><clipPath id="clip-path"><path class="cls-1" d="M67,88.31a1.45,1.45,0,0,0,1.45,1.45H91.29a1.45,1.45,0,1,0,0-2.9H68.4A1.45,1.45,0,0,0,67,88.31"/></clipPath><clipPath id="clip-path-2"><rect class="cls-2" x="-231.98" y="-164.4" width="1123.79" height="1123.79"/></clipPath><clipPath id="clip-path-3"><path class="cls-1" d="M96.57,89.76a1.45,1.45,0,0,0,0-2.9H96.5a1.43,1.43,0,0,0-1.42,1.45,1.48,1.48,0,0,0,1.49,1.45"/></clipPath><clipPath id="clip-path-4"><rect class="cls-2" x="-232.49" y="-164.4" width="1123.79" height="1123.79"/></clipPath></defs><g id="Group_723" data-name="Group 723"><path id="Path_1013" data-name="Path 1013" class="cls-3" d="M12.47,89c20.42,29.77,100.4,29.31,115.57-8.45C139.53,51.84,89.49,4.87,64.82,15.92S52.12,45.36,33.19,54.33C10.2,65.23,6.19,79.81,12.47,89Z"/><path id="Path_1014" data-name="Path 1014" class="cls-3" d="M18.85,53.86c-2.54-3.8-13.61.27-11.25,5.67C11,67.2,21,57.09,18.85,53.86Z"/></g><path class="cls-4" d="M39.33,64.66s4.24,5.94,28.82,5.94,29.52-5.94,29.52-5.94,1.59-6.83-6.4-9.76-14.63-3.9-14.48-10A15.37,15.37,0,0,1,78,38.31a1.23,1.23,0,0,0,.68.19c.52,0,1.28-.29,2.08-1.62,1.46-2.4,2.62-5.59,0-6.4.56-3.06,1.21-10.4-3.44-14.25a13.39,13.39,0,0,0-7.9-3,.12.12,0,0,0-.09,0H67.67a.09.09,0,0,0-.08,0,13.42,13.42,0,0,0-7.91,3c-4.65,3.85-4,11.19-3.44,14.25-2.61.81-1.46,4,0,6.4.8,1.33,1.56,1.62,2.08,1.62a1.23,1.23,0,0,0,.68-.19,15.37,15.37,0,0,1,1.21,6.6c.15,6.09-6.49,7.06-14.48,10s-6.4,9.76-6.4,9.76"/><path class="cls-5" d="M68.15,72.17c-24.68,0-29.63-5.91-30.11-6.59a1.49,1.49,0,0,1-.25-.56c-.66-2.83,0-8.9,7.4-11.6,1.36-.5,2.69-1,4-1.37,6.47-2.16,9.58-3.37,9.49-7.1A16.87,16.87,0,0,0,58,40.06a4.28,4.28,0,0,1-3.08-2.36c-1.13-1.86-2.31-4.51-1.53-6.57a3.45,3.45,0,0,1,1.14-1.52C54,25.88,53.86,19,58.67,15a14.85,14.85,0,0,1,8.58-3.3,4.1,4.1,0,0,1,1.28-.06,3.87,3.87,0,0,1,1.22.06A14.85,14.85,0,0,1,78.33,15c4.81,4,4.67,10.87,4.17,14.6a3.34,3.34,0,0,1,1.14,1.53c.78,2-.4,4.7-1.53,6.56A4.26,4.26,0,0,1,79,40.06a16.66,16.66,0,0,0-.66,4.85c-.09,3.77,3,5,9.49,7.14,1.26.42,2.59.87,4,1.37,7.36,2.7,8.06,8.77,7.4,11.6a1.63,1.63,0,0,1-.32.66C98.33,66.34,92.75,72.17,68.15,72.17ZM40.8,63.92c1.15,1,7.09,5.1,27.35,5.1s26.71-4.1,28.05-5.15c.16-1.4.09-5.45-5.48-7.49-1.33-.49-2.63-.92-3.86-1.33-6.33-2.12-11.8-3.95-11.64-10.17a16.71,16.71,0,0,1,1.38-7.3,1.57,1.57,0,0,1,1.05-.81,1.5,1.5,0,0,1,1.06.13,2.45,2.45,0,0,0,.7-.84c1.15-1.89,1.47-3.3,1.28-3.8,0-.06-.06-.17-.39-.27a1.58,1.58,0,0,1-1.09-1.79c.38-2.11,1.3-9.27-2.9-12.75a11.58,11.58,0,0,0-7-2.6,1.17,1.17,0,0,1-.27,0H68a1.26,1.26,0,0,1-.28,0,11.58,11.58,0,0,0-7,2.6c-4.2,3.47-3.28,10.64-2.9,12.75A1.58,1.58,0,0,1,56.7,32c-.32.1-.37.21-.39.27-.19.5.13,1.91,1.28,3.8a2.47,2.47,0,0,0,.7.83,1.61,1.61,0,0,1,1.06-.12,1.57,1.57,0,0,1,1,.81,16.8,16.8,0,0,1,1.38,7.34c.16,6.18-5.31,8-11.64,10.13-1.23.41-2.53.84-3.86,1.33C40.66,58.45,40.64,62.55,40.8,63.92ZM78.92,37l0,0ZM58.07,37h0Z"/><rect class="cls-6" x="30.49" y="77.92" width="76.02" height="19.73" rx="1.98"/><path class="cls-5" d="M103.38,99.23H33.62a4.71,4.71,0,0,1-4.71-4.71V81.05a4.71,4.71,0,0,1,4.71-4.71h69.76a4.71,4.71,0,0,1,4.71,4.71V94.52A4.71,4.71,0,0,1,103.38,99.23ZM33.62,79.5a1.54,1.54,0,0,0-1.55,1.55V94.52a1.55,1.55,0,0,0,1.55,1.55h69.76a1.55,1.55,0,0,0,1.55-1.55V81.05a1.54,1.54,0,0,0-1.55-1.55Z"/><circle class="cls-7" cx="47.62" cy="87.78" r="12.59"/><path class="cls-5" d="M47.62,102A14.17,14.17,0,1,1,61.78,87.78,14.18,14.18,0,0,1,47.62,102Zm0-25.17a11,11,0,1,0,11,11A11,11,0,0,0,47.62,76.78Z"/><g id="AUyLiE"><path class="cls-5" d="M44.76,91.42c.55-1.08,1.05-2.09,1.58-3.1a43.71,43.71,0,0,1,4.45-6.88A2,2,0,0,1,53,80.82c.47.17.58.47.3.89s-.44.56-.65.84A49.65,49.65,0,0,0,47,92.35c-.25.53-.48,1.06-.72,1.59a1.7,1.7,0,0,1-2.81.31c-1-1.42-2.09-2.84-3.12-4.26-.4-.53-.36-.92.21-1.23a4.36,4.36,0,0,1,1.28-.41,1.06,1.06,0,0,1,1.07.54C43.5,89.73,44.12,90.54,44.76,91.42Z"/></g><g class="cls-8"><g class="cls-9"><rect class="cls-10" x="61.46" y="81.38" width="42.8" height="13.87"/></g></g><g class="cls-11"><g class="cls-12"><rect class="cls-10" x="89.59" y="81.38" width="13.91" height="13.87"/></g></g></svg>