<svg id="Layer_1" data-name="Layer 1" xmlns="http://www.w3.org/2000/svg" xmlns:xlink="http://www.w3.org/1999/xlink" viewBox="0 0 137 120"><defs><style>.cls-1{fill:none;clip-rule:evenodd;}.cls-2{fill:#d3f0f5;}.cls-3{clip-path:url(#clip-path);}.cls-4{clip-path:url(#clip-path-2);}.cls-5{fill:#fff;}.cls-6{fill:#4e4b6e;}.cls-7{fill:#f06392;}</style><clipPath id="clip-path"><path class="cls-1" d="M-1,262.47a.92.92,0,0,0,.92.91H14.43a.92.92,0,1,0,0-1.83H-.06a.92.92,0,0,0-.92.92"/></clipPath><clipPath id="clip-path-2"><path class="cls-1" d="M17.77,263.38a.92.92,0,1,0,0-1.83h0a.9.9,0,0,0-.9.92.93.93,0,0,0,.94.91"/></clipPath></defs><g id="Group_723" data-name="Group 723"><path id="Path_1013" data-name="Path 1013" class="cls-2" d="M11.2,86.75c20.42,29.76,100.41,29.3,115.57-8.46C138.27,49.62,88.22,2.65,63.55,13.7S50.85,43.14,31.93,52.11C8.94,63,4.92,77.59,11.2,86.75Z"/></g><path class="cls-5" d="M71.65,37.46V19.36H42.21a.81.81,0,0,0-.77.77V36.29l4.9,4.85L62.93,57.73H81.19a1.26,1.26,0,0,1,0,2.51h-16l.1.18.33.83q.67,1.71,1.35,3.45H84.62a1.24,1.24,0,0,1,1.26,1.24h0a1.25,1.25,0,0,1-1.25,1.25H67.94c1,2.56,2.12,5.12,3.29,7.62a2.54,2.54,0,0,1,.19.57l0,.37a2.12,2.12,0,0,1-.6,1.55l.06.14-.14-.07-.27.22A1.92,1.92,0,0,1,69.4,78h0a2.33,2.33,0,0,1-1-.22l-.81-.39H50.49A1.25,1.25,0,0,1,49.34,76a1.26,1.26,0,0,1,1.15-1.16H62.24l-3.48-1.56-4.47-2a3.34,3.34,0,0,1-1-.72c-3.93-3.91-7.87-7.85-11.8-11.78V94.94a.76.76,0,0,0,.71.81H95.06a.82.82,0,0,0,.81-.81V42.44H76.63A5,5,0,0,1,71.65,37.46ZM86.21,57.74h.63a1.25,1.25,0,1,1,.2,2.5h-.86A1.26,1.26,0,0,1,85,59,1.25,1.25,0,0,1,86.21,57.74Z"/><path class="cls-5" d="M75,21.8V37.46a1.62,1.62,0,0,0,1.62,1.62H93.27Z"/><path class="cls-6" d="M98.64,39.53,74.18,16.46A1.69,1.69,0,0,0,73,16H42.19a4.11,4.11,0,0,0-4.09,4.13V33L38,32.9a2.31,2.31,0,0,0-1.57-.76h-.14a2.3,2.3,0,0,0-1.55.75l-8,8.06a2.48,2.48,0,0,0-.42.47,2.1,2.1,0,0,0,.47,2.87l5.12,5,6.16,6.14v39.5a4.11,4.11,0,0,0,4.11,4.11H95.07a4.12,4.12,0,0,0,4.09-4.14V40.8A1.65,1.65,0,0,0,98.64,39.53ZM95.87,94.94a.82.82,0,0,1-.81.81H42.15a.76.76,0,0,1-.71-.81V58.77c3.93,3.93,7.87,7.87,11.8,11.78a3.34,3.34,0,0,0,1,.72l4.47,2,3.48,1.56H50.49A1.26,1.26,0,0,0,49.34,76a1.25,1.25,0,0,0,1.15,1.35h17.1l.81.39a2.33,2.33,0,0,0,1,.22h0a1.92,1.92,0,0,0,1.09-.36l.27-.22.14.07-.06-.14a2.12,2.12,0,0,0,.6-1.55l0-.37a2.54,2.54,0,0,0-.19-.57c-1.17-2.5-2.25-5.06-3.29-7.62H84.63A1.25,1.25,0,0,0,85.88,66h0a1.24,1.24,0,0,0-1.26-1.24H66.93q-.68-1.74-1.35-3.45l-.33-.83-.1-.18h16a1.26,1.26,0,0,0,0-2.51H62.93L46.34,41.14l-4.9-4.85V20.13a.81.81,0,0,1,.77-.77H71.65v18.1a5,5,0,0,0,5,5H95.87ZM29.1,42.54l7.22-7.3L62.2,61l-7.3,7.3ZM66.88,71.92,68,74.5,65.5,73.3ZM63,62.24c0,.06.07.14.1.23q1.57,4,3.14,7.93a.3.3,0,0,1,0,.26c-.7.66-1.37,1.31-2,2L56.1,69.09ZM75,37.46V21.8L93.27,39.08H76.62A1.62,1.62,0,0,1,75,37.46Z"/><path class="cls-6" d="M86.18,60.24H87a1.25,1.25,0,1,0-.2-2.5h-.63A1.25,1.25,0,0,0,85,59,1.26,1.26,0,0,0,86.18,60.24Z"/><path class="cls-6" d="M34,32.4a1.66,1.66,0,0,0,.29-.3h0l0,0a2.12,2.12,0,0,0-.32-2.88l-.82-.81a6.83,6.83,0,0,0-6.43-2,8.65,8.65,0,0,0-7,8.29A6.68,6.68,0,0,0,20.67,38a8.79,8.79,0,0,0,1.63,2l.46.46a2.23,2.23,0,0,0,1.56.76h.08a2.23,2.23,0,0,0,1.6-.77Zm-2.32-1.64-7.36,7.36a4.38,4.38,0,0,1-1.71-2.61,5.38,5.38,0,0,1,1.63-4.81A5.53,5.53,0,0,1,27.81,29a3.92,3.92,0,0,1,3,.81C31.1,30.13,31.43,30.45,31.72,30.76Z"/><polygon class="cls-7" points="54.9 68.28 62.2 60.98 36.32 35.24 29.1 42.54 54.9 68.28"/><path class="cls-5" d="M66.2,70.66a.3.3,0,0,0,0-.26q-1.56-4-3.14-7.93c0-.09-.1-.17-.1-.23L56.1,69.09l8.06,3.57C64.83,72,65.5,71.32,66.2,70.66Z"/><polygon class="cls-7" points="66.88 71.92 65.5 73.3 68.03 74.5 66.88 71.92"/><path class="cls-5" d="M30.76,29.79a3.92,3.92,0,0,0-3-.81,5.53,5.53,0,0,0-3.53,1.72,5.38,5.38,0,0,0-1.63,4.81,4.38,4.38,0,0,0,1.71,2.61l7.36-7.36C31.43,30.45,31.1,30.13,30.76,29.79Z"/></svg>