<svg id="Layer_1" data-name="Layer 1" xmlns="http://www.w3.org/2000/svg" xmlns:xlink="http://www.w3.org/1999/xlink" width="160" height="130" viewBox="0 0 160 130"><defs><style>.cls-1{fill:none;}.cls-2{fill:#5ac6d9;}.cls-3{fill:#fff;}.cls-4,.cls-5{fill:#4e4b6e;}.cls-5{stroke:#4e4b6e;stroke-miterlimit:10;stroke-width:2.5px;}.cls-6{clip-path:url(#clip-path);}.cls-7{clip-path:url(#clip-path-2);}</style><clipPath id="clip-path"><path class="cls-1" d="M-265.83,260.33a1.85,1.85,0,0,0,1.85,1.85h29.22a1.85,1.85,0,0,0,1.86-1.85,1.85,1.85,0,0,0-1.86-1.84H-264a1.84,1.84,0,0,0-1.85,1.84"/></clipPath><clipPath id="clip-path-2"><path class="cls-1" d="M-228,262.18a1.86,1.86,0,0,0,1.86-1.85,1.86,1.86,0,0,0-1.86-1.84h-.08a1.82,1.82,0,0,0-1.81,1.82v0a1.89,1.89,0,0,0,1.89,1.85"/></clipPath></defs><title>Prescribe</title><g id="Group_4381" data-name="Group 4381"><path id="Path_4308" data-name="Path 4308" class="cls-2" d="M11.22,92.41c24.18,37,120.06,42.51,138.56-1.34C163.83,57.78,104.3-2,74.61,9.32S59.17,43.45,36.4,52.71C8.74,64,3.78,81,11.22,92.41Z"/><g id="Group_4380" data-name="Group 4380"><g id="Group_4366" data-name="Group 4366"><g id="Group_4364" data-name="Group 4364"><path id="Path_4309" data-name="Path 4309" class="cls-3" d="M117.45,38.53v66.78a3,3,0,0,1-3,3H49.29a3,3,0,0,1-3-3V13.09a3,3,0,0,1,3-3h38l30.15,28.45H91.73a4.08,4.08,0,0,1-4.08-4.08V10.71"/></g><g id="Group_4365" data-name="Group 4365"><path id="Path_4310" data-name="Path 4310" class="cls-4" d="M114.44,110.38H49.29a5.07,5.07,0,0,1-5.07-5.07V13.09A5.07,5.07,0,0,1,49.29,8h38a2.06,2.06,0,0,1,1.41.56L118.86,37a2.07,2.07,0,0,1,.64,1.57v66.71A5.07,5.07,0,0,1,114.44,110.38ZM49.29,12.14a1,1,0,0,0-.95.95v92.22a.94.94,0,0,0,.95,1h65.15a1,1,0,0,0,1-1V40.59H91.73a6.14,6.14,0,0,1-6.14-6.14V12.14Zm40.42,3V34.45a2,2,0,0,0,2,2h20.53Z"/></g></g><g id="Group_4379" data-name="Group 4379"><g id="Group_4367" data-name="Group 4367"><path id="Path_4311" data-name="Path 4311" class="cls-4" d="M97.34,62.53H59.5a1.55,1.55,0,0,1,0-3.09H97.34a1.55,1.55,0,0,1,0,3.09Z"/></g><g id="Group_4368" data-name="Group 4368"><path id="Path_4312" data-name="Path 4312" class="cls-4" d="M101.58,71.12h-38a1.55,1.55,0,1,1,0-3.09h38a1.54,1.54,0,0,1,1.55,1.55h0A1.54,1.54,0,0,1,101.58,71.12Z"/></g><g id="Group_4369" data-name="Group 4369"><path id="Path_4313" data-name="Path 4313" class="cls-4" d="M82.34,83.63H59.5a1.55,1.55,0,0,1,0-3.09H82.34a1.55,1.55,0,0,1,0,3.09Z"/></g><g id="Group_4370" data-name="Group 4370"><path id="Path_4314" data-name="Path 4314" class="cls-4" d="M104.27,62.53h-.77A1.54,1.54,0,0,1,102,61h0a1.54,1.54,0,0,1,1.54-1.55h.77a1.55,1.55,0,1,1,0,3.09Z"/></g><g id="Group_4378" data-name="Group 4378"><g id="Group_4371" data-name="Group 4371"><path id="Path_4315" data-name="Path 4315" class="cls-4" d="M83.57,81.71a.81.81,0,0,1-.71.91.78.78,0,0,1-.52-.11c-2.37-1.11-4.72-2.26-7.1-3.34-3.43-1.55-6.89-3.06-10.33-4.6a2.38,2.38,0,0,1-.77-.52L35.86,45.78c-.56-.56-.57-.92,0-1.48l9.85-10A.87.87,0,0,1,46.9,34a.75.75,0,0,1,.27.26Q61.35,48.44,75.5,62.61a2.41,2.41,0,0,1,.55.83c2.35,6,4.68,12,7.4,17.87A2.64,2.64,0,0,1,83.57,81.71ZM73.93,63.44,46.41,35.93,37.5,45,65,72.41Zm2.42,14.4c.83-.83,1.66-1.65,2.48-2.49a.36.36,0,0,0,0-.32Q76.94,70.14,75,65.25c0-.11-.1-.21-.13-.28l-8.45,8.47Zm4.77,2.27L79.7,76.93,78,78.63Z"/><path id="Path_4316" data-name="Path 4316" class="cls-5" d="M82.78,83.13a1.52,1.52,0,0,1-.66-.15l-2.44-1.16c-1.55-.74-3.09-1.47-4.65-2.18-2-.93-4.1-1.84-6.16-2.75L64.7,75a3,3,0,0,1-.92-.63Q50.64,61.3,37.52,48.16l-6.4-6.25A1.35,1.35,0,0,1,30.79,40a1.57,1.57,0,0,1,.31-.32L41,29.7a1.6,1.6,0,0,1,1.11-.56h0a1.57,1.57,0,0,1,1.1.55L53.5,39.88,75.87,62.24a3.13,3.13,0,0,1,.67,1l.4,1c2.17,5.55,4.42,11.3,7,16.8a2.16,2.16,0,0,1,.14.43l0,.2a1.39,1.39,0,0,1-.62,1.22A1.18,1.18,0,0,1,82.78,83.13ZM46.44,34.39h0s-.15,0-.38.26l-9.85,10c-.34.35-.36.38,0,.75l2,2L64.5,73.68a2,2,0,0,0,.62.42L69.29,76c2.06.91,4.11,1.82,6.17,2.75,1.56.71,3.11,1.45,4.67,2.19L82.56,82a.36.36,0,0,0,.36,0,.37.37,0,0,0,.14-.3h0a1.55,1.55,0,0,0-.07-.23C80.42,76,78.16,70.23,76,64.66l-.4-1a1.92,1.92,0,0,0-.44-.65L52.78,40.6l-6-6C46.58,34.41,46.47,34.39,46.44,34.39ZM82.16,81.17l-5-2.39,2.75-2.73Zm-3.28-2.69,1.2.57-.54-1.22Zm-2.41,0-11-4.85L75,64.09l.31.66a2.87,2.87,0,0,1,.15.32q1.93,4.88,3.86,9.77a.88.88,0,0,1-.15.88c-.64.66-1.3,1.32-2,2Zm-9.16-5.19,8.93,4L76.5,77l1.84-1.85q-1.82-4.62-3.65-9.25ZM78.46,75h0ZM65,73.14,36.77,45l9.64-9.75L74.65,63.45ZM38.23,45,65,71.68l8.24-8.23L46.41,36.66Z"/></g><g id="Group_4372" data-name="Group 4372"><path id="Path_4317" data-name="Path 4317" class="cls-4" d="M23.43,31a8.91,8.91,0,0,1,7.19-8.53,6.62,6.62,0,0,1,6.31,1.95c.35.37.73.72,1.1,1.09a.84.84,0,0,1,.19,1.17.73.73,0,0,1-.19.2L28,37a.86.86,0,0,1-1.4,0,13.62,13.62,0,0,1-2.34-2.69A6.51,6.51,0,0,1,23.43,31Zm12.93-4.84c-.4-.38-.77-.78-1.19-1.12A4.8,4.8,0,0,0,31.54,24a6.88,6.88,0,0,0-4.32,2.1,6.63,6.63,0,0,0-2,5.93,5.36,5.36,0,0,0,2.1,3.21Z"/><path id="Path_4318" data-name="Path 4318" class="cls-5" d="M27.29,37.82h0a1.46,1.46,0,0,1-1.06-.53l-.6-.6a9.61,9.61,0,0,1-1.82-2.2A7,7,0,0,1,22.92,31h0a9.45,9.45,0,0,1,7.61-9,7.11,7.11,0,0,1,6.77,2.1l.62.62.47.46a1.34,1.34,0,0,1,.21,1.89,1,1,0,0,1-.21.21q-5,5-10,10A1.51,1.51,0,0,1,27.29,37.82Zm4.86-14.95a8.54,8.54,0,0,0-1.43.13A8.39,8.39,0,0,0,24,31h0a5.94,5.94,0,0,0,.75,3,8.55,8.55,0,0,0,1.64,2c.21.21.42.41.62.62s.22.24.33.22a.57.57,0,0,0,.33-.22q5-5,10-10c.27-.27.27-.37,0-.64l-.45-.45-.65-.64a5.86,5.86,0,0,0-4.42-1.93ZM27.34,35.94,27,35.65a5.88,5.88,0,0,1-2.28-3.53,7.14,7.14,0,0,1,2.17-6.37A7.44,7.44,0,0,1,31.5,23.5a5.33,5.33,0,0,1,4,1.17c.3.24.58.52.86.79l.74.71Zm4.79-11.43a4.89,4.89,0,0,0-.54,0,6.31,6.31,0,0,0-4,1.94A6.08,6.08,0,0,0,25.69,32a4.52,4.52,0,0,0,1.58,2.59l8.36-8.37c-.26-.25-.51-.5-.78-.72a4.11,4.11,0,0,0-2.73-1Z"/></g><g id="Group_4374" data-name="Group 4374"><path id="Path_4321" data-name="Path 4321" class="cls-3" d="M73.93,63.45l-9,9L33.13,40.72l8.9-9Z"/></g><g id="Group_4375" data-name="Group 4375"><path id="Path_4322" data-name="Path 4322" class="cls-3" d="M76.35,77.85l-9.93-4.41L74.87,65c0,.07.09.17.13.28q1.94,4.89,3.86,9.78a.36.36,0,0,1,0,.32C78,76.19,77.18,77,76.35,77.85Z"/></g><g id="Group_4376" data-name="Group 4376"><path id="Path_4323" data-name="Path 4323" class="cls-3" d="M81.12,80.11,78,78.63l1.7-1.69Z"/></g><g id="Group_4377" data-name="Group 4377"><path id="Path_4324" data-name="Path 4324" class="cls-3" d="M36.36,26.19l-9.08,9.08a5.42,5.42,0,0,1-2.1-3.22,6.63,6.63,0,0,1,2-5.93A6.84,6.84,0,0,1,31.54,24a4.76,4.76,0,0,1,3.63,1C35.59,25.41,36,25.81,36.36,26.19Z"/></g></g></g></g></g></svg>