<svg id="Layer_1" data-name="Layer 1" xmlns="http://www.w3.org/2000/svg" viewBox="0 0 137 120"><defs><style>.cls-1{fill:#d3f0f5;}.cls-2{fill:none;}.cls-3{fill:#bea9d2;}.cls-4{fill:#4e4b6e;}</style></defs><path id="Path_1013-3" data-name="Path 1013-3" class="cls-1" d="M121.87,38.85c-20.11-27-92.75-25.74-104.53,8.88C8.4,74,56.31,116.39,78.16,106.06s10-27,26.68-35.38C125.16,60.5,128.05,47.15,121.87,38.85Z"/><path id="Path_1014-2" data-name="Path 1014-2" class="cls-1" d="M12.19,69.11C7.51,71.55,10.67,85,17.07,83,26.21,80.12,16.12,67.1,12.19,69.11Z"/><path class="cls-2" d="M71.64,60a6.93,6.93,0,0,0-3.13-.75,7.16,7.16,0,0,0-2.19.35,7,7,0,0,0-1,12.84l1,.51v8a2.14,2.14,0,1,0,4.28,0v-8l1-.51a7,7,0,0,0,0-12.44Z"/><path class="cls-2" d="M68.2,30.3a9.7,9.7,0,0,0-9.41,10v3.37H78.18V40.29a5.61,5.61,0,0,0,0-.58A9.7,9.7,0,0,0,68.2,30.3Z"/><path class="cls-3" d="M55.61,43.66v-4a12.86,12.86,0,0,1,25.72.67v3.37h6.73V40.29A19.58,19.58,0,0,0,68.5,20.7h0A19.57,19.57,0,0,0,48.93,40.29v3.37Z"/><path class="cls-3" d="M96,47.31v0H41.06a.65.65,0,0,0-.66.65V92a.65.65,0,0,0,.66.66H95.94A.65.65,0,0,0,96.6,92V48a.69.69,0,0,0-.18-.5A.67.67,0,0,0,96,47.31ZM78,71a10.53,10.53,0,0,1-3.69,4.11V81a5.79,5.79,0,0,1-11.58,0V75.09A10.62,10.62,0,1,1,78,71Z"/><path class="cls-4" d="M100.25,48A4.31,4.31,0,0,0,96,43.66H91.22c0-1.88,0-3.35,0-3.38a22.72,22.72,0,1,0-45.43,0v3.37H41.06A4.31,4.31,0,0,0,36.75,48V92a4.31,4.31,0,0,0,4.31,4.31H95.94A4.31,4.31,0,0,0,100.25,92ZM96.6,92a.65.65,0,0,1-.66.66H41.06A.65.65,0,0,1,40.4,92V48a.65.65,0,0,1,.66-.65H95.94v0a.67.67,0,0,1,.47.19.69.69,0,0,1,.18.5ZM48.93,40.29A19.57,19.57,0,0,1,68.48,20.7h0A19.58,19.58,0,0,1,88.06,40.29v3.37H81.33V40.29a12.86,12.86,0,0,0-25.72-.67v4H48.93V40.29Zm29.25,3.37H58.79V40.29a9.7,9.7,0,1,1,19.39-.58,5.61,5.61,0,0,1,0,.58Z"/><path class="cls-4" d="M73.29,56.71A10.62,10.62,0,0,0,62.71,75.09V81a5.79,5.79,0,0,0,11.58,0V75.09A10.53,10.53,0,0,0,78,71,10.64,10.64,0,0,0,73.29,56.71Zm1.43,12.62a6.9,6.9,0,0,1-3.08,3.08l-1,.51v8a2.14,2.14,0,1,1-4.28,0v-8l-1-.51a7,7,0,0,1,1-12.84,7.16,7.16,0,0,1,2.19-.35,7,7,0,0,1,6.21,10.11Z"/></svg>