<svg id="Layer_1" data-name="Layer 1" xmlns="http://www.w3.org/2000/svg" viewBox="0 0 137 120"><defs><style>.cls-1{fill:#d3f0f5;}.cls-2{fill:#fff;}.cls-3{fill:#4e4b6f;}.cls-4{fill:#5ac7d9;}.cls-5{fill:#4e4b6e;}</style></defs><path id="Path_1013-3" data-name="Path 1013-3" class="cls-1" d="M122,39.85c-20.11-27-92.74-25.74-104.52,8.88-9,26.29,39,68.66,60.81,58.33s10-27,26.68-35.38C125.27,61.5,128.16,48.15,122,39.85Z"/><path id="Path_1014-2" data-name="Path 1014-2" class="cls-1" d="M12.3,70.11C7.62,72.55,10.78,86,17.18,84,26.32,81.12,16.23,68.1,12.3,70.11Z"/><path class="cls-2" d="M95.86,99.16V24a.8.8,0,0,0-.8-.8H82.93v1.59a1.2,1.2,0,0,1-1.2,1.2H55.3a1.21,1.21,0,0,1-1.22-1.2V23.21H42a.8.8,0,0,0-.8.8V99.16a.8.8,0,0,0,.8.8H95.06A.8.8,0,0,0,95.86,99.16ZM49.61,43.05a1,1,0,0,1,.54-.63,3.51,3.51,0,0,1,.93-.31,1.13,1.13,0,0,1,1.19.59l.75,1c.23-.47.46-.92.7-1.36a28.51,28.51,0,0,1,3-4.57,1.78,1.78,0,0,1,1.94-.56.87.87,0,0,1,.58.53.84.84,0,0,1-.16.76c-.14.2-.23.31-.33.43l-.1.14A32.08,32.08,0,0,0,55,45.34l-.47,1a1.6,1.6,0,0,1-1.41.87,1.57,1.57,0,0,1-.72-.18,1.65,1.65,0,0,1-.48-.38l-2.06-2.8A1,1,0,0,1,49.61,43.05ZM59,79.18c-.14.2-.23.31-.33.43l-.1.14A32.08,32.08,0,0,0,55,86l-.11.25-.36.8a1.59,1.59,0,0,1-1.41.86,1.57,1.57,0,0,1-.72-.18,1.37,1.37,0,0,1-.48-.38l-2.06-2.79a1,1,0,0,1-.24-.85,1,1,0,0,1,.54-.63,3.51,3.51,0,0,1,.93-.31,1.14,1.14,0,0,1,1.19.59l.71,1,0,.06c.24-.46.46-.91.7-1.36a29.14,29.14,0,0,1,3-4.59,1.78,1.78,0,0,1,1.94-.55A.78.78,0,0,1,59,79.18Zm0-20.33c-.14.2-.23.31-.32.43l-.11.14A31.79,31.79,0,0,0,55,65.7l-.11.25-.36.8a1.58,1.58,0,0,1-.93.79,1.59,1.59,0,0,1-.48.07,1.54,1.54,0,0,1-.72-.18,1.37,1.37,0,0,1-.48-.38l-2.06-2.8a1.07,1.07,0,0,1-.24-.86,1,1,0,0,1,.54-.62,3.18,3.18,0,0,1,.93-.31,1.13,1.13,0,0,1,1.19.59l.75,1c.23-.47.46-.92.7-1.37a28.87,28.87,0,0,1,3-4.56,1.79,1.79,0,0,1,1.95-.55A.78.78,0,0,1,59,58.85ZM82.28,85H61a1.39,1.39,0,1,1,0-2.77H82.28a1.39,1.39,0,0,1,0,2.77Zm0-20.35H61a1.39,1.39,0,1,1,0-2.77H82.28a1.39,1.39,0,0,1,0,2.77Zm0-20.35H61a1.39,1.39,0,1,1,0-2.77H82.28a1.39,1.39,0,0,1,0,2.77Zm4,40.7h0a1.39,1.39,0,1,1,1.38-1.38A1.38,1.38,0,0,1,86.32,85Zm0-20.35h0a1.39,1.39,0,1,1,1.38-1.39A1.39,1.39,0,0,1,86.32,64.61Zm0-20.35h0a1.39,1.39,0,1,1,1.38-1.39A1.39,1.39,0,0,1,86.32,44.26Z"/><path class="cls-3" d="M95.06,19.85H82.93V17.4a1.21,1.21,0,0,0-1.21-1.19H73.46a5.25,5.25,0,0,0-9.91,0H55.28a1.22,1.22,0,0,0-1.2,1.21v2.43H41.92A4.13,4.13,0,0,0,37.81,24V99.18h0a4.12,4.12,0,0,0,4.14,4.1H95.08a4.13,4.13,0,0,0,4.11-4.13V24A4.13,4.13,0,0,0,95.06,19.85ZM42,100a.8.8,0,0,1-.8-.8V24a.8.8,0,0,1,.8-.8H54.08v1.57A1.21,1.21,0,0,0,55.3,26H81.73a1.2,1.2,0,0,0,1.2-1.2V23.19H95.06a.8.8,0,0,1,.8.8V99.16a.8.8,0,0,1-.8.8ZM65.69,17.59a2.83,2.83,0,0,1,5.59,0,1.19,1.19,0,0,0,1.21,1h8v4.93H56.53V18.62h8A1.19,1.19,0,0,0,65.69,17.59Z"/><path class="cls-4" d="M56.53,23.55H80.47V18.62h-8a1.19,1.19,0,0,1-1.21-1,2.83,2.83,0,0,0-5.59,0,1.19,1.19,0,0,1-1.18,1h-8Zm11-6.56a1.4,1.4,0,0,1,1-.43A1.47,1.47,0,1,1,67.05,18,1.48,1.48,0,0,1,67.48,17Z"/><path class="cls-3" d="M68.53,19.49a1.47,1.47,0,0,0,0-2.93,1.4,1.4,0,0,0-1,.43A1.48,1.48,0,0,0,67.05,18,1.46,1.46,0,0,0,68.53,19.49Z"/><path class="cls-5" d="M51.91,46.7a1.65,1.65,0,0,0,.48.38,1.57,1.57,0,0,0,.72.18,1.6,1.6,0,0,0,1.41-.87l.47-1a32.08,32.08,0,0,1,3.61-6.28l.1-.14c.1-.12.19-.23.33-.43a.84.84,0,0,0,.16-.76.87.87,0,0,0-.58-.53,1.78,1.78,0,0,0-1.94.56,28.51,28.51,0,0,0-3,4.57c-.24.44-.47.89-.7,1.36l-.75-1a1.13,1.13,0,0,0-1.19-.59,3.51,3.51,0,0,0-.93.31,1,1,0,0,0-.54.63,1,1,0,0,0,.24.85Z"/><path class="cls-5" d="M82.28,41.49H61a1.39,1.39,0,1,0,0,2.77H82.28a1.39,1.39,0,0,0,0-2.77Z"/><path class="cls-5" d="M86.32,41.49a1.39,1.39,0,1,0,0,2.77h0a1.39,1.39,0,0,0,0-2.77Z"/><path class="cls-5" d="M58.62,57.57a1.79,1.79,0,0,0-1.95.55,28.87,28.87,0,0,0-3,4.56c-.24.45-.47.9-.7,1.37l-.75-1a1.13,1.13,0,0,0-1.19-.59,3.18,3.18,0,0,0-.93.31,1,1,0,0,0-.54.62,1.07,1.07,0,0,0,.24.86l2.06,2.8a1.37,1.37,0,0,0,.48.38,1.54,1.54,0,0,0,.72.18,1.59,1.59,0,0,0,.48-.07,1.58,1.58,0,0,0,.93-.79l.36-.8L55,65.7a31.79,31.79,0,0,1,3.61-6.28l.11-.14c.09-.12.18-.23.32-.43a.78.78,0,0,0-.41-1.28Z"/><path class="cls-5" d="M82.28,61.84H61a1.39,1.39,0,1,0,0,2.77H82.28a1.39,1.39,0,0,0,0-2.77Z"/><path class="cls-5" d="M86.32,61.84a1.39,1.39,0,1,0,0,2.77h0a1.39,1.39,0,0,0,0-2.77Z"/><path class="cls-5" d="M58.61,77.9a1.78,1.78,0,0,0-1.94.55,29.14,29.14,0,0,0-3,4.59c-.24.45-.46.9-.7,1.36l0-.06-.71-1a1.14,1.14,0,0,0-1.19-.59,3.51,3.51,0,0,0-.93.31,1,1,0,0,0-.54.63,1,1,0,0,0,.24.85l2.06,2.79a1.37,1.37,0,0,0,.48.38,1.57,1.57,0,0,0,.72.18,1.59,1.59,0,0,0,1.41-.86l.36-.8L55,86a32.08,32.08,0,0,1,3.61-6.28l.1-.14c.1-.12.19-.23.33-.43a.78.78,0,0,0-.42-1.28Z"/><path class="cls-5" d="M82.28,82.19H61A1.39,1.39,0,1,0,61,85H82.28a1.39,1.39,0,0,0,0-2.77Z"/><path class="cls-5" d="M86.32,82.19a1.39,1.39,0,1,0,0,2.77h0a1.39,1.39,0,0,0,0-2.77Z"/></svg>