<svg id="Layer_1" data-name="Layer 1" xmlns="http://www.w3.org/2000/svg" xmlns:xlink="http://www.w3.org/1999/xlink" width="160" height="130" viewBox="0 0 160 130"><defs><style>.cls-1,.cls-16{fill:none;}.cls-1{clip-rule:evenodd;}.cls-12,.cls-13,.cls-17,.cls-2{fill:#fff;}.cls-12,.cls-16,.cls-17,.cls-2{stroke:#4e4b6e;}.cls-16,.cls-2{stroke-miterlimit:10;stroke-width:2.2px;}.cls-3{fill:#78b1e0;}.cls-4{clip-path:url(#clip-path);}.cls-5{clip-path:url(#clip-path-2);}.cls-6{clip-path:url(#clip-path-3);}.cls-7{clip-path:url(#clip-path-4);}.cls-8{clip-path:url(#clip-path-5);}.cls-9{clip-path:url(#clip-path-6);}.cls-10{clip-path:url(#clip-path-7);}.cls-11,.cls-15{fill:#4e4b6e;}.cls-12,.cls-17{stroke-linecap:round;stroke-linejoin:round;}.cls-12{stroke-width:3.72px;}.cls-12,.cls-15{fill-rule:evenodd;}.cls-14{clip-path:url(#clip-path-8);}.cls-17{stroke-width:2.14px;}</style><clipPath id="clip-path"><path class="cls-1" d="M254.91-94.95s1.72,2.4,11.68,2.4,12-2.4,12-2.4.64-2.77-2.59-4-5.93-1.58-5.87-4a6.22,6.22,0,0,1,.49-2.67.51.51,0,0,0,.28.08c.21,0,.52-.12.84-.66.59-1,1.06-2.27,0-2.59.23-1.24.49-4.22-1.39-5.78a5.49,5.49,0,0,0-3.21-1.2h-.74a5.49,5.49,0,0,0-3.2,1.2c-1.88,1.56-1.62,4.54-1.39,5.78-1.06.32-.59,1.62,0,2.59.32.54.63.66.84.66a.46.46,0,0,0,.27-.08,6.22,6.22,0,0,1,.49,2.67c.06,2.47-2.62,2.86-5.86,4s-2.6,4-2.6,4"/></clipPath><clipPath id="clip-path-2"><path class="cls-1" d="M254.49-83.12a1.79,1.79,0,0,0,1.79,1.79H292a1.79,1.79,0,0,0,1.79-1.79A1.79,1.79,0,0,0,292-84.9h-35.7a1.79,1.79,0,0,0-1.79,1.78"/></clipPath><clipPath id="clip-path-3"><path class="cls-1" d="M299.11-81.33a1.79,1.79,0,0,0,1.79-1.79,1.79,1.79,0,0,0-1.79-1.78H299a1.76,1.76,0,0,0-1.76,1.78,1.83,1.83,0,0,0,1.84,1.79"/></clipPath><clipPath id="clip-path-4"><path class="cls-1" d="M256.28-62.21H292A1.79,1.79,0,0,0,293.77-64,1.79,1.79,0,0,0,292-65.78h-35.7A1.79,1.79,0,0,0,254.49-64a1.79,1.79,0,0,0,1.79,1.79"/></clipPath><clipPath id="clip-path-5"><path class="cls-1" d="M312.79-75H256.28a1.79,1.79,0,0,0-1.79,1.78,1.79,1.79,0,0,0,1.79,1.79h56.51a1.79,1.79,0,0,0,1.79-1.79A1.79,1.79,0,0,0,312.79-75"/></clipPath><clipPath id="clip-path-6"><path class="cls-1" d="M311.18-43.16H299l-2.51-4.32a1.59,1.59,0,0,0-1.54-.79,1.62,1.62,0,0,0-1.37,1.06l-3.54,10-4.24-15a1.57,1.57,0,0,0-1.59-1.17,1.61,1.61,0,0,0-1.53,1.24l-3.5,14.84-3.34-8.48a1.6,1.6,0,0,0-1.49-1h0a1.61,1.61,0,0,0-1.49,1.07l-4.29,12.19H256.28a1.6,1.6,0,0,0-1.61,1.6,1.61,1.61,0,0,0,1.61,1.6h13.41a1.6,1.6,0,0,0,1.52-1.07l3.23-9.19,3.63,9.24a1.62,1.62,0,0,0,1.5,1h.12a1.61,1.61,0,0,0,1.45-1.23l3.26-13.82,3.94,13.88a1.59,1.59,0,0,0,1.49,1.17,1.58,1.58,0,0,0,1.57-1.07l4.07-11.51,1.21,2.1a1.61,1.61,0,0,0,1.4.8h13.1a1.6,1.6,0,0,0,1.61-1.6,1.61,1.61,0,0,0-1.61-1.6"/></clipPath><clipPath id="clip-path-7"><path class="cls-1" d="M24.26-44.88S26-42.5,35.84-42.5,47.7-44.88,47.7-44.88s.64-2.75-2.57-3.93-5.88-1.56-5.82-4a6.12,6.12,0,0,1,.49-2.65.46.46,0,0,0,.27.08c.21,0,.52-.12.84-.65.58-1,1.05-2.25,0-2.58.22-1.22.48-4.17-1.38-5.72a5.46,5.46,0,0,0-3.18-1.19l0,0h-.66l0,0a5.46,5.46,0,0,0-3.17,1.19c-1.87,1.55-1.61,4.5-1.38,5.72-1,.33-.59,1.61,0,2.58.32.53.62.65.83.65a.51.51,0,0,0,.28-.08,6.22,6.22,0,0,1,.48,2.65c.06,2.45-2.6,2.84-5.81,4s-2.58,3.93-2.58,3.93"/></clipPath><clipPath id="clip-path-8"><circle class="cls-2" cx="80" cy="52.94" r="22.92"/></clipPath></defs><title>specialised0</title><g id="Group_723" data-name="Group 723"><path id="Path_1013" data-name="Path 1013" class="cls-3" d="M10.39,87.68c23.63,35,119.34,36.71,138.54-6.56C163.45,48.27,104.8-7.48,75,4.62S59,38.33,36.12,48.18C8.32,60.15,3.12,76.91,10.39,87.68Z"/></g><path id="Path_1014" data-name="Path 1014" class="cls-3" d="M31.64,37.88c-2.59-5.23-17.33-1.9-15.23,5.35C19.44,53.53,33.8,42.34,31.64,37.88Z"/><ellipse class="cls-11" cx="80" cy="122.26" rx="17.66" ry="2.59"/><path class="cls-12" d="M117,53.19c0,33.13-37,61.88-37,61.88S43,86.32,43,53.19a37,37,0,0,1,74,0Z"/><circle class="cls-13" cx="80" cy="52.94" r="22.92"/><g class="cls-14"><path class="cls-15" d="M92.22,62.05c-4.36-1.6-8-2.13-7.9-5.45A8.41,8.41,0,0,1,85,53a.68.68,0,0,0,.37.1c.29,0,.7-.16,1.14-.88.79-1.31,1.42-3,0-3.49.3-1.67.66-5.68-1.88-7.78a7.29,7.29,0,0,0-4.31-1.61s0,0,0,0h-.9a.05.05,0,0,0,0,0A7.31,7.31,0,0,0,75,41c-2.53,2.1-2.17,6.11-1.87,7.78-1.43.44-.8,2.18,0,3.49.44.72.85.88,1.13.88a.68.68,0,0,0,.37-.1,8.41,8.41,0,0,1,.66,3.6c.08,3.32-3.53,3.85-7.89,5.45a7.28,7.28,0,0,0-4.9,5.33V73S66.2,76.2,79.6,76.2,97.11,73,97.11,73,96.58,63.65,92.22,62.05Z"/></g><circle class="cls-16" cx="80" cy="52.94" r="22.92"/><circle class="cls-17" cx="94.28" cy="38.17" r="6.7"/><rect class="cls-11" x="93.28" y="34.61" width="2.01" height="7.18" rx="0.99"/><rect class="cls-11" x="93.28" y="34.61" width="2.01" height="7.18" rx="0.99" transform="translate(132.48 -56.08) rotate(90)"/></svg>