<svg id="Layer_1" data-name="Layer 1" xmlns="http://www.w3.org/2000/svg" xmlns:xlink="http://www.w3.org/1999/xlink" viewBox="0 0 137 120"><defs><style>.cls-1{fill:none;clip-rule:evenodd;}.cls-2{fill:#d3f0f5;}.cls-3{fill:#fff;}.cls-4{fill:#4e4b6f;}.cls-5{fill:#ffd44f;}.cls-6{fill:#4f476a;}.cls-7{clip-path:url(#clip-path);}.cls-8{clip-path:url(#clip-path-2);}</style><clipPath id="clip-path"><path class="cls-1" d="M-320.22,262.47a.92.92,0,0,0,.92.91h14.49a.92.92,0,0,0,.92-.91.92.92,0,0,0-.92-.92H-319.3a.92.92,0,0,0-.92.92"/></clipPath><clipPath id="clip-path-2"><path class="cls-1" d="M-301.47,263.38a.92.92,0,0,0,.92-.91.92.92,0,0,0-.92-.92h0a.9.9,0,0,0-.9.92.93.93,0,0,0,.94.91"/></clipPath></defs><g id="Group_723" data-name="Group 723"><path id="Path_1013" data-name="Path 1013" class="cls-2" d="M12.47,86.75c20.42,29.76,100.4,29.3,115.57-8.46C139.53,49.62,89.49,2.65,64.82,13.7S52.12,43.14,33.19,52.11C10.2,63,6.19,77.59,12.47,86.75Z"/><path id="Path_1014" data-name="Path 1014" class="cls-2" d="M18.85,51.64c-2.54-3.79-13.61.27-11.25,5.68C11,65,21,54.88,18.85,51.64Z"/></g><path class="cls-3" d="M95.06,102a.8.8,0,0,0,.8-.8V26a.79.79,0,0,0-.8-.79H82.93v1.58A1.21,1.21,0,0,1,81.73,28H55.29a1.22,1.22,0,0,1-1.21-1.21V25.21H42a.8.8,0,0,0-.8.8v75.18a.8.8,0,0,0,.8.8ZM49.29,62.54a1.17,1.17,0,0,1,1.17-1.16H87.27a1.17,1.17,0,0,1,0,2.33H50.46A1.17,1.17,0,0,1,49.29,62.54Zm2-16.78c2.11-.77,3.87-1,3.83-2.63a4.22,4.22,0,0,0-.32-1.75.33.33,0,0,1-.19.06c-.13,0-.33-.08-.55-.43-.38-.63-.68-1.48,0-1.68-.14-.82-.31-2.75.91-3.77a3.5,3.5,0,0,1,2.09-.8h.43a3.47,3.47,0,0,1,2.09.8c1.22,1,1.06,3,.91,3.77.69.2.39,1.05,0,1.68-.21.35-.41.43-.55.43a.3.3,0,0,1-.18-.06,4.22,4.22,0,0,0-.32,1.75c0,1.6,1.71,1.84,3.82,2.63A2.26,2.26,0,0,1,65,48.34s-1.31,1.6-7.79,1.6-7.61-1.6-7.61-1.6h0A2.26,2.26,0,0,1,51.31,45.76Zm-2,10.29h0a1.18,1.18,0,0,1,1.18-1.16H73.72a1.17,1.17,0,0,1,0,2.33H50.46A1.17,1.17,0,0,1,49.29,56.05Zm29.07,1.16h0A1.19,1.19,0,0,1,77.17,56a1.15,1.15,0,0,1,1.14-1.15h0a1.18,1.18,0,0,1,1.17,1.17A1.16,1.16,0,0,1,78.36,57.21Zm7.88,26.95H77.7a1.07,1.07,0,0,1-.91-.52L76,82.28l-2.65,7.49a1,1,0,0,1-2-.07l-2.55-9-2.12,9a1,1,0,0,1-.94.79h-.08a1,1,0,0,1-1-.66l-2.4-6-2.1,6a1,1,0,0,1-1,.7H50.49a1,1,0,0,1-1-1h0a1,1,0,0,1,1-1h8l2.79-8a1,1,0,0,1,1.94,0l2.17,5.52,2.28-9.71a1.06,1.06,0,0,1,1-.8,1,1,0,0,1,1,.8L72.49,86l2.3-6.52a1,1,0,0,1,.89-.7,1,1,0,0,1,1,.52l1.6,2.82h8a1,1,0,0,1,1,1A1,1,0,0,1,86.24,84.16ZM50.47,67.34H73.72a1.17,1.17,0,0,1,0,2.33H50.47a1.17,1.17,0,1,1,0-2.33Z"/><path class="cls-4" d="M95.06,21.85H82.93V19.39a1.2,1.2,0,0,0-1.21-1.18H73.46a5.26,5.26,0,0,0-9.91,0H55.29a1.21,1.21,0,0,0-1.21,1.21v2.43H41.94A4.14,4.14,0,0,0,37.81,26v75.16h0A4.13,4.13,0,0,0,42,105.26H95.06v0a4.13,4.13,0,0,0,4.13-4.13V26A4.14,4.14,0,0,0,95.06,21.85ZM41.15,101.19V26a.8.8,0,0,1,.8-.8H54.08v1.57A1.22,1.22,0,0,0,55.29,28H81.73a1.21,1.21,0,0,0,1.2-1.21V25.19H95.06a.79.79,0,0,1,.8.79v75.21a.8.8,0,0,1-.8.8H42A.8.8,0,0,1,41.15,101.19ZM64.51,20.63a1.23,1.23,0,0,0,1.2-1,2.82,2.82,0,0,1,5.58,0,1.23,1.23,0,0,0,1.2,1h8v4.92H56.53V20.63Z"/><path class="cls-5" d="M56.53,25.55H80.47V20.63h-8a1.23,1.23,0,0,1-1.2-1,2.82,2.82,0,0,0-5.58,0,1.23,1.23,0,0,1-1.2,1h-8ZM67.46,19l0,0a1.42,1.42,0,0,1,2,0,1.43,1.43,0,0,1,0,2l0,0a1.45,1.45,0,0,1-2,0h0A1.43,1.43,0,0,1,67.46,19Z"/><path class="cls-4" d="M67.48,21a1.45,1.45,0,0,0,2,0l0,0a1.43,1.43,0,0,0,0-2,1.42,1.42,0,0,0-2,0l0,0a1.43,1.43,0,0,0,0,2Z"/><path class="cls-6" d="M57.18,49.94c6.48,0,7.79-1.6,7.79-1.6a2.26,2.26,0,0,0-1.69-2.58c-2.11-.79-3.86-1-3.82-2.63a4.22,4.22,0,0,1,.32-1.75.3.3,0,0,0,.18.06c.14,0,.34-.08.55-.43.39-.63.69-1.48,0-1.68.15-.8.31-2.75-.91-3.77a3.47,3.47,0,0,0-2.09-.8h-.43a3.5,3.5,0,0,0-2.09.8c-1.22,1-1.05,2.95-.91,3.77-.68.2-.38,1.05,0,1.68.22.35.42.43.55.43a.33.33,0,0,0,.19-.06,4.22,4.22,0,0,1,.32,1.75c0,1.6-1.72,1.86-3.83,2.63a2.26,2.26,0,0,0-1.69,2.58h0S50.69,49.94,57.18,49.94Z"/><path class="cls-6" d="M50.47,57.21H73.72a1.17,1.17,0,0,0,0-2.33H50.47A1.18,1.18,0,0,0,49.29,56h0a1.17,1.17,0,0,0,1.17,1.16Z"/><path class="cls-6" d="M78.36,54.88h0A1.15,1.15,0,0,0,77.17,56a1.19,1.19,0,0,0,1.18,1.17h0a1.16,1.16,0,0,0,1.17-1.16A1.18,1.18,0,0,0,78.36,54.88Z"/><path class="cls-6" d="M49.3,68.5a1.17,1.17,0,0,0,1.17,1.17H73.72a1.17,1.17,0,0,0,0-2.33H50.47A1.16,1.16,0,0,0,49.3,68.5Z"/><path class="cls-6" d="M50.46,63.71H87.27a1.17,1.17,0,0,0,0-2.33H50.46a1.17,1.17,0,1,0,0,2.33Z"/><path class="cls-6" d="M86.25,82.08h-8l-1.6-2.82a1,1,0,0,0-1-.52,1,1,0,0,0-.89.7L72.49,86,69.7,76.21a1,1,0,0,0-1-.8,1.06,1.06,0,0,0-1,.8l-2.28,9.71L63.22,80.4a1,1,0,0,0-1.94,0l-2.79,8h-8a1,1,0,0,0-1,1h0a1,1,0,0,0,1,1H59.2a1,1,0,0,0,1-.7l2.1-6,2.4,6a1,1,0,0,0,1,.66h.08a1,1,0,0,0,.94-.79l2.12-9,2.55,9a1,1,0,0,0,2,.07L76,82.28l.8,1.36a1.07,1.07,0,0,0,.91.52h8.54a1,1,0,0,0,1-1A1,1,0,0,0,86.25,82.08Z"/></svg>