<svg id="Layer_1" data-name="Layer 1" xmlns="http://www.w3.org/2000/svg" xmlns:xlink="http://www.w3.org/1999/xlink" width="160" height="130" viewBox="0 0 160 130"><defs><style>.cls-1{fill:none;}.cls-2{clip-path:url(#clip-path);}.cls-3{clip-path:url(#clip-path-2);}.cls-4{clip-path:url(#clip-path-3);}.cls-5{clip-path:url(#clip-path-4);}.cls-6{clip-path:url(#clip-path-5);}.cls-7{clip-path:url(#clip-path-6);}.cls-8{clip-path:url(#clip-path-7);}.cls-9{clip-path:url(#clip-path-8);}.cls-10{fill:#78b1e0;}.cls-11,.cls-13{fill:#fff;}.cls-11{stroke:#4e4b6e;stroke-miterlimit:10;stroke-width:4.27px;}.cls-12{fill:#4e4b6e;}</style><clipPath id="clip-path"><path class="cls-1" d="M-263.17-72.21a1.85,1.85,0,0,0,1.86,1.85h29.22a1.85,1.85,0,0,0,1.85-1.85A1.84,1.84,0,0,0-232.09-74h-29.22a1.84,1.84,0,0,0-1.86,1.84"/></clipPath><clipPath id="clip-path-2"><path class="cls-1" d="M-225.37-70.36a1.86,1.86,0,0,0,1.86-1.85A1.85,1.85,0,0,0-225.37-74h-.08a1.82,1.82,0,0,0-1.81,1.82v0a1.89,1.89,0,0,0,1.89,1.85"/></clipPath><clipPath id="clip-path-3"><path class="cls-1" d="M-183.15,45.66s1.4,2,9.53,2,9.77-2,9.77-2A2.83,2.83,0,0,0-166,42.43c-2.64-1-4.84-1.29-4.79-3.3a5.14,5.14,0,0,1,.4-2.19.48.48,0,0,0,.23.07c.17,0,.42-.1.68-.54.49-.79.87-1.85,0-2.11.19-1,.4-3.44-1.13-4.72a4.4,4.4,0,0,0-2.62-1s0,0,0,0h-.54s0,0,0,0a4.4,4.4,0,0,0-2.62,1c-1.53,1.28-1.32,3.7-1.14,4.72-.86.26-.48,1.32,0,2.11.27.44.52.54.69.54a.48.48,0,0,0,.23-.07,5.14,5.14,0,0,1,.4,2.19c.05,2-2.15,2.33-4.79,3.3a2.83,2.83,0,0,0-2.12,3.23"/></clipPath><clipPath id="clip-path-4"><path class="cls-1" d="M-183.5,55.32A1.46,1.46,0,0,0-182,56.78h29.14a1.46,1.46,0,0,0,1.46-1.46,1.46,1.46,0,0,0-1.46-1.46H-182a1.46,1.46,0,0,0-1.47,1.46"/></clipPath><clipPath id="clip-path-5"><path class="cls-1" d="M-147.07,56.78a1.46,1.46,0,0,0,1.46-1.46,1.46,1.46,0,0,0-1.46-1.46h-.07a1.44,1.44,0,0,0-1.43,1.44v0a1.5,1.5,0,0,0,1.5,1.46"/></clipPath><clipPath id="clip-path-6"><path class="cls-1" d="M-182,72.39h29.14a1.47,1.47,0,0,0,1.46-1.46,1.46,1.46,0,0,0-1.46-1.46H-182a1.46,1.46,0,0,0-1.47,1.46A1.47,1.47,0,0,0-182,72.39"/></clipPath><clipPath id="clip-path-7"><path class="cls-1" d="M-135.91,62H-182a1.46,1.46,0,0,0-1.46,1.46A1.46,1.46,0,0,0-182,64.87h46.13a1.46,1.46,0,0,0,1.46-1.46A1.46,1.46,0,0,0-135.91,62"/></clipPath><clipPath id="clip-path-8"><path class="cls-1" d="M-137.22,87.94h-9.93l-2-3.53a1.3,1.3,0,0,0-1.25-.65,1.33,1.33,0,0,0-1.12.87l-2.89,8.18-3.47-12.22a1.28,1.28,0,0,0-1.29-1,1.32,1.32,0,0,0-1.25,1l-2.86,12.12L-166,85.84a1.31,1.31,0,0,0-1.22-.83h0a1.31,1.31,0,0,0-1.21.88l-3.5,10h-10a1.3,1.3,0,0,0-1.31,1.3h0A1.31,1.31,0,0,0-182,98.45h10.95a1.31,1.31,0,0,0,1.24-.88l2.64-7.49,3,7.54a1.31,1.31,0,0,0,1.22.83h.1a1.31,1.31,0,0,0,1.18-1l2.66-11.28,3.22,11.33a1.3,1.3,0,0,0,1.22,1,1.29,1.29,0,0,0,1.28-.87l3.32-9.39,1,1.71a1.3,1.3,0,0,0,1.13.65h10.7a1.31,1.31,0,0,0,1.31-1.31h0a1.3,1.3,0,0,0-1.31-1.3h0"/></clipPath></defs><title>supportentourage</title><g id="Group_4532" data-name="Group 4532"><path id="Path_4371" data-name="Path 4371" class="cls-10" d="M11.22,95.71c24.18,37,120.06,42.52,138.56-1.33,14.05-33.3-45.48-93-75.17-81.76S59.17,46.75,36.4,56C8.74,67.26,3.78,84.33,11.22,95.71Z"/><g id="Group_4531" data-name="Group 4531"><g id="Group_4518" data-name="Group 4518"><g id="Group_4515" data-name="Group 4515"><path id="Path_4372" data-name="Path 4372" class="cls-11" d="M104.49,59.69A8.07,8.07,0,0,1,112,54c4.38,0,7.94,3.83,8,8.58a87.09,87.09,0,0,0,0,22,8.45,8.45,0,0,1-7.34,8.66,4.89,4.89,0,0,1-.54,0H99.43v16.33a4.4,4.4,0,1,1-8.8,0h0V88.89a4.4,4.4,0,0,1,4.4-4.4H104a80.54,80.54,0,0,1-.75-10.29q0-3.77.24-7.52A29.52,29.52,0,0,1,104.49,59.69Z"/></g><g id="Group_4516" data-name="Group 4516"><circle id="Ellipse_3379" data-name="Ellipse 3379" class="cls-11" cx="111.84" cy="44.66" r="8.62"/></g><g id="Group_4517" data-name="Group 4517"><path id="Path_4373" data-name="Path 4373" class="cls-12" d="M102.3,94.11h19A86.5,86.5,0,0,1,124,62.57a2.06,2.06,0,0,1,2.52-1.45l.08,0a2.11,2.11,0,0,1,1.31,2.64,84.88,84.88,0,0,0-2.26,31.93,2.3,2.3,0,0,1-.13,1.16,1.42,1.42,0,0,1-.08.18,2,2,0,0,1-1.46,1.13h-.11v13.9a1.92,1.92,0,0,1-3.84,0V98.21H106.64V112.1a1.92,1.92,0,1,1-3.84.26,1.13,1.13,0,0,1,0-.26V98.21h-.5a2.05,2.05,0,0,1,0-4.1Z"/></g></g><g id="Group_4519" data-name="Group 4519"><path id="Path_4374" data-name="Path 4374" class="cls-11" d="M94.1,71.33a3.27,3.27,0,0,1-1.62-.43l-10.73-6A3.32,3.32,0,0,1,85,59.09l9.66,5.43,15.7-3.1a3.32,3.32,0,1,1,1.28,6.51h0L94.75,71.27A3.57,3.57,0,0,1,94.1,71.33Z"/></g><g id="Group_4523" data-name="Group 4523"><g id="Group_4520" data-name="Group 4520"><path id="Path_4375" data-name="Path 4375" class="cls-11" d="M55.51,59.69A8.06,8.06,0,0,0,48,54c-4.39,0-8,3.83-8,8.58a86.5,86.5,0,0,1,.7,10.79,89.1,89.1,0,0,1-.7,11.2,8.44,8.44,0,0,0,7.34,8.66,3.27,3.27,0,0,0,.54,0H60.57v16.32a4.4,4.4,0,1,0,8.8,0h0V88.89a4.4,4.4,0,0,0-4.4-4.4H56a77.06,77.06,0,0,0,.75-10.29q0-3.77-.24-7.52A29.45,29.45,0,0,0,55.51,59.69Z"/></g><g id="Group_4521" data-name="Group 4521"><circle id="Ellipse_3380" data-name="Ellipse 3380" class="cls-11" cx="48.16" cy="44.66" r="8.62"/></g><g id="Group_4522" data-name="Group 4522"><path id="Path_4376" data-name="Path 4376" class="cls-12" d="M57.7,94.11h-19A86.5,86.5,0,0,0,36,62.57a2.06,2.06,0,0,0-2.52-1.45l-.08,0a2.11,2.11,0,0,0-1.31,2.64,84.88,84.88,0,0,1,2.26,31.93,2.3,2.3,0,0,0,.13,1.16,1.42,1.42,0,0,0,.08.18,2,2,0,0,0,1.46,1.13h.11v13.9a1.92,1.92,0,0,0,3.84,0V98.21H53.36V112.1a1.92,1.92,0,0,0,3.84,0V98.21h.5a2.05,2.05,0,0,0,.09-4.1Z"/></g></g><g id="Group_4524" data-name="Group 4524"><path id="Path_4377" data-name="Path 4377" class="cls-11" d="M72.49,82.52a3.26,3.26,0,0,1-1.32,0L59.1,80.16a3.37,3.37,0,0,1-2-1.2L46.43,65.48a3.32,3.32,0,0,1,5.2-4.12l9.95,12.53L72.45,76a3.32,3.32,0,0,1,0,6.51Z"/></g><g id="Group_4525" data-name="Group 4525"><path id="Path_4378" data-name="Path 4378" class="cls-13" d="M81.12,7.36c12.25,0,22.18,7.24,22.18,16.16,0,4.65-2.71,8.83-7,11.78L96,44.16l-9.57-5a30.37,30.37,0,0,1-5.3.48c-12.25,0-22.18-7.23-22.18-16.16S68.87,7.36,81.12,7.36Z"/></g><g id="Group_4526" data-name="Group 4526"><path id="Path_4379" data-name="Path 4379" class="cls-12" d="M89,27.35H67.46a1.18,1.18,0,0,0,0,2.35H89a1.18,1.18,0,1,0,.07-2.35Z"/></g><g id="Group_4527" data-name="Group 4527"><path id="Path_4380" data-name="Path 4380" class="cls-12" d="M92.51,18H67.46a1.18,1.18,0,0,0,0,2.35H92.51A1.18,1.18,0,1,0,92.58,18Z"/></g><g id="Group_4528" data-name="Group 4528"><path id="Path_4381" data-name="Path 4381" class="cls-12" d="M82.7,22.68H67.46a1.17,1.17,0,0,0,0,2.34H82.7a1.17,1.17,0,1,0,0-2.34Z"/></g><g id="Group_4529" data-name="Group 4529"><path id="Path_4382" data-name="Path 4382" class="cls-12" d="M94,27.35H92.51a1.17,1.17,0,0,0-1.21,1.14,1.19,1.19,0,0,0,1.14,1.21H94A1.18,1.18,0,1,0,94,27.35Z"/></g><g id="Group_4530" data-name="Group 4530"><g id="Path_4383" data-name="Path 4383"><path class="cls-12" d="M95.65,45.29c-1.28,0-2.87-1-5.33-2.56a20.07,20.07,0,0,0-3.62-2.06h-.06a22.59,22.59,0,0,1-5.94.56,30.16,30.16,0,0,1-9.14-1.38,25.26,25.26,0,0,1-7.51-3.79A18.47,18.47,0,0,1,59,30.41a13.88,13.88,0,0,1,0-13.95,18.47,18.47,0,0,1,5.1-5.65A25,25,0,0,1,71.56,7,30.78,30.78,0,0,1,89.85,7a25,25,0,0,1,7.51,3.79,18.6,18.6,0,0,1,5.1,5.65,14,14,0,0,1,1.88,7c0,4.66-2.36,9.06-6.64,12.39l0,0v.06a19.79,19.79,0,0,0,.17,3A20,20,0,0,1,98,42.62a2.68,2.68,0,0,1-1.42,2.47A2,2,0,0,1,95.65,45.29Zm-9-7.66c1.31,0,2.88,1,5.34,2.56l.06,0c.78.5,2,1.27,2.79,1.69L95,42v-.2c0-.79-.13-1.9-.2-2.56-.26-2.61-.47-4.68.81-5.64,3.68-2.77,5.7-6.39,5.7-10.18a11.17,11.17,0,0,0-1.59-5.68,15.57,15.57,0,0,0-4.39-4.7,22.34,22.34,0,0,0-6.57-3.21,28.12,28.12,0,0,0-16.12,0,22.28,22.28,0,0,0-6.56,3.21,15.57,15.57,0,0,0-4.39,4.7,11,11,0,0,0,0,11.37,15.57,15.57,0,0,0,4.39,4.7A22.26,22.26,0,0,0,72.64,37,27.62,27.62,0,0,0,80.7,38.2a19.84,19.84,0,0,0,5.4-.51A2.33,2.33,0,0,1,86.63,37.63Z"/><path class="cls-12" d="M95.65,44.8a1.72,1.72,0,0,0,.72-.15c1.47-.67,1.23-3,1-5.66a18.14,18.14,0,0,1-.16-3.15l0-.25.2-.15c4.16-3.24,6.45-7.5,6.45-12,0-9.54-10.38-17.3-23.15-17.3s-23.14,7.76-23.14,17.3S67.94,40.74,80.7,40.74a22.29,22.29,0,0,0,5.84-.55l.14,0,.14,0a18.73,18.73,0,0,1,3.77,2.13c2.31,1.5,3.92,2.48,5.06,2.48m-.14-2-.92-.47c-.87-.45-2.08-1.24-2.89-1.76-2.39-1.54-3.92-2.48-5.07-2.48a1.51,1.51,0,0,0-.42.05,20.25,20.25,0,0,1-5.51.52c-11.63,0-21.09-6.84-21.09-15.26S69.07,8.17,80.7,8.17,101.8,15,101.8,23.43c0,3.95-2.09,7.7-5.89,10.57-1.07.8-.87,2.74-.62,5.2.08.72.19,1.8.2,2.6l0,1m.14,3c-1.42,0-3.06-1-5.6-2.64a25.39,25.39,0,0,0-3.38-2,23.25,23.25,0,0,1-6,.55,28.34,28.34,0,0,1-16.94-5.27,18.81,18.81,0,0,1-5.23-5.8,14.32,14.32,0,0,1,0-14.43,19,19,0,0,1,5.23-5.81A28.34,28.34,0,0,1,80.7,5.14a28.35,28.35,0,0,1,17,5.27,19,19,0,0,1,5.23,5.81,14.41,14.41,0,0,1,2,7.21c0,4.77-2.38,9.27-6.7,12.68a22.84,22.84,0,0,0,.18,2.78,20.91,20.91,0,0,1,.17,3.77,3.17,3.17,0,0,1-1.7,2.88A2.7,2.7,0,0,1,95.65,45.78Zm-9-8.65c1.45,0,3.07,1,5.6,2.64l.07,0c.6.4,1.45.95,2.18,1.36,0-.65-.11-1.38-.16-1.87a20.94,20.94,0,0,1-.19-3.38,3.41,3.41,0,0,1,1.19-2.71c3.54-2.67,5.5-6.14,5.5-9.78s-2.06-7.29-5.78-10a21.8,21.8,0,0,0-6.42-3.13,27.81,27.81,0,0,0-15.83,0,21.8,21.8,0,0,0-6.42,3.13c-3.73,2.7-5.78,6.25-5.78,10s2,7.3,5.78,10a21.8,21.8,0,0,0,6.42,3.13,26.94,26.94,0,0,0,7.91,1.16,19.15,19.15,0,0,0,5.28-.5h0A2.74,2.74,0,0,1,86.63,37.13Z"/></g></g></g></g></svg>