<svg id="Layer_1" data-name="Layer 1" xmlns="http://www.w3.org/2000/svg" xmlns:xlink="http://www.w3.org/1999/xlink" viewBox="0 0 137 120"><defs><style>.cls-1,.cls-3{fill:none;}.cls-1{clip-rule:evenodd;}.cls-2{fill:#d3f0f5;}.cls-4{fill:#78b1e0;}.cls-5{fill:#4e4b6e;}.cls-6{fill:#fff;}.cls-7{clip-path:url(#clip-path);}.cls-8{clip-path:url(#clip-path-2);}</style><clipPath id="clip-path"><path class="cls-1" d="M-470.86,262.47a.92.92,0,0,0,.92.91h14.49a.92.92,0,0,0,.92-.91.92.92,0,0,0-.92-.92h-14.49a.92.92,0,0,0-.92.92"/></clipPath><clipPath id="clip-path-2"><path class="cls-1" d="M-452.11,263.38a.92.92,0,0,0,.92-.91.92.92,0,0,0-.92-.92h0a.9.9,0,0,0-.9.92.93.93,0,0,0,.94.91"/></clipPath></defs><g id="Group_4532" data-name="Group 4532"><g id="Path_4371" data-name="Path 4371"><path class="cls-2" d="M11.45,84.45c20.06,30.69,99.58,35.27,114.93-1.1C138,55.73,88.65,6.21,64,15.53s-12.81,28.31-31.69,36C9.39,60.85,5.28,75,11.45,84.45Z"/></g></g><path class="cls-3" d="M51.61,73.23s0,.1,0,.14h.64l-.41-.08A1.41,1.41,0,0,1,51.61,73.23Z"/><path class="cls-3" d="M35.51,79.44c-.06,1.23-.14,2.46-.27,3.68h3.81A8.61,8.61,0,0,1,35.51,79.44Z"/><path class="cls-3" d="M100,83.12h3.8c-.13-1.22-.21-2.45-.27-3.68A8.7,8.7,0,0,1,100,83.12Z"/><path class="cls-4" d="M96.43,80.64a5.23,5.23,0,0,0,4.48-5.29,74.13,74.13,0,0,1,0-18.47A5.17,5.17,0,0,0,96,51.63a4.88,4.88,0,0,0-4.42,3.18l2.72-.54a4.53,4.53,0,0,1,2,8.82l-.35.07-5.43,1.07c0,.8,0,1.59,0,2.38a65.91,65.91,0,0,0,.61,8.29l.28,2H82a1.88,1.88,0,0,0-1.88,1.88V96a1.88,1.88,0,1,0,3.76,0V80.63H96.43Z"/><path class="cls-4" d="M90.53,42.11a5.38,5.38,0,1,0,5.38-5.38A5.39,5.39,0,0,0,90.53,42.11Z"/><path class="cls-5" d="M108.15,55.76h-.06A1.7,1.7,0,0,0,106,57a71,71,0,0,0-2.1,10.87,69.92,69.92,0,0,1,.53-10.63l0-.13V57a9.15,9.15,0,0,0-3.74-7.33,8.93,8.93,0,1,0-9.46.08,8.47,8.47,0,0,0-3.13,4.35l0,.07c-.13.48-.24,1-.34,1.45L82,56.72l-7.45-4.19a4.53,4.53,0,1,0-4.42,7.91l8.88,5a4.52,4.52,0,0,0,2.22.59h0a5.33,5.33,0,0,0,.88-.08l5-1c0,.57,0,1.13,0,1.69a66.25,66.25,0,0,0,.4,6.75H82a5.42,5.42,0,0,0-5.42,5.42V96a5.42,5.42,0,0,0,10.84,0V86.41a1.74,1.74,0,0,0,.61.11h.41V98a.81.81,0,0,0,0,.22A1.6,1.6,0,1,0,91.6,98V86.52h11.1V98a1.6,1.6,0,0,0,3.19,0V86.48H106a1.65,1.65,0,0,0,1.21-.93l.07-.15a2,2,0,0,0,.1-1A70.38,70.38,0,0,1,109.24,58,1.75,1.75,0,0,0,108.15,55.76ZM83.85,96a1.88,1.88,0,1,1-3.76,0V78.79A1.88,1.88,0,0,1,82,76.91h9.47l-.28-2a65.91,65.91,0,0,1-.61-8.29c0-.79,0-1.58,0-2.38L96,63.16l.35-.07a4.53,4.53,0,0,0-2-8.82l-2.72.54A4.88,4.88,0,0,1,96,51.63a5.17,5.17,0,0,1,4.86,5.25,74.13,74.13,0,0,0,0,18.47,5.23,5.23,0,0,1-4.48,5.29H83.85ZM80.72,62.33l-8.9-5a1,1,0,0,1-.47-.59,1,1,0,0,1,.09-.76,1,1,0,0,1,.59-.47,1.24,1.24,0,0,1,.27,0,1,1,0,0,1,.48.12l8.58,4.82,13.73-2.71a1,1,0,0,1,1.19.73,1,1,0,0,1-.73,1.18l-14.14,2.8-.22,0A1,1,0,0,1,80.72,62.33Zm20.57-20.22a5.38,5.38,0,1,1-5.38-5.38A5.39,5.39,0,0,1,101.29,42.11Zm-1.33,41a8.7,8.7,0,0,0,3.53-3.68c.06,1.23.14,2.46.27,3.68Z"/><path class="cls-4" d="M95.55,59.64a1,1,0,0,0,.73-1.18,1,1,0,0,0-1.19-.73L81.36,60.44l-8.58-4.82a1,1,0,0,0-.48-.12,1.24,1.24,0,0,0-.27,0,1,1,0,0,0-.59.47,1,1,0,0,0-.09.76,1,1,0,0,0,.47.59l8.9,5a1,1,0,0,0,.47.13l.22,0Z"/><path class="cls-4" d="M57,76.91H47.56l.28-2q.3-2.13.45-4.29l-8-10.13a4.57,4.57,0,0,1-.86-3.43,4.49,4.49,0,0,1,1.81-2.95,4.54,4.54,0,0,1,6.09.7l.14.18a4.89,4.89,0,0,0-4.53-3.35,5.12,5.12,0,0,0-4.83,5.24,72,72,0,0,1,.58,9.05,74.37,74.37,0,0,1-.58,9.43,5.21,5.21,0,0,0,4.5,5.28H55.15V95.93a1.88,1.88,0,1,0,3.76,0V78.79A1.88,1.88,0,0,0,57,76.91Z"/><path class="cls-4" d="M43.09,47.49a5.38,5.38,0,1,0-5.38-5.38A5.39,5.39,0,0,0,43.09,47.49Z"/><path class="cls-4" d="M62.89,69.84,53.24,68,44.58,57.06a.88.88,0,0,0-.68-.29,1,1,0,0,0-.6.19,1,1,0,0,0-.39.64,1,1,0,0,0,.18.73l8.8,11.13a1,1,0,0,0,.6.35l10,2a.93.93,0,0,0,.23,0l.14,0a1,1,0,0,0,.77-.78,1,1,0,0,0-.15-.73A.94.94,0,0,0,62.89,69.84Z"/><path class="cls-5" d="M63.58,66.36,55.2,64.74l-3.41-4.29v-.12a26.76,26.76,0,0,0-.89-6.22l0-.06a8.36,8.36,0,0,0-3.13-4.35,8.92,8.92,0,1,0-9.48-.1A9,9,0,0,0,34.55,57l0,.23a68.64,68.64,0,0,1,.56,8.72q0,1,0,1.92A71.07,71.07,0,0,0,33,57a1.7,1.7,0,0,0-2.09-1.2h-.06A1.75,1.75,0,0,0,29.76,58a70.38,70.38,0,0,1,1.88,26.48,2,2,0,0,0,.1,1,1,1,0,0,0,.07.15,1.65,1.65,0,0,0,1.21.93h.09V98a1.6,1.6,0,0,0,3.19,0V86.52H47.4V98a1.6,1.6,0,1,0,3.19,0V86.52H51a1.54,1.54,0,0,0,.61-.1v9.51a5.42,5.42,0,0,0,10.84,0V78.79A5.38,5.38,0,0,0,61,75.08l.85.16a3.94,3.94,0,0,0,.9.1,4.3,4.3,0,0,0,4.41-3.65,5,5,0,0,0-.67-3.39A4.5,4.5,0,0,0,63.58,66.36ZM63.66,71a1,1,0,0,1-.77.78l-.14,0a.93.93,0,0,1-.23,0l-10-2a1,1,0,0,1-.6-.35l-8.8-11.13a1,1,0,0,1-.18-.73A1,1,0,0,1,43.3,57a1,1,0,0,1,.6-.19.88.88,0,0,1,.68.29L53.24,68l9.65,1.87a.94.94,0,0,1,.62.42A1,1,0,0,1,63.66,71ZM58.91,95.93a1.88,1.88,0,1,1-3.76,0V80.62H42.59a5.21,5.21,0,0,1-4.5-5.28,74.37,74.37,0,0,0,.58-9.43,72,72,0,0,0-.58-9.05,5.12,5.12,0,0,1,4.83-5.24A4.89,4.89,0,0,1,47.45,55l-.14-.18a4.54,4.54,0,0,0-6.09-.7,4.49,4.49,0,0,0-1.81,2.95,4.57,4.57,0,0,0,.86,3.43l8,10.13q-.15,2.16-.45,4.29l-.28,2H57a1.88,1.88,0,0,1,1.88,1.88ZM43.09,36.73a5.38,5.38,0,1,1-5.38,5.38A5.38,5.38,0,0,1,43.09,36.73ZM35.24,83.12c.13-1.22.21-2.45.27-3.68a8.61,8.61,0,0,0,3.54,3.68ZM51.6,73.37s0-.09,0-.14a1.41,1.41,0,0,0,.22.06l.41.08Z"/><path class="cls-6" d="M86.77,24.48c0-3-1.71-6-4.8-8.29a18.15,18.15,0,0,0-5.32-2.6,23.1,23.1,0,0,0-13.13,0,18.32,18.32,0,0,0-5.33,2.6c-3.09,2.24-4.79,5.18-4.79,8.29s1.66,6.06,4.79,8.3a18,18,0,0,0,5.33,2.59,22.12,22.12,0,0,0,6.56,1,15.74,15.74,0,0,0,4.38-.41,2.48,2.48,0,0,1,.54-.06v0c1.2,0,2.55.83,4.64,2.19h.06c.5.33,1.2.79,1.81,1.13,0-.54-.09-1.15-.13-1.55a17.59,17.59,0,0,1-.16-2.81,2.82,2.82,0,0,1,1-2.25C85.14,30.38,86.77,27.5,86.77,24.48ZM59.1,20H79.93a.48.48,0,0,1,.17,0,1,1,0,1,1-.22,1.94H59.1a1,1,0,0,1-.89-.88A1,1,0,0,1,59.1,20Zm-1,4.85a1,1,0,0,1,1-1H71.74a1,1,0,0,1,0,1.94H59.1A1,1,0,0,1,58.13,24.85ZM77,29.7H59.1a1,1,0,0,1,0-1.95H77.19A1,1,0,1,1,77,29.7Zm4.15,0H79.82a1,1,0,0,1-.95-1h0a1,1,0,0,1,1-.94h1.23a.54.54,0,0,1,.18,0,1,1,0,1,1-.18,1.95Z"/><path class="cls-5" d="M77.19,27.76H59.1a1,1,0,0,0,0,1.95H77a1,1,0,1,0,.23-1.94Z"/><path class="cls-5" d="M59.1,21.94H79.88A1,1,0,1,0,80.1,20a.48.48,0,0,0-.17,0H59.1a1,1,0,0,0-.89,1.06A1,1,0,0,0,59.1,21.94Z"/><path class="cls-5" d="M59.1,25.82H71.74a1,1,0,0,0,0-1.94H59.1a1,1,0,0,0,0,1.94Z"/><path class="cls-5" d="M81.29,27.75a.54.54,0,0,0-.18,0H79.88a1,1,0,0,0-1,.94h0a1,1,0,0,0,.95,1h1.29a1,1,0,1,0,.18-1.95Z"/><path class="cls-5" d="M56,35.29A23.48,23.48,0,0,0,70,39.66a19,19,0,0,0,5-.46,21.94,21.94,0,0,1,2.8,1.66c2.11,1.36,3.47,2.19,4.64,2.19h0a2.38,2.38,0,0,0,1-.2,2.63,2.63,0,0,0,1.41-2.39,17.23,17.23,0,0,0-.14-3.13,17.65,17.65,0,0,1-.15-2.3c3.58-2.83,5.56-6.56,5.56-10.52a12,12,0,0,0-1.66-6,15.76,15.76,0,0,0-4.34-4.82,23.49,23.49,0,0,0-14.1-4.37A23.47,23.47,0,0,0,56,13.69a15.76,15.76,0,0,0-4.34,4.82,11.87,11.87,0,0,0,0,12A15.49,15.49,0,0,0,56,35.29Zm25.39,2.36c0,.4.13,1,.13,1.55-.61-.34-1.31-.8-1.81-1.13h-.06c-2.09-1.36-3.44-2.19-4.64-2.19v0a2.48,2.48,0,0,0-.54.06,15.74,15.74,0,0,1-4.38.41,22.12,22.12,0,0,1-6.56-1,18,18,0,0,1-5.33-2.59c-3.13-2.24-4.79-5.19-4.79-8.3s1.7-6.05,4.79-8.29a18.32,18.32,0,0,1,5.33-2.6,23.1,23.1,0,0,1,13.13,0A18.15,18.15,0,0,1,82,16.19c3.09,2.25,4.8,5.27,4.8,8.29s-1.63,5.9-4.56,8.11a2.82,2.82,0,0,0-1,2.25A17.59,17.59,0,0,0,81.38,37.65Z"/></svg>