<?xml version="1.0" encoding="utf-8"?>
<!-- Generator: Adobe Illustrator 23.0.3, SVG Export Plug-In . SVG Version: 6.00 Build 0)  -->
<svg version="1.1" id="Layer_1" xmlns="http://www.w3.org/2000/svg" xmlns:xlink="http://www.w3.org/1999/xlink" x="0px" y="0px"
	 viewBox="0 0 200 179.9" style="enable-background:new 0 0 200 179.9;" xml:space="preserve">
<style type="text/css">
	.st0{enable-background:new    ;}
	.st1{fill:#4E4B6D;}
	.st2{fill:#5AC7DA;}
</style>
<title>tenthousand</title>
<g id="_2">
	<g class="st0">
		<path class="st1" d="M179.3,138.2c-0.2-0.1-0.4-0.4-0.4-0.7v-4.7h-4.7c-0.3,0-0.6-0.1-0.7-0.4c-0.1-0.2-0.2-0.6-0.2-1.2V131
			c0-0.5,0.1-0.9,0.2-1.2c0.1-0.2,0.4-0.4,0.7-0.4h4.7v-4.7c0-0.3,0.1-0.6,0.4-0.7c0.2-0.1,0.6-0.2,1.2-0.2h0.4
			c0.5,0,0.9,0.1,1.2,0.2c0.2,0.1,0.4,0.4,0.4,0.7v4.7h4.7c0.3,0,0.6,0.1,0.7,0.4c0.1,0.2,0.2,0.6,0.2,1.2v0.2
			c0,0.5-0.1,0.9-0.2,1.2c-0.1,0.2-0.4,0.4-0.7,0.4h-4.7v4.7c0,0.3-0.1,0.6-0.4,0.7c-0.2,0.1-0.6,0.2-1.2,0.2h-0.4
			C179.9,138.5,179.5,138.4,179.3,138.2z"/>
	</g>
</g>
<path id="Path_2055" class="st2" d="M60,117.4h42.5c2.3,0,4.2-1.9,4.2-4.2V99.8H150c2.9,0,5.3-2.4,5.3-5.4c0-0.4,0-0.8-0.1-1.1
	l-3.7-27.8v-0.2c-1-3.3-3.6-5.9-6.9-6.9l-17-4.4v-2.9c2.1-2.7,3.1-6.9,3.4-8.8c2.8-3,3.7-7.4,2.3-11.3c0.8-6.7-0.6-12.2-3.8-16.1
	c-3.5-3.6-8.4-5.5-13.4-5.4c-5.4,0-9.8,1.7-12.6,5.2c-3.2,3.8-4.6,9.4-3.8,16.3c-1.8,3.8-1.1,8.3,1.7,11.5c0.4,1.9,1.3,6.1,3.4,8.8
	v2.9l-8.6,2.3c-0.2-2.5-0.4-5-0.4-7.5c0-0.2-1.5-21.8-20.1-21.8C57,27.2,55.6,48.9,55.6,49c-0.2,9.4-2.5,22.2-2.9,24.7
	c-1.4,0.6-2.6,1.4-3.6,2.5c-2.9,2.9-4.4,7.1-4.4,12.2v24.7c0,2.3,1.9,4.2,4.2,4.2h5.9 M115.1,69.9h2.3l3.2,26.2h-9L115.1,69.9z
	 M103.3,32.2c0.2-0.3,0.3-0.8,0.2-1.1c-0.8-5.9,0.2-10.7,2.9-13.8c2.3-2.5,5.6-3.8,9.8-3.8c4.4,0,8,1.3,10.3,4
	c2.7,3.1,3.8,7.9,2.9,13.6c-0.1,0.3,0,0.7,0.2,1c1.1,2.9,0.3,6.1-1.9,8.2c-0.4,0.2-0.4,0.6-0.6,1.1c-0.2,1.5-1.2,6.1-3.1,7.8
	c-0.4,0.3-0.6,0.8-0.6,1.3v4.2l-5.9,5h-3.1l-5.9-5v-4.2c0-0.5-0.2-1-0.6-1.3c-1.9-1.9-2.9-6.5-3.1-7.8l0,0c0-0.4-0.2-0.8-0.6-1.1
	C102.2,38.1,101.8,34.8,103.3,32.2z M115,63.4h2.5l1.2,1.5l-0.6,1.2h-3.4l-0.8-1L115,63.4z M121.1,61.9l5-4.2l1.3,0.4l-2.9,8.2
	L121.1,61.9z M124.4,96.1L121,68.4l0.2-0.4l2.5,3.3c0.4,0.5,1.1,0.8,1.7,0.8c0.6-0.2,1.2-0.6,1.5-1.2L131,59l12.4,3.2
	c2.1,0.5,3.7,2.1,4.2,4.2l3.6,27.8v0.2c0.1,0.5,0.1,0.9-0.2,1.3s-0.7,0.6-1.1,0.6h-25.6L124.4,96.1z M105,58l1.3-0.4l5,4.2l-3.4,4.4
	L105,58z M90.1,113.7H61.2 M53.3,113.7h-4.4c-0.3,0-0.6-0.3-0.6-0.6V88.5c0-12,9-12.2,9.4-12.2h7.5L62.1,82
	c-0.3,0.6-0.3,1.4,0.2,1.9c0.3,0.6,1,0.9,1.7,0.8l4.8-0.6l5.4,7.1l0.2,0.2l0.2,0.2c0.1,0,0.2,0.1,0.2,0.2H75c0.2,0,0.2,0.2,0.4,0.2
	h0.4c0.3,0,0.5-0.1,0.8-0.2c0.1,0,0.2-0.1,0.2-0.2l0,0l0,0l0.2-0.2l0.2-0.2l5.4-7.1l4.8,0.6c0.7,0.1,1.3-0.2,1.7-0.8
	c0.4-0.6,0.4-1.3,0-1.9L86,76.2h7.5c2.3,0.1,4.5,1.1,6.1,2.7c2.1,2.1,3.3,5.4,3.3,9.6v24.7c0,0.3-0.3,0.6-0.6,0.6L53.3,113.7
	L53.3,113.7z M75.7,30.9C90.8,30.9,92,48.3,92,49c0.2,8.2,1.9,18.8,2.7,23.5h-9.8v-1.9c7.7-5.9,5.9-16.1,5.9-16.5
	c-0.2-0.6-0.6-1.1-1.2-1.3c-4.2-1.7-6.1-9-6.1-9c-0.2-0.7-0.8-1.2-1.6-1.3c-0.7-0.2-1.5,0.1-1.9,0.8c-3.3,4.4-14,6.5-17.8,6.9
	c-0.8,0.2-1.5,0.8-1.7,1.5c-1,7.8,4.4,16.6,5.7,18.6v2.3h-9.7c0.8-4.8,2.5-15.3,2.7-23.3C59.5,48.3,60.6,30.9,75.7,30.9z M70.2,75.3
	L70.2,75.3c0.1-0.2,0.2-0.4,0.2-0.6v-5.2c0-0.4-0.2-0.8-0.4-1.2c0,0-5.6-8-5.6-15.1c3.6-0.6,11.7-2.3,16.5-5.9c1,2.5,3.1,6.3,6.3,8
	c0.2,2.3,0,8.8-5.2,12.4c-0.5,0.3-0.8,0.9-0.8,1.5v5.4l3.1,5.7h-2.5c-0.7,0-1.3,0.2-1.7,0.8L75.7,87l-4.4-5.9
	c-0.4-0.4-0.9-0.7-1.5-0.8h-0.2l-2.5,0.2L70.2,75.3z M102.5,76.3c-1.1-1.1-2.4-1.9-3.8-2.5v-0.2c-0.2-1.5-1.3-7.1-2.1-13.4l4.6-1.2
	l4.2,11.9c0.2,0.7,0.8,1.1,1.5,1.1c0.7,0.2,1.4-0.1,1.7-0.8l2.7-3.2l0.2,0.4l-3.4,27.8h-1.2v-7.5C106.7,83.3,105.4,79.1,102.5,76.3
	L102.5,76.3z"/>
<g>
	<path class="st1" d="M20.5,167.2c-2-0.3-3.8-0.9-5.2-1.6c-1.4-0.7-2.2-1.7-2.2-2.9c0-0.4,0.2-1,0.5-1.7s0.7-1.4,1.1-2
		c0.4-0.6,0.9-0.9,1.3-0.9c0.2,0,0.8,0.2,1.6,0.6c1.2,0.6,2.3,1,3.4,1.4c1.1,0.3,2.3,0.5,3.8,0.5c1.8,0,3.3-0.5,4.3-1.5
		c1.1-1,1.6-2.5,1.6-4.3c0-2-0.6-3.6-1.7-4.6s-2.9-1.5-5.4-1.5H22c-0.6,0-1.1-0.2-1.4-0.7s-0.4-1.2-0.4-2.3v-1.1
		c0-1,0.1-1.8,0.4-2.3s0.7-0.7,1.4-0.7h1.1c1.9,0,3.4-0.5,4.5-1.4s1.7-2.1,1.7-3.6s-0.4-2.7-1.2-3.6c-0.8-0.9-2-1.3-3.6-1.3
		c-1.3,0-2.4,0.1-3.3,0.4c-0.9,0.3-1.7,0.6-2.5,1c-0.6,0.3-1,0.5-1.3,0.5c-0.6,0-1.3-0.6-2-1.7c-0.7-1.1-1.1-2.1-1.1-2.9
		c0-1.4,1.1-2.5,3.4-3.3s5-1.1,8.3-1.1c3.8,0,6.8,1,9,2.9c2.2,1.9,3.3,4.5,3.3,7.7c0,2-0.5,3.8-1.5,5.4c-1,1.5-2.4,2.7-4.1,3.4v0.2
		c2.3,0.9,4.1,2.3,5.2,4.2c1.2,1.9,1.7,4.1,1.7,6.6c0,3.9-1.3,7-3.8,9.3s-5.8,3.4-9.8,3.4C24.4,167.7,22.5,167.5,20.5,167.2z"/>
	<path class="st1" d="M52,166.1c-2.1-1.1-3.9-2.8-5.3-5.1c-1.4-2.3-2-5.3-2-9c0-6.9,1.5-12.3,4.6-16.3s6.3-6.8,9.8-8.4
		s5.8-2.4,6.9-2.4c0.6,0,1.2,0.3,1.6,0.9s0.8,1.3,1,2.1c0.2,0.8,0.4,1.4,0.4,1.9c0,0.4-0.1,0.7-0.2,0.9s-0.3,0.3-0.6,0.4
		c-3.1,0.9-5.8,2.4-8.1,4.5s-4,4.5-5,7.4c1.8-1,3.9-1.5,6-1.5c1.7,0,3.5,0.4,5.3,1.3c1.8,0.8,3.4,2.2,4.6,4.1
		c1.3,1.9,1.9,4.4,1.9,7.4c0,3.1-0.7,5.6-2,7.6c-1.4,2-3.1,3.5-5.2,4.4c-2.1,0.9-4.4,1.4-6.9,1.4C56.5,167.7,54.2,167.1,52,166.1z
		 M62.6,158.9c1-1.2,1.5-2.6,1.5-4.5c0-1.8-0.5-3.3-1.4-4.4c-1-1.1-2.3-1.6-4-1.6c-1.4,0-3,0.5-4.8,1.4c0,0.6-0.1,1.5-0.1,2.8
		c0,2.8,0.5,4.8,1.4,6.1c0.9,1.2,2.2,1.9,3.8,1.9C60.4,160.6,61.6,160,62.6,158.9z"/>
	<path class="st1" d="M72.7,171.8c-0.4-0.1-0.6-0.4-0.6-0.6c0-0.3,0.1-0.7,0.4-1.3c0.4-1,0.7-2,1-3c0.2-1,0.4-2.3,0.4-4
		c0-1.1,0.8-1.7,2.3-1.7H77c0.8,0,1.4,0.2,1.8,0.5s0.6,0.7,0.6,1.2c0,1.4-0.3,2.8-1,4.2c-0.6,1.4-1.4,2.6-2.3,3.5s-1.6,1.4-2.2,1.4
		C73.5,172.1,73.1,172,72.7,171.8z"/>
	<path class="st1" d="M87.1,165.1c-2.1-1.7-3.8-4.2-4.9-7.4s-1.7-7.1-1.7-11.6s0.6-8.4,1.7-11.6c1.1-3.2,2.8-5.7,4.9-7.4
		c2.1-1.7,4.7-2.6,7.6-2.6c3,0,5.5,0.9,7.6,2.6c2.1,1.7,3.8,4.2,4.9,7.4s1.7,7.1,1.7,11.6s-0.6,8.4-1.7,11.6
		c-1.1,3.2-2.8,5.7-4.9,7.4s-4.7,2.6-7.6,2.6C91.8,167.7,89.2,166.8,87.1,165.1z M98.6,157c0.9-2.4,1.4-6.1,1.4-10.8
		c0-4.8-0.5-8.4-1.4-10.8c-0.9-2.4-2.2-3.7-3.9-3.7c-1.7,0-3,1.2-3.9,3.7c-0.9,2.4-1.4,6.1-1.4,10.8c0,4.8,0.5,8.4,1.4,10.8
		c0.9,2.4,2.2,3.7,3.9,3.7C96.5,160.6,97.7,159.4,98.6,157z"/>
	<path class="st1" d="M119.3,165.1c-2.1-1.7-3.8-4.2-4.9-7.4s-1.7-7.1-1.7-11.6s0.6-8.4,1.7-11.6c1.1-3.2,2.8-5.7,4.9-7.4
		c2.1-1.7,4.7-2.6,7.6-2.6c3,0,5.5,0.9,7.6,2.6c2.1,1.7,3.8,4.2,4.9,7.4c1.1,3.2,1.7,7.1,1.7,11.6s-0.6,8.4-1.7,11.6
		c-1.1,3.2-2.8,5.7-4.9,7.4c-2.1,1.7-4.7,2.6-7.6,2.6C124,167.7,121.5,166.8,119.3,165.1z M130.9,157c0.9-2.4,1.4-6.1,1.4-10.8
		c0-4.8-0.5-8.4-1.4-10.8c-0.9-2.4-2.2-3.7-3.9-3.7c-1.7,0-3,1.2-3.9,3.7c-0.9,2.4-1.4,6.1-1.4,10.8c0,4.8,0.5,8.4,1.4,10.8
		s2.2,3.7,3.9,3.7C128.7,160.6,130,159.4,130.9,157z"/>
	<path class="st1" d="M150.7,165.1c-2.1-1.7-3.8-4.2-4.9-7.4c-1.1-3.2-1.7-7.1-1.7-11.6s0.6-8.4,1.7-11.6c1.1-3.2,2.8-5.7,4.9-7.4
		c2.1-1.7,4.7-2.6,7.6-2.6c3,0,5.5,0.9,7.6,2.6c2.1,1.7,3.8,4.2,4.9,7.4c1.1,3.2,1.7,7.1,1.7,11.6s-0.6,8.4-1.7,11.6
		c-1.1,3.2-2.8,5.7-4.9,7.4c-2.1,1.7-4.7,2.6-7.6,2.6C155.4,167.7,152.9,166.8,150.7,165.1z M162.3,157c0.9-2.4,1.4-6.1,1.4-10.8
		c0-4.8-0.5-8.4-1.4-10.8c-0.9-2.4-2.2-3.7-3.9-3.7s-3,1.2-3.9,3.7c-0.9,2.4-1.4,6.1-1.4,10.8c0,4.8,0.5,8.4,1.4,10.8
		s2.2,3.7,3.9,3.7C160.1,160.6,161.4,159.4,162.3,157z"/>
</g>
</svg>
