<svg id="Layer_1" data-name="Layer 1" xmlns="http://www.w3.org/2000/svg" xmlns:xlink="http://www.w3.org/1999/xlink" viewBox="0 0 137 120"><defs><style>.cls-1{fill:none;}.cls-2{fill:#bea9d2;}.cls-3{clip-path:url(#clip-path);}.cls-4{fill:url(#linear-gradient);}.cls-5{fill:url(#linear-gradient-2);}</style><clipPath id="clip-path"><path id="Path_1013" data-name="Path 1013" class="cls-1" d="M13.69,88.23c17.84,28.2,91.75,30.53,107-3.84,11.6-26.1,6-92-58.47-77.7C37.84,12.09,36.79,27.54,19,35.18-2.62,44.46,8.2,79.55,13.69,88.23Z"/></clipPath><linearGradient id="linear-gradient" x1="51.77" y1="9.8" x2="51.77" y2="106.96" gradientUnits="userSpaceOnUse"><stop offset="0" stop-color="#6270b6"/><stop offset="0.85" stop-color="#44305f"/></linearGradient><linearGradient id="linear-gradient-2" x1="73.09" y1="9.8" x2="73.09" y2="106.96" xlink:href="#linear-gradient"/></defs><path id="Path_1013-2" data-name="Path 1013" class="cls-2" d="M13.69,88.23c17.84,28.2,91.75,30.53,107-3.84,11.6-26.1-33-71.21-56.2-61.86S51.82,49.3,34,56.94C12.41,66.22,8.2,79.55,13.69,88.23Z"/><path id="Path_1014" data-name="Path 1014" class="cls-2" d="M126.47,52.54c3.81-2.86-1.1-14-6.52-11.27C112.23,45.23,123.27,54.94,126.47,52.54Z"/><g class="cls-3"><path class="cls-4" d="M72.35,48.72a12.31,12.31,0,0,1-1.8,1.42,13.77,13.77,0,0,1-2.47,1.35c-.45,0-1.2,1-1.87,1.57a15.76,15.76,0,0,1-3.15,1.2,4.68,4.68,0,0,0-1.05,1s-10.86,2.1-15.2,3.67-19,10.86-19,10.86c-1,0-3.14-1.34-4-1.72a2.53,2.53,0,0,0-2.55.68,4.92,4.92,0,0,1-2.47.89,2,2,0,0,0-1.57,2c-.15,1.13-.53.9-1.43,2s.3,3.3.3,3.3-3.52.59-4.57,1.79S9.36,84.15,9.13,86s.9,2,2.4,3.07,2.25,1,2.25,1a4.59,4.59,0,0,0,1.58.74,1.36,1.36,0,0,0,.51.69c1,.52,2.62-1.95,3.07-2.7A30.8,30.8,0,0,1,22.31,85a10.18,10.18,0,0,0,2.25-3.67,16.85,16.85,0,0,1,1.87-3.22A12.12,12.12,0,0,0,33.18,81s-2.85,3.07-4.95,5.17S19.62,98.3,19.62,98.3s-4.8,4.12-5.1,4.87.53,2.32.53,2.32c-.68.68-2.7,3.52-2.7,3.52a4.07,4.07,0,0,0-1.42,0c-.6.15-3.3,2.7-3.3,4a5.79,5.79,0,0,0,.62,2,1.64,1.64,0,0,0-.54.24.94.94,0,0,0-.88,0c-.31.24-.15.69.11,1.35-.72-.36-1.22-.42-1.49-.19a.53.53,0,0,0-.14.58,1.65,1.65,0,0,0,1.33,1l.73.05a.66.66,0,0,0,0,.14,1.27,1.27,0,0,0-.93.14c-.08.08-.26.27.17.86-.23.07-.44.12-.53.33A1.9,1.9,0,0,0,6,120l-.12.09-.21.18a.65.65,0,0,0-.53.25,1.38,1.38,0,0,0-.06.16c-.37.26-.73.53-.8.77,0,0-4-.2-5-.4s-4.23-.56-5,2.6a2.16,2.16,0,0,0-.72,1.08,6.65,6.65,0,0,0,0,1.41l-.35-.06c-1-.2-4.24-.56-5,2.6a2.16,2.16,0,0,0-.72,1.08,4.53,4.53,0,0,0,.4,2.6,15.68,15.68,0,0,0,4.68,1.46h.07l.45-.13a.16.16,0,0,1,.2.15.14.14,0,0,0,.12.15c1,.2,2.14.38,3.23.49a.15.15,0,0,0,.16-.08l.11-.22a.16.16,0,0,1,.17-.08l.32.08a.16.16,0,0,1,.11.1l.06.19a.18.18,0,0,0,.14.11l.25,0c1.15.07,2.16.1,3,.1a.15.15,0,0,0,.15-.13l0-.14a.15.15,0,0,1,.14-.12l.46,0a.16.16,0,0,1,.15.09l.1.22a.17.17,0,0,0,.15.09,10.9,10.9,0,0,0,3.22-.44,27.56,27.56,0,0,1,4.28-.92c.4,0,.52.52.92.76a21,21,0,0,0,4.19,0,.16.16,0,0,0,.13-.09l.07-.13a.15.15,0,0,1,.24-.05l.21.18a.12.12,0,0,0,.11,0l2-.12.77-.07a.15.15,0,0,0,.12-.1l.06-.13a.16.16,0,0,1,.26,0l.11.13a.14.14,0,0,0,.14.05,7.36,7.36,0,0,0,2.34-.64c.28-.18.13-3.35,0-4.28l.15.14a.21.21,0,0,0,.11,0l2-.13.76-.07a.16.16,0,0,0,.13-.09l.06-.14a.15.15,0,0,1,.25,0l.12.13a.14.14,0,0,0,.14.05,7.36,7.36,0,0,0,2.34-.64c.32-.2.08-4.28,0-4.52a1.28,1.28,0,0,0-.42-.47c.06-.26.09-.44.09-.44s2.12-4.19,3-4.77a40.27,40.27,0,0,0,4.21-2.61,22.14,22.14,0,0,0,3.1-3.86c.8-1.33,6.91-7.22,8.24-9s3.72-5,4.21-5.14a1.07,1.07,0,0,0,.66-1c0-.36,1-1.33,1-1.33s1.11,2.53,2,4.21a51.36,51.36,0,0,0,5.67,7.31c1.9,2,9.7,13,16,19S90.53,132.9,92,133a24.11,24.11,0,0,0,4.61-.45,1.52,1.52,0,0,0,.79.45,33.62,33.62,0,0,0,6.87-1.51c1.46-.62,3.81-3.28,4.79-4.34s3-2.93,3.85-3.86,1.24-5.36,1.42-7.31,1.51-8.77,1.77-11.52a61.52,61.52,0,0,0-.4-9.93c-.26-2.83,0-9.26-.44-14.17a105.78,105.78,0,0,0-4.34-19.28c-1.29-3.23-7.4-11.48-8.38-12.19S99.3,44.37,99,43.75s-1.1-.84-1.55-1.15-.53-1.69-.84-2a2.84,2.84,0,0,0-1.59-.71c-.71-.13-.49-.62-1-1a2.1,2.1,0,0,0-1.55-.09C84.24,40.24,75.16,46.74,72.35,48.72ZM16.25,87.14a1.38,1.38,0,0,0-.25.17l-.43-1.07L17.67,83l.41.75S17.67,86.39,16.25,87.14ZM6.7,117.57a1.26,1.26,0,0,1-.84-.51.39.39,0,0,1-.08-.2c.06,0,.34,0,.94.26a2.55,2.55,0,0,1,.49.3c0,.07,0,.13.06.19Zm.47,1.18h0a.52.52,0,0,0-.16.14l-.09-.15ZM74.33,81.93s-7.21-8.37-10.4-9.8a52.27,52.27,0,0,0,6.12-2.39s3.45,2.71,4.28,4.76a9.59,9.59,0,0,0,0,3.76A8.89,8.89,0,0,1,74.33,81.93Z"/><path class="cls-5" d="M54.22,19.2a5,5,0,0,1,1.44-3s-.16,1.32.32,1.28c0,0,.71-2.6,2.17-3.44,0,0-.19,1.28,0,1.2s.72-3,3.67-3.92,3.93-1,5.19-1.41,2.09-1.62,5.39-1.75c4.57-.18,8.32,2,11.26,5.42A20.69,20.69,0,0,1,87,18.77a18.61,18.61,0,0,1,1.23,8.12,40.76,40.76,0,0,1-.32,4.55,8.25,8.25,0,0,1-.47,2.36C87.65,36,89.15,38,92,39.13c-2.8,2.89-11.83,14.33-13,13a6,6,0,0,1-.78-1,1.42,1.42,0,0,1-.14-.23.64.64,0,0,1-.08-.14l-.08-.13-.07-.12-.08-.12,0,0A2.08,2.08,0,0,0,77,49.8h0a2,2,0,0,1-.68-.7,4.45,4.45,0,0,1-.32-.66l-.09-.21a2.38,2.38,0,0,0-.56-.84,1.84,1.84,0,0,0-.22-.17.71.71,0,0,0-.14-.1l-.1-.06L74.76,47l-.16-.07-.17-.05-.18,0-.2,0h-.46l-.25,0-.28,0a10.69,10.69,0,0,0-1.38.33h0l-.16,0-.06,0-.12,0-.06,0-.13,0h0c-.44.13-.78.25-1.08.33h0l-.1,0h0l-.09,0h0l-.08,0h0a2.77,2.77,0,0,1-2-.3c-1.44-.65-1.65-2.34-2-2.92s-1.09-.37-1.39-.89a1.43,1.43,0,0,1,.11-1.22,1.37,1.37,0,0,1-.7-.07c-.4-.13-.48-.38-.48-.76s-.19-1.4-.76-1.55-3.37.76-3.37-.72c0-2.81,1-5.71,1-6.68s-.84-.61-1.41-1.52c-1-1.5-.58-6.25-.33-8.62l0,0S54.2,22.7,54.22,19.2Z"/></g></svg>